<mxfile host="app.diagrams.net" modified="2020-10-23T17:09:19.826Z" agent="5.0 (Windows NT 10.0; Win64; x64) AppleWebKit/537.36 (KHTML, like Gecko) Chrome/86.0.4240.75 Safari/537.36" etag="-tTXBRfflyHVvvd4eSka" version="13.7.8" type="github" pages="2">
  <diagram id="O5oqriAKqBpvd__LWGR2" name="usecase-build">
    <mxGraphModel dx="1339" dy="802" grid="0" gridSize="10" guides="1" tooltips="1" connect="1" arrows="1" fold="1" page="1" pageScale="1" pageWidth="850" pageHeight="1100" math="0" shadow="0">
      <root>
        <mxCell id="0" />
        <mxCell id="1" parent="0" />
        <mxCell id="qG5oZKhEG7zA3qGjVQWN-8" value="1" style="edgeStyle=orthogonalEdgeStyle;rounded=0;orthogonalLoop=1;jettySize=auto;html=1;entryX=0;entryY=0.5;entryDx=0;entryDy=0;" edge="1" parent="1" source="qG5oZKhEG7zA3qGjVQWN-2" target="qG5oZKhEG7zA3qGjVQWN-5">
          <mxGeometry x="0.6944" relative="1" as="geometry">
            <mxPoint as="offset" />
          </mxGeometry>
        </mxCell>
        <mxCell id="qG5oZKhEG7zA3qGjVQWN-9" value="2" style="edgeStyle=orthogonalEdgeStyle;rounded=0;orthogonalLoop=1;jettySize=auto;html=1;" edge="1" parent="1" source="qG5oZKhEG7zA3qGjVQWN-2" target="qG5oZKhEG7zA3qGjVQWN-4">
          <mxGeometry x="0.4764" y="-11" relative="1" as="geometry">
            <mxPoint x="1" as="offset" />
          </mxGeometry>
        </mxCell>
        <mxCell id="qG5oZKhEG7zA3qGjVQWN-10" value="&lt;div style=&quot;text-align: left&quot;&gt;ASSEMBLIES_FILE=pc-&lt;font color=&quot;#ff0000&quot;&gt;uk-mewtwo-adaptive-icc-mssql//assemblies.yml&lt;/font&gt;&lt;/div&gt;&lt;font color=&quot;#0000ff&quot;&gt;override_RELEASENAME=newlyGeneratedUsecaseReleaseName&lt;br&gt;&lt;/font&gt;&lt;font color=&quot;#330000&quot;&gt;ASSEMBLY_FILTER=prod&lt;/font&gt;" style="edgeStyle=orthogonalEdgeStyle;rounded=0;orthogonalLoop=1;jettySize=auto;html=1;entryX=0.5;entryY=0;entryDx=0;entryDy=0;" edge="1" parent="1" source="qG5oZKhEG7zA3qGjVQWN-2" target="qG5oZKhEG7zA3qGjVQWN-6">
          <mxGeometry x="0.5823" y="-5" relative="1" as="geometry">
            <Array as="points">
              <mxPoint x="220" y="1423" />
            </Array>
            <mxPoint x="1" as="offset" />
          </mxGeometry>
        </mxCell>
        <mxCell id="qG5oZKhEG7zA3qGjVQWN-15" value="3. call" style="edgeLabel;html=1;align=center;verticalAlign=middle;resizable=0;points=[];" vertex="1" connectable="0" parent="qG5oZKhEG7zA3qGjVQWN-10">
          <mxGeometry x="-0.7619" y="-2" relative="1" as="geometry">
            <mxPoint as="offset" />
          </mxGeometry>
        </mxCell>
        <mxCell id="qG5oZKhEG7zA3qGjVQWN-2" value="software-use-uk-mewtwo&lt;br&gt;feature/adaptive-icc-mssql" style="rounded=0;whiteSpace=wrap;html=1;align=center;verticalAlign=top;fontStyle=1" vertex="1" parent="1">
          <mxGeometry x="55" y="1167" width="440" height="151" as="geometry" />
        </mxCell>
        <mxCell id="qG5oZKhEG7zA3qGjVQWN-3" value="Jenkins&lt;br&gt;&lt;br&gt;gdsBuildUsecase(blueprintAssemblyOverride:&lt;font color=&quot;#ff0000&quot;&gt;uk-mewtwo-adaptive-icc-mssql&lt;/font&gt;)&lt;br&gt;&lt;div&gt;&lt;br&gt;&lt;/div&gt;" style="rounded=0;whiteSpace=wrap;html=1;verticalAlign=top;align=left;" vertex="1" parent="1">
          <mxGeometry x="63" y="1214" width="424" height="61" as="geometry" />
        </mxCell>
        <mxCell id="qG5oZKhEG7zA3qGjVQWN-4" value="e1-bp-create-client-environment/master" style="rounded=0;whiteSpace=wrap;html=1;align=center;" vertex="1" parent="1">
          <mxGeometry x="569" y="1203" width="279" height="59" as="geometry" />
        </mxCell>
        <mxCell id="qG5oZKhEG7zA3qGjVQWN-5" value="e1-bp-create-v2-client/master" style="rounded=0;whiteSpace=wrap;html=1;align=center;" vertex="1" parent="1">
          <mxGeometry x="569" y="1148" width="275" height="48" as="geometry" />
        </mxCell>
        <mxCell id="qG5oZKhEG7zA3qGjVQWN-14" value="1" style="edgeStyle=orthogonalEdgeStyle;rounded=0;orthogonalLoop=1;jettySize=auto;html=1;entryX=0;entryY=0.5;entryDx=0;entryDy=0;" edge="1" parent="1" source="qG5oZKhEG7zA3qGjVQWN-6" target="qG5oZKhEG7zA3qGjVQWN-13">
          <mxGeometry relative="1" as="geometry" />
        </mxCell>
        <mxCell id="qG5oZKhEG7zA3qGjVQWN-20" value="checkout" style="edgeLabel;html=1;align=center;verticalAlign=middle;resizable=0;points=[];" vertex="1" connectable="0" parent="qG5oZKhEG7zA3qGjVQWN-14">
          <mxGeometry x="0.0018" y="23" relative="1" as="geometry">
            <mxPoint x="-23" y="20" as="offset" />
          </mxGeometry>
        </mxCell>
        <mxCell id="qG5oZKhEG7zA3qGjVQWN-25" style="edgeStyle=orthogonalEdgeStyle;rounded=0;orthogonalLoop=1;jettySize=auto;html=1;entryX=0;entryY=0.5;entryDx=0;entryDy=0;" edge="1" parent="1" source="qG5oZKhEG7zA3qGjVQWN-6" target="qG5oZKhEG7zA3qGjVQWN-24">
          <mxGeometry relative="1" as="geometry">
            <mxPoint x="712" y="1746" as="targetPoint" />
            <Array as="points">
              <mxPoint x="373" y="1558" />
              <mxPoint x="373" y="1898" />
            </Array>
          </mxGeometry>
        </mxCell>
        <mxCell id="qG5oZKhEG7zA3qGjVQWN-26" value="2. checkout &lt;b&gt;blueprint &lt;/b&gt;software-use-uk-mewtwo/blueprint/pc-uk-mewtwo-prod-assembly.yml" style="edgeLabel;html=1;align=center;verticalAlign=middle;resizable=0;points=[];" vertex="1" connectable="0" parent="qG5oZKhEG7zA3qGjVQWN-25">
          <mxGeometry x="0.4004" y="2" relative="1" as="geometry">
            <mxPoint x="-83.01" y="-3.5" as="offset" />
          </mxGeometry>
        </mxCell>
        <mxCell id="qG5oZKhEG7zA3qGjVQWN-6" value="e1-bp-create-usecase-environment/master" style="rounded=0;whiteSpace=wrap;html=1;align=center;" vertex="1" parent="1">
          <mxGeometry x="30" y="1528" width="305" height="59" as="geometry" />
        </mxCell>
        <mxCell id="qG5oZKhEG7zA3qGjVQWN-13" value="&lt;b&gt;stack-da-saas-prod-ucb-uk repo&lt;/b&gt;&lt;br&gt;&lt;div&gt;&lt;i&gt;|&lt;font style=&quot;font-size: 13px&quot;&gt;-&lt;span style=&quot;color: rgb(23 , 43 , 77) ; font-family: , &amp;#34;blinkmacsystemfont&amp;#34; , &amp;#34;segoe ui&amp;#34; , &amp;#34;roboto&amp;#34; , &amp;#34;oxygen&amp;#34; , &amp;#34;ubuntu&amp;#34; , &amp;#34;fira sans&amp;#34; , &amp;#34;droid sans&amp;#34; , &amp;#34;helvetica neue&amp;#34; , sans-serif ; background-color: rgb(255 , 255 , 255)&quot;&gt;pc-&lt;/span&gt;&lt;span style=&quot;background-color: rgb(255 , 255 , 255)&quot;&gt;&lt;font color=&quot;#ff3333&quot;&gt;uk-mewtwo-adaptive-icc-mssql&lt;/font&gt;&lt;/span&gt;&lt;/font&gt;&lt;/i&gt;&lt;/div&gt;&lt;div&gt;&lt;br&gt;&lt;/div&gt;" style="rounded=0;whiteSpace=wrap;html=1;align=center;verticalAlign=top;fillColor=#fff2cc;strokeColor=#d6b656;" vertex="1" parent="1">
          <mxGeometry x="649" y="1461" width="739" height="304" as="geometry" />
        </mxCell>
        <mxCell id="qG5oZKhEG7zA3qGjVQWN-16" value="" style="shape=image;verticalLabelPosition=bottom;labelBackgroundColor=#ffffff;verticalAlign=top;aspect=fixed;imageAspect=0;image=data:image/png,iVBORw0KGgoAAAANSUhEUgAAAFQAAABuCAYAAAC5ijQKAAAgAElEQVR4Ae2dZ1gUSfe399k17IoiSeIwA0wOzDADA0jOAgoioGJAksiaUTFj2lVMa9Y1iznnnBMqZgExrzln3fh8+73XKbdnAUERkfV5/37oq3q6e7qr7j516tSpU9Vf/fe//8WXrfoYfPUFZvXBJJZfgFZzDf0C9AvQ6q2i1a3yvkjoFwn9IqEfbZY9evIEhcUXkJ9/HDt37MCOHTuwe/duHD9xAsWXLuPZ8xcf/YzqqvqfbZV/+OABlixejOTEDtC7uUEilUIoFELA54PP50MgEEAkEkEqk8HT3QOdM77H+nXr8PLly38V7mcH9GDeEaQmp8Lc3ByWFhawNrNA3Vq1oZVL0D25Jab+kIl54wdg8vCe6N+lPQK99DBt2BB16tSBsbExLCwsMGnixH8N6mcB9I8//sCR4yfQIro5ateujXr16sHexhYWpqYI8nbDxkVT8OjSYby6ebzc7da5Pdi6eDLaxkWjoXEDfP3115CJJTh+6jT++uuvGoX7rwKl6nn2XAH6ZvWFk5MTWjSPQW5uLkbmjIaXTo2fx2bjbtF+A8SX14/ifduZfavQNbkVrCxMYWfHw8YNG/Dq1asag/qvACWJvH79OqZMmQI/Pz+kpaZi2dKlWL9hI7J690ZMRCDyty9iIAngi2t5bHtStBWPCza/d3t5cQe2LhwHlVQOJycRFi5ciGfPntUI1BoH+vvvv+Nofj5SUlLg5+uHceN/wvYdOzF29BgEejXGoMwMUBWm6v3y+hE8Ld71XoDlQX5evA2H1s6Ai1IBmUyGJUuW4uXLTy+pNQqU9Nm5gkJERTdHZEQklixfgcVLl6Ff336ICGuCWWOz/wZ5DM8v768yzJKA184ZCY1CBBedDjt27gLVjuoykcq7T40Cff78BbKzhyDAzx/rN27CkmUrkNmzF5qGR2DM0H54cSMfr27k4+mFqkllSZC0/6RoGx5f3I/caT9A7shHQsvWuHr16v8/QG/fug2lQoFOHTuhc/r3UMmVsLe3R+voMFw6toVJ5+sre0tV8WcX9+DFtcO4fmILHp59v/40QC3cgltntmPKyP7ISE6Al04DK4tGyF24CL/++usng1pjEnrvwUPEx8YxU8jRwQGt41th1I8jMXTIEHRo3QLXT+9kQJ8UbjEAfXphN66d3I5h/XvAxVkBmZCP3csmGc4b4JXTUD0r2oqZo/tDp5RBI5PDtIEpLExM0aF9Iu7dvfe/D1Ts4AiLhibQa3VYuXIV8o7mY8XKVcgenA29zhWX8rfgSeE/rTg1RsV5a5HQPAS21tZoG9ME/Tq3w8JJ2ZUC+vDcJhTuycXDMxtx+/gaLJs+DBqFErVrf4uCgoL/baBTJk/GV199hbDgEBzIy8PcBbno1DGdbWkpaVBKZbh4dFMpULdObEC/7qmIDGqMoxtngUyh15errlup1d+1bCKUEkcsWrr0kzVOn7zK//b775A5iVi3cOfefZgxfTo6pnZEl++7sC01KQUB3t64lrfSAPRp0RYcXvczOrWLxc6lE0HV913Vu7LnXl7Yjh5pbTCgXz+8fv36k0jpJwd66eo1WFpaIblDElavXVcKJkFtGRePjm1jcefEWgM00qNHNs7G/AnZeHh2o+E4B46OPTxbWqK5c+Wlj85twv3T69mLWTFjOBLiY/HixafxUH1yoAcOHWaOjvHjxjF9yUkml4aHNkHOwC6swCVhkA4sDyZdc+/sVuRt+PktyaXrb+WveesFPCrciuNb5+PSwaU4sWUOXJRSPH369H9PQh88fIisXn1gatwQBJSDWDL19PLDkmnD8eDMhrdAlATM7ZPBf7/4AIb1Tnvr+nun1mPu2AGljpMtSmbXspk52Jo7FhcPLoUT3xZPnjz53wJ65+499O0/AAJHISxNzZh5VBIkt6/We2HrksqZQi+Kt+PVzXw8upyHWeOzsW3RODw7v80A8GnRVjQPC8CF/Yv/OVa8i5lje1bNxKzRfXFq+zyIHOywatWq/x2gd+/dR5++/WBiz0cbkQhmZuYY0K8/khKT0CQ0DM0imyKpfQcmsW46PWt4OAl8V0rAXl/dh1dX9uLE1vno3iEexzbNwrPzbxqtVxd3YPTAzujVMYFZBXSvm/lrcGTTXKybNxrRoT5YPCUbQoET826tWbOm2qFWuw598fIlfhyVg/rWNkiViHBA7wJLOx6kTkIYNzDGd99+h3rf1YPA3h5xLWIR6OuPtXNGMXvxXTDp3N4Vk5EzIAPr5o7CosnZCPF2R3aPZJBJROepMbtyeBkszEywacEYvLiwHatmDoetlQWsLMzQNNgLRzb8DImTFKaWNqyXdvTIkWqFWu1A161ZC1MbW7SRiHC1sR5jVQrY2wvgxBdg+5KJeHwlD6f2LEdME184OTgypwj1aN4HkwP6bd06qF3rG9Sq9Q3c1DIc2zjLAJSueXVxJ/Pmm5k2xMUDS9iLOrh6GpNksgyeFm5hQMcoFTC35UEkFuP8xYvVBrXagJIn6cTx49C56RHA4+GY3hU3G+uhdhDAplEjFOVtwNUT27BgQjbOHFqPbatnwVevhafeHZ3ax5Uym94Ht3DPQqYnqVUnvVr2+teXdiIhOgx+7q64lrei1PlHBZshcbLHDp0zpqpVqG9nx7rE1eWErjagDx48QGpqGhxNTbFQq8Ezn8Y45e4KubkFxg/tyRqGtIRoWJmawc/DhY0Lfd8+BgJrK8Q3CcDNY6tLFbwspA/9ffnQUgQ01qNzYiyuHF5uuPft42shcuBjl06Ns+46dBaLwBeKMXHiJLyuBqdJtQAl6Vy8ZCmMjOqji1yKe17ueOTtid1uLhAZ1cOu1XMZ0JNb5yIhOhQzRvVBr46tQUb2z6P6MNuwIpvzQ0Fy15Mxv2/lFHjr1ej7fVtW/UnHFuzOhUIgwhE3F5xx12Gvmwv87XnQ+/jgcF7eR1f9agH68NEjuOpc4cOzxyl3PR56e+KKpx573TSQGhljfe5EBpT65NN+6IUbR1exfvXVw8tZw1HSw8QB+dD0afHON/7PEp6nR+c2Y8FPA+GuVWHZtKF4eWEH9q+aigihBKf0WgaUoE5XKyHk8dA3KwuPHj36KKjVAnT8+J/QsH4DTFYrDTCpOp3Qa+FuYY3B3ZMYULIPl00bxhqGuyfWggzxDwVX3vUk3c8uHwBBLXmeWv+NC8YiyMuDtfq/Xt6FpdOGortGxao7waR8HtS7oK2jA5RaLQukKM8TX9ljHw2U/Jx2tnYI4AtwrbE77nq5GzJb4K5DF7EIEr4drp3cwVpcanlLFro69nctnYBTO3Lx9G8jn5wg1AWdmZOFqFAfZPdMYXqU7NTBvTthhE6DAndXg4QS2NkaFaQWFsjOzv6oXtRHA501cxa+NmqAORoVk84LHm6GjNLb3+qqgZmVFRIT4t8C+fDMhgr76x8CelT/DNB2ducC7F81he27axVIadkUG+aNYg0eOV9u5a9GeFAg5jkrDXkkmLTtcXNBc0cHuHl5M2ulshJZ9rqPBqoWyfCNjS0eeHvigbeHQTq5jBZ6uCJLLkVdMwt0SmjOHBRUuJ+yu6FLYizO710Ectd9CEC6luxJkkTqepKd2T6uKQK8PNE6KhRjBnXGnuWTcOf4WlYrlk8fjolDe7ChZU+lHJvUbwOllz9apQDP1BTzc3Px62+/VUmXfhTQoydOwtTMDP3lUjz29kSRR+lqxEE97+GK9mIRvrKyQZ3axsxZIrC1wpIZOaBhjsrCJPuSrr15bBW6dIjH3HEDcHDNNFw/spLBJR3Jbad3zMeCCYMQ6usOtVzIHCMzc/oi3VWDvBINEpdHUk/bXF3gbWuHtE4ZuH//fs0DHTdmLBpY2+KYXouH3h5vVSMus5QSVDKkfRwd0cjCBvHRUWy86PW1g6A+emWgUtADNUCkh8/smI+WTYNgbmqC+kYNYWJkgkamZqj1zTfIW/8zHHg8NDCqBxeFmDWE1ADGRoZhsEiE039X85L5o/3jei3ixCI4CEUorOIwSZUllKpEoJ8/hPZ8ZsQTsLIZLPubJJikox3fAZHBASjYv5K1/k+Ld5QCSv3x8gC/uHoIlw8tQ0JMJFMdZBaRGZQzoDMS45vCW6+Hm0bOqntmciumVs7uymWOkuUzRkDvrMR8Z0WF+SQpHaVSwMrICBs2bsQff/75wVJaZaCXr1yFQqFAR5GQASVdWRZgeb9JCobIJNBoVFi/cPJbQEkCl04dyhqY8nQr6c28dTOQldEOq2eNZNJKOpkG4+6eXMe6sDQoR7qVuqWcw6R9yyjE8/jY7+bylp7n8nnOXYcVWmfITEwwYviIKg2TVBno3j174OjoiElKGQPKZep9KSn/pS7O0NnYYHj/bsy3WVJCCeju5ZOQM+B71gEoDypJ79xxA+Gjd0XrqCB06dAC/bu0xeDuiWzrld4aV/OWM5h0vzlj+8FbLsY0lbzC6s7le5+bBm7W1oiPb4nnz5/XnIQuzF0IG4ED1riomBOEy9D7UgJK1b6zowAtm4bgzP7VoKr8uMQQMvWkcgZ0wdhB3ZnOLA8q6cTlM4aha1IcWkcFIzbCH21iQpDeNhrDeqcwU4mk88iGmfDy0iPegc8MeHr+u/J4Uq9FkEAAhVyBJ48f1xzQEcOGw8TBiVWh4kpWd64gVLUWalTwEdhj9oRheHo1r1S3kTxCp7bNQ/eUVpj2YyZofInMpJJ69UnBZpAOJfjUSJ3ft4jpVdK/VP3pWjrXJTEO5o0sESkUMpv4fUBJj6ZIJDAxqo+HDx/WHNDMHj1gJXBEkae+Qp3EASyZUoFI387UqCCytER0ZDCuUNTIjaOlgf0tXW1iQjF7TF88KaBAiNJQCRodIwnmNjpGPSLSq92T4iGwtoOjUAZrOx5aiUXMGfIuqJS37jIp6tepg4uXLtcc0LSUFDjY83Glsfs7q1BZmMf0OvSRyyDk8VmUMkUcz5k0Ak+vHsHrS6UDGcicoiGOMD89BnRpx+xPzhYtKa3cPjk/6DzFhupUCthZWkPr3xRB6YOh9giEvS0PQU5O2PW3p6lk3rh9AjpEIYNp3brIP3mq5oAmt0+Esz0fVysJtNDdFbPVSkj5AhjZ2UOs0cOlaVvIFDp8V8cEc8YOwJMrecz7RK43qs4EiqDS8G9GmxhInZwwe0w/VpWpBSeA1OrTPjlb1s0ZCf/GHvjmG2P2soRiGbRN2yGoUzZCOg+HUu8HKx4fznwHbHfVMNuYA8mlBHQYB/TEyZoDmpacAhVfUG6vg8scVa0Teh1W6ZwRJ3TCd3wHCOUu8Ezohog+P7HNp0MfSGVqfFu7Fny9vDEjZwDWzh2NfSunYt+KyRjcLQn+rloE63UQOjriP7UbwsbMHG1bNEFWp7bo3D4WrSKDIHMSwNLCFPY2NFbEh0TgwGaL8Ph8OPs2QViPHARnDIFS7wu+nT0c7flYq1O/VbtKAj1+qgYltHNGBhwEDjhUTjeOQFJvZKebC/rIpTC148FRooJbaBwrFAczPHMMQrr+AG1ESwh4tohr3gIL5i/AiOHDkZqUDJ2LFhpLKwyXS5GtVMBf6AQpTafhC9gAW6CnHu5qNZJiI1hffXjfdHirFHB3csQ6nQuTQNLVPKUL3KITEZiezaTVxScUTgIHCPkCHCmTfwI6WCGDSd26KCg6X3MSOnjgQFgJHLDDVVPqLZ/62wtOvtFIR0c4Okmg8gyEX+oAg1SG9xqL4M7D4NuhD/SxadBFd4BzUBR4jjJk9umPDevX4/Sp0xg8YgS6ipyYWfbE2wOXPN2w3U2L3nI5fCRiNA31x5DMjpiW0w/DszIQplZitFKBq5563PJyxwUPV+zV6xCmcIbavxl7lm9yP9Dzdd7B+M6Oh3Va51L5J6DpUgnq1amDq9eu1RzQqVOmwELggKWafzw3JJUrdWokiMUQ2ljDXqqCPjIBTXqOZjDDe49DQHo2fBJ7Qx/XkYEkmNymiUiAg6sf1O4+aNYsGlpXPQaIhbjo6cYsAyrs9cZ6/NJYj11uWnQRS+BjYYMEngDNbe3RwUmI3W463GqsZ5CopuzXu6C92gVS/2aG53gn9oYmNBbmPHtm9nEqilIy6SJEQljb2FbJe1/lntKmjRvBdxJiglLOCkuZz9drkSmXwZRnD5mLHl4JndGEqvX3w+CfNhBe7XrCrUWqoWAcyLKpukkriPT+MBMqMNRZhcuebwBxBadnFXi4YZRKiRYiIXa4abHF1QUxQiG2uGrB2cV0HVXpNI0WAr9/gNLz+Ao1woVClnfuvpQe0rtAz+MhLDyiSjNHqgz0zLlzbLpgZ5HQUICjei26kc4Uy+AZl4rwXuMQ/P1QuLfMqBTIUmCjEmHXOBh91c7lugWpsaNGpYtMiv4KObKcHBDEGkkdyw85YjhnTCedG6RBMaVepKXACWNUilItPUnnRp0GzqYm6NOnT5XmN1UZKMWp63Q66O35BqBU5cc4K2BpZw9tcAzCeoxCYNpAuMUklypMKXAlqnzZ447+Ueihc2UdB5K2kpJEv8nR0VYihtZZjV4ZGchISoazhQXaikXIlksxUeLIoAVp9SB1wt1fE94adewF2OOmKdUpoV7SLLUSDvWNMHf+AtAUoLIe+ff9rjJQunHP7j1QT+CAPP2bIVl6w6u0avgKBJC6eiOg42BE9B5vaHi4AlU21US2QSu9N+sy0r1LAt3lpkG4nS2bfZeXfxwXL1/BtV+uY/369YiLbg6fZnFo22cYgsObwVEkhTrkHwkV+YUjXiIuJZ10bwLaVS6F0Xff4cSJEx8Mk5h8FFCa9mdiYoLJzipD5mgEsb1EzBS+d6sM1hiV1wBVFqqTmy/GqZXMDCMLggo+y1kBvaMQrgFh8Pf1w6pVq3Hz9h3MmD6DedqHZGej/fDJGLLmAAYt24nopAyI5GrWkaDnWovkmOSsNOSZe1EksUF2tgiPbIob12/UPNA79+6DLxDAw8GxlPSMdlZAaGsHbUgsq/be7XsZqtu7QLpEtnnrOgf/KKRoXLBM64wJzgrEi4SwcXZF+oT56Ju7Gd6x7dCmfSLOFhRi3779eP7sOQho0sjpDGj/RVvQLLkrlI1D2L1dmrWDqVDKqjsHklKqAQs0KshNGiInJ6dKrruPllC6QdcePfC1uTlyNSqWKcrYBp2a9Zmd3HwQlDEUwZ2y3wJVFqy2WTvIPXzfMqeoeyrRecFOokA9ayu4+4ei74INDBZJYNqoGfAOaoIVK1bizp07uP/gIQb2H4Bes1Yhe9VepPwwGbqgSIN0ChsHI1IiLSUApI+P698MedO8KVrcgMpWle2jqjw9sLCwkOkcMl+4N06mSrJUDAehBL7tejI9WhZg2d/qsJZQaD0R2HHwW/AJqsInDAqFEn3mrTPAJKCDl+9CSNs0dM/sheUrV+Fg3lF0TE1Dv9zNyJq/AQHxidAEt2D3pJdmKVNjhFJeqjEiISCLwcPaGh1S03DjRtWqO/H4aKB0k7YJCTAzNcUilzdSSsqdxuld7flwi0pEeObYtyBVBJQ6AWXP0W+pxh2e/sHoMmVxKaAE9fvxcxAQEYWFS5bi7v37iGwSzqQzNXs0lF7Bhvupg5pDJFGwGsS9fE46B8gkEAtFbHo5zVypinRWG9DzRUVoWM8IEUIhM4wpkxRoS31vWWBzhPUcDX3LDEPBygPGPE+NA1mvqrzzUo8ASMRSaPXuaNWpJ7pOX2YAO3jFbvhHt8SPP/zIJiMEhDbBwCXb4eEXDHUJc0ns5oM4iYQ5dMhGpZ4XvfzlWmdoaNijdQKufORc0GqRUIq+69+vHxoZG7NRQ8okQW0pEUOq9URYtx/hm9j7nUAJoiq4RYVAXZq2gXNgc0hkKoidhHDRatEirRt6zFzJwCaPmISgwFBs2bYdzRNTEd4uDSq/poZn0guzULlihEqOk3odNuvUGCiXIpyGOxpZsiHozl264s69j5u2WC1ASdSvXL4Md3cP6G1tsUarZsb+UKUMSr4D80X6J2UZCleeBNIx59D4CoFy/9FGtoE6JBYSuRqOPB5kYjGCY1qh48gpcPX0Q1hIKHyDQ+Cs94U2KtHwTKVnEHROQgxXytFUJIKNPR/GtetAYGnL4pnatk6ApXkjjBw9Gk8/YrGCagP6+x9/YOXq1fhPvXqIEQuZsU96lGfRCJ6tO1fYMKkCm8Ll72qpCYl6L1AD2KbtoPKLhETuDL6tHexMG8LB1obtk2vOOSQWcq8AKDz8oNLo2Rok5K5rYGaB/3zzDSKahDN9ST0+mkP/9Okz9MzMhE6rxfH8/H9Xh3IKnGIrKXrN3MyM+RTX69QQNWoEXUwKM/A5GP+kiSBHiKNQCqnKFXKNO/NZyv2jIPNuAqnOEwqtBxxlSjg5CmFvZQNrY1NYGZvCxLgh27cxtYDAxhYOvDdOY4rlFzo4MicyLQTDs7SGtbEZeBZW4FvbsiU4Ll2+wqKVaVSz5BTFo0ePwqtxY8ydN//fiW3iQJZMLxQXIyEhARIrK/STSiC2tIIqNP4toK7Nk0CGvNI/AhKJEo5OYgZFzHOAWCyGSqWCp4cnWrZqhaysvpgw/ifkLliAtWvWYNPGTWyjntqKFSswe9YsZPboCW8PT0ikCrj4hEPjEwZHgSNCAoPYtUkdkpCclIzrv/wCCl9fv2kL+vbJwr69+wzS+OTpM7RJaMPWQPlXYptKgiy5f/z4cUQ1awaFjS2cbGyh8A1nQEu67mjfNSaFeaH08emgzdLKlq1ic/r0ady7/wAvP2A1G4qinvnzTDSObsO8XGR+CZ31CA0NZdK4ceMmZKRnoODcOezetQsTJk5iTuyiwiLcuXPX4AgZ1Lc/dGoXnCsowF9VMO6rTYeWBEr7hw8fRkyzKPCsbCDTeTKgHgldDI0EVXuCSs5e8pXSZmQtxJMqNghkfy5ZsgQeUa3ZaEBA+mAI9b7w8vbGLzdu4sq1X5CSnIJdO3fhz7/+woXLV7Bi+Qps2byZzZ9/9ffs5JUrVrCImPWbNtdsbFNZgOX9PpKXB39vH4gl8nKB/qNL33jt61k74eTZc4YqWN49KzpGQNeuXQuVVyDc4zvBLTYVIr0v9FpX5B8/AQJGqzksWrwEZLhfv3kLNOnr5MmTDDgHNC8vD2q1GrNmz2HXVfS8io5/MgnlHtitcxcIBQ6VAmos02Hjps1VBrp9+w5IXNxBDhBdVCJkXmHQKp2xedMmds+kpCRMm/Ezg3vll+s4fuIkjhzLx7nzxaCJvgQ1/1g+3FxdMe/f8Idy0N6VDs0ewoZsaaSzbJUvK6E8z0D8NP6nKgPds2cPpFoPA1C5TziUEilmz5zF9HGn9E4YN3YsLl25CgJK241bt9l2++495gKkl0ISSh2EP2synPFdEEueG5MzBrxGVpWSUFVILHpn9qoeoNEdoA5uwSyHHt17sCreK7MXKCbrzLkCHDt5CnsOHsL27duxZ+9enCkoBC2WMGzoMDQJCcXFKk5X/ORVfvrUacwWrExPiSQ2yD+gykCPnz4DPl9ucNVRj4pnbYPmzaIw8seRkMvkbO0TWv+ENi8PT+Y7XbZsGdPdCxctZjGvP+SMxrMqhDKSIH1yoDQv3d7cCraWVpBrPeESngByo5Wt7tzvRpZWoKk6JaW8MvvUKJ08cxYahQou4a3BuqiBUW8Mfj4fFOmycfMWJpmHjh6Do5MT2rVpix7dejBzytfbB5aWlkhPT8cvv/zywc/n8vjJgd6jOaDJKVCqVBA5OMLW2hYynRfrj1OhqfHgYFLayNoJp86c/eACEdCLV64iwNcPDmIlVC56prtFjk7o2q077j94UOqet+7cwcEDB7B0yRK2bdiwAefPF7OGiYNTlfSTA+UydbawCD8MHwF//wDIRGLY2PAgVuuh9A6DJqg56zURUDpGPSDuf5VNOaDhoWHwCwhAty5doZBIkdi23UdJXGWfz11XY0DpgeSEKCgswqRJk9loJfW5TU1MwOM5sF6N1M0XMrmaLfbCZbCyKZk91KhENW2GHXv3sTWbSXcO7Nf/g19OZZ9Z3nU1CpTLwG+//Y4LFy5i7rx56NmzJ2KbxyA4IBBBfv7MKxTepMkHQ6CFr6k3RKtE7D+ch4LzxcxiIL8C99yaSP8VoFzBfv/9DxZ2XVxczMbByQdAI5YqZ2fcun3ng0A8fvKU2ZXUG9qxZx9bpYFW4vH18wOtgcI981On/yrQ8gpHc9ZpBfBt27Z9EIQnT98AJa8TNTC0HPuC3IXQarXI/wj/Znl5fNexzw7o3bt3oXd1Q/agwR8ElIZhKNihd6/eWLd2LesN0cq5IqGQ/X4XhOo899kBpblBmT17okl4OMg/+SGFJaA5o3Iwfdo0bNy6HT179GBA165Z+0H3+ZBnlr32swNKniBaPdFdr8eJ4x8WX0RAydlMa9rTsDZNTPu+UwbIV1q24J/q92cHlAp69vQZuLvqmcO4sgWnSLnrt26D/Jl169bF5MlTcLkKEciVfV5F132WQO/du4f09E4ICwvDtq3bUHCuAHfu3gUtslWyIDS5lY49fPwYly5fRt6Ro5gzew6T0EPVsCBLyWdVdv+zBEoznekDAVRthU5OCA8PR3JKKnpnZWHUsB8wZdIkzJwxA7TQ67Ahw9CjR090SEpCXGwsUxV2trZV9hZVFlxF132WQCmzN2/cxMyZs9jQbouYGPj6+EIqlsDRlgeBHY+tVEa+AYmjEGqlCl6ejdE8Ohpduvdg1b6iAn/q458tUCo46UXqUl6+dAlnz54FDU8c2L+fDbLt2rmTpfv37WdDGWdOn8alixfZ4B6ZUJ8aXEX3/6yBVpTpz/n4F6BVGCp+1wv9rIFS1f3jjz9BfX6q/r/99lulVvem/7EQmyqMCb0LVmXOVQooZZBWL/z1199KbRSI8DGxlO/L4NNnz3Eo7yhyFy/F9BkzWC9o196979WP+w8cxIgRI7Bh8+Ya/wJYpYDSitq0wveC3F74nDkAAAd1SURBVFzMnjvPsC1dvoK5yd4HpqrnHz1+zIaVw0LD0MCoPmrXqoXROTnvBPrq1WsYGRmh3rffQcDjs4arqs+vyv8qBZT61/PnzUN002asYPW+/RZCRyfkjBqF0+c+3VcLuALNnzuPDQeb1TfGmPcA5RY2tDA1g0osw+7de975ArhnVFdaKaDcw8iLQ0ELVqbm6NCuPW7dvFUjmaWPVynFUpgaNXgvUMrr9m3b2YxmCi77kPgorpwfk34QUBrrkQpFbNXvjqmpbNZF2YeTN56igC9dvcrcaRXpWGo0yIdJ19M9yLNE/7lfzjofHwqU7kd6n+5ftrtK52iImM7RPsW10oDdzdu38fp1+V+xoaGbW3fu4tqNG3j+4gVevnrN/k8NJt2j5FZtQCnKorCoCN27dQeFvNASmHFx8YiNaYF9Bw6xh9KiKPGxsQgJCkZoUDBaxLRgVZK+9hUQEABXNzc2iJe7ILdUJssCJVgUHde+bTv2P/ov+UEPHs5Dq9atERUegXD/YERFRYOiSWjl2qnTpiM0IAgRAcHw8fbByB9HMZ8pqTG9uzvbMjMzcfly6XVGNm/ajGZNwtnEjKlTp6Fjx3REhEdg/rz55U6urTag9CUvZ4USzioV64dTDOagAQMgEjjA1tYOp86ewx+//46DBw+iaZNwJuVSkRhh4eGYOHEic7tZmVvAztoGGo0GR/L+Wb27LFCSCLI65syZw5YD+vnnmbh06TKbrHXlyhX4eDaGrYUlxA5OWL16NZNWivckpzXlx7qRJXwae4FCc+blLmSLHZjWawBrKyv8MHKkISSchplprJ6+I3r0WD4brqGPEkZHN0ef3n3KXTWnWoCSdNJHUoy/qwe/gEA2/ECFpg+XqiQy9m3OtJRUJnU09jN4yFA0qF+fBSGsWb2a2ZZ0D1pLjxoeGv6lZTS5qlQe0AvFF5CWmoazBUVvxSARONK3tNQ7AeXus2/vXrjrXGFtboFmEZHMrqXnUoAYBetaNDBBSvsO7AOE9J9+Wf3YtRIHJ2zdssVwn0OHDmHypMm4d/eu4Rj3jHcCJR1RUgdWpENJH9aqVQt8Gzv4e3mDzKltu/Zg1KjRbAF+4wYNIBdL2MNJd2UPHc6sBbVCiR3bdxgyNW/uXDT4ui4bt6cMc5nkgBLsUSNHsr69q8YF2YMGMSjcdVxKA33lAd2/f/8boGYWSE9LN9yfJq81DY9EIxNTVrVpAgbda8zo0ew+VK5GDUzZS5g9Zw7OF1+o8KthFQKlzzZu3LIFuYsW49atN615RUDPX7zEgFJMu4ebnknX8mXLsHLlShazSXGbFMZNmfwYoDbmjZCWnAovdw/25TCFXA76WkLZD/dVF1AaAVAqlWxtElsra6amjOsZQSmTY8GC3HK/eFMh0OVLl8Hc1IxJUkpSCoNBa4GQy8y8oSky0juBBtQIEoUEkoTaWVsjKCgIxRcqXmj/Y4BSVU3u0AEzpk1nVdHG0goREZEoKCxk+ahuCT196hSu37yJwYMGISg4GG46V0iEItg2smTtxfnzby/yUiHQfll9wafP6ZqZoVWrViw8mq13Z2kJ4/r1MXz4CMMndEgPuWg0sDY1h06tecsfSbbgtAlvqvDHAOXsUKo9rVu1RiMzc7YY18ABA0o1EJWR0K6duxpeQkVVPiQ4BNeuXWM6mmL+9+zejXYJCWxNKDMTU5w6+fa6ThUCXbJsOSxpjpGHB8jXePv2HXRKS4dR3W/h5+OLQ4cPGxoDMmNWr1wFB1seTBuaICoikg3dFhadBwUv9O7dB507dWEFuH//AQveql/PCA529li+bLmhypL5VPfrWhDY2GHQwEEGu3DWzzMhFjgyfdYrM5M9l8bvXbU6NGxgDJlEAtK/L/4OQaSBOYLvZGfPGg8u3JsaSbVEDgtjE8S3iDV8Rv3M6TMI9PWDeYOGLO9Ff0s8n8dD61atcOnSJQN86h02MDJCZHgEfrn2dpRehUAfPnyEESNHsZlpWX36sGEIZ6WKKfO9+/a9tR4HmTFLlyxFy7g4JjUSsRg+vn6gYNfJU6aC5ta/eP4CkyZMQkLr1ggODGLfqOuYkoazZ8+Bhnop6oO++UkBr0mJHbB6zRps2bwFXTt3YaZWaGAwOz5tylRmnE+fPgM+Xl7sXvTfyRMn46dx45l9StfSx1fp23ekvw8eOMhCc5qFRyI0MIiF7IwZPYZJNsWOxsW0AP2nVVw8i165f+8eW5grKysLvXtmMhOQPugaGhKK9okd2Nx8aow5NcOlFQKlC6j3QmK9a/cebN6yFceOHWO9o7KNAHczcq/RW6PrDhw4wDaatsJ1/8gFd/HCRRQVFeHChQtsO3fuHB4/ecJWUKCqxx0vPn8eN2/eZA0i7XPHKaXQHaoVjx49Bk3cpWOUsnsXFoFMKu764vPFuH37Nu7fu4+y9yEdSFC4a7mU8kcTwihv1BmhqThkWh08dIhFoVAjXdL64cpP6TuBchfS6CLpSe73/8WUXuCff75/aKVSQP8vAqxqmb8ALePcqCpI7n9fgH4BWtpdxknG55L+Px9A3ac8IOnDAAAAAElFTkSuQmCC;align=center;" vertex="1" parent="1">
          <mxGeometry x="63" y="1171" width="32.07" height="42" as="geometry" />
        </mxCell>
        <mxCell id="qG5oZKhEG7zA3qGjVQWN-17" value="" style="shape=image;verticalLabelPosition=bottom;labelBackgroundColor=#ffffff;verticalAlign=top;aspect=fixed;imageAspect=0;image=data:image/png,iVBORw0KGgoAAAANSUhEUgAAAFQAAABuCAYAAAC5ijQKAAAgAElEQVR4Ae2dZ1gUSfe399k17IoiSeIwA0wOzDADA0jOAgoioGJAksiaUTFj2lVMa9Y1iznnnBMqZgExrzln3fh8+73XKbdnAUERkfV5/37oq3q6e7qr7j516tSpU9Vf/fe//8WXrfoYfPUFZvXBJJZfgFZzDf0C9AvQ6q2i1a3yvkjoFwn9IqEfbZY9evIEhcUXkJ9/HDt37MCOHTuwe/duHD9xAsWXLuPZ8xcf/YzqqvqfbZV/+OABlixejOTEDtC7uUEilUIoFELA54PP50MgEEAkEkEqk8HT3QOdM77H+nXr8PLly38V7mcH9GDeEaQmp8Lc3ByWFhawNrNA3Vq1oZVL0D25Jab+kIl54wdg8vCe6N+lPQK99DBt2BB16tSBsbExLCwsMGnixH8N6mcB9I8//sCR4yfQIro5ateujXr16sHexhYWpqYI8nbDxkVT8OjSYby6ebzc7da5Pdi6eDLaxkWjoXEDfP3115CJJTh+6jT++uuvGoX7rwKl6nn2XAH6ZvWFk5MTWjSPQW5uLkbmjIaXTo2fx2bjbtF+A8SX14/ifduZfavQNbkVrCxMYWfHw8YNG/Dq1asag/qvACWJvH79OqZMmQI/Pz+kpaZi2dKlWL9hI7J690ZMRCDyty9iIAngi2t5bHtStBWPCza/d3t5cQe2LhwHlVQOJycRFi5ciGfPntUI1BoH+vvvv+Nofj5SUlLg5+uHceN/wvYdOzF29BgEejXGoMwMUBWm6v3y+hE8Ld71XoDlQX5evA2H1s6Ai1IBmUyGJUuW4uXLTy+pNQqU9Nm5gkJERTdHZEQklixfgcVLl6Ff336ICGuCWWOz/wZ5DM8v768yzJKA184ZCY1CBBedDjt27gLVjuoykcq7T40Cff78BbKzhyDAzx/rN27CkmUrkNmzF5qGR2DM0H54cSMfr27k4+mFqkllSZC0/6RoGx5f3I/caT9A7shHQsvWuHr16v8/QG/fug2lQoFOHTuhc/r3UMmVsLe3R+voMFw6toVJ5+sre0tV8WcX9+DFtcO4fmILHp59v/40QC3cgltntmPKyP7ISE6Al04DK4tGyF24CL/++usng1pjEnrvwUPEx8YxU8jRwQGt41th1I8jMXTIEHRo3QLXT+9kQJ8UbjEAfXphN66d3I5h/XvAxVkBmZCP3csmGc4b4JXTUD0r2oqZo/tDp5RBI5PDtIEpLExM0aF9Iu7dvfe/D1Ts4AiLhibQa3VYuXIV8o7mY8XKVcgenA29zhWX8rfgSeE/rTg1RsV5a5HQPAS21tZoG9ME/Tq3w8JJ2ZUC+vDcJhTuycXDMxtx+/gaLJs+DBqFErVrf4uCgoL/baBTJk/GV199hbDgEBzIy8PcBbno1DGdbWkpaVBKZbh4dFMpULdObEC/7qmIDGqMoxtngUyh15errlup1d+1bCKUEkcsWrr0kzVOn7zK//b775A5iVi3cOfefZgxfTo6pnZEl++7sC01KQUB3t64lrfSAPRp0RYcXvczOrWLxc6lE0HV913Vu7LnXl7Yjh5pbTCgXz+8fv36k0jpJwd66eo1WFpaIblDElavXVcKJkFtGRePjm1jcefEWgM00qNHNs7G/AnZeHh2o+E4B46OPTxbWqK5c+Wlj85twv3T69mLWTFjOBLiY/HixafxUH1yoAcOHWaOjvHjxjF9yUkml4aHNkHOwC6swCVhkA4sDyZdc+/sVuRt+PktyaXrb+WveesFPCrciuNb5+PSwaU4sWUOXJRSPH369H9PQh88fIisXn1gatwQBJSDWDL19PLDkmnD8eDMhrdAlATM7ZPBf7/4AIb1Tnvr+nun1mPu2AGljpMtSmbXspk52Jo7FhcPLoUT3xZPnjz53wJ65+499O0/AAJHISxNzZh5VBIkt6/We2HrksqZQi+Kt+PVzXw8upyHWeOzsW3RODw7v80A8GnRVjQPC8CF/Yv/OVa8i5lje1bNxKzRfXFq+zyIHOywatWq/x2gd+/dR5++/WBiz0cbkQhmZuYY0K8/khKT0CQ0DM0imyKpfQcmsW46PWt4OAl8V0rAXl/dh1dX9uLE1vno3iEexzbNwrPzbxqtVxd3YPTAzujVMYFZBXSvm/lrcGTTXKybNxrRoT5YPCUbQoET826tWbOm2qFWuw598fIlfhyVg/rWNkiViHBA7wJLOx6kTkIYNzDGd99+h3rf1YPA3h5xLWIR6OuPtXNGMXvxXTDp3N4Vk5EzIAPr5o7CosnZCPF2R3aPZJBJROepMbtyeBkszEywacEYvLiwHatmDoetlQWsLMzQNNgLRzb8DImTFKaWNqyXdvTIkWqFWu1A161ZC1MbW7SRiHC1sR5jVQrY2wvgxBdg+5KJeHwlD6f2LEdME184OTgypwj1aN4HkwP6bd06qF3rG9Sq9Q3c1DIc2zjLAJSueXVxJ/Pmm5k2xMUDS9iLOrh6GpNksgyeFm5hQMcoFTC35UEkFuP8xYvVBrXagJIn6cTx49C56RHA4+GY3hU3G+uhdhDAplEjFOVtwNUT27BgQjbOHFqPbatnwVevhafeHZ3ax5Uym94Ht3DPQqYnqVUnvVr2+teXdiIhOgx+7q64lrei1PlHBZshcbLHDp0zpqpVqG9nx7rE1eWErjagDx48QGpqGhxNTbFQq8Ezn8Y45e4KubkFxg/tyRqGtIRoWJmawc/DhY0Lfd8+BgJrK8Q3CcDNY6tLFbwspA/9ffnQUgQ01qNzYiyuHF5uuPft42shcuBjl06Ns+46dBaLwBeKMXHiJLyuBqdJtQAl6Vy8ZCmMjOqji1yKe17ueOTtid1uLhAZ1cOu1XMZ0JNb5yIhOhQzRvVBr46tQUb2z6P6MNuwIpvzQ0Fy15Mxv2/lFHjr1ej7fVtW/UnHFuzOhUIgwhE3F5xx12Gvmwv87XnQ+/jgcF7eR1f9agH68NEjuOpc4cOzxyl3PR56e+KKpx573TSQGhljfe5EBpT65NN+6IUbR1exfvXVw8tZw1HSw8QB+dD0afHON/7PEp6nR+c2Y8FPA+GuVWHZtKF4eWEH9q+aigihBKf0WgaUoE5XKyHk8dA3KwuPHj36KKjVAnT8+J/QsH4DTFYrDTCpOp3Qa+FuYY3B3ZMYULIPl00bxhqGuyfWggzxDwVX3vUk3c8uHwBBLXmeWv+NC8YiyMuDtfq/Xt6FpdOGortGxao7waR8HtS7oK2jA5RaLQukKM8TX9ljHw2U/Jx2tnYI4AtwrbE77nq5GzJb4K5DF7EIEr4drp3cwVpcanlLFro69nctnYBTO3Lx9G8jn5wg1AWdmZOFqFAfZPdMYXqU7NTBvTthhE6DAndXg4QS2NkaFaQWFsjOzv6oXtRHA501cxa+NmqAORoVk84LHm6GjNLb3+qqgZmVFRIT4t8C+fDMhgr76x8CelT/DNB2ducC7F81he27axVIadkUG+aNYg0eOV9u5a9GeFAg5jkrDXkkmLTtcXNBc0cHuHl5M2ulshJZ9rqPBqoWyfCNjS0eeHvigbeHQTq5jBZ6uCJLLkVdMwt0SmjOHBRUuJ+yu6FLYizO710Ectd9CEC6luxJkkTqepKd2T6uKQK8PNE6KhRjBnXGnuWTcOf4WlYrlk8fjolDe7ChZU+lHJvUbwOllz9apQDP1BTzc3Px62+/VUmXfhTQoydOwtTMDP3lUjz29kSRR+lqxEE97+GK9mIRvrKyQZ3axsxZIrC1wpIZOaBhjsrCJPuSrr15bBW6dIjH3HEDcHDNNFw/spLBJR3Jbad3zMeCCYMQ6usOtVzIHCMzc/oi3VWDvBINEpdHUk/bXF3gbWuHtE4ZuH//fs0DHTdmLBpY2+KYXouH3h5vVSMus5QSVDKkfRwd0cjCBvHRUWy86PW1g6A+emWgUtADNUCkh8/smI+WTYNgbmqC+kYNYWJkgkamZqj1zTfIW/8zHHg8NDCqBxeFmDWE1ADGRoZhsEiE039X85L5o/3jei3ixCI4CEUorOIwSZUllKpEoJ8/hPZ8ZsQTsLIZLPubJJikox3fAZHBASjYv5K1/k+Ld5QCSv3x8gC/uHoIlw8tQ0JMJFMdZBaRGZQzoDMS45vCW6+Hm0bOqntmciumVs7uymWOkuUzRkDvrMR8Z0WF+SQpHaVSwMrICBs2bsQff/75wVJaZaCXr1yFQqFAR5GQASVdWRZgeb9JCobIJNBoVFi/cPJbQEkCl04dyhqY8nQr6c28dTOQldEOq2eNZNJKOpkG4+6eXMe6sDQoR7qVuqWcw6R9yyjE8/jY7+bylp7n8nnOXYcVWmfITEwwYviIKg2TVBno3j174OjoiElKGQPKZep9KSn/pS7O0NnYYHj/bsy3WVJCCeju5ZOQM+B71gEoDypJ79xxA+Gjd0XrqCB06dAC/bu0xeDuiWzrld4aV/OWM5h0vzlj+8FbLsY0lbzC6s7le5+bBm7W1oiPb4nnz5/XnIQuzF0IG4ED1riomBOEy9D7UgJK1b6zowAtm4bgzP7VoKr8uMQQMvWkcgZ0wdhB3ZnOLA8q6cTlM4aha1IcWkcFIzbCH21iQpDeNhrDeqcwU4mk88iGmfDy0iPegc8MeHr+u/J4Uq9FkEAAhVyBJ48f1xzQEcOGw8TBiVWh4kpWd64gVLUWalTwEdhj9oRheHo1r1S3kTxCp7bNQ/eUVpj2YyZofInMpJJ69UnBZpAOJfjUSJ3ft4jpVdK/VP3pWjrXJTEO5o0sESkUMpv4fUBJj6ZIJDAxqo+HDx/WHNDMHj1gJXBEkae+Qp3EASyZUoFI387UqCCytER0ZDCuUNTIjaOlgf0tXW1iQjF7TF88KaBAiNJQCRodIwnmNjpGPSLSq92T4iGwtoOjUAZrOx5aiUXMGfIuqJS37jIp6tepg4uXLtcc0LSUFDjY83Glsfs7q1BZmMf0OvSRyyDk8VmUMkUcz5k0Ak+vHsHrS6UDGcicoiGOMD89BnRpx+xPzhYtKa3cPjk/6DzFhupUCthZWkPr3xRB6YOh9giEvS0PQU5O2PW3p6lk3rh9AjpEIYNp3brIP3mq5oAmt0+Esz0fVysJtNDdFbPVSkj5AhjZ2UOs0cOlaVvIFDp8V8cEc8YOwJMrecz7RK43qs4EiqDS8G9GmxhInZwwe0w/VpWpBSeA1OrTPjlb1s0ZCf/GHvjmG2P2soRiGbRN2yGoUzZCOg+HUu8HKx4fznwHbHfVMNuYA8mlBHQYB/TEyZoDmpacAhVfUG6vg8scVa0Teh1W6ZwRJ3TCd3wHCOUu8Ezohog+P7HNp0MfSGVqfFu7Fny9vDEjZwDWzh2NfSunYt+KyRjcLQn+rloE63UQOjriP7UbwsbMHG1bNEFWp7bo3D4WrSKDIHMSwNLCFPY2NFbEh0TgwGaL8Ph8OPs2QViPHARnDIFS7wu+nT0c7flYq1O/VbtKAj1+qgYltHNGBhwEDjhUTjeOQFJvZKebC/rIpTC148FRooJbaBwrFAczPHMMQrr+AG1ESwh4tohr3gIL5i/AiOHDkZqUDJ2LFhpLKwyXS5GtVMBf6AQpTafhC9gAW6CnHu5qNZJiI1hffXjfdHirFHB3csQ6nQuTQNLVPKUL3KITEZiezaTVxScUTgIHCPkCHCmTfwI6WCGDSd26KCg6X3MSOnjgQFgJHLDDVVPqLZ/62wtOvtFIR0c4Okmg8gyEX+oAg1SG9xqL4M7D4NuhD/SxadBFd4BzUBR4jjJk9umPDevX4/Sp0xg8YgS6ipyYWfbE2wOXPN2w3U2L3nI5fCRiNA31x5DMjpiW0w/DszIQplZitFKBq5563PJyxwUPV+zV6xCmcIbavxl7lm9yP9Dzdd7B+M6Oh3Va51L5J6DpUgnq1amDq9eu1RzQqVOmwELggKWafzw3JJUrdWokiMUQ2ljDXqqCPjIBTXqOZjDDe49DQHo2fBJ7Qx/XkYEkmNymiUiAg6sf1O4+aNYsGlpXPQaIhbjo6cYsAyrs9cZ6/NJYj11uWnQRS+BjYYMEngDNbe3RwUmI3W463GqsZ5CopuzXu6C92gVS/2aG53gn9oYmNBbmPHtm9nEqilIy6SJEQljb2FbJe1/lntKmjRvBdxJiglLOCkuZz9drkSmXwZRnD5mLHl4JndGEqvX3w+CfNhBe7XrCrUWqoWAcyLKpukkriPT+MBMqMNRZhcuebwBxBadnFXi4YZRKiRYiIXa4abHF1QUxQiG2uGrB2cV0HVXpNI0WAr9/gNLz+Ao1woVClnfuvpQe0rtAz+MhLDyiSjNHqgz0zLlzbLpgZ5HQUICjei26kc4Uy+AZl4rwXuMQ/P1QuLfMqBTIUmCjEmHXOBh91c7lugWpsaNGpYtMiv4KObKcHBDEGkkdyw85YjhnTCedG6RBMaVepKXACWNUilItPUnnRp0GzqYm6NOnT5XmN1UZKMWp63Q66O35BqBU5cc4K2BpZw9tcAzCeoxCYNpAuMUklypMKXAlqnzZ447+Ueihc2UdB5K2kpJEv8nR0VYihtZZjV4ZGchISoazhQXaikXIlksxUeLIoAVp9SB1wt1fE94adewF2OOmKdUpoV7SLLUSDvWNMHf+AtAUoLIe+ff9rjJQunHP7j1QT+CAPP2bIVl6w6u0avgKBJC6eiOg42BE9B5vaHi4AlU21US2QSu9N+sy0r1LAt3lpkG4nS2bfZeXfxwXL1/BtV+uY/369YiLbg6fZnFo22cYgsObwVEkhTrkHwkV+YUjXiIuJZ10bwLaVS6F0Xff4cSJEx8Mk5h8FFCa9mdiYoLJzipD5mgEsb1EzBS+d6sM1hiV1wBVFqqTmy/GqZXMDCMLggo+y1kBvaMQrgFh8Pf1w6pVq3Hz9h3MmD6DedqHZGej/fDJGLLmAAYt24nopAyI5GrWkaDnWovkmOSsNOSZe1EksUF2tgiPbIob12/UPNA79+6DLxDAw8GxlPSMdlZAaGsHbUgsq/be7XsZqtu7QLpEtnnrOgf/KKRoXLBM64wJzgrEi4SwcXZF+oT56Ju7Gd6x7dCmfSLOFhRi3779eP7sOQho0sjpDGj/RVvQLLkrlI1D2L1dmrWDqVDKqjsHklKqAQs0KshNGiInJ6dKrruPllC6QdcePfC1uTlyNSqWKcrYBp2a9Zmd3HwQlDEUwZ2y3wJVFqy2WTvIPXzfMqeoeyrRecFOokA9ayu4+4ei74INDBZJYNqoGfAOaoIVK1bizp07uP/gIQb2H4Bes1Yhe9VepPwwGbqgSIN0ChsHI1IiLSUApI+P698MedO8KVrcgMpWle2jqjw9sLCwkOkcMl+4N06mSrJUDAehBL7tejI9WhZg2d/qsJZQaD0R2HHwW/AJqsInDAqFEn3mrTPAJKCDl+9CSNs0dM/sheUrV+Fg3lF0TE1Dv9zNyJq/AQHxidAEt2D3pJdmKVNjhFJeqjEiISCLwcPaGh1S03DjRtWqO/H4aKB0k7YJCTAzNcUilzdSSsqdxuld7flwi0pEeObYtyBVBJQ6AWXP0W+pxh2e/sHoMmVxKaAE9fvxcxAQEYWFS5bi7v37iGwSzqQzNXs0lF7Bhvupg5pDJFGwGsS9fE46B8gkEAtFbHo5zVypinRWG9DzRUVoWM8IEUIhM4wpkxRoS31vWWBzhPUcDX3LDEPBygPGPE+NA1mvqrzzUo8ASMRSaPXuaNWpJ7pOX2YAO3jFbvhHt8SPP/zIJiMEhDbBwCXb4eEXDHUJc0ns5oM4iYQ5dMhGpZ4XvfzlWmdoaNijdQKufORc0GqRUIq+69+vHxoZG7NRQ8okQW0pEUOq9URYtx/hm9j7nUAJoiq4RYVAXZq2gXNgc0hkKoidhHDRatEirRt6zFzJwCaPmISgwFBs2bYdzRNTEd4uDSq/poZn0guzULlihEqOk3odNuvUGCiXIpyGOxpZsiHozl264s69j5u2WC1ASdSvXL4Md3cP6G1tsUarZsb+UKUMSr4D80X6J2UZCleeBNIx59D4CoFy/9FGtoE6JBYSuRqOPB5kYjGCY1qh48gpcPX0Q1hIKHyDQ+Cs94U2KtHwTKVnEHROQgxXytFUJIKNPR/GtetAYGnL4pnatk6ApXkjjBw9Gk8/YrGCagP6+x9/YOXq1fhPvXqIEQuZsU96lGfRCJ6tO1fYMKkCm8Ll72qpCYl6L1AD2KbtoPKLhETuDL6tHexMG8LB1obtk2vOOSQWcq8AKDz8oNLo2Rok5K5rYGaB/3zzDSKahDN9ST0+mkP/9Okz9MzMhE6rxfH8/H9Xh3IKnGIrKXrN3MyM+RTX69QQNWoEXUwKM/A5GP+kiSBHiKNQCqnKFXKNO/NZyv2jIPNuAqnOEwqtBxxlSjg5CmFvZQNrY1NYGZvCxLgh27cxtYDAxhYOvDdOY4rlFzo4MicyLQTDs7SGtbEZeBZW4FvbsiU4Ll2+wqKVaVSz5BTFo0ePwqtxY8ydN//fiW3iQJZMLxQXIyEhARIrK/STSiC2tIIqNP4toK7Nk0CGvNI/AhKJEo5OYgZFzHOAWCyGSqWCp4cnWrZqhaysvpgw/ifkLliAtWvWYNPGTWyjntqKFSswe9YsZPboCW8PT0ikCrj4hEPjEwZHgSNCAoPYtUkdkpCclIzrv/wCCl9fv2kL+vbJwr69+wzS+OTpM7RJaMPWQPlXYptKgiy5f/z4cUQ1awaFjS2cbGyh8A1nQEu67mjfNSaFeaH08emgzdLKlq1ic/r0ady7/wAvP2A1G4qinvnzTDSObsO8XGR+CZ31CA0NZdK4ceMmZKRnoODcOezetQsTJk5iTuyiwiLcuXPX4AgZ1Lc/dGoXnCsowF9VMO6rTYeWBEr7hw8fRkyzKPCsbCDTeTKgHgldDI0EVXuCSs5e8pXSZmQtxJMqNghkfy5ZsgQeUa3ZaEBA+mAI9b7w8vbGLzdu4sq1X5CSnIJdO3fhz7/+woXLV7Bi+Qps2byZzZ9/9ffs5JUrVrCImPWbNtdsbFNZgOX9PpKXB39vH4gl8nKB/qNL33jt61k74eTZc4YqWN49KzpGQNeuXQuVVyDc4zvBLTYVIr0v9FpX5B8/AQJGqzksWrwEZLhfv3kLNOnr5MmTDDgHNC8vD2q1GrNmz2HXVfS8io5/MgnlHtitcxcIBQ6VAmos02Hjps1VBrp9+w5IXNxBDhBdVCJkXmHQKp2xedMmds+kpCRMm/Ezg3vll+s4fuIkjhzLx7nzxaCJvgQ1/1g+3FxdMe/f8Idy0N6VDs0ewoZsaaSzbJUvK6E8z0D8NP6nKgPds2cPpFoPA1C5TziUEilmz5zF9HGn9E4YN3YsLl25CgJK241bt9l2++495gKkl0ISSh2EP2synPFdEEueG5MzBrxGVpWSUFVILHpn9qoeoNEdoA5uwSyHHt17sCreK7MXKCbrzLkCHDt5CnsOHsL27duxZ+9enCkoBC2WMGzoMDQJCcXFKk5X/ORVfvrUacwWrExPiSQ2yD+gykCPnz4DPl9ucNVRj4pnbYPmzaIw8seRkMvkbO0TWv+ENi8PT+Y7XbZsGdPdCxctZjGvP+SMxrMqhDKSIH1yoDQv3d7cCraWVpBrPeESngByo5Wt7tzvRpZWoKk6JaW8MvvUKJ08cxYahQou4a3BuqiBUW8Mfj4fFOmycfMWJpmHjh6Do5MT2rVpix7dejBzytfbB5aWlkhPT8cvv/zywc/n8vjJgd6jOaDJKVCqVBA5OMLW2hYynRfrj1OhqfHgYFLayNoJp86c/eACEdCLV64iwNcPDmIlVC56prtFjk7o2q077j94UOqet+7cwcEDB7B0yRK2bdiwAefPF7OGiYNTlfSTA+UydbawCD8MHwF//wDIRGLY2PAgVuuh9A6DJqg56zURUDpGPSDuf5VNOaDhoWHwCwhAty5doZBIkdi23UdJXGWfz11XY0DpgeSEKCgswqRJk9loJfW5TU1MwOM5sF6N1M0XMrmaLfbCZbCyKZk91KhENW2GHXv3sTWbSXcO7Nf/g19OZZ9Z3nU1CpTLwG+//Y4LFy5i7rx56NmzJ2KbxyA4IBBBfv7MKxTepMkHQ6CFr6k3RKtE7D+ch4LzxcxiIL8C99yaSP8VoFzBfv/9DxZ2XVxczMbByQdAI5YqZ2fcun3ng0A8fvKU2ZXUG9qxZx9bpYFW4vH18wOtgcI981On/yrQ8gpHc9ZpBfBt27Z9EIQnT98AJa8TNTC0HPuC3IXQarXI/wj/Znl5fNexzw7o3bt3oXd1Q/agwR8ElIZhKNihd6/eWLd2LesN0cq5IqGQ/X4XhOo899kBpblBmT17okl4OMg/+SGFJaA5o3Iwfdo0bNy6HT179GBA165Z+0H3+ZBnlr32swNKniBaPdFdr8eJ4x8WX0RAydlMa9rTsDZNTPu+UwbIV1q24J/q92cHlAp69vQZuLvqmcO4sgWnSLnrt26D/Jl169bF5MlTcLkKEciVfV5F132WQO/du4f09E4ICwvDtq3bUHCuAHfu3gUtslWyIDS5lY49fPwYly5fRt6Ro5gzew6T0EPVsCBLyWdVdv+zBEoznekDAVRthU5OCA8PR3JKKnpnZWHUsB8wZdIkzJwxA7TQ67Ahw9CjR090SEpCXGwsUxV2trZV9hZVFlxF132WQCmzN2/cxMyZs9jQbouYGPj6+EIqlsDRlgeBHY+tVEa+AYmjEGqlCl6ejdE8Ohpduvdg1b6iAn/q458tUCo46UXqUl6+dAlnz54FDU8c2L+fDbLt2rmTpfv37WdDGWdOn8alixfZ4B6ZUJ8aXEX3/6yBVpTpz/n4F6BVGCp+1wv9rIFS1f3jjz9BfX6q/r/99lulVvem/7EQmyqMCb0LVmXOVQooZZBWL/z1199KbRSI8DGxlO/L4NNnz3Eo7yhyFy/F9BkzWC9o196979WP+w8cxIgRI7Bh8+Ya/wJYpYDSitq0wveC3F74nDkAAAd1SURBVFzMnjvPsC1dvoK5yd4HpqrnHz1+zIaVw0LD0MCoPmrXqoXROTnvBPrq1WsYGRmh3rffQcDjs4arqs+vyv8qBZT61/PnzUN002asYPW+/RZCRyfkjBqF0+c+3VcLuALNnzuPDQeb1TfGmPcA5RY2tDA1g0osw+7de975ArhnVFdaKaDcw8iLQ0ELVqbm6NCuPW7dvFUjmaWPVynFUpgaNXgvUMrr9m3b2YxmCi77kPgorpwfk34QUBrrkQpFbNXvjqmpbNZF2YeTN56igC9dvcrcaRXpWGo0yIdJ19M9yLNE/7lfzjofHwqU7kd6n+5ftrtK52iImM7RPsW10oDdzdu38fp1+V+xoaGbW3fu4tqNG3j+4gVevnrN/k8NJt2j5FZtQCnKorCoCN27dQeFvNASmHFx8YiNaYF9Bw6xh9KiKPGxsQgJCkZoUDBaxLRgVZK+9hUQEABXNzc2iJe7ILdUJssCJVgUHde+bTv2P/ov+UEPHs5Dq9atERUegXD/YERFRYOiSWjl2qnTpiM0IAgRAcHw8fbByB9HMZ8pqTG9uzvbMjMzcfly6XVGNm/ajGZNwtnEjKlTp6Fjx3REhEdg/rz55U6urTag9CUvZ4USzioV64dTDOagAQMgEjjA1tYOp86ewx+//46DBw+iaZNwJuVSkRhh4eGYOHEic7tZmVvAztoGGo0GR/L+Wb27LFCSCLI65syZw5YD+vnnmbh06TKbrHXlyhX4eDaGrYUlxA5OWL16NZNWivckpzXlx7qRJXwae4FCc+blLmSLHZjWawBrKyv8MHKkISSchplprJ6+I3r0WD4brqGPEkZHN0ef3n3KXTWnWoCSdNJHUoy/qwe/gEA2/ECFpg+XqiQy9m3OtJRUJnU09jN4yFA0qF+fBSGsWb2a2ZZ0D1pLjxoeGv6lZTS5qlQe0AvFF5CWmoazBUVvxSARONK3tNQ7AeXus2/vXrjrXGFtboFmEZHMrqXnUoAYBetaNDBBSvsO7AOE9J9+Wf3YtRIHJ2zdssVwn0OHDmHypMm4d/eu4Rj3jHcCJR1RUgdWpENJH9aqVQt8Gzv4e3mDzKltu/Zg1KjRbAF+4wYNIBdL2MNJd2UPHc6sBbVCiR3bdxgyNW/uXDT4ui4bt6cMc5nkgBLsUSNHsr69q8YF2YMGMSjcdVxKA33lAd2/f/8boGYWSE9LN9yfJq81DY9EIxNTVrVpAgbda8zo0ew+VK5GDUzZS5g9Zw7OF1+o8KthFQKlzzZu3LIFuYsW49atN615RUDPX7zEgFJMu4ebnknX8mXLsHLlShazSXGbFMZNmfwYoDbmjZCWnAovdw/25TCFXA76WkLZD/dVF1AaAVAqlWxtElsra6amjOsZQSmTY8GC3HK/eFMh0OVLl8Hc1IxJUkpSCoNBa4GQy8y8oSky0juBBtQIEoUEkoTaWVsjKCgIxRcqXmj/Y4BSVU3u0AEzpk1nVdHG0goREZEoKCxk+ahuCT196hSu37yJwYMGISg4GG46V0iEItg2smTtxfnzby/yUiHQfll9wafP6ZqZoVWrViw8mq13Z2kJ4/r1MXz4CMMndEgPuWg0sDY1h06tecsfSbbgtAlvqvDHAOXsUKo9rVu1RiMzc7YY18ABA0o1EJWR0K6duxpeQkVVPiQ4BNeuXWM6mmL+9+zejXYJCWxNKDMTU5w6+fa6ThUCXbJsOSxpjpGHB8jXePv2HXRKS4dR3W/h5+OLQ4cPGxoDMmNWr1wFB1seTBuaICoikg3dFhadBwUv9O7dB507dWEFuH//AQveql/PCA529li+bLmhypL5VPfrWhDY2GHQwEEGu3DWzzMhFjgyfdYrM5M9l8bvXbU6NGxgDJlEAtK/L/4OQaSBOYLvZGfPGg8u3JsaSbVEDgtjE8S3iDV8Rv3M6TMI9PWDeYOGLO9Ff0s8n8dD61atcOnSJQN86h02MDJCZHgEfrn2dpRehUAfPnyEESNHsZlpWX36sGEIZ6WKKfO9+/a9tR4HmTFLlyxFy7g4JjUSsRg+vn6gYNfJU6aC5ta/eP4CkyZMQkLr1ggODGLfqOuYkoazZ8+Bhnop6oO++UkBr0mJHbB6zRps2bwFXTt3YaZWaGAwOz5tylRmnE+fPgM+Xl7sXvTfyRMn46dx45l9StfSx1fp23ekvw8eOMhCc5qFRyI0MIiF7IwZPYZJNsWOxsW0AP2nVVw8i165f+8eW5grKysLvXtmMhOQPugaGhKK9okd2Nx8aow5NcOlFQKlC6j3QmK9a/cebN6yFceOHWO9o7KNAHczcq/RW6PrDhw4wDaatsJ1/8gFd/HCRRQVFeHChQtsO3fuHB4/ecJWUKCqxx0vPn8eN2/eZA0i7XPHKaXQHaoVjx49Bk3cpWOUsnsXFoFMKu764vPFuH37Nu7fu4+y9yEdSFC4a7mU8kcTwihv1BmhqThkWh08dIhFoVAjXdL64cpP6TuBchfS6CLpSe73/8WUXuCff75/aKVSQP8vAqxqmb8ALePcqCpI7n9fgH4BWtpdxknG55L+Px9A3ac8IOnDAAAAAElFTkSuQmCC;align=center;" vertex="1" parent="1">
          <mxGeometry x="578" y="1151" width="32.07" height="42" as="geometry" />
        </mxCell>
        <mxCell id="qG5oZKhEG7zA3qGjVQWN-18" value="" style="shape=image;verticalLabelPosition=bottom;labelBackgroundColor=#ffffff;verticalAlign=top;aspect=fixed;imageAspect=0;image=data:image/png,iVBORw0KGgoAAAANSUhEUgAAAFQAAABuCAYAAAC5ijQKAAAgAElEQVR4Ae2dZ1gUSfe399k17IoiSeIwA0wOzDADA0jOAgoioGJAksiaUTFj2lVMa9Y1iznnnBMqZgExrzln3fh8+73XKbdnAUERkfV5/37oq3q6e7qr7j516tSpU9Vf/fe//8WXrfoYfPUFZvXBJJZfgFZzDf0C9AvQ6q2i1a3yvkjoFwn9IqEfbZY9evIEhcUXkJ9/HDt37MCOHTuwe/duHD9xAsWXLuPZ8xcf/YzqqvqfbZV/+OABlixejOTEDtC7uUEilUIoFELA54PP50MgEEAkEkEqk8HT3QOdM77H+nXr8PLly38V7mcH9GDeEaQmp8Lc3ByWFhawNrNA3Vq1oZVL0D25Jab+kIl54wdg8vCe6N+lPQK99DBt2BB16tSBsbExLCwsMGnixH8N6mcB9I8//sCR4yfQIro5ateujXr16sHexhYWpqYI8nbDxkVT8OjSYby6ebzc7da5Pdi6eDLaxkWjoXEDfP3115CJJTh+6jT++uuvGoX7rwKl6nn2XAH6ZvWFk5MTWjSPQW5uLkbmjIaXTo2fx2bjbtF+A8SX14/ifduZfavQNbkVrCxMYWfHw8YNG/Dq1asag/qvACWJvH79OqZMmQI/Pz+kpaZi2dKlWL9hI7J690ZMRCDyty9iIAngi2t5bHtStBWPCza/d3t5cQe2LhwHlVQOJycRFi5ciGfPntUI1BoH+vvvv+Nofj5SUlLg5+uHceN/wvYdOzF29BgEejXGoMwMUBWm6v3y+hE8Ld71XoDlQX5evA2H1s6Ai1IBmUyGJUuW4uXLTy+pNQqU9Nm5gkJERTdHZEQklixfgcVLl6Ff336ICGuCWWOz/wZ5DM8v768yzJKA184ZCY1CBBedDjt27gLVjuoykcq7T40Cff78BbKzhyDAzx/rN27CkmUrkNmzF5qGR2DM0H54cSMfr27k4+mFqkllSZC0/6RoGx5f3I/caT9A7shHQsvWuHr16v8/QG/fug2lQoFOHTuhc/r3UMmVsLe3R+voMFw6toVJ5+sre0tV8WcX9+DFtcO4fmILHp59v/40QC3cgltntmPKyP7ISE6Al04DK4tGyF24CL/++usng1pjEnrvwUPEx8YxU8jRwQGt41th1I8jMXTIEHRo3QLXT+9kQJ8UbjEAfXphN66d3I5h/XvAxVkBmZCP3csmGc4b4JXTUD0r2oqZo/tDp5RBI5PDtIEpLExM0aF9Iu7dvfe/D1Ts4AiLhibQa3VYuXIV8o7mY8XKVcgenA29zhWX8rfgSeE/rTg1RsV5a5HQPAS21tZoG9ME/Tq3w8JJ2ZUC+vDcJhTuycXDMxtx+/gaLJs+DBqFErVrf4uCgoL/baBTJk/GV199hbDgEBzIy8PcBbno1DGdbWkpaVBKZbh4dFMpULdObEC/7qmIDGqMoxtngUyh15errlup1d+1bCKUEkcsWrr0kzVOn7zK//b775A5iVi3cOfefZgxfTo6pnZEl++7sC01KQUB3t64lrfSAPRp0RYcXvczOrWLxc6lE0HV913Vu7LnXl7Yjh5pbTCgXz+8fv36k0jpJwd66eo1WFpaIblDElavXVcKJkFtGRePjm1jcefEWgM00qNHNs7G/AnZeHh2o+E4B46OPTxbWqK5c+Wlj85twv3T69mLWTFjOBLiY/HixafxUH1yoAcOHWaOjvHjxjF9yUkml4aHNkHOwC6swCVhkA4sDyZdc+/sVuRt+PktyaXrb+WveesFPCrciuNb5+PSwaU4sWUOXJRSPH369H9PQh88fIisXn1gatwQBJSDWDL19PLDkmnD8eDMhrdAlATM7ZPBf7/4AIb1Tnvr+nun1mPu2AGljpMtSmbXspk52Jo7FhcPLoUT3xZPnjz53wJ65+499O0/AAJHISxNzZh5VBIkt6/We2HrksqZQi+Kt+PVzXw8upyHWeOzsW3RODw7v80A8GnRVjQPC8CF/Yv/OVa8i5lje1bNxKzRfXFq+zyIHOywatWq/x2gd+/dR5++/WBiz0cbkQhmZuYY0K8/khKT0CQ0DM0imyKpfQcmsW46PWt4OAl8V0rAXl/dh1dX9uLE1vno3iEexzbNwrPzbxqtVxd3YPTAzujVMYFZBXSvm/lrcGTTXKybNxrRoT5YPCUbQoET826tWbOm2qFWuw598fIlfhyVg/rWNkiViHBA7wJLOx6kTkIYNzDGd99+h3rf1YPA3h5xLWIR6OuPtXNGMXvxXTDp3N4Vk5EzIAPr5o7CosnZCPF2R3aPZJBJROepMbtyeBkszEywacEYvLiwHatmDoetlQWsLMzQNNgLRzb8DImTFKaWNqyXdvTIkWqFWu1A161ZC1MbW7SRiHC1sR5jVQrY2wvgxBdg+5KJeHwlD6f2LEdME184OTgypwj1aN4HkwP6bd06qF3rG9Sq9Q3c1DIc2zjLAJSueXVxJ/Pmm5k2xMUDS9iLOrh6GpNksgyeFm5hQMcoFTC35UEkFuP8xYvVBrXagJIn6cTx49C56RHA4+GY3hU3G+uhdhDAplEjFOVtwNUT27BgQjbOHFqPbatnwVevhafeHZ3ax5Uym94Ht3DPQqYnqVUnvVr2+teXdiIhOgx+7q64lrei1PlHBZshcbLHDp0zpqpVqG9nx7rE1eWErjagDx48QGpqGhxNTbFQq8Ezn8Y45e4KubkFxg/tyRqGtIRoWJmawc/DhY0Lfd8+BgJrK8Q3CcDNY6tLFbwspA/9ffnQUgQ01qNzYiyuHF5uuPft42shcuBjl06Ns+46dBaLwBeKMXHiJLyuBqdJtQAl6Vy8ZCmMjOqji1yKe17ueOTtid1uLhAZ1cOu1XMZ0JNb5yIhOhQzRvVBr46tQUb2z6P6MNuwIpvzQ0Fy15Mxv2/lFHjr1ej7fVtW/UnHFuzOhUIgwhE3F5xx12Gvmwv87XnQ+/jgcF7eR1f9agH68NEjuOpc4cOzxyl3PR56e+KKpx573TSQGhljfe5EBpT65NN+6IUbR1exfvXVw8tZw1HSw8QB+dD0afHON/7PEp6nR+c2Y8FPA+GuVWHZtKF4eWEH9q+aigihBKf0WgaUoE5XKyHk8dA3KwuPHj36KKjVAnT8+J/QsH4DTFYrDTCpOp3Qa+FuYY3B3ZMYULIPl00bxhqGuyfWggzxDwVX3vUk3c8uHwBBLXmeWv+NC8YiyMuDtfq/Xt6FpdOGortGxao7waR8HtS7oK2jA5RaLQukKM8TX9ljHw2U/Jx2tnYI4AtwrbE77nq5GzJb4K5DF7EIEr4drp3cwVpcanlLFro69nctnYBTO3Lx9G8jn5wg1AWdmZOFqFAfZPdMYXqU7NTBvTthhE6DAndXg4QS2NkaFaQWFsjOzv6oXtRHA501cxa+NmqAORoVk84LHm6GjNLb3+qqgZmVFRIT4t8C+fDMhgr76x8CelT/DNB2ducC7F81he27axVIadkUG+aNYg0eOV9u5a9GeFAg5jkrDXkkmLTtcXNBc0cHuHl5M2ulshJZ9rqPBqoWyfCNjS0eeHvigbeHQTq5jBZ6uCJLLkVdMwt0SmjOHBRUuJ+yu6FLYizO710Ectd9CEC6luxJkkTqepKd2T6uKQK8PNE6KhRjBnXGnuWTcOf4WlYrlk8fjolDe7ChZU+lHJvUbwOllz9apQDP1BTzc3Px62+/VUmXfhTQoydOwtTMDP3lUjz29kSRR+lqxEE97+GK9mIRvrKyQZ3axsxZIrC1wpIZOaBhjsrCJPuSrr15bBW6dIjH3HEDcHDNNFw/spLBJR3Jbad3zMeCCYMQ6usOtVzIHCMzc/oi3VWDvBINEpdHUk/bXF3gbWuHtE4ZuH//fs0DHTdmLBpY2+KYXouH3h5vVSMus5QSVDKkfRwd0cjCBvHRUWy86PW1g6A+emWgUtADNUCkh8/smI+WTYNgbmqC+kYNYWJkgkamZqj1zTfIW/8zHHg8NDCqBxeFmDWE1ADGRoZhsEiE039X85L5o/3jei3ixCI4CEUorOIwSZUllKpEoJ8/hPZ8ZsQTsLIZLPubJJikox3fAZHBASjYv5K1/k+Ld5QCSv3x8gC/uHoIlw8tQ0JMJFMdZBaRGZQzoDMS45vCW6+Hm0bOqntmciumVs7uymWOkuUzRkDvrMR8Z0WF+SQpHaVSwMrICBs2bsQff/75wVJaZaCXr1yFQqFAR5GQASVdWRZgeb9JCobIJNBoVFi/cPJbQEkCl04dyhqY8nQr6c28dTOQldEOq2eNZNJKOpkG4+6eXMe6sDQoR7qVuqWcw6R9yyjE8/jY7+bylp7n8nnOXYcVWmfITEwwYviIKg2TVBno3j174OjoiElKGQPKZep9KSn/pS7O0NnYYHj/bsy3WVJCCeju5ZOQM+B71gEoDypJ79xxA+Gjd0XrqCB06dAC/bu0xeDuiWzrld4aV/OWM5h0vzlj+8FbLsY0lbzC6s7le5+bBm7W1oiPb4nnz5/XnIQuzF0IG4ED1riomBOEy9D7UgJK1b6zowAtm4bgzP7VoKr8uMQQMvWkcgZ0wdhB3ZnOLA8q6cTlM4aha1IcWkcFIzbCH21iQpDeNhrDeqcwU4mk88iGmfDy0iPegc8MeHr+u/J4Uq9FkEAAhVyBJ48f1xzQEcOGw8TBiVWh4kpWd64gVLUWalTwEdhj9oRheHo1r1S3kTxCp7bNQ/eUVpj2YyZofInMpJJ69UnBZpAOJfjUSJ3ft4jpVdK/VP3pWjrXJTEO5o0sESkUMpv4fUBJj6ZIJDAxqo+HDx/WHNDMHj1gJXBEkae+Qp3EASyZUoFI387UqCCytER0ZDCuUNTIjaOlgf0tXW1iQjF7TF88KaBAiNJQCRodIwnmNjpGPSLSq92T4iGwtoOjUAZrOx5aiUXMGfIuqJS37jIp6tepg4uXLtcc0LSUFDjY83Glsfs7q1BZmMf0OvSRyyDk8VmUMkUcz5k0Ak+vHsHrS6UDGcicoiGOMD89BnRpx+xPzhYtKa3cPjk/6DzFhupUCthZWkPr3xRB6YOh9giEvS0PQU5O2PW3p6lk3rh9AjpEIYNp3brIP3mq5oAmt0+Esz0fVysJtNDdFbPVSkj5AhjZ2UOs0cOlaVvIFDp8V8cEc8YOwJMrecz7RK43qs4EiqDS8G9GmxhInZwwe0w/VpWpBSeA1OrTPjlb1s0ZCf/GHvjmG2P2soRiGbRN2yGoUzZCOg+HUu8HKx4fznwHbHfVMNuYA8mlBHQYB/TEyZoDmpacAhVfUG6vg8scVa0Teh1W6ZwRJ3TCd3wHCOUu8Ezohog+P7HNp0MfSGVqfFu7Fny9vDEjZwDWzh2NfSunYt+KyRjcLQn+rloE63UQOjriP7UbwsbMHG1bNEFWp7bo3D4WrSKDIHMSwNLCFPY2NFbEh0TgwGaL8Ph8OPs2QViPHARnDIFS7wu+nT0c7flYq1O/VbtKAj1+qgYltHNGBhwEDjhUTjeOQFJvZKebC/rIpTC148FRooJbaBwrFAczPHMMQrr+AG1ESwh4tohr3gIL5i/AiOHDkZqUDJ2LFhpLKwyXS5GtVMBf6AQpTafhC9gAW6CnHu5qNZJiI1hffXjfdHirFHB3csQ6nQuTQNLVPKUL3KITEZiezaTVxScUTgIHCPkCHCmTfwI6WCGDSd26KCg6X3MSOnjgQFgJHLDDVVPqLZ/62wtOvtFIR0c4Okmg8gyEX+oAg1SG9xqL4M7D4NuhD/SxadBFd4BzUBR4jjJk9umPDevX4/Sp0xg8YgS6ipyYWfbE2wOXPN2w3U2L3nI5fCRiNA31x5DMjpiW0w/DszIQplZitFKBq5563PJyxwUPV+zV6xCmcIbavxl7lm9yP9Dzdd7B+M6Oh3Va51L5J6DpUgnq1amDq9eu1RzQqVOmwELggKWafzw3JJUrdWokiMUQ2ljDXqqCPjIBTXqOZjDDe49DQHo2fBJ7Qx/XkYEkmNymiUiAg6sf1O4+aNYsGlpXPQaIhbjo6cYsAyrs9cZ6/NJYj11uWnQRS+BjYYMEngDNbe3RwUmI3W463GqsZ5CopuzXu6C92gVS/2aG53gn9oYmNBbmPHtm9nEqilIy6SJEQljb2FbJe1/lntKmjRvBdxJiglLOCkuZz9drkSmXwZRnD5mLHl4JndGEqvX3w+CfNhBe7XrCrUWqoWAcyLKpukkriPT+MBMqMNRZhcuebwBxBadnFXi4YZRKiRYiIXa4abHF1QUxQiG2uGrB2cV0HVXpNI0WAr9/gNLz+Ao1woVClnfuvpQe0rtAz+MhLDyiSjNHqgz0zLlzbLpgZ5HQUICjei26kc4Uy+AZl4rwXuMQ/P1QuLfMqBTIUmCjEmHXOBh91c7lugWpsaNGpYtMiv4KObKcHBDEGkkdyw85YjhnTCedG6RBMaVepKXACWNUilItPUnnRp0GzqYm6NOnT5XmN1UZKMWp63Q66O35BqBU5cc4K2BpZw9tcAzCeoxCYNpAuMUklypMKXAlqnzZ447+Ueihc2UdB5K2kpJEv8nR0VYihtZZjV4ZGchISoazhQXaikXIlksxUeLIoAVp9SB1wt1fE94adewF2OOmKdUpoV7SLLUSDvWNMHf+AtAUoLIe+ff9rjJQunHP7j1QT+CAPP2bIVl6w6u0avgKBJC6eiOg42BE9B5vaHi4AlU21US2QSu9N+sy0r1LAt3lpkG4nS2bfZeXfxwXL1/BtV+uY/369YiLbg6fZnFo22cYgsObwVEkhTrkHwkV+YUjXiIuJZ10bwLaVS6F0Xff4cSJEx8Mk5h8FFCa9mdiYoLJzipD5mgEsb1EzBS+d6sM1hiV1wBVFqqTmy/GqZXMDCMLggo+y1kBvaMQrgFh8Pf1w6pVq3Hz9h3MmD6DedqHZGej/fDJGLLmAAYt24nopAyI5GrWkaDnWovkmOSsNOSZe1EksUF2tgiPbIob12/UPNA79+6DLxDAw8GxlPSMdlZAaGsHbUgsq/be7XsZqtu7QLpEtnnrOgf/KKRoXLBM64wJzgrEi4SwcXZF+oT56Ju7Gd6x7dCmfSLOFhRi3779eP7sOQho0sjpDGj/RVvQLLkrlI1D2L1dmrWDqVDKqjsHklKqAQs0KshNGiInJ6dKrruPllC6QdcePfC1uTlyNSqWKcrYBp2a9Zmd3HwQlDEUwZ2y3wJVFqy2WTvIPXzfMqeoeyrRecFOokA9ayu4+4ei74INDBZJYNqoGfAOaoIVK1bizp07uP/gIQb2H4Bes1Yhe9VepPwwGbqgSIN0ChsHI1IiLSUApI+P698MedO8KVrcgMpWle2jqjw9sLCwkOkcMl+4N06mSrJUDAehBL7tejI9WhZg2d/qsJZQaD0R2HHwW/AJqsInDAqFEn3mrTPAJKCDl+9CSNs0dM/sheUrV+Fg3lF0TE1Dv9zNyJq/AQHxidAEt2D3pJdmKVNjhFJeqjEiISCLwcPaGh1S03DjRtWqO/H4aKB0k7YJCTAzNcUilzdSSsqdxuld7flwi0pEeObYtyBVBJQ6AWXP0W+pxh2e/sHoMmVxKaAE9fvxcxAQEYWFS5bi7v37iGwSzqQzNXs0lF7Bhvupg5pDJFGwGsS9fE46B8gkEAtFbHo5zVypinRWG9DzRUVoWM8IEUIhM4wpkxRoS31vWWBzhPUcDX3LDEPBygPGPE+NA1mvqrzzUo8ASMRSaPXuaNWpJ7pOX2YAO3jFbvhHt8SPP/zIJiMEhDbBwCXb4eEXDHUJc0ns5oM4iYQ5dMhGpZ4XvfzlWmdoaNijdQKufORc0GqRUIq+69+vHxoZG7NRQ8okQW0pEUOq9URYtx/hm9j7nUAJoiq4RYVAXZq2gXNgc0hkKoidhHDRatEirRt6zFzJwCaPmISgwFBs2bYdzRNTEd4uDSq/poZn0guzULlihEqOk3odNuvUGCiXIpyGOxpZsiHozl264s69j5u2WC1ASdSvXL4Md3cP6G1tsUarZsb+UKUMSr4D80X6J2UZCleeBNIx59D4CoFy/9FGtoE6JBYSuRqOPB5kYjGCY1qh48gpcPX0Q1hIKHyDQ+Cs94U2KtHwTKVnEHROQgxXytFUJIKNPR/GtetAYGnL4pnatk6ApXkjjBw9Gk8/YrGCagP6+x9/YOXq1fhPvXqIEQuZsU96lGfRCJ6tO1fYMKkCm8Ll72qpCYl6L1AD2KbtoPKLhETuDL6tHexMG8LB1obtk2vOOSQWcq8AKDz8oNLo2Rok5K5rYGaB/3zzDSKahDN9ST0+mkP/9Okz9MzMhE6rxfH8/H9Xh3IKnGIrKXrN3MyM+RTX69QQNWoEXUwKM/A5GP+kiSBHiKNQCqnKFXKNO/NZyv2jIPNuAqnOEwqtBxxlSjg5CmFvZQNrY1NYGZvCxLgh27cxtYDAxhYOvDdOY4rlFzo4MicyLQTDs7SGtbEZeBZW4FvbsiU4Ll2+wqKVaVSz5BTFo0ePwqtxY8ydN//fiW3iQJZMLxQXIyEhARIrK/STSiC2tIIqNP4toK7Nk0CGvNI/AhKJEo5OYgZFzHOAWCyGSqWCp4cnWrZqhaysvpgw/ifkLliAtWvWYNPGTWyjntqKFSswe9YsZPboCW8PT0ikCrj4hEPjEwZHgSNCAoPYtUkdkpCclIzrv/wCCl9fv2kL+vbJwr69+wzS+OTpM7RJaMPWQPlXYptKgiy5f/z4cUQ1awaFjS2cbGyh8A1nQEu67mjfNSaFeaH08emgzdLKlq1ic/r0ady7/wAvP2A1G4qinvnzTDSObsO8XGR+CZ31CA0NZdK4ceMmZKRnoODcOezetQsTJk5iTuyiwiLcuXPX4AgZ1Lc/dGoXnCsowF9VMO6rTYeWBEr7hw8fRkyzKPCsbCDTeTKgHgldDI0EVXuCSs5e8pXSZmQtxJMqNghkfy5ZsgQeUa3ZaEBA+mAI9b7w8vbGLzdu4sq1X5CSnIJdO3fhz7/+woXLV7Bi+Qps2byZzZ9/9ffs5JUrVrCImPWbNtdsbFNZgOX9PpKXB39vH4gl8nKB/qNL33jt61k74eTZc4YqWN49KzpGQNeuXQuVVyDc4zvBLTYVIr0v9FpX5B8/AQJGqzksWrwEZLhfv3kLNOnr5MmTDDgHNC8vD2q1GrNmz2HXVfS8io5/MgnlHtitcxcIBQ6VAmos02Hjps1VBrp9+w5IXNxBDhBdVCJkXmHQKp2xedMmds+kpCRMm/Ezg3vll+s4fuIkjhzLx7nzxaCJvgQ1/1g+3FxdMe/f8Idy0N6VDs0ewoZsaaSzbJUvK6E8z0D8NP6nKgPds2cPpFoPA1C5TziUEilmz5zF9HGn9E4YN3YsLl25CgJK241bt9l2++495gKkl0ISSh2EP2synPFdEEueG5MzBrxGVpWSUFVILHpn9qoeoNEdoA5uwSyHHt17sCreK7MXKCbrzLkCHDt5CnsOHsL27duxZ+9enCkoBC2WMGzoMDQJCcXFKk5X/ORVfvrUacwWrExPiSQ2yD+gykCPnz4DPl9ucNVRj4pnbYPmzaIw8seRkMvkbO0TWv+ENi8PT+Y7XbZsGdPdCxctZjGvP+SMxrMqhDKSIH1yoDQv3d7cCraWVpBrPeESngByo5Wt7tzvRpZWoKk6JaW8MvvUKJ08cxYahQou4a3BuqiBUW8Mfj4fFOmycfMWJpmHjh6Do5MT2rVpix7dejBzytfbB5aWlkhPT8cvv/zywc/n8vjJgd6jOaDJKVCqVBA5OMLW2hYynRfrj1OhqfHgYFLayNoJp86c/eACEdCLV64iwNcPDmIlVC56prtFjk7o2q077j94UOqet+7cwcEDB7B0yRK2bdiwAefPF7OGiYNTlfSTA+UydbawCD8MHwF//wDIRGLY2PAgVuuh9A6DJqg56zURUDpGPSDuf5VNOaDhoWHwCwhAty5doZBIkdi23UdJXGWfz11XY0DpgeSEKCgswqRJk9loJfW5TU1MwOM5sF6N1M0XMrmaLfbCZbCyKZk91KhENW2GHXv3sTWbSXcO7Nf/g19OZZ9Z3nU1CpTLwG+//Y4LFy5i7rx56NmzJ2KbxyA4IBBBfv7MKxTepMkHQ6CFr6k3RKtE7D+ch4LzxcxiIL8C99yaSP8VoFzBfv/9DxZ2XVxczMbByQdAI5YqZ2fcun3ng0A8fvKU2ZXUG9qxZx9bpYFW4vH18wOtgcI981On/yrQ8gpHc9ZpBfBt27Z9EIQnT98AJa8TNTC0HPuC3IXQarXI/wj/Znl5fNexzw7o3bt3oXd1Q/agwR8ElIZhKNihd6/eWLd2LesN0cq5IqGQ/X4XhOo899kBpblBmT17okl4OMg/+SGFJaA5o3Iwfdo0bNy6HT179GBA165Z+0H3+ZBnlr32swNKniBaPdFdr8eJ4x8WX0RAydlMa9rTsDZNTPu+UwbIV1q24J/q92cHlAp69vQZuLvqmcO4sgWnSLnrt26D/Jl169bF5MlTcLkKEciVfV5F132WQO/du4f09E4ICwvDtq3bUHCuAHfu3gUtslWyIDS5lY49fPwYly5fRt6Ro5gzew6T0EPVsCBLyWdVdv+zBEoznekDAVRthU5OCA8PR3JKKnpnZWHUsB8wZdIkzJwxA7TQ67Ahw9CjR090SEpCXGwsUxV2trZV9hZVFlxF132WQCmzN2/cxMyZs9jQbouYGPj6+EIqlsDRlgeBHY+tVEa+AYmjEGqlCl6ejdE8Ohpduvdg1b6iAn/q458tUCo46UXqUl6+dAlnz54FDU8c2L+fDbLt2rmTpfv37WdDGWdOn8alixfZ4B6ZUJ8aXEX3/6yBVpTpz/n4F6BVGCp+1wv9rIFS1f3jjz9BfX6q/r/99lulVvem/7EQmyqMCb0LVmXOVQooZZBWL/z1199KbRSI8DGxlO/L4NNnz3Eo7yhyFy/F9BkzWC9o196979WP+w8cxIgRI7Bh8+Ya/wJYpYDSitq0wveC3F74nDkAAAd1SURBVFzMnjvPsC1dvoK5yd4HpqrnHz1+zIaVw0LD0MCoPmrXqoXROTnvBPrq1WsYGRmh3rffQcDjs4arqs+vyv8qBZT61/PnzUN002asYPW+/RZCRyfkjBqF0+c+3VcLuALNnzuPDQeb1TfGmPcA5RY2tDA1g0osw+7de975ArhnVFdaKaDcw8iLQ0ELVqbm6NCuPW7dvFUjmaWPVynFUpgaNXgvUMrr9m3b2YxmCi77kPgorpwfk34QUBrrkQpFbNXvjqmpbNZF2YeTN56igC9dvcrcaRXpWGo0yIdJ19M9yLNE/7lfzjofHwqU7kd6n+5ftrtK52iImM7RPsW10oDdzdu38fp1+V+xoaGbW3fu4tqNG3j+4gVevnrN/k8NJt2j5FZtQCnKorCoCN27dQeFvNASmHFx8YiNaYF9Bw6xh9KiKPGxsQgJCkZoUDBaxLRgVZK+9hUQEABXNzc2iJe7ILdUJssCJVgUHde+bTv2P/ov+UEPHs5Dq9atERUegXD/YERFRYOiSWjl2qnTpiM0IAgRAcHw8fbByB9HMZ8pqTG9uzvbMjMzcfly6XVGNm/ajGZNwtnEjKlTp6Fjx3REhEdg/rz55U6urTag9CUvZ4USzioV64dTDOagAQMgEjjA1tYOp86ewx+//46DBw+iaZNwJuVSkRhh4eGYOHEic7tZmVvAztoGGo0GR/L+Wb27LFCSCLI65syZw5YD+vnnmbh06TKbrHXlyhX4eDaGrYUlxA5OWL16NZNWivckpzXlx7qRJXwae4FCc+blLmSLHZjWawBrKyv8MHKkISSchplprJ6+I3r0WD4brqGPEkZHN0ef3n3KXTWnWoCSdNJHUoy/qwe/gEA2/ECFpg+XqiQy9m3OtJRUJnU09jN4yFA0qF+fBSGsWb2a2ZZ0D1pLjxoeGv6lZTS5qlQe0AvFF5CWmoazBUVvxSARONK3tNQ7AeXus2/vXrjrXGFtboFmEZHMrqXnUoAYBetaNDBBSvsO7AOE9J9+Wf3YtRIHJ2zdssVwn0OHDmHypMm4d/eu4Rj3jHcCJR1RUgdWpENJH9aqVQt8Gzv4e3mDzKltu/Zg1KjRbAF+4wYNIBdL2MNJd2UPHc6sBbVCiR3bdxgyNW/uXDT4ui4bt6cMc5nkgBLsUSNHsr69q8YF2YMGMSjcdVxKA33lAd2/f/8boGYWSE9LN9yfJq81DY9EIxNTVrVpAgbda8zo0ew+VK5GDUzZS5g9Zw7OF1+o8KthFQKlzzZu3LIFuYsW49atN615RUDPX7zEgFJMu4ebnknX8mXLsHLlShazSXGbFMZNmfwYoDbmjZCWnAovdw/25TCFXA76WkLZD/dVF1AaAVAqlWxtElsra6amjOsZQSmTY8GC3HK/eFMh0OVLl8Hc1IxJUkpSCoNBa4GQy8y8oSky0juBBtQIEoUEkoTaWVsjKCgIxRcqXmj/Y4BSVU3u0AEzpk1nVdHG0goREZEoKCxk+ahuCT196hSu37yJwYMGISg4GG46V0iEItg2smTtxfnzby/yUiHQfll9wafP6ZqZoVWrViw8mq13Z2kJ4/r1MXz4CMMndEgPuWg0sDY1h06tecsfSbbgtAlvqvDHAOXsUKo9rVu1RiMzc7YY18ABA0o1EJWR0K6duxpeQkVVPiQ4BNeuXWM6mmL+9+zejXYJCWxNKDMTU5w6+fa6ThUCXbJsOSxpjpGHB8jXePv2HXRKS4dR3W/h5+OLQ4cPGxoDMmNWr1wFB1seTBuaICoikg3dFhadBwUv9O7dB507dWEFuH//AQveql/PCA529li+bLmhypL5VPfrWhDY2GHQwEEGu3DWzzMhFjgyfdYrM5M9l8bvXbU6NGxgDJlEAtK/L/4OQaSBOYLvZGfPGg8u3JsaSbVEDgtjE8S3iDV8Rv3M6TMI9PWDeYOGLO9Ff0s8n8dD61atcOnSJQN86h02MDJCZHgEfrn2dpRehUAfPnyEESNHsZlpWX36sGEIZ6WKKfO9+/a9tR4HmTFLlyxFy7g4JjUSsRg+vn6gYNfJU6aC5ta/eP4CkyZMQkLr1ggODGLfqOuYkoazZ8+Bhnop6oO++UkBr0mJHbB6zRps2bwFXTt3YaZWaGAwOz5tylRmnE+fPgM+Xl7sXvTfyRMn46dx45l9StfSx1fp23ekvw8eOMhCc5qFRyI0MIiF7IwZPYZJNsWOxsW0AP2nVVw8i165f+8eW5grKysLvXtmMhOQPugaGhKK9okd2Nx8aow5NcOlFQKlC6j3QmK9a/cebN6yFceOHWO9o7KNAHczcq/RW6PrDhw4wDaatsJ1/8gFd/HCRRQVFeHChQtsO3fuHB4/ecJWUKCqxx0vPn8eN2/eZA0i7XPHKaXQHaoVjx49Bk3cpWOUsnsXFoFMKu764vPFuH37Nu7fu4+y9yEdSFC4a7mU8kcTwihv1BmhqThkWh08dIhFoVAjXdL64cpP6TuBchfS6CLpSe73/8WUXuCff75/aKVSQP8vAqxqmb8ALePcqCpI7n9fgH4BWtpdxknG55L+Px9A3ac8IOnDAAAAAElFTkSuQmCC;align=center;" vertex="1" parent="1">
          <mxGeometry x="569" y="1211.5" width="32.07" height="42" as="geometry" />
        </mxCell>
        <mxCell id="qG5oZKhEG7zA3qGjVQWN-19" value="" style="shape=image;verticalLabelPosition=bottom;labelBackgroundColor=#ffffff;verticalAlign=top;aspect=fixed;imageAspect=0;image=data:image/png,iVBORw0KGgoAAAANSUhEUgAAAFQAAABuCAYAAAC5ijQKAAAgAElEQVR4Ae2dZ1gUSfe399k17IoiSeIwA0wOzDADA0jOAgoioGJAksiaUTFj2lVMa9Y1iznnnBMqZgExrzln3fh8+73XKbdnAUERkfV5/37oq3q6e7qr7j516tSpU9Vf/fe//8WXrfoYfPUFZvXBJJZfgFZzDf0C9AvQ6q2i1a3yvkjoFwn9IqEfbZY9evIEhcUXkJ9/HDt37MCOHTuwe/duHD9xAsWXLuPZ8xcf/YzqqvqfbZV/+OABlixejOTEDtC7uUEilUIoFELA54PP50MgEEAkEkEqk8HT3QOdM77H+nXr8PLly38V7mcH9GDeEaQmp8Lc3ByWFhawNrNA3Vq1oZVL0D25Jab+kIl54wdg8vCe6N+lPQK99DBt2BB16tSBsbExLCwsMGnixH8N6mcB9I8//sCR4yfQIro5ateujXr16sHexhYWpqYI8nbDxkVT8OjSYby6ebzc7da5Pdi6eDLaxkWjoXEDfP3115CJJTh+6jT++uuvGoX7rwKl6nn2XAH6ZvWFk5MTWjSPQW5uLkbmjIaXTo2fx2bjbtF+A8SX14/ifduZfavQNbkVrCxMYWfHw8YNG/Dq1asag/qvACWJvH79OqZMmQI/Pz+kpaZi2dKlWL9hI7J690ZMRCDyty9iIAngi2t5bHtStBWPCza/d3t5cQe2LhwHlVQOJycRFi5ciGfPntUI1BoH+vvvv+Nofj5SUlLg5+uHceN/wvYdOzF29BgEejXGoMwMUBWm6v3y+hE8Ld71XoDlQX5evA2H1s6Ai1IBmUyGJUuW4uXLTy+pNQqU9Nm5gkJERTdHZEQklixfgcVLl6Ff336ICGuCWWOz/wZ5DM8v768yzJKA184ZCY1CBBedDjt27gLVjuoykcq7T40Cff78BbKzhyDAzx/rN27CkmUrkNmzF5qGR2DM0H54cSMfr27k4+mFqkllSZC0/6RoGx5f3I/caT9A7shHQsvWuHr16v8/QG/fug2lQoFOHTuhc/r3UMmVsLe3R+voMFw6toVJ5+sre0tV8WcX9+DFtcO4fmILHp59v/40QC3cgltntmPKyP7ISE6Al04DK4tGyF24CL/++usng1pjEnrvwUPEx8YxU8jRwQGt41th1I8jMXTIEHRo3QLXT+9kQJ8UbjEAfXphN66d3I5h/XvAxVkBmZCP3csmGc4b4JXTUD0r2oqZo/tDp5RBI5PDtIEpLExM0aF9Iu7dvfe/D1Ts4AiLhibQa3VYuXIV8o7mY8XKVcgenA29zhWX8rfgSeE/rTg1RsV5a5HQPAS21tZoG9ME/Tq3w8JJ2ZUC+vDcJhTuycXDMxtx+/gaLJs+DBqFErVrf4uCgoL/baBTJk/GV199hbDgEBzIy8PcBbno1DGdbWkpaVBKZbh4dFMpULdObEC/7qmIDGqMoxtngUyh15errlup1d+1bCKUEkcsWrr0kzVOn7zK//b775A5iVi3cOfefZgxfTo6pnZEl++7sC01KQUB3t64lrfSAPRp0RYcXvczOrWLxc6lE0HV913Vu7LnXl7Yjh5pbTCgXz+8fv36k0jpJwd66eo1WFpaIblDElavXVcKJkFtGRePjm1jcefEWgM00qNHNs7G/AnZeHh2o+E4B46OPTxbWqK5c+Wlj85twv3T69mLWTFjOBLiY/HixafxUH1yoAcOHWaOjvHjxjF9yUkml4aHNkHOwC6swCVhkA4sDyZdc+/sVuRt+PktyaXrb+WveesFPCrciuNb5+PSwaU4sWUOXJRSPH369H9PQh88fIisXn1gatwQBJSDWDL19PLDkmnD8eDMhrdAlATM7ZPBf7/4AIb1Tnvr+nun1mPu2AGljpMtSmbXspk52Jo7FhcPLoUT3xZPnjz53wJ65+499O0/AAJHISxNzZh5VBIkt6/We2HrksqZQi+Kt+PVzXw8upyHWeOzsW3RODw7v80A8GnRVjQPC8CF/Yv/OVa8i5lje1bNxKzRfXFq+zyIHOywatWq/x2gd+/dR5++/WBiz0cbkQhmZuYY0K8/khKT0CQ0DM0imyKpfQcmsW46PWt4OAl8V0rAXl/dh1dX9uLE1vno3iEexzbNwrPzbxqtVxd3YPTAzujVMYFZBXSvm/lrcGTTXKybNxrRoT5YPCUbQoET826tWbOm2qFWuw598fIlfhyVg/rWNkiViHBA7wJLOx6kTkIYNzDGd99+h3rf1YPA3h5xLWIR6OuPtXNGMXvxXTDp3N4Vk5EzIAPr5o7CosnZCPF2R3aPZJBJROepMbtyeBkszEywacEYvLiwHatmDoetlQWsLMzQNNgLRzb8DImTFKaWNqyXdvTIkWqFWu1A161ZC1MbW7SRiHC1sR5jVQrY2wvgxBdg+5KJeHwlD6f2LEdME184OTgypwj1aN4HkwP6bd06qF3rG9Sq9Q3c1DIc2zjLAJSueXVxJ/Pmm5k2xMUDS9iLOrh6GpNksgyeFm5hQMcoFTC35UEkFuP8xYvVBrXagJIn6cTx49C56RHA4+GY3hU3G+uhdhDAplEjFOVtwNUT27BgQjbOHFqPbatnwVevhafeHZ3ax5Uym94Ht3DPQqYnqVUnvVr2+teXdiIhOgx+7q64lrei1PlHBZshcbLHDp0zpqpVqG9nx7rE1eWErjagDx48QGpqGhxNTbFQq8Ezn8Y45e4KubkFxg/tyRqGtIRoWJmawc/DhY0Lfd8+BgJrK8Q3CcDNY6tLFbwspA/9ffnQUgQ01qNzYiyuHF5uuPft42shcuBjl06Ns+46dBaLwBeKMXHiJLyuBqdJtQAl6Vy8ZCmMjOqji1yKe17ueOTtid1uLhAZ1cOu1XMZ0JNb5yIhOhQzRvVBr46tQUb2z6P6MNuwIpvzQ0Fy15Mxv2/lFHjr1ej7fVtW/UnHFuzOhUIgwhE3F5xx12Gvmwv87XnQ+/jgcF7eR1f9agH68NEjuOpc4cOzxyl3PR56e+KKpx573TSQGhljfe5EBpT65NN+6IUbR1exfvXVw8tZw1HSw8QB+dD0afHON/7PEp6nR+c2Y8FPA+GuVWHZtKF4eWEH9q+aigihBKf0WgaUoE5XKyHk8dA3KwuPHj36KKjVAnT8+J/QsH4DTFYrDTCpOp3Qa+FuYY3B3ZMYULIPl00bxhqGuyfWggzxDwVX3vUk3c8uHwBBLXmeWv+NC8YiyMuDtfq/Xt6FpdOGortGxao7waR8HtS7oK2jA5RaLQukKM8TX9ljHw2U/Jx2tnYI4AtwrbE77nq5GzJb4K5DF7EIEr4drp3cwVpcanlLFro69nctnYBTO3Lx9G8jn5wg1AWdmZOFqFAfZPdMYXqU7NTBvTthhE6DAndXg4QS2NkaFaQWFsjOzv6oXtRHA501cxa+NmqAORoVk84LHm6GjNLb3+qqgZmVFRIT4t8C+fDMhgr76x8CelT/DNB2ducC7F81he27axVIadkUG+aNYg0eOV9u5a9GeFAg5jkrDXkkmLTtcXNBc0cHuHl5M2ulshJZ9rqPBqoWyfCNjS0eeHvigbeHQTq5jBZ6uCJLLkVdMwt0SmjOHBRUuJ+yu6FLYizO710Ectd9CEC6luxJkkTqepKd2T6uKQK8PNE6KhRjBnXGnuWTcOf4WlYrlk8fjolDe7ChZU+lHJvUbwOllz9apQDP1BTzc3Px62+/VUmXfhTQoydOwtTMDP3lUjz29kSRR+lqxEE97+GK9mIRvrKyQZ3axsxZIrC1wpIZOaBhjsrCJPuSrr15bBW6dIjH3HEDcHDNNFw/spLBJR3Jbad3zMeCCYMQ6usOtVzIHCMzc/oi3VWDvBINEpdHUk/bXF3gbWuHtE4ZuH//fs0DHTdmLBpY2+KYXouH3h5vVSMus5QSVDKkfRwd0cjCBvHRUWy86PW1g6A+emWgUtADNUCkh8/smI+WTYNgbmqC+kYNYWJkgkamZqj1zTfIW/8zHHg8NDCqBxeFmDWE1ADGRoZhsEiE039X85L5o/3jei3ixCI4CEUorOIwSZUllKpEoJ8/hPZ8ZsQTsLIZLPubJJikox3fAZHBASjYv5K1/k+Ld5QCSv3x8gC/uHoIlw8tQ0JMJFMdZBaRGZQzoDMS45vCW6+Hm0bOqntmciumVs7uymWOkuUzRkDvrMR8Z0WF+SQpHaVSwMrICBs2bsQff/75wVJaZaCXr1yFQqFAR5GQASVdWRZgeb9JCobIJNBoVFi/cPJbQEkCl04dyhqY8nQr6c28dTOQldEOq2eNZNJKOpkG4+6eXMe6sDQoR7qVuqWcw6R9yyjE8/jY7+bylp7n8nnOXYcVWmfITEwwYviIKg2TVBno3j174OjoiElKGQPKZep9KSn/pS7O0NnYYHj/bsy3WVJCCeju5ZOQM+B71gEoDypJ79xxA+Gjd0XrqCB06dAC/bu0xeDuiWzrld4aV/OWM5h0vzlj+8FbLsY0lbzC6s7le5+bBm7W1oiPb4nnz5/XnIQuzF0IG4ED1riomBOEy9D7UgJK1b6zowAtm4bgzP7VoKr8uMQQMvWkcgZ0wdhB3ZnOLA8q6cTlM4aha1IcWkcFIzbCH21iQpDeNhrDeqcwU4mk88iGmfDy0iPegc8MeHr+u/J4Uq9FkEAAhVyBJ48f1xzQEcOGw8TBiVWh4kpWd64gVLUWalTwEdhj9oRheHo1r1S3kTxCp7bNQ/eUVpj2YyZofInMpJJ69UnBZpAOJfjUSJ3ft4jpVdK/VP3pWjrXJTEO5o0sESkUMpv4fUBJj6ZIJDAxqo+HDx/WHNDMHj1gJXBEkae+Qp3EASyZUoFI387UqCCytER0ZDCuUNTIjaOlgf0tXW1iQjF7TF88KaBAiNJQCRodIwnmNjpGPSLSq92T4iGwtoOjUAZrOx5aiUXMGfIuqJS37jIp6tepg4uXLtcc0LSUFDjY83Glsfs7q1BZmMf0OvSRyyDk8VmUMkUcz5k0Ak+vHsHrS6UDGcicoiGOMD89BnRpx+xPzhYtKa3cPjk/6DzFhupUCthZWkPr3xRB6YOh9giEvS0PQU5O2PW3p6lk3rh9AjpEIYNp3brIP3mq5oAmt0+Esz0fVysJtNDdFbPVSkj5AhjZ2UOs0cOlaVvIFDp8V8cEc8YOwJMrecz7RK43qs4EiqDS8G9GmxhInZwwe0w/VpWpBSeA1OrTPjlb1s0ZCf/GHvjmG2P2soRiGbRN2yGoUzZCOg+HUu8HKx4fznwHbHfVMNuYA8mlBHQYB/TEyZoDmpacAhVfUG6vg8scVa0Teh1W6ZwRJ3TCd3wHCOUu8Ezohog+P7HNp0MfSGVqfFu7Fny9vDEjZwDWzh2NfSunYt+KyRjcLQn+rloE63UQOjriP7UbwsbMHG1bNEFWp7bo3D4WrSKDIHMSwNLCFPY2NFbEh0TgwGaL8Ph8OPs2QViPHARnDIFS7wu+nT0c7flYq1O/VbtKAj1+qgYltHNGBhwEDjhUTjeOQFJvZKebC/rIpTC148FRooJbaBwrFAczPHMMQrr+AG1ESwh4tohr3gIL5i/AiOHDkZqUDJ2LFhpLKwyXS5GtVMBf6AQpTafhC9gAW6CnHu5qNZJiI1hffXjfdHirFHB3csQ6nQuTQNLVPKUL3KITEZiezaTVxScUTgIHCPkCHCmTfwI6WCGDSd26KCg6X3MSOnjgQFgJHLDDVVPqLZ/62wtOvtFIR0c4Okmg8gyEX+oAg1SG9xqL4M7D4NuhD/SxadBFd4BzUBR4jjJk9umPDevX4/Sp0xg8YgS6ipyYWfbE2wOXPN2w3U2L3nI5fCRiNA31x5DMjpiW0w/DszIQplZitFKBq5563PJyxwUPV+zV6xCmcIbavxl7lm9yP9Dzdd7B+M6Oh3Va51L5J6DpUgnq1amDq9eu1RzQqVOmwELggKWafzw3JJUrdWokiMUQ2ljDXqqCPjIBTXqOZjDDe49DQHo2fBJ7Qx/XkYEkmNymiUiAg6sf1O4+aNYsGlpXPQaIhbjo6cYsAyrs9cZ6/NJYj11uWnQRS+BjYYMEngDNbe3RwUmI3W463GqsZ5CopuzXu6C92gVS/2aG53gn9oYmNBbmPHtm9nEqilIy6SJEQljb2FbJe1/lntKmjRvBdxJiglLOCkuZz9drkSmXwZRnD5mLHl4JndGEqvX3w+CfNhBe7XrCrUWqoWAcyLKpukkriPT+MBMqMNRZhcuebwBxBadnFXi4YZRKiRYiIXa4abHF1QUxQiG2uGrB2cV0HVXpNI0WAr9/gNLz+Ao1woVClnfuvpQe0rtAz+MhLDyiSjNHqgz0zLlzbLpgZ5HQUICjei26kc4Uy+AZl4rwXuMQ/P1QuLfMqBTIUmCjEmHXOBh91c7lugWpsaNGpYtMiv4KObKcHBDEGkkdyw85YjhnTCedG6RBMaVepKXACWNUilItPUnnRp0GzqYm6NOnT5XmN1UZKMWp63Q66O35BqBU5cc4K2BpZw9tcAzCeoxCYNpAuMUklypMKXAlqnzZ447+Ueihc2UdB5K2kpJEv8nR0VYihtZZjV4ZGchISoazhQXaikXIlksxUeLIoAVp9SB1wt1fE94adewF2OOmKdUpoV7SLLUSDvWNMHf+AtAUoLIe+ff9rjJQunHP7j1QT+CAPP2bIVl6w6u0avgKBJC6eiOg42BE9B5vaHi4AlU21US2QSu9N+sy0r1LAt3lpkG4nS2bfZeXfxwXL1/BtV+uY/369YiLbg6fZnFo22cYgsObwVEkhTrkHwkV+YUjXiIuJZ10bwLaVS6F0Xff4cSJEx8Mk5h8FFCa9mdiYoLJzipD5mgEsb1EzBS+d6sM1hiV1wBVFqqTmy/GqZXMDCMLggo+y1kBvaMQrgFh8Pf1w6pVq3Hz9h3MmD6DedqHZGej/fDJGLLmAAYt24nopAyI5GrWkaDnWovkmOSsNOSZe1EksUF2tgiPbIob12/UPNA79+6DLxDAw8GxlPSMdlZAaGsHbUgsq/be7XsZqtu7QLpEtnnrOgf/KKRoXLBM64wJzgrEi4SwcXZF+oT56Ju7Gd6x7dCmfSLOFhRi3779eP7sOQho0sjpDGj/RVvQLLkrlI1D2L1dmrWDqVDKqjsHklKqAQs0KshNGiInJ6dKrruPllC6QdcePfC1uTlyNSqWKcrYBp2a9Zmd3HwQlDEUwZ2y3wJVFqy2WTvIPXzfMqeoeyrRecFOokA9ayu4+4ei74INDBZJYNqoGfAOaoIVK1bizp07uP/gIQb2H4Bes1Yhe9VepPwwGbqgSIN0ChsHI1IiLSUApI+P698MedO8KVrcgMpWle2jqjw9sLCwkOkcMl+4N06mSrJUDAehBL7tejI9WhZg2d/qsJZQaD0R2HHwW/AJqsInDAqFEn3mrTPAJKCDl+9CSNs0dM/sheUrV+Fg3lF0TE1Dv9zNyJq/AQHxidAEt2D3pJdmKVNjhFJeqjEiISCLwcPaGh1S03DjRtWqO/H4aKB0k7YJCTAzNcUilzdSSsqdxuld7flwi0pEeObYtyBVBJQ6AWXP0W+pxh2e/sHoMmVxKaAE9fvxcxAQEYWFS5bi7v37iGwSzqQzNXs0lF7Bhvupg5pDJFGwGsS9fE46B8gkEAtFbHo5zVypinRWG9DzRUVoWM8IEUIhM4wpkxRoS31vWWBzhPUcDX3LDEPBygPGPE+NA1mvqrzzUo8ASMRSaPXuaNWpJ7pOX2YAO3jFbvhHt8SPP/zIJiMEhDbBwCXb4eEXDHUJc0ns5oM4iYQ5dMhGpZ4XvfzlWmdoaNijdQKufORc0GqRUIq+69+vHxoZG7NRQ8okQW0pEUOq9URYtx/hm9j7nUAJoiq4RYVAXZq2gXNgc0hkKoidhHDRatEirRt6zFzJwCaPmISgwFBs2bYdzRNTEd4uDSq/poZn0guzULlihEqOk3odNuvUGCiXIpyGOxpZsiHozl264s69j5u2WC1ASdSvXL4Md3cP6G1tsUarZsb+UKUMSr4D80X6J2UZCleeBNIx59D4CoFy/9FGtoE6JBYSuRqOPB5kYjGCY1qh48gpcPX0Q1hIKHyDQ+Cs94U2KtHwTKVnEHROQgxXytFUJIKNPR/GtetAYGnL4pnatk6ApXkjjBw9Gk8/YrGCagP6+x9/YOXq1fhPvXqIEQuZsU96lGfRCJ6tO1fYMKkCm8Ll72qpCYl6L1AD2KbtoPKLhETuDL6tHexMG8LB1obtk2vOOSQWcq8AKDz8oNLo2Rok5K5rYGaB/3zzDSKahDN9ST0+mkP/9Okz9MzMhE6rxfH8/H9Xh3IKnGIrKXrN3MyM+RTX69QQNWoEXUwKM/A5GP+kiSBHiKNQCqnKFXKNO/NZyv2jIPNuAqnOEwqtBxxlSjg5CmFvZQNrY1NYGZvCxLgh27cxtYDAxhYOvDdOY4rlFzo4MicyLQTDs7SGtbEZeBZW4FvbsiU4Ll2+wqKVaVSz5BTFo0ePwqtxY8ydN//fiW3iQJZMLxQXIyEhARIrK/STSiC2tIIqNP4toK7Nk0CGvNI/AhKJEo5OYgZFzHOAWCyGSqWCp4cnWrZqhaysvpgw/ifkLliAtWvWYNPGTWyjntqKFSswe9YsZPboCW8PT0ikCrj4hEPjEwZHgSNCAoPYtUkdkpCclIzrv/wCCl9fv2kL+vbJwr69+wzS+OTpM7RJaMPWQPlXYptKgiy5f/z4cUQ1awaFjS2cbGyh8A1nQEu67mjfNSaFeaH08emgzdLKlq1ic/r0ady7/wAvP2A1G4qinvnzTDSObsO8XGR+CZ31CA0NZdK4ceMmZKRnoODcOezetQsTJk5iTuyiwiLcuXPX4AgZ1Lc/dGoXnCsowF9VMO6rTYeWBEr7hw8fRkyzKPCsbCDTeTKgHgldDI0EVXuCSs5e8pXSZmQtxJMqNghkfy5ZsgQeUa3ZaEBA+mAI9b7w8vbGLzdu4sq1X5CSnIJdO3fhz7/+woXLV7Bi+Qps2byZzZ9/9ffs5JUrVrCImPWbNtdsbFNZgOX9PpKXB39vH4gl8nKB/qNL33jt61k74eTZc4YqWN49KzpGQNeuXQuVVyDc4zvBLTYVIr0v9FpX5B8/AQJGqzksWrwEZLhfv3kLNOnr5MmTDDgHNC8vD2q1GrNmz2HXVfS8io5/MgnlHtitcxcIBQ6VAmos02Hjps1VBrp9+w5IXNxBDhBdVCJkXmHQKp2xedMmds+kpCRMm/Ezg3vll+s4fuIkjhzLx7nzxaCJvgQ1/1g+3FxdMe/f8Idy0N6VDs0ewoZsaaSzbJUvK6E8z0D8NP6nKgPds2cPpFoPA1C5TziUEilmz5zF9HGn9E4YN3YsLl25CgJK241bt9l2++495gKkl0ISSh2EP2synPFdEEueG5MzBrxGVpWSUFVILHpn9qoeoNEdoA5uwSyHHt17sCreK7MXKCbrzLkCHDt5CnsOHsL27duxZ+9enCkoBC2WMGzoMDQJCcXFKk5X/ORVfvrUacwWrExPiSQ2yD+gykCPnz4DPl9ucNVRj4pnbYPmzaIw8seRkMvkbO0TWv+ENi8PT+Y7XbZsGdPdCxctZjGvP+SMxrMqhDKSIH1yoDQv3d7cCraWVpBrPeESngByo5Wt7tzvRpZWoKk6JaW8MvvUKJ08cxYahQou4a3BuqiBUW8Mfj4fFOmycfMWJpmHjh6Do5MT2rVpix7dejBzytfbB5aWlkhPT8cvv/zywc/n8vjJgd6jOaDJKVCqVBA5OMLW2hYynRfrj1OhqfHgYFLayNoJp86c/eACEdCLV64iwNcPDmIlVC56prtFjk7o2q077j94UOqet+7cwcEDB7B0yRK2bdiwAefPF7OGiYNTlfSTA+UydbawCD8MHwF//wDIRGLY2PAgVuuh9A6DJqg56zURUDpGPSDuf5VNOaDhoWHwCwhAty5doZBIkdi23UdJXGWfz11XY0DpgeSEKCgswqRJk9loJfW5TU1MwOM5sF6N1M0XMrmaLfbCZbCyKZk91KhENW2GHXv3sTWbSXcO7Nf/g19OZZ9Z3nU1CpTLwG+//Y4LFy5i7rx56NmzJ2KbxyA4IBBBfv7MKxTepMkHQ6CFr6k3RKtE7D+ch4LzxcxiIL8C99yaSP8VoFzBfv/9DxZ2XVxczMbByQdAI5YqZ2fcun3ng0A8fvKU2ZXUG9qxZx9bpYFW4vH18wOtgcI981On/yrQ8gpHc9ZpBfBt27Z9EIQnT98AJa8TNTC0HPuC3IXQarXI/wj/Znl5fNexzw7o3bt3oXd1Q/agwR8ElIZhKNihd6/eWLd2LesN0cq5IqGQ/X4XhOo899kBpblBmT17okl4OMg/+SGFJaA5o3Iwfdo0bNy6HT179GBA165Z+0H3+ZBnlr32swNKniBaPdFdr8eJ4x8WX0RAydlMa9rTsDZNTPu+UwbIV1q24J/q92cHlAp69vQZuLvqmcO4sgWnSLnrt26D/Jl169bF5MlTcLkKEciVfV5F132WQO/du4f09E4ICwvDtq3bUHCuAHfu3gUtslWyIDS5lY49fPwYly5fRt6Ro5gzew6T0EPVsCBLyWdVdv+zBEoznekDAVRthU5OCA8PR3JKKnpnZWHUsB8wZdIkzJwxA7TQ67Ahw9CjR090SEpCXGwsUxV2trZV9hZVFlxF132WQCmzN2/cxMyZs9jQbouYGPj6+EIqlsDRlgeBHY+tVEa+AYmjEGqlCl6ejdE8Ohpduvdg1b6iAn/q458tUCo46UXqUl6+dAlnz54FDU8c2L+fDbLt2rmTpfv37WdDGWdOn8alixfZ4B6ZUJ8aXEX3/6yBVpTpz/n4F6BVGCp+1wv9rIFS1f3jjz9BfX6q/r/99lulVvem/7EQmyqMCb0LVmXOVQooZZBWL/z1199KbRSI8DGxlO/L4NNnz3Eo7yhyFy/F9BkzWC9o196979WP+w8cxIgRI7Bh8+Ya/wJYpYDSitq0wveC3F74nDkAAAd1SURBVFzMnjvPsC1dvoK5yd4HpqrnHz1+zIaVw0LD0MCoPmrXqoXROTnvBPrq1WsYGRmh3rffQcDjs4arqs+vyv8qBZT61/PnzUN002asYPW+/RZCRyfkjBqF0+c+3VcLuALNnzuPDQeb1TfGmPcA5RY2tDA1g0osw+7de975ArhnVFdaKaDcw8iLQ0ELVqbm6NCuPW7dvFUjmaWPVynFUpgaNXgvUMrr9m3b2YxmCi77kPgorpwfk34QUBrrkQpFbNXvjqmpbNZF2YeTN56igC9dvcrcaRXpWGo0yIdJ19M9yLNE/7lfzjofHwqU7kd6n+5ftrtK52iImM7RPsW10oDdzdu38fp1+V+xoaGbW3fu4tqNG3j+4gVevnrN/k8NJt2j5FZtQCnKorCoCN27dQeFvNASmHFx8YiNaYF9Bw6xh9KiKPGxsQgJCkZoUDBaxLRgVZK+9hUQEABXNzc2iJe7ILdUJssCJVgUHde+bTv2P/ov+UEPHs5Dq9atERUegXD/YERFRYOiSWjl2qnTpiM0IAgRAcHw8fbByB9HMZ8pqTG9uzvbMjMzcfly6XVGNm/ajGZNwtnEjKlTp6Fjx3REhEdg/rz55U6urTag9CUvZ4USzioV64dTDOagAQMgEjjA1tYOp86ewx+//46DBw+iaZNwJuVSkRhh4eGYOHEic7tZmVvAztoGGo0GR/L+Wb27LFCSCLI65syZw5YD+vnnmbh06TKbrHXlyhX4eDaGrYUlxA5OWL16NZNWivckpzXlx7qRJXwae4FCc+blLmSLHZjWawBrKyv8MHKkISSchplprJ6+I3r0WD4brqGPEkZHN0ef3n3KXTWnWoCSdNJHUoy/qwe/gEA2/ECFpg+XqiQy9m3OtJRUJnU09jN4yFA0qF+fBSGsWb2a2ZZ0D1pLjxoeGv6lZTS5qlQe0AvFF5CWmoazBUVvxSARONK3tNQ7AeXus2/vXrjrXGFtboFmEZHMrqXnUoAYBetaNDBBSvsO7AOE9J9+Wf3YtRIHJ2zdssVwn0OHDmHypMm4d/eu4Rj3jHcCJR1RUgdWpENJH9aqVQt8Gzv4e3mDzKltu/Zg1KjRbAF+4wYNIBdL2MNJd2UPHc6sBbVCiR3bdxgyNW/uXDT4ui4bt6cMc5nkgBLsUSNHsr69q8YF2YMGMSjcdVxKA33lAd2/f/8boGYWSE9LN9yfJq81DY9EIxNTVrVpAgbda8zo0ew+VK5GDUzZS5g9Zw7OF1+o8KthFQKlzzZu3LIFuYsW49atN615RUDPX7zEgFJMu4ebnknX8mXLsHLlShazSXGbFMZNmfwYoDbmjZCWnAovdw/25TCFXA76WkLZD/dVF1AaAVAqlWxtElsra6amjOsZQSmTY8GC3HK/eFMh0OVLl8Hc1IxJUkpSCoNBa4GQy8y8oSky0juBBtQIEoUEkoTaWVsjKCgIxRcqXmj/Y4BSVU3u0AEzpk1nVdHG0goREZEoKCxk+ahuCT196hSu37yJwYMGISg4GG46V0iEItg2smTtxfnzby/yUiHQfll9wafP6ZqZoVWrViw8mq13Z2kJ4/r1MXz4CMMndEgPuWg0sDY1h06tecsfSbbgtAlvqvDHAOXsUKo9rVu1RiMzc7YY18ABA0o1EJWR0K6duxpeQkVVPiQ4BNeuXWM6mmL+9+zejXYJCWxNKDMTU5w6+fa6ThUCXbJsOSxpjpGHB8jXePv2HXRKS4dR3W/h5+OLQ4cPGxoDMmNWr1wFB1seTBuaICoikg3dFhadBwUv9O7dB507dWEFuH//AQveql/PCA529li+bLmhypL5VPfrWhDY2GHQwEEGu3DWzzMhFjgyfdYrM5M9l8bvXbU6NGxgDJlEAtK/L/4OQaSBOYLvZGfPGg8u3JsaSbVEDgtjE8S3iDV8Rv3M6TMI9PWDeYOGLO9Ff0s8n8dD61atcOnSJQN86h02MDJCZHgEfrn2dpRehUAfPnyEESNHsZlpWX36sGEIZ6WKKfO9+/a9tR4HmTFLlyxFy7g4JjUSsRg+vn6gYNfJU6aC5ta/eP4CkyZMQkLr1ggODGLfqOuYkoazZ8+Bhnop6oO++UkBr0mJHbB6zRps2bwFXTt3YaZWaGAwOz5tylRmnE+fPgM+Xl7sXvTfyRMn46dx45l9StfSx1fp23ekvw8eOMhCc5qFRyI0MIiF7IwZPYZJNsWOxsW0AP2nVVw8i165f+8eW5grKysLvXtmMhOQPugaGhKK9okd2Nx8aow5NcOlFQKlC6j3QmK9a/cebN6yFceOHWO9o7KNAHczcq/RW6PrDhw4wDaatsJ1/8gFd/HCRRQVFeHChQtsO3fuHB4/ecJWUKCqxx0vPn8eN2/eZA0i7XPHKaXQHaoVjx49Bk3cpWOUsnsXFoFMKu764vPFuH37Nu7fu4+y9yEdSFC4a7mU8kcTwihv1BmhqThkWh08dIhFoVAjXdL64cpP6TuBchfS6CLpSe73/8WUXuCff75/aKVSQP8vAqxqmb8ALePcqCpI7n9fgH4BWtpdxknG55L+Px9A3ac8IOnDAAAAAElFTkSuQmCC;align=center;" vertex="1" parent="1">
          <mxGeometry x="38" y="1534" width="32.07" height="42" as="geometry" />
        </mxCell>
        <mxCell id="qG5oZKhEG7zA3qGjVQWN-22" value="assemblies.yml" style="swimlane;align=center;" vertex="1" parent="1">
          <mxGeometry x="683" y="1501" width="513" height="82" as="geometry" />
        </mxCell>
        <mxCell id="qG5oZKhEG7zA3qGjVQWN-23" value="&lt;div&gt;blueprintRepository:&amp;nbsp; https://bitbucketglobal.experian.local/scm/dasa/software-use-uk-mewtwo&lt;/div&gt;&lt;div style=&quot;text-align: left&quot;&gt;blueprintRepositoryReference: feature/adaptive-icc-mssql&lt;/div&gt;" style="text;html=1;align=center;verticalAlign=middle;resizable=0;points=[];autosize=1;" vertex="1" parent="qG5oZKhEG7zA3qGjVQWN-22">
          <mxGeometry x="3" y="34" width="508" height="32" as="geometry" />
        </mxCell>
        <mxCell id="qG5oZKhEG7zA3qGjVQWN-24" value="software-use-uk-mewtwo repo&lt;br&gt;feature/adaptive-icc-mssql" style="rounded=0;whiteSpace=wrap;html=1;align=center;verticalAlign=top;fontStyle=1;fillColor=#fff2cc;strokeColor=#d6b656;" vertex="1" parent="1">
          <mxGeometry x="430" y="1871" width="440" height="54" as="geometry" />
        </mxCell>
        <mxCell id="qG5oZKhEG7zA3qGjVQWN-27" value="properties.yml" style="swimlane;align=center;" vertex="1" parent="1">
          <mxGeometry x="679" y="1593" width="688" height="149" as="geometry">
            <mxRectangle x="582" y="1594" width="110" height="23" as="alternateBounds" />
          </mxGeometry>
        </mxCell>
        <mxCell id="qG5oZKhEG7zA3qGjVQWN-28" value="&lt;div&gt;BPS_DOC_VOLUME_STORAGE_SIZE: 500Mi&lt;/div&gt;&lt;div&gt;USECASE: pc-uk-mewtwo&lt;/div&gt;&lt;div&gt;&lt;font color=&quot;#0000cc&quot;&gt;RELEASENAME: 202010080545-feature&lt;/font&gt;&lt;/div&gt;&lt;div&gt;BPS_PROMETHEUS_ENABLED: false&lt;/div&gt;&lt;div&gt;DATA_INJECT_SQL_FILE: http://local/2.1__pc-test-sample_MSSQL.sql&lt;/div&gt;&lt;div&gt;BPS_LIMIT_CPU: 3&lt;/div&gt;&lt;div&gt;SCHEMA_BPS_SCHEMA_SYSTEM_URL: http://local/SQLSVR-Global_Tenant-1.0.0-master-without-ega-branch-filtering.sql&lt;/div&gt;&lt;div&gt;BPS_DB_JDBC_ATTRIBUTES: &quot;&quot;&lt;/div&gt;" style="text;html=1;align=left;verticalAlign=middle;resizable=0;points=[];autosize=1;" vertex="1" parent="qG5oZKhEG7zA3qGjVQWN-27">
          <mxGeometry x="7" y="27" width="671" height="116" as="geometry" />
        </mxCell>
        <mxCell id="49MwqGxrEaM8BJWbzXwS-1" value="&lt;b&gt;Juno, usecase pipeline is used to do full&amp;nbsp;orchestra on&lt;/b&gt;&lt;br&gt;-create client&lt;br&gt;-create client environment&lt;br&gt;-create usecase release&lt;br&gt;&lt;div&gt;&lt;span&gt;-create usecase environment&lt;/span&gt;&lt;/div&gt;" style="text;html=1;strokeColor=none;fillColor=none;align=left;verticalAlign=middle;whiteSpace=wrap;rounded=0;" vertex="1" parent="1">
          <mxGeometry x="39" y="1078" width="379" height="20" as="geometry" />
        </mxCell>
      </root>
    </mxGraphModel>
  </diagram>
  <diagram id="-T5_wcRGJeTI9wuBq7Qv" name="login-ewacs">
    <mxGraphModel dx="2189" dy="802" grid="0" gridSize="10" guides="1" tooltips="1" connect="1" arrows="1" fold="1" page="1" pageScale="1" pageWidth="850" pageHeight="1100" math="0" shadow="0">
      <root>
        <mxCell id="uq-IiAho0hEKO2kXrdbQ-0" />
        <mxCell id="uq-IiAho0hEKO2kXrdbQ-1" parent="uq-IiAho0hEKO2kXrdbQ-0" />
        <mxCell id="P5qISW23LmS3Dwndeurh-0" value="Juno is in &quot;prod dev&quot; that does not fronted by APIGEE. Hence public facing IP 204.x.x.1&lt;br&gt;will not be detected when we login from login-ui.&amp;nbsp;" style="text;html=1;strokeColor=none;fillColor=none;align=center;verticalAlign=middle;whiteSpace=wrap;rounded=0;" vertex="1" parent="uq-IiAho0hEKO2kXrdbQ-1">
          <mxGeometry x="78" y="39" width="679" height="20" as="geometry" />
        </mxCell>
        <mxCell id="P5qISW23LmS3Dwndeurh-1" value="AppCanvas" style="rounded=1;whiteSpace=wrap;html=1;align=center;verticalAlign=top;fontStyle=1" vertex="1" parent="uq-IiAho0hEKO2kXrdbQ-1">
          <mxGeometry x="469" y="312" width="280" height="182" as="geometry" />
        </mxCell>
        <mxCell id="P5qISW23LmS3Dwndeurh-5" style="edgeStyle=orthogonalEdgeStyle;rounded=0;orthogonalLoop=1;jettySize=auto;html=1;" edge="1" parent="uq-IiAho0hEKO2kXrdbQ-1" source="P5qISW23LmS3Dwndeurh-2" target="P5qISW23LmS3Dwndeurh-3">
          <mxGeometry relative="1" as="geometry">
            <Array as="points">
              <mxPoint x="770" y="403" />
              <mxPoint x="770" y="77" />
            </Array>
          </mxGeometry>
        </mxCell>
        <mxCell id="P5qISW23LmS3Dwndeurh-6" value="2 getUser" style="edgeLabel;html=1;align=center;verticalAlign=middle;resizable=0;points=[];" vertex="1" connectable="0" parent="P5qISW23LmS3Dwndeurh-5">
          <mxGeometry x="0.6215" y="-3" relative="1" as="geometry">
            <mxPoint as="offset" />
          </mxGeometry>
        </mxCell>
        <mxCell id="P5qISW23LmS3Dwndeurh-2" value="Token service" style="rounded=0;whiteSpace=wrap;html=1;align=center;" vertex="1" parent="uq-IiAho0hEKO2kXrdbQ-1">
          <mxGeometry x="504" y="370" width="220" height="66" as="geometry" />
        </mxCell>
        <mxCell id="P5qISW23LmS3Dwndeurh-7" style="edgeStyle=orthogonalEdgeStyle;rounded=0;orthogonalLoop=1;jettySize=auto;html=1;entryX=1;entryY=0.75;entryDx=0;entryDy=0;" edge="1" parent="uq-IiAho0hEKO2kXrdbQ-1" source="P5qISW23LmS3Dwndeurh-3" target="P5qISW23LmS3Dwndeurh-2">
          <mxGeometry relative="1" as="geometry">
            <Array as="points">
              <mxPoint x="864" y="420" />
              <mxPoint x="760" y="420" />
            </Array>
          </mxGeometry>
        </mxCell>
        <mxCell id="P5qISW23LmS3Dwndeurh-8" value="3.user&amp;nbsp;&lt;br&gt;with whitelist" style="edgeLabel;html=1;align=center;verticalAlign=middle;resizable=0;points=[];" vertex="1" connectable="0" parent="P5qISW23LmS3Dwndeurh-7">
          <mxGeometry x="-0.532" y="3" relative="1" as="geometry">
            <mxPoint as="offset" />
          </mxGeometry>
        </mxCell>
        <mxCell id="P5qISW23LmS3Dwndeurh-3" value="EWACS" style="rounded=0;whiteSpace=wrap;html=1;align=center;" vertex="1" parent="uq-IiAho0hEKO2kXrdbQ-1">
          <mxGeometry x="804" y="47" width="120" height="60" as="geometry" />
        </mxCell>
        <mxCell id="P5qISW23LmS3Dwndeurh-10" value="login" style="edgeStyle=orthogonalEdgeStyle;rounded=0;orthogonalLoop=1;jettySize=auto;html=1;" edge="1" parent="uq-IiAho0hEKO2kXrdbQ-1" source="P5qISW23LmS3Dwndeurh-9" target="P5qISW23LmS3Dwndeurh-2">
          <mxGeometry relative="1" as="geometry" />
        </mxCell>
        <mxCell id="P5qISW23LmS3Dwndeurh-15" value="1" style="edgeLabel;html=1;align=center;verticalAlign=middle;resizable=0;points=[];" vertex="1" connectable="0" parent="P5qISW23LmS3Dwndeurh-10">
          <mxGeometry x="-0.2034" y="1" relative="1" as="geometry">
            <mxPoint as="offset" />
          </mxGeometry>
        </mxCell>
        <mxCell id="P5qISW23LmS3Dwndeurh-9" value="Actor" style="shape=umlActor;verticalLabelPosition=bottom;verticalAlign=top;html=1;outlineConnect=0;align=center;" vertex="1" parent="uq-IiAho0hEKO2kXrdbQ-1">
          <mxGeometry x="-9" y="376" width="30" height="60" as="geometry" />
        </mxCell>
        <mxCell id="P5qISW23LmS3Dwndeurh-12" value="&lt;span lang=&quot;EN-GB&quot; style=&quot;font-size: 11.0pt ; font-family: &amp;#34;calibri&amp;#34; , sans-serif&quot;&gt;: &lt;a href=&quot;https://da-saas-ucb-login-ui.b-internal.appcanvas.net/login&quot;&gt;https://da-saas-ucb-login-ui.b-internal.appcanvas.net/login&lt;/a&gt;&lt;/span&gt;" style="text;html=1;strokeColor=none;fillColor=none;align=center;verticalAlign=middle;whiteSpace=wrap;rounded=0;" vertex="1" parent="uq-IiAho0hEKO2kXrdbQ-1">
          <mxGeometry x="32" y="418" width="432" height="20" as="geometry" />
        </mxCell>
        <mxCell id="P5qISW23LmS3Dwndeurh-13" value="&quot;ipRange&quot;: &quot;84.246.168.11,&lt;br&gt;84.246.168.33,&lt;br&gt;205.174.40.1,&lt;br&gt;84.246.168.17,&lt;br&gt;167.107.191.217,&lt;br&gt;84.246.168.12,&lt;br&gt;84.246.168.14&quot;" style="rounded=0;whiteSpace=wrap;html=1;align=center;fillColor=#dae8fc;strokeColor=#6c8ebf;" vertex="1" parent="uq-IiAho0hEKO2kXrdbQ-1">
          <mxGeometry x="905" y="116" width="120" height="129" as="geometry" />
        </mxCell>
        <mxCell id="P5qISW23LmS3Dwndeurh-19" value="&lt;a href=&quot;mailto:experian.administrator.mfa@pcotest.com&quot; style=&quot;color: rgb(0 , 82 , 204) ; cursor: pointer ; font-family: , &amp;#34;blinkmacsystemfont&amp;#34; , &amp;#34;segoe ui&amp;#34; , &amp;#34;roboto&amp;#34; , &amp;#34;oxygen&amp;#34; , &amp;#34;ubuntu&amp;#34; , &amp;#34;fira sans&amp;#34; , &amp;#34;droid sans&amp;#34; , &amp;#34;helvetica neue&amp;#34; , sans-serif ; font-size: 14px ; font-weight: 700&quot;&gt;experian.administrator.mfa@pcotest.com&lt;/a&gt;&lt;br&gt;Experian123!" style="text;html=1;strokeColor=none;fillColor=none;align=center;verticalAlign=middle;whiteSpace=wrap;rounded=0;" vertex="1" parent="uq-IiAho0hEKO2kXrdbQ-1">
          <mxGeometry x="120" y="440" width="262" height="59" as="geometry" />
        </mxCell>
        <mxCell id="P5qISW23LmS3Dwndeurh-22" value="IP:10.158.x.x" style="text;html=1;strokeColor=none;fillColor=none;align=center;verticalAlign=middle;whiteSpace=wrap;rounded=0;" vertex="1" parent="uq-IiAho0hEKO2kXrdbQ-1">
          <mxGeometry x="187" y="383" width="160" height="20" as="geometry" />
        </mxCell>
        <mxCell id="P5qISW23LmS3Dwndeurh-23" value="CAN&#39;T LOGIN" style="rounded=0;whiteSpace=wrap;html=1;align=center;fontStyle=1;fillColor=#fff2cc;strokeColor=#d6b656;fontColor=#FF0000;" vertex="1" parent="uq-IiAho0hEKO2kXrdbQ-1">
          <mxGeometry x="48" y="39" width="120" height="60" as="geometry" />
        </mxCell>
        <mxCell id="P5qISW23LmS3Dwndeurh-24" value="And we login using the internal url, which share the same network" style="text;html=1;strokeColor=none;fillColor=none;align=center;verticalAlign=middle;whiteSpace=wrap;rounded=0;fontColor=#330000;" vertex="1" parent="uq-IiAho0hEKO2kXrdbQ-1">
          <mxGeometry x="187" y="75" width="509" height="20" as="geometry" />
        </mxCell>
        <mxCell id="P5qISW23LmS3Dwndeurh-25" value="To be able to by pass it, we set header value&amp;nbsp;&lt;strong style=&quot;color: rgb(23 , 43 , 77) ; font-family: , &amp;#34;blinkmacsystemfont&amp;#34; , &amp;#34;segoe ui&amp;#34; , &amp;#34;roboto&amp;#34; , &amp;#34;oxygen&amp;#34; , &amp;#34;ubuntu&amp;#34; , &amp;#34;fira sans&amp;#34; , &amp;#34;droid sans&amp;#34; , &amp;#34;helvetica neue&amp;#34; , sans-serif ; font-size: 14px ; background-color: rgb(255 , 255 , 255)&quot;&gt;X-Forwarded-For&lt;/strong&gt;&lt;span style=&quot;background-color: rgb(255 , 255 , 255)&quot;&gt;&lt;font color=&quot;#172b4d&quot;&gt;&lt;span style=&quot;font-size: 14px&quot;&gt;&amp;nbsp;to one of whitelist&lt;/span&gt;&lt;/font&gt;&lt;br&gt;&lt;font color=&quot;#172b4d&quot;&gt;&lt;span style=&quot;font-size: 14px&quot;&gt;see https://pages.experian.com/display/GPD/X-Forwarded-For+Header+Injection&lt;/span&gt;&lt;/font&gt;&lt;br&gt;&lt;/span&gt;" style="text;html=1;strokeColor=none;fillColor=none;align=center;verticalAlign=middle;whiteSpace=wrap;rounded=0;fontColor=#330000;" vertex="1" parent="uq-IiAho0hEKO2kXrdbQ-1">
          <mxGeometry x="102" y="118" width="620" height="20" as="geometry" />
        </mxCell>
        <mxCell id="P5qISW23LmS3Dwndeurh-26" value="" style="shape=image;verticalLabelPosition=bottom;labelBackgroundColor=#ffffff;verticalAlign=top;aspect=fixed;imageAspect=0;image=data:image/png,iVBORw0KGgoAAAANSUhEUgAAA94AAAKRCAYAAACiFHEmAAAgAElEQVR4Aey9WbAc133miSdHhyP85Kd+8ZMfpgOvkiiKrx0OR8xEjGZaICVSdkS73YywI9ztsbU5gGnDlmV5mW6JlkgLFmGttChoAwlxAUSQBEiQIImFIEGKK7gvIimIBEGIq87El5lf1pf/OlmVWdutuvfLiHtP5jn/9XdOVeW/MqtqU/JmAiZgAiZgAiZgAiZgAiZgAibQSuBXv/pVwt97772X3n333fTOO++kt99+O7355pvp3Llz6ezZs+nMmTPp1VdfTadPn04vv/xyev7559NTTz2VHn744XT48OG06eJ/3TB/yHuR23333Zcuu+yyYn6O3XlP+tcbHync33zgJ2nfT3anXbt2pkM/+XF64IlT6ZYjj6Qzr5xKX/jLv0nX/+DH6djRW9Otx+5J//DZv0vf/uL/l6787tfTD6/+Qvq3b3893Xrn/em7u/el6+48nm694Zp08vBN6cDhe9Ox+w+ly//fK9Kpe/ekn519Of1o7/H0wC3fSS+/+Hx66N4D6foffD098soL6apv7U2PHr427d13f9q0SCD2ZQImYAImYAImYAImYAImYAKrRsCFd783DRZZeGNurr766vS9730vPfbYY+mlF46mA3femZ5/+GR69Nln0xvvvJIee/KldPr5R9K5M8+nu/ffkE48/Gjae8vt6fRbZ9NrP3smHX05pbffezkdue9Eeju9md5JKb369q/S8Sd+ke645e50z4H9Kb37Wrr55hPF0v3St25OP3/7TNqz65b0ze9dn776r/+SrvvJgfTIs6fTwydPpdsOHkpf+txX0hvvvpIee/Z0eunJEy68V+1B73hNwARMwARMwARMwARMwAQWS8CF9/IW3lgJuBPhoYceWuyi6OnNV7x7ArO4CZiACZiACZiACZiACZjAxiLgwnu5C2/can7TTTcVixK3ml99x7Pl/tPPpjvu+Enaf+vutPfmm4tbza89/GS6695T6Z/++u/T//qbL6X77rszfeUrl6W//5//kr7znX9L2//us+m//8ln0hevviHt339PuvbGfemOY/enH1zxxfTE4ZvSE088W9xq/vW/25luOfDD9Opbv0rX7T2enjy+Nx08eEd64O59ac+/fiE9e+5Xae/N96dbb9mXdv3gHl/x3lhPGc7WBEzABEzABEzABEzABEygLwEX3stbeGNuvvWtb6V77jmSnnvuufTauSfSd/YcSMfuOZz2/uSG9Novn0+PPvFSevmZR9IrLzyaDh+/Lx2856H0L1+/Ov0ct5o//1h64PgD6a33Xk7HHr0/nX3tlfT8K2fSL56+Lz38szfST4/emw7/5Pp0+o1fpBuuuyu9/c67af/td6Xn3z6Trr16X/rxtXvTLQf3pX+78Z505633pYfufzz9ZO/edO23d6dX33olPfLUS+nkg/e68O77oLO8CZiACZiACZiACZiACZjAxiLgwnt5C2+sRNxq/uyzzxZfgLesK9O3mi/rzDguEzABEzABEzABEzABEzCBpSDgwnu5C+9jx46lhx8uv8n82B0n0jW3l1+C9vBrr6WjR+9Nh267Nh06drS41fyrNz2ZTj3z83T1V3amb/zzd9Kppx9PO774T+kfv/rjdOPNN6WvfOOr6c8+9830Z5//RrrlxwfS4QceSCefej7tv3Zv+tmD9xTr8dTjd6dv/91X0lPPnEgv/uJcuufIo+nnzz6Qnnvu+XTitj3p6q9emR752bl06ODR9PyLL6WdO2/0Fe+leCQ7CBMwARMwARMwARMwARMwgaUl4MJ7eQtvzM1Xv/rV9KMf/SidPHkynUuvpL/95x+lo0ePpB3fuy499uTR9NMnXkr3Hj+W7rjl2nT7iYfSlVdelQ4dfbC41fwXTz+QTh24prjV/PGn703P/vRQuuvwwXTr0ZPpqVfPpseO3pXuuvbqdPs9d6ZvXfH9dPz4/em+++5Op36JW81/kG65YW/66aP3p7/55v70Pz79+eJW8+t3X5tu23treu6NV9LJhx5Khx940IX30j66HZgJmIAJmIAJmIAJmIAJmMBSEHDhvbyFNxYIbjXn31IsmEwQvtWcUHZtSZs2bUpbdrFjTu2i/MwpfJs1ARMwARMwARMwARMwgY1GwIX3chfeZ86cSSdOnEjvvvtu+s6Of0v33/2D9PrPHi+X6TuvpUMPPZRu/P730h1HDqS9tz2UHv7ps+n6H/0w7frKN9N3bjyUnrr/ZCH78P33pZ/esy+defFYuuaLl6UTL5xL37vmjrR7z7Vp91U3pt0/vi7dedM16cpvfiNddcXX09X/8o10x96fFL8Bftvtx9J3vnFbeur0z9Pd1/4w3XPyeDp+P255fzcdO3Z0hle8T25PmzdtKopXFLD13+bNacv2XalMZV4P0V1pi/jcvL3y1hLT5i3bh+NZVEG8ID8nt28ezMGmzYlIxs7AguIbG4cFTMAETMAETMAETMAETGBJCLjwXt7CG3Nzzz33pG984xvFVe/X3n4t3X73Q+mlN1PxZWuH77gj/eyZI+mqy7+ZThy6Pr395vPpkWeOpTOnn0m7f7grPfbSK+mOu+8vZH+VUtp3+6F04/7r01WX70o/2fXldPzYfenEiSPpuu/ekA7fdyr9/O030pMn70w/uO3u9PTZc+nok6+lB396Z9r3nW+lXbtvSC8/9WR65dwz6cidj6a9h06km6+7Pl327R/MvvBGUbtr167ib/uWLWnL5qoIn+ul5LLw3rLrZHFff13kV4X35u1lPLu2I56qIN0ciu9FFZyL8pMqFoU/F95L8pztMFaEAJ4rNsfniBWJ3WGagAmYgAmYgAnMnoAL7+UtvEfN9uOPP54ef/yFUSL1WCn7XH08653Z3WpeF7l12VvHumsLiu8exV+t2XWHhXeQr2KKNT+vBjf6F1UQL8oPUbjwJgm3JtCRwMm0HW8YuvDuyMtiJmACJmACJrD+CbjwXs3Ce5lW5kIK7zT3YrNf4Z2NZ+4xVtO+KD9cZS68ScKtCXQk4MK7IyiLmYAJmIAJmMCGIeDC24X3tIt9jQvvk2nXluZnkXG7+GDjCfCWNPo7z/oV3uUV73AFfkRBfHIXbjuVz61v2pw2b2n/3HpOvs4r66eMf/iugHF8Uhq8iSCyeqVuBoV3ecdCZg4ydzko25O4XZefvd+8OW1vmcQcr1F8B+sD6WNeusWW0slU3ELMmDZtysyjcCzkNqd67ui4nkORVeaUYytzoEwG3zUgduBz85bUeBhUdk7u2j74qEQhB6b6eEmpL/8uNkv3ZYz1fG6qvruhZsFk2YacIB9iLddu+TichksxryOfR7pz4d0w9XdUVGulcXcMU3RrAiZgAiZgAiawYQi48HbhPe1iX0DhXRXPQ8XRrurz3+UJPD4Xvr06ea6/HC3NvvBGoYHiYeCjQpgtIBg7CjT97PrmsqAcKrba5bfw282G/FAnvBGQuvAZFN4o2ocKG6QmRV+nxTIUX7/iloXfli2b0+bNW9J2fN6/LsBjjsy9K9/hDPoU3vzIA77sr/gegqHP8c6IeQyzmoOCSbWOuNZxO/N2vHmwuVpfNavwZgLf5CDToggf/ghHL/4dbaKwLW69Lt6o4OMAbwIM3oxqFqZ9OG5OU3Hp+DjpzOUk1kaVW816VzrZfH8jzrCPTcAETMAETMAE1jkBF94uvKdd4rMvvBsFanXFEyew4cS1rWBq6x+d6Ogr3vHqVfZqaqbg5NWv9oK2WcCPlGcCDT8saGJB2l7sDvGp7G1qVj70tkaF96Y0FE8Vp77hMZJXRn6Q1GBviAeHWFTWC6+6q6CNU/EeRf7q+ZCPccwZA9sW+dLu8GeJB1xoIOGS7dDVbfTFN5Go24V/X5vD6Lh+mz/DN8SrSmOofwZchmy2+OrFhW80DL2xJvPhXRMwARMwARMwgQ1FwIW3C+9pF/zMC+9ckTsc5IgiqDgZHy5Eh21oz+jCu/5Wc1zJwpXY6hbiuiaDqaoIGBQXVVHRevIdx+Oxxif7tR/cijt8xbKU7MGntic+dLcvz4y9tuJmVOE34MhgYk7jeI0br0h1vtW8soc7L8KbQJWl8ifphgMffvMiw4hZZts2+apf34wo9KuCOhdK035kyluqm4VwqTMs27TFoyg3Zh6Gcov6tMvHmDy2h3Qr2c5cuvti4T3MNGdjTM6SkndNwARMwARMwAQ2BgEX3i68p13pMy+8B0XE4DOeg74q3KqwiEW6Hg+fII9KtTx5HtJpLWCqk20tqoeKgNwJeTOGZkFayg/l2lSpC/wyV9weHgXKq5uDz9IObufN8hmKO9grxqXYCcNDhxl7zTxFo/WKa85f5BmPxW612+pXRFtlMrHhzRVyLT46oAV4nzWZYSQhDe+2zUGbnbZ1e7L8jHp5G798N4IsorLA7MK/CnOszTHzFHPozTETa7RJopFLD1/9uLjwJnK3JmACJmACJmACJQEX3i68p30szLHwLkMrC6Nwcl2dMOvnpvnb32z7faayLA6k/iidxxN1oTVUsA2d7I8pOOKtycypcRldHHK38rO5+j1x3PY+tNGW3LZPLmxrPkNxB2vFeOAfRBqHGXtDrKjAOCXn7gVOT770Gdo+sZWqzS9Yq/kzl1kwDzG2fs4+w7pQrWLRpcErtps24zPR1WfncQcH7t4Qwe78B1fHR9scM08xh94cM2sz2iTPyKWHrz5c6s+06xtzjMGtCZiACZiACZjAhiTgwtuF97QLf+6FN29H1uIg4QuRQsEwXSKlPak/SnPxRF2cDBVsQyf74656xfGOOYkfFlPDV8k72kI+Yk/SG+wW45niZiDR2MsVKEOsqMHCZ6LCO/KjUbbjxku5PrHRctnGW/1nyLzpaPhWdY63zd3Qum2Lbbg/N3+luygbj+ugwmOzkmspQrmGB4+9Nru0L23b2pyai/iodrtzgUK3tTfsxT0mYAImYAImYALrlYALbxfe067t+RfexZ3T5W2xg5Nz1CLVF1np7b4TZ1Oe7Kv9wtRQAVM5OJkpJjIn+4OiIhNkJa9Fc5lT7vO1kljww59TUzuQ7swn2BNP5W4x3rXwzhccAw5N68xXY+9T4AzsduPb9F4eDWw0R3OxNSWG37SYGfPoqG0O2uYurtvMGxyFi0pf39TqzL+HzZJLbg1Vj6NNzTXfj2PGblcuPR4nnbkUYPOPgzitPjYBEzABEzABE9g4BFx4u/CedrUvpPCur3DrT4pVJ/7Fz2Dx552qnxSrb/+trzyFn1Yaynp04T3Zl6vBSXUC3vgZpfJnz4rPCg9dBeTPKA3/PFb7z4mxyG5+Q3p9p0D1e8m8xRw/QzXgM1w8DqPZkoZ/H1yldqXtxc8mDX4eaugNDN6hILEUcWwuv6hu0sK7P1+Nm/ss/po/S4db+TFHg9ggN5CpfzKq95rswJyhsZ228B7Df6LCu4fNweNX+BU/xVbe9o7vHmismU6PbXKcrvDu+jjpV3gPbsMvnzvwjfKcTLcmYAImYAImYAIbkYALbxfe0677BRXePMlufh414cpz9VlnfnEYfvt58K3TvPI0XeFN22yHvlgLFNuusqXqM8Hym8XFZ2IHQYY5KL9Ujl/iBZ/F71nzom7WjxT4ctv2eD6j4q7Caiv66qhZuJbfsJ796TTInhwU5kVOW/Dbxm0/Z5UppljoNSq0wnD5O9+d+daBD3Y6xZaZF3yem/NCa2PXZAfmtMW2bQ6ya6FkjfXTQFXENfiiPazhkxmmvQrMjjaLNE6WbzjxMYTHwHbAa81h3GObHDNrpdVmud4aXBBchznrxaVMONW/tb4JuXIy3ZqACZiACZiACWxEAi68XXhPu+5nV3hPG8lU+i1XvKeyuU6U24q+dZKe01hjAm1F8hqHZfcmYAImYAImYAImMEsCLrxdeE+7ntZZ4X0ynTx5MsWLmNNCWk39ioUL79WcvhWJuv3z3yuSgMM0ARMwARMwARMwgQ4EXHi78O6wTEaKrKvCm7fBDj7XOzL3dT1Y3lrLW5Mzt/Ou6+yd3EII8LPcQ/d+L8S7nZiACZiACZiACZjAwghMW3jfeeedadPF/YrXVZZ/6qmnFjY3q+JonRTeq4LbcZrAChLAXRObt6Qt4UsQyze6xn3/wgrm65BNwARMwARMwARMIBCYpvB+6KGHkgvvAHQDHrrw3oCT7pRNoBeB6svL9AsD8U35+HZ9f6yjF0kLm4AJmIAJmIAJrCiBPoX3z3/+8/Tyyy+n559/PuHK70YsvB944IF07Nix9Nprr83t77nnnkvHjx9fmT8X3iv64HfYJmACJmACJmACJmACJmACiyHQp/A+ffq0C+8HHki7d+9Or7766tz+UHgfPXp0Zf5ceC/msWovJmACJmACJmACJmACJmACK0pgmsL74Ycf3nC3mu/bty/hqvc8/44cOZL279+/Mn8uvFf0we+wTcAETMAETMAETMAETMAEFkNg2sL78OHDG+rL1Vb5i+HmFvtilqq9mIAJmIAJmIAJmIAJmIAJmMBqEhhVeP/yl79Mb7zxRnr99deLzzPjVvNXXnklvfDCC8VnvB955JHkwnvjfKN7a+G+mkvfUZuACZiACZiACZiACZiACZjAYgj0Kbx/8YtfDBXed911l694b6CfU8sW34tZqvZiAiZgAiZgAiZgAiZgAiZgAqtJoK3wfuutt1K84o3CG99s/uKLL6ann346Pfroo+nuu+924e3CezUXv6M2ARMwARMwARMwARNYDIHDd9ye/GcGG3kN3HnotoS/O24/WPwduu1Auv3grem2A7ekg7fenA7csj/dsv+mdPNN+9JN+25M+268Pt1w3Z507e4fph98f1f6t6u+7cLbhfdinrDtxQRMwARMwARMwARMYDUJoODyNh0BM5yO36y0p5kHXPV+7733ir933303vf322wlXvN9888107ty5dPbs2XTmzJni57P4k2L4yatTp04Vv2mdvf14oxejGyn/WS1i2zEBEzABEzABEzABE1ifBKYpVtYnkf5ZmWF/ZvPQmGYeYuH9zjvvNApv/YI1fs77+eefT08++WS69957fcV7IxXZuVznsaBt0wRMwARMwARMwARMYP0QmKZYWT8UpsvEDKfjNyvtaeah7XPeuOKtn/PmVW9+zvvZZ59NJ0+edOGdK0Y3Ut+sFrHtmIAJmIAJmIAJmIAJrE8C0xQr65NI/6zMsD+zeWhMMw9thTe/YE1vN3/ttdcSbjd/6aWXEq56//SnP033339/Onr0aPFFa3fccUe67bbb0sGDB9OBAwfSzTffnPbv359uuummtHfv3nTjjTcWfzfccENaD39XXP7lsXl0kZkXi0X43jSPBW2bJmACJmACJmACJmAC64fANMXK+qEwXSZmOB2/WWlPMw+jCm9+zltvN3/11VeLbzf/2c9+lvBZ76eeeio9/vjj6eGHHy4KcVwFv++++4rb0I8fP14U5UeOHCkKc/z8GH77e7387fzqv4zNpYvMvHgswrcL71k9im3HBEzABEzABEzABNYpgWmKlXWKpHdaZtgb2VwUppmHWHjjC9bwOW98yRpvN89d9X7llVcSi2/8vBg+840CHD8zhiL8oYceSg8++GBxOzquip84caL4w+fCUZCvh79vfuNrY/PoIjMvFovw7cJ7Lg9pGzUBEzABEzABEzCB9UNgmmJl/VCYLhMznI7frLSnmQctvPHt5lp467eb86o3P+vNbzhH8f3CCy8UV79ZgOMbzx977LFGEY7b0lGIP/DAA+vm7ztXfXtsLl1k5sVkEb5deM/qUWw7JmACJmACJmACJrBOCUxTrADJk/ufTa899fo6pdMtrVkzNNNu3KPUNPPAwhttW+GNL1njVe/XX3894bPeuOUcxTeufOMz3y+++GLxuW/cfv7MM88kFuFPPPFE8dNjuBrOYvyRRx5J6+Hve9+9emweXWTmxWIRvl14x0ejj03ABEzABEzABEzABBoEpilWUCB+//+8Pj149aMNmxvtYJYMzXTy1TPNPOQK79xV73HF98svv1zceo6r3/jiNS3A8Tlw3IqOIpyFOK6Kr/rfD7//vbE5dJGZF4dF+F6awvvcW2+la47dlf70qp3pd//xr9Jvf/KP0m/+8e+lX/uDjxR/2EcfxiADWeh4MwETMAETMAETMAETmC+BSYsVFoj3fe2n8w1wBazPiqGZTjfZk84DvbL4xhVvXvX+379+Mn33xM+Kz3rzlnP+vNjZs2dTvPKNnxlD8Y2r37z9nAU4fnoMV8F5JRxXw9fD3zU/+uHYPLrIzIvFInyvaeF9+uzr6WsH96cPX/b59Ot/eFHa9Psf7vUHHejCBmx5MwETMAETMAETMAETmD2BSYqV+RaI+9O2D52fLpC/bfunyRv2Lk47T01jY7TuLBjOlunyMLx52/npgqEJ1DnR/dGcx41OMg9qk4W33m7+uVueSv/bF46m7977YtLCG7ec4/Pesfj+xS9+Ud96/vLLP0x/9v73pQ9Uf+9///vSf/pfh+sr4bgavrZ/u9J/f9//lf7nndPF8eNrd4/No4vMvFgswveaFN5vvPVm+uw1u9JvXPqxXoX2qMIctmATtr2ZgAmYgAmYgAmYgAnMjkDfYmW2BWIuj1CI7d+aLvjQ1nRzTrRTX7DXSaef0LQMZ8805LxWDE9dmT5+yda07ZL4xofGp/v9uEfpvvMQ9WPhzaveXYtvfOEaP/ddFuC7059/4CPpsqOvNK6C40o4Pgu+9n/fT//P+//v9IW7p4vl+h9fOzaXLjLz4rEI3wstvN99772045a96d//t/88s4I7FuOwDR/w5c0ETMAETMAETMAETGB6An2LlWsu3peu/p1rO/3h898H/8dd6YV7XuoRaCzE4nEPU4XotPrj/U3CEFy4jWK6ygxP7bw4fXznqcSW+aakc6L7A4lJ9vrOQ/SRK7zr4vvmJ7NXvuNnvll8lwX4tekTH/hI+tLx08VvfuM2dHwJG/5wO/ra/+GK/H9Klx2dLpYbr79ubC5dZObFYxG+F1Z4P3v6lfS+v/zE3AruWIDDF3x6MwETMAETMAETMAETmI5A32Klz9VZFNx3f+HehMKy+2fBQyGGq7WXXJnqO8VxFbW+DZ1Xwiud/YMxFHzlRnun0s5Lzk+Nu56j7QlRTstwFNPVZQje1ZXu4sq3zOGSFt6Y/lzxjS9Zw9/nMsW3/sa33nqOAvzMmT3pk+dtSV8+8Wrx7ee4Cs5b0U8f/6d04Qfen86r/j6x+3Rxi/rp07uLYv0Tn/hIOu8Df54+8Yn3pziGQh7fpF7Y+MTuYv+aTwxsnVf1RVvXUKfyeeGX/ql+Y6Cwh/EJ/n6y94axeuNkvvSlL6UPfOB9Ca3G0Ldfdbk/zjflpmkXUngffuzhuV7ljkU3j3H1G769mYAJmIAJmIAJmIAJTE6gb9EIT6MKxVwkkEfx3e3KNwpl+Yx3s1Jufl57/9biimp5BfX8QYFeFOe8vZmFd0oJhbbYw+eP5TAXeqe+WTAcx3TlGDaKbSnCC6IyJ40ivBPuVqG+8/Bb/3g0Df39w5H0W42/e9Jv/cM96bf+nn93p/ddfrz+srX4ue/mZ79/nD513gfSB+Xvk3teS6+9hoL8A+mT15YF+asnvpQuqgv0a4uxi758oijWX732E+mDn7y23r/owi2JYye+PNjHz5qVf9BnsR9svVoe0y/0P1jLUr9/e9O+Gyvf7brjZM477/2Jf4NcXq37MNalX2W4P8435aZp5154f+vQrenf/ZctC7vSzaKbLXwjBm8mYAImYAImYAImYAKTEehbrNDLuEKRcmxx5Vtvr2b/cCtFWVFA86p2Sqk4lqIcBXpROYtOZXBQVOsY9mlvf9qmV9KHA+ncMyuG45iuEsN4ezmOB296xDnhmySdkWcFJ50HNaZXvLHPbzhHi896/4cvHCu+5fydd94piu+33367/tI1vfpdFuDXp09/8MJ0xcmz9Zew4VvQXz95ebrovE+mHxdXxXFl/Ez68ac+kD61p7xK/qnztqTL7y/7z9z/5XTRhV9O9xcyW9Lle3h8f7r8QpHb80kp8Nm/J7XZ4hX5xrjEU45XMYzpv/mmfUUOo3TGyVxxxeVFkY1W7fTtV13uj/NNuWnauRbeKHhZAK916+Jbny68bwImYAImYAImYALdCUxTrLBQ7PI73rjajc8rj9+0KEvNzwfHQrw21tRJSW8rb46xIGRbm5hiZ5YMRzFdHYZgHt4gKY7lTY/6m+ab8zPFNKRp5kH95orvv73l6fQfvngs7brvpeK2c/7GNwtwXPnm1W8W4L/85Q3pMx+8KP3zg+cSr4TjdvQ3HrgiffS8T6Xrz5YFOb4Z/fpPn5c+fR2Or0ufPm9QrJ89ezJdcRGOr0ufvujydLI4/lS6/uTl6aPF8dl0Fvu1PcpnbKlO4Tv6GsSDmLr+3bL/prGyXWS6+usrtwjfcyu8cYv3Wl7pjoU+YvFt5/p04X0TMAETMAETMAET6EZg2mIFheJrT3X76Vd8Kdv4LRZielwWdIPPb9Na6G8U6KpfXTXPftM2bfVvZ81wFNOVYJj97HzbmyFhfvrjrzWmnYfaUPis99/e+kxRdH/vvpfrK+D83DcKbxbfuPrNK+BlEX5j+osPfjTteOjNhC9hG/yhID8vfeb6siA/9+AV6WMf/HS64RyOr28U6yjYH/zni9LHPnpR+tg/P1gU8Dj+zGc+XR+fu/7T6fyPXpEehH5hi8V+tIXjgV/YOV/eGICvSf4O3LJ/rF4XmUl8d9FZhO+5FN74UrN5fnN5LKq7HiOmWXzhWv63BvVh2H8fNvUFovBR3+bU3x40Shv523Kat/JQlu8wjveXi1fjH2/BEiZgAiZgAiZgAqtCYJbFyqicJ71aC5vFuQ1vC4+3m8ut5tu2XVz//vfgs9vDhV1xHjUQGBV2pzEzbGKK55IcHZyj6pzoPiUna2c5D7zqXbW5mvUAACAASURBVBbdx9P37n+l+OI1vfWcxbde/W4W4XvTX5z/0bTj4fJquF4Rf/Ohr6SPffC8dH7xVxbnuFL+5puDYr08fjOVsiJT6Mrxmw+lHR+tbH30M+kvPsqxjK0bP1P5PC99bMdX6jcGal9FDIij+99tB24ZK99Fpo/PPrKL8D3zwhs/47XIby/vWnRTDrFN+1Njs34ixtNG25PPZE8ppVYRJ27Z4YuQGBs8qUlnj90YbzzuYcqiJmACJmACJmACS05glsXKqFS7fz55lJW2sX7FG85tZlh3z+wW57bs2L+eGTLHadpZr2UU3//HNx+si24W41p8Y18L8FiENwvx8oo4r4yvl/b2g7fWn3dvy6mLTJvutP2L8D3zwhu/oc0id1lbxDjNVhS0s3wmnmPh/fGdVxafn4lXo114T7MCrGsCJmACJmACG4vArIuVHD3cOt39W81zFsb19Si8ccU8c+FinIdR42Y4is7ixuY1Dyy4c+24IpxFOW9JX4/todsOFLfbj8qti8wo/WnGFuF7poX3G2+9uZS3mMc3AHDLOWKddGsW3vwsStleUHwpxPDt3YUOv0DikivTzY1vbRy+4g35RrGMz8FQv/6iidEZ1DYK3eZt5LHwrmVpMt6iFV58onw8phm3JmACJmACJmACq09gXsUKyOD2clyl7fc73pMw7VJ483xu+FxuEo+qY4ZKY+325zkPuaI79sUiXI9ZgK/H9o7bDw5d9Y95dpGJOrM6XoTvmRben71m19Jf7WYRjlgn3VBkDn7qYPgJuhiXQjUeF78PiSJarprHwrVxXBTB8gKw/8q089T46NVGEYP4G1d4n9q5VXxUOYq+2kYk8Xh8dJYwARMwARMwARNYFQLzKlbwJWD4FnP8hBgK8PW8meFyzO685iFmFwvuUcdafK/XfRS243LrIjPOxqTji/A9s8L79NnX029c+rGVKbwRK2KeZGsWsWVR2rg6XRTKvMKcf3e1aWO4cG0Usg173SMetjEo3scV3kNewjdPNmy78B7C5Q4TMAETMAETWE8EFlWsrCdmMRczjETW5nit5mFU4b0Rxu48dFvxxXOjcu0iM0p/mrFF+J5Z4f21g/tXpujmVW/EPMnWLJrLwlsuBqekV6hbiuZxhW+zsOVV9X5f8tG00fy2z3H+waWQqW9vb35JW7Qdjyfhah0TMAETMAETMIHlJLBWxcpy0pgsKjOcjNustZZ5HqYpHJddt0th20VmXnkuwvfMCu8PX/b5lSu8EfMkG4rMwW3iYwrvzOer4XNc4ZstZIsi/vx0QcefGRu2gavv5WfHR/sv5Rrfhu4r3pMsFeuYgAmYgAmYwLogsMzFyqoANsPlmCnPw9rMQxfuXWTmFf0ifM+k8D731lvp1//wopUrvBEzYu+79Sq89eq3OGraGHOrueillLm1vTE+OBguvFMqP1++Ne0c9eVumav0RaEePreut9dnfQ1C8Z4JmIAJmIAJmMAKE1jESekK4+kUuhl2wjR3Ic/D3BFnHXTh3kUma3wGnYvwPZPC+5pjd01edP/F1elkejpt/4sPD2wUfSmd/NGfDPp+X8aL/X9I+Hq0XV+O/f2OEXvfrVk0j7niXRXKQ1eP+3y52v6t8juS6i//+XHm01YMF/GP8h/fLOCVdhfeROvWBEzABEzABDYUgUWclK53oGa4HDPseVibeejCvYvMvKJfhO+ZFN5/etXOEQXymEJ4ROGdYkHeKL5nU3gj9r5bv8Ib1stiuf45sG37+91qzsK3+rx1faU5c2Vac2krvMvPoOvt8sNX3Buf70bB7VvNFa33TcAETMAETGBDEVjESel6B2qGyzHDnoe1mYcu3LvIzCv6RfieSeH9u//4V3MovA+l7T96OqV0KG1pFNws5GdTeCP2tdhai+I+waAYbnyrWx9ly5qACZiACZiACZhANwKLOCntFsnqSpnhcsyd52Ft5qEL9y4y84p+Eb5nUnj/9if/aC6F95bf/5O0/dmU0l3/kLE/m8IbsS98a/nCtb5x4Kq06+6+1CxvAiZgAiZgAibQlwBOSv1nBl4DXgPTrIFxzzvT2J6F7rj4ph2fSeH9m3/8e5nCmFemx7Stt5pXV7qrz3sPf5Z7NoU3Yp/3Vn+muv5pLv7G97w9274JmIAJmIAJmIAJmIAJmIAJmMBaE5hJ4f1rf/CR+RXev//htDl7y/lsCm/E7s0ETMAETMAETMAETMAETMAETMAE5kVgJQrvTb//4bQFXz7+7NVpc/15bxfe81oUtmsCJmACJmACJmACJmACJmACJjA7AjMpvOd6q3kotAc/MTabwnsRt5rPbrpsyQRMwARMwARMwARMwARMwARMYNUIzKTwnt+Xq4XPh3/5UBr8xNhsCu81+XK1VVsljtcETMAETMAETMAETMAETMAETGBiAjMpvOf1c2K5nxErPu9d3HI+m8J7rX5ObOIZs6IJmIAJmIAJmIAJmIAJmIAJmMBKEZhJ4f2nV+2c65er4TPegz/+xNihtCulNPxt5yo7fh+xezMBEzABEzABEzABEzABEzABEzCBeRGYSeF9zbG7pDAeX+wOiugPp03jfk6sUXRXtqufGAOUaQtvxN5nO7Lj0nTppcN/2/c818fMaNnid77PTxdUPz/28Z2nRstPNbo/bat/5qz0ubjfBofvi9MgvVNp5yXnpwvmGkCPfE9dmT7eiG8q0JMpFzEM1sIFl1yZ5rka6iAba3DRP3+3FuuizrzaGV4n/R+HMY/oo8PxTNbgDOLoEGpeZC195yMa9FbPN3z+qx9bI2JuzMcIuYGT2e2t6WNydmnYkgmYgAksO4HR5/pH0o5Lt6eZnPYf2ZEuvXRHOqJAir6yzsjWFhjfUWponCrb1l+76WAjtcTRartFvvYpO8/t2Z4u3b4nDVdOz6U92wc1VpVmoVno1PVXYFZIYF4Gupc25qgaU4Mxnoa8DM54dyaF97m33kq//ocXTVZ8T1J4oxgvPu89XeGNmBH7ZNsMH3gaQHFyNVyM9j/pV6Oj9sPJY3FiuahCq+kbv3c+eZ5NW+0ZB7nO+Qa9FI/bPU480jjJL63cvG0BcxOZnLoy7dw/cRYTKDbZdlsXTZ009fxEe13SiDrxuIuNecisZRxr6XsEy2KNn58a7/HV67xrzCqn+yP8Tjo008dkjDUeTxqk9UzABExgvRHInevn+vrmXRWYO3akHY3CG7ZZVOb8QK8q+p/bk/bUFbvItvXXIXawkVriaLXdIl/71B3IXtpSeB9JR5jTc3vS9ppFSij4W+rmyrgwSCk1i/tybDvZaThFrijYZ/RmSsP28MFMCm+Y/fBln5+s8M5d0V5QH2KefGtO8OR2VLO8AtM4GcRwPOlSlan340lXPJ7awQgDA1+ndl485ZXuga0RDtNwQTZvvdHRtI+2rIV2hdmN4M2f+urf7Mx2tzSYk+7rYqBT+onH3b1Prh99xuO+McxKfi3jWEvfbfzGPba6xqxyut/md4r+mT4mY6zxeIo4rWoCJmAC64pA7lw/1zdp0rDFQjuhuqyvZsMiike9kp1QjGarTymmG6Fk+rvYGBdH4UNsd5IvA0NOO/bsSduzV7w1+CabIzvGFcZxXvS43N+xI/CEuyJ2vAEyzr7GNvn+zArvrx3cv3KFN2KefNMJFSvFOzSDWx2yjw8Rb+y2Ftg4UeRV8OokaefW/K3o1ZUc3Kb+8Z1Xhlu5G96qg3DShRM8rfzFHmzqUPmGwOA26MHYmBjrMEQuV+g1fA+u9OIKKG/DL2OFndB34K/T7/7Xb6Yna1/cGZVvObZt28Xpgg/BH2Wj/a3D/mC+Ea+yquy0zRlD07awNchZh8r9GGv0L7oSV2NNjGSUv/tgmD2iGZNfm//hpKoesZdZF8MxQF7nP87PlcVHGAbrEyGXby6kkQz4mAuBSj6Dx0SMAc8tVR778ZGFMr7GHR0NO5yvUmd4DU7DeXQcwzzFl8QOfsUbIblcAqLBYeW7+nzETHxluZXFNJ8Xirlum9tCn7wHkQ72RvHSfLiPVtdf9brSiHPK54NiLeUfkyllckcyWf8x1vhYmeY1cUDQeyZgAiawPgjkzvWrviO4Ilue7w+K4ygfjyMVjA8K76FCO1PQ5uuKpp2Bl+H+ovDlVeWBICrQOpZxcZRqfeWLdxLKNw5QK7HwRo7c13gauaPIH9RWA94NhVA8Iz4W09wfxFxq8s0Djqu9+ezPrPA+ffb19BuXfmxlim/Eipgn33KThD65FaIowjnpHTzhRClTaPDEqiwcqhMnVhEoIIoiEfbLMQ6VJ8ktxUMdTjgRq20N2ytP5Giv6Ss3VhfwjRhrx3W8g+IljtFXWSg1ipZCFDFQRvdTGl1QyUlyJt+BH7Wp+2RD3zyWk+vipJfj0JXPrrfykPzDWhgUPE2b+ViVV+k7uybaCpMijMHJPHUlumrumrHk53uE/6ZBOap4xTd6RKLchZzGwH2M6ljJo44vpYQCsMirlcEghkYxFx5jw+s+xnD+4O6BxrwPx1fOZek3P69VTJyQIXuD9dd87Fd6fG5p6ClUjSmnI4Vfqw21l5mHenhSX6on6xzxkAt9tM1teGxRfNDmcmehrv7b9mGptFGHNO3zQRFc7jFZ9g3WC7MY5z+uUz2mDbcmYAImsNEJtJ/r18UiCsS6eI7y8TjyxHjXwrspq5ZwG3auGB3u72ajS+GttrvIp8QityrAWWyHwhu2iu/Syr/DUL1BkKutmqwLO/RRvKlQ6jRuWa/fAGjqKttZ78+s8EZgn71m18oU3oh1ui0zSUWhPXgAwX5jgsc5LE7OeIKnwji54omRnuxBRo6HTihlTM019oOMniBm4qkLllFjGlPhK/io/Vf9xVU15lcNFva1QI6FK8eo1+ajdlbtBDnNd2TcQS/KzoSHxJqx15jrrH8yqVqc9cMOC67CfMxDfOZ2izgGBV1xpbi+utfGXnxM5L/Sz60LxFgUfcy1Qwx13nxs7U/bGkxyiUsOOpyZl/oxEedk1HHFlUV90RZVWvSrx7pfgBi88TCS8wi9wszg7pkLur6RMZSbQtL94HviuavmuY1b1T9cgGos1X4hy7WQGR/KTXPoss+rzU0f3ddJLibpq3ItlktbLpn+mfmXULxrAiZgAuubQOZcX4q4MneV0X2MxuNIC+ODumFkAXtkR6a4Lq8EDxfdLf0dbYyMoyigm4X+aPky54ZMXfBGHnJcvKGRK7DL2mo4Z7AcXBUfvBkCmzIP4ntQo8m4hDCP3ZkW3m+89Wb69//tPy998Y0YEet0W2aSpi28q1sG66skDLBxEqUnfhCQY8g1CgoZo62hNsqUV1DaTurqk7dGTKXRekxjKoaiDwYh/fEKWsZ+odXoH/WGBH3EVnyWBuU25Dimx7oPxXDciKv02Z+HxhrsF0Pap/v5E/1CBXH1XhMaR3V7MRZEI8dR7CW2ifyL/sh10TGGKh1cBUZhxraZZTySGHSowaAc6D7PYjNjp7QmMkWHHus+BuV4JGeRizYbcfThGW2W0Q//F7lZ+GrYGPbGO0OGnkMboshT3kxqjOFAYi7G9LjLfv7x2H2dDAU01FHkOfSYFLEMp1n6F0/eNQETMIF1TCBzrq9FXJG5yug+BuNxRIXxQeHd/hlvuVpcm8j1YbBPf4ts4zZv/ax5X3kGizy1KK726yvSlGu2g8K4S/8o1jpW5YCPCtT+dbzpa9ZHMy28EdyOW/YufeGNGKffcpOEvniruTygujiNhUZxEii3eI49KRycUJYnobwi2OZcTyR5wkgdjA3sNQuvcWO0Ab/BRx1Ks7+Ity4SS/tDV7DAhzLFySX9NG3VLoZ2gtxIGyqr+7mcMD6KFePM6Q4FWXSU86dXzTQG3adNXSe02Yyr05rYf+XQT7wV89CZvcY2gf+wXhrrYqIYKhaY60u2pm313SNklGs1Bx1v5jP8mBg1z2qztDO0vkPuzceO6iMmPS7tseBszrPKBb2JeUabykj21b7ud37chXiLnHPrfOATuQ9zHYwXe4hFH6/obP1Wc821yz6MQW6Gzwdtj8nqzdrhfGfsP+DzoQmYgAlsDAJt5/p6JVZlUNRJHTDiqm3JD7pSJzQu4Ild9Mdbr0NxXM9HW38fG21xjLJd5yFx10GFHdhn0Qub9f4R+Wm1FjtFbMqftlvki+EwBp+X6lX7ME6Tc2hnXni/+9576X1/+YmlLb4RG2KcfmuZpGJB8F2d3MLo4Lk6KeRtqDyZLjX1xA894Vh0G1+kpSe9jRDKEzT6GtxqWgkVJ8jxtt5xYyGmGGPtP8qVn71tFtb0zVvNy6tVRbyhiMIVnaIfwNo+31mdEOfzjfE0jxv2q88J1/6QUyurpp3GnLXOSwVJ5hO+BifY0Wb0T15YIoNbiRtroiujegG2sY+xhOM2/625B32yLt5waYuhWjvyWfo4XyBa9NX5jPsuAC2i60U7Yp5jDDGPcNxYL5yvINN47IwaGzHPDRvIQ+208VSZqBOOs/MIfTweleEMfMF1jpussfo7L1rXN4xk7PANvQYfCCqLtv0499G+clAbwX6WJWXicyH6sZF1OV4v7wYn9T8ca+6xUhl3YwImYAIbmEDuXD/2heOqqCs/pzzu27KhK4U3SIs+a23cps19Tgb6Ch9yJRm3X4/q72qj8NESR85nmzxjHWrbCu9GDSVvYBR3DrC20n61HOZBh4buPMAbJMp9lG7D0NQHMy+8EdGzp19ZylvOcYs5YtswW3HiVV4xxYlVfUK2AQAc/Jv/mD53YPkTXfi8yJpYE0bif+G565eqVUtjTRgsYlkK53m7W4t57JLTKs7tsrLswtsyJmACJmAC8yBwJO3gFeGJzc/CxsTOrSgE5lJ4w/7hxx5O/+6/bFmaK9+IBTFtpA0nceXVY1wR0VuW1zuFA+lzv/PX6eDSp7n4eRmsibVhNPC/+NyLK6X1VU0sjrVhsIhlOeA8b29rMI+dUlrFuV1Wlp2AW8gETMAETMAETGAMgbkV3vD7rUO3Lk3hjVjW/ya3cha3eW6kYnv9z+5kGa71mlhr/6DGGJq3207Gc1m1mCNvR/Zjf1lnynGZgAmYgAmYgAlsTAJzLbyBFAXvWl75hu+NUXRvzAXsrE3ABEzABEzABEzABEzABExg2QnMvfAGANzivRY/MwafG+328mVfcI7PBEzABEzABEzABEzABEzABDYagYUU3oCKLzVb5Ledw9eG+iK1jbZyna8JmIAJmIAJmIAJmIAJmIAJrAiBhRXe4IGf8cJvaM/z6jdsw8dsfjJsRWbRYZqACZiACZiACZiACZiACZiACSwtgYUW3qTwxltvps9esyv9xqUfm9mXr8EWbMK2NxMwARMwARMwARMwARMwARMwARNYFgJrUngz+dNnX09fO7g/ffiyz6df/8OLehfh0IEubMDWYjf8+Prgx9wvnfo39jR6/KwMv524avVnkPZvTRc0xuM3GI/RV1fF/ij5zNiHzk8f33mqaWVsTAPxUzsvbsRf2Cp+d/j8dEHfHxuv/A7FA3fZsfjtz8JZGQ/CXcgefv5pKAfE35dHl2g5Vx3zLX6aKheH2inmb5pvDcc6m0a/S+KQCfNfM5iX/za7bf1d85hUDn5lzecey5Oabui15Ne6TlrkU1t/5azVXiOYloNhFrll3lQeE09TeEFHiCm+BszJdQfei3ouG+mnEWfHOePzWeMXQUboNnzMibfNmoAJmIAJrCsCa1p4K8lzb72Vrjl2V/rTq3am3/3Hv0q//ck/Sr/5x7+Xfu0PPlL8YR99GIMMZKGzJttze9L2Sy9NO46I9+f2pD16LEO9dvni3zgDPJV2brsyFaVu8WLfLFBv3iYnXeP0YzBj5XHiwd8DL5XrwpkxjotJfBZF3IfOT1RNaX/aiSI+Y0PU2ner+IeKVmiMGkMJVr0BkNVt9zifkSJ/mceiQJxHIVrO54D/mHQQ1yVb07ZLYiw97Yxxg3Uw98K7WmON3E9dmXbuR3Dz8t9mt61/LKgpBRblt6+fNvm2/ikxFOrBdvF8oY/BnI+gkxNZeB9iGhf3AoNa1HNZZz8d5izamvvzwgLnw65MwARMwASWhsDSFN5LQ2RsIOWV7kbRPVanqwBOEJpFbtQcXSyO12/a6yKfk+FVw7IYGx2TeKwKn+xV3FFjYmJod0xxPSQvHZ3jFp157jau4CCvRoU4K8+Yz1hEt9sGI7wxwXYg2c/OQK9tb9b2op9yzbYjnZf/Nrtt/THuWR8vym9fP23ybf2z4BJtx+Ocjy4yOb159iGmJSq8U0qLeS7r6qfDnOH5tr77Reeqg66Ke98ETMAETMAERhBw4T0CTnaouNq9I42+uN28Db1zkd6liKxkcKv50JXaLvqaVCd5nHgMvxnAorUoZEbFJP4aOtJf7LLwvuTi9PHiVr/gU3w0cmcO27YO63Es3hZf+WY8QxwZS4xjXL/G/qGL07Ztcks9K74Df51+979+Mz0Z88cx7Bcnf7FIjCd/esw3Qcrbh+mmvoOgyqHsr+ay6hvKeygm2K6K9Do2COXsaExVLrWfKwfFfmv+QV9jaXCXAqOtX3W5X8iKLvvrtvK//8p6HTX4tPlq6492wyczmlfYY+56XO3vHHy8pC2uj++cJWe9K6U5n3j81euszjPuaA46Nk1/bq037fGOmuKjOAyy65rD84UUX1lbvDMiu06qWGQMIfB5pvG8VRWnRZx4nDBW2m+bb0VZ78NvubbVV8ngyrTzkjBfkufIHLMxCO9WrqOey8piuTXv+nEifuo8Mzt4/I19zlRb2FfetFn2Nx5bxVClK3M6kIl29Q3NzFiWZ/Ox1XgMMzS3JmACJmAC64aAC+++U4nCe+Tnucuie/ue5/park/QeA7WPIkavKg3+wcFOPvH6TOwbvLlCYmekEKfujwJ4TFPqNhPX2jLk7xBHjpWF4rViS/tFblUBTRPTrNjQa/wP1HhXeVbQ6wKMR4zaLXN4ivEUMbLYqHKe9TJasVo206eTNbOBoVr0SUndYgjxlYVxnV3ER+5iy7Nt7X1SS0EpAiPMQwdlwzpv5yvcfm3xRX692+t3nBq629JppFLTqaMuV7nxfyyUG/z1dav9iu71ZsQfHyUbducqN1KnzCH4hoUVd05Nz/jXZou/dBN+XjU+AZ+mmOaq+5rDl37m3ENWFVxtK51xtnip/UxV7Hl3NTJqx3say6VTvVYLz/OoutE3jAs5mrw/NyUVR8Z+4ylMd+qo/vQZwzsl77ADc/DNE/pbI4UasQgsbZyLa0WfoaeywYeh33qPIofVcns5/2oPvfL52KmNWyKz9XKB7pxTsmadmFJ9+NxZYOOh3gO/DUew8MBuscETMAETGDFCbjw7juB4654jxsf4Y8FZSxa2wpWyl9Q3TrM4776o+XDiUcVP33xXIJpsZ8xsR9tmcfgJEPH6sKbBouTk/KkdUiPhS5kRa6wN2qs4XD4zYNiuLI3OOmvigHGRfvVyXrBjn2VDBmQa9v8hXDKw8o/3VWd7YV35Zu+CvmijyeHpQXEUNqMJ4jleO4/8lC7RV51YNGOHMM/C5PCsIzlHI2SIVsWR2gRQ1t/m/0Mk6ZojFGO23y19TcMi53W/iijx7oPA3IM/zPl3LJmMuwG66mRlBxInNLbiL9vf8Vb1+SQvcbjVwu5hrPqQGLM5Mjnln5vkqhPsV94DMfZWIOMzncuhdpuy9wNje9P23TN9I4hxtcaVP3cXD9lULS3Tyq2tJW9ph+Ns9z/+CXyJkiLqaK7WmelPbWDUT1u2x8lF8bgS+ejYb+Ixv9MwARMwATWEQEX3r0nc8xnvKcovOtiovFCzIJVT+gGQbPIK04SqhOG+qpdJdZa+HWSx8mFvONf2OSVgebJHqNqxMROtNUJUvPEuRJgLDx7EtkyfhaOcmseZEWusKR24pjGkrlqj2HGnouRcRRjalt9Zmy08g/xlId6MkeB2BePB3EP1kFzbhBDiXZYl16aLeRyVyBpN9qRY/BorGEZazqRoxaZgi19inhbv4g0d8dd7Yr+5bjNV1t/w7HYae2PMnqs+zAgx/A/R871msnkWY81ctIDiVO7Nf4J+/kYHVrPjTgx3/nnzIHbZoywWz/uW201dRrzMZTbCNmJ7A8ib+7BjzxG8NxUwqnFmBvbYmCiGGJOtYvMTkZ2Ip8Z042ujJ/GXGD8/PTxSy4e4tIwIwfFGisYRtt63LYPQx3HwKP3Y1gC9a4JmIAJmMBKEXDhPcl0HdmRLm39VvPJbzVHKMULfvj8thZup3ZuTYOPLLMAHpxgjtOP6Y6XxwlEs/Au4xlcPRgX08An42URiJGWbzXXwlb3hVF5XlR99rU6eWE+OlafTA8CKfYo2xgvTgxRcOqJ7JVp5ynGXrJu6FKnOtltjNVX+gdzFMIIh3rCxqHSd2W+erNh2B78lrmUc1bLN052c/bpR1owb5wQYkzjiHb0uOm/5DEcr3gLJ6o6UtpqzFEx3NavumG/Wkc1Fwy3fnvxcD6TxaB2NB7tV65AgTVNXioHfT3G/uCxNAvONZuhNTPwU75BKI8PTave1zjrzhD/5P3NtV6x0jVbxE+G6kf3Y4xy3GpLZApTeqz7GBxxPJF9jV334YfzofsiAx7x1wkmiiHmJD6GdjOyrT5HPQaGDIeOjJ8G+8E4XruGH8eYKjzH02wZy+C5VNfRwFZzfkfFrzrwocfYHzy2uj2GGadbEzABEzCBVSPgwnvSGSuubLf9jveRtOPSwVjnL1djLDg5iVcbQ2E5GNeTgsrACH26aLQj5csTg4E/FKVNn+XJgl4dbY43fMXfUeabDMWJsnzpTRVTfZIUYmzrL+Jk9RBtNAPJvslRiDCWeg6qfCSG4upJS+zkwRj1jZM05nORzZMyCVh8X7Bt6+DWc+2vT77LgrL+krrGfOlJH84BcwV2eZcF45coSmYF32CncTJZ2a3428m6cwAAIABJREFUNb4wqDX/4XVW+4/zwfnN9bfkU+cQdeo3F8bkE/VGxVA7w060y8HQr/Oo8zuk367XnXPL47ORY5BpG2vljTj1OYEFT4ifOIby5IDIK6N6rcu4PrdokTlyzTXzLB67xZooC6ni+URtDcWp/nU/N/c6PoH9kazLwptvitbP1/X6ru6c4rot8E4Qg+bfyjUzd+xqm6MCl7zu6WOgNW8aVa65Ph2vchYupQZkZL3WnFS3CHLw3KssiqGW+KNcPJZ13XgMMxW3JmACJmAC64aAC+91M5VOZBUIHPyb/5g+d2B5IsWJen2OObewBiev885/MfnMDdR0hoviuCzA5s2Zga4C70WxIJN5tdOynlY/5rUorrOOO+axVMfyGF6quByMCZiACZjATAi48J4JRhsxgS4EDqTP/c5fp4NdRBcig4KYt6jO0yEL73nnv6h85slqctsoUMqPB8ybM2NcBd6LYkEm82qnZI2Cbugq7zSxLorrlHlPk+Ia6A4ew2vg3C5NwARMwATmTsCF99wR24EJbHQCOHlu3tK70YnMJn+5Vbi4TXYRb6LMJnJbWRQBrhE//hZFvJ8fzg9vc/djuB8/S5uACZjAahFw4b1a8+VoTcAETMAETMAETMAETMAETMAEVoyAC+8VmzCHawImYAImYAImYAImYAImYAImsFoEXHiv1nw5WhMwARMwARMwARMwARMwARMwgRUj4MJ7xSbM4ZqACZiACZiACZiACZiACZiACawWARfeqzVfjtYETMAETMAETMAETMAETMAETGDFCLjwXrEJc7gmYAImYAImYAImYAImYAImYAKrRcCF92rNl6M1ARMwARMwARMwARMwARMwARNYIIHdu3enSf8YpgtvknBrAiZgAiZgAiZgAiZgAiZgAiZgAoEAiu5JNtVz4T0JQeuYgAmYgAmYgAmYgAmYgAmYgAlsCAJaQPdJWPVcePchZ1kTMAETMAETMAETMAETMAETMIENRUAL6D6Jq54L7z7kLGsCJmACJmACJmACJmACJmACJrChCGgB3Sdx1XPh3YecZU3ABEzABEzABEzABEzABEzABDYUAS2gY+J//ud/HrvqY9Vz4V1j8Y4JmIAJmIAJmIAJmIAJmIAJmIAJNAloAa0jKLr5p/3cVz0X3qTi1gRMwARMwARMwARMwARMwARMwAQCAS2gOcSCW1uOsVU9F96k4tYETMAETMAETMAETMAETMAETMAEAgEtoDGkxXbcV1XVc+GtZLxvAiZgAiZgAiZgAiZgAiZgAiZgAkJAC2jpHrurei68x+KygAmYgAmYgAmYgAmYgAmYgAmYwEYloAV0Hwaq58K7DznLmoAJmIAJmIAJmIAJmIAJmIAJbCgCWkD3SVz1XHj3IWdZEzABEzABEzABEzABEzABEzCBDUVAC+g+iaueC+8+5CxrAiZgAiZgAiZgAiZgAiZgAiawoQhoAd0ncdVz4d2HnGVNwARMwARMwARMwARMwARMwAQ2FAEU0JP+EdRMCu/Nmzenffv20eZU7YUXXph27tw5lY21Up4lh7XKYZn8njhxIm3aNPkSnVZ/mViMigWPFzxuvK0WATxn4jljWbZVW0fLxq/rPMa48RyH56q13GJMaxnLWvveunVrwt88Nsw1/ro8X6/yudA82MHmol/T8biY5hxkXhxmZfeZZ54p8kO7Sts8H6Oz4LDKz6d43kH8XbaNWPOcOXMmTfpHpp2rmlEvArOEP8oPg17WVjngiWEZTqr5xNr1gbRItpGR8kMcfV9kp9UflfuyFCU5JuNiA5d5nUiOYjbp2KLWLJ5reCLMdtKYJ9FbthfncetoVI7T6I6yO2ps2fiNilXHYtxYe9MW3vG5T/112Y8xddHhc9G0sXfxtUiZeZ3U932M6LkQdJelAFzL1xOuuUWtB3BHvut142vtrAvvSZ5P+jDWxyh84bEx6xxy8eAxib9x27j8x42Psz+vcTy++qz3aV935pXHPO1OWnRDj5sLb5KYQbsRF+EMsNUmIr++L7LT6teBZHb6njRlTMykK8dkWWKbSYILNKIntnCLF/MuL6qzCnHZXnynWUfT6E7Kc9n4dc0jxr2qhXfXfFdNTk/qZxl7X7vx+WmWsayqrdzr3zxziecU8/S1FrbXQ+G9FtzG+YzP8VF+3HiUX9Rx3+eo9f74yHFfusIbJxD804CxyNiPVt+Z0jG80Ix6scEY7WCfm9rAOE4CuWEh4RgLhLrwjz4eQ1839qOFftumNiCnixBjGmNb7GoD+thyLy7Qhyw3jZH91OMYjrHhmPs4Vp8Y0/zhJ/LU+WrLg3HFBy58MS/I6BM9xmAPG2NmixiYj8bTNh/UY9tVH/aogza3RRnGHOOOsbWxQt6Q1XHkqnlCJm46zpghQ44aJ2S5wY/aoy5a7ac8dKET7XE+oBdzVVmM63rj44J+4Qf2Yz66ztQGbCNO2KENtR/tQCbGx9y0jVxgJ7dW6RPj3BAP+9FyU0boVx3IqA5zom5sEZ/KRz6at8atdsBBWUSfuccj5Ol3XPzwpfLQQ9y6qQ/2Q05ta5yUZwyIObdBH3nrXERZXTPkQD21CT3G3dU/9NW3zkG0QdvQif6Rp65nnXe1SV1yQYtNj7FPrrNYi8qlcFbNN1gyR7TcNJY4F5RBq2sm5qhyMQf1pXNLFtCljtoBU8YDPjxmvFwbjE2PIU85tDpX6oO6OVmdU4xzjlRf/UCeMUIGY8qpjZ/agB9suXmCvuaoLNlPPebDmDUuxkYZtOSMMdjCsdpXfhinruZXBJ75x7nVPBkvxdUmbHNjPtRFHtjYzzgYP+QoQxtqe1S8tIVW5WBTj2EXx+jHBt/wAb/QZT/9M1a03CCPP2zgA3uwwxg4Rnnaxjjl1B70qav5t8VGWdqjTfZrvmpb48I+9HRc1wnnHTYhA3nqc0zzAzf6R6v5QU/HsB85wxZyVzuwoX4pE20hHughTmWBfWzaB13IxQ368K+xUp+yOgY75AU5nTfmQD20Kq/9iAXy3OCD9pinjufkKYdWN8bBcZ0TxMt+jT2yUh21vcj9pSq8FTIXDGBgMShITCSPARF6XDCcmLjAYAdjbQsUNjghtMnFwcVJHzxGS7saO3yo/7iwCiV5cadfLhD6xTHzHBc7bUIHsohVY8I4bDEuxM74qYu2LVZlzDipR1/kAz/KE37G5UFbaGOu0EVc5KTjyigXP2Njrpxbxqp+J9GHf8TGLcbDfrS5Meiin5vyR8zIlRuY8hg6uWNyZt5kRhtoOaZ90R78wD432GWciIs8OR5b6lOHx2QV5wH2OAZblGf8GNN4IIOY0EcZ2GD+GMcY5xljeoy46C8Xi9qJuemxcmFMykZjZk6Qo0/GTpvsZ9w8phz8RfvMgzbYQlbz4BxzHLGpLvY5X5RBi7hVDjZxzJh0nD7QR11loHpch7QDXY1XY8A+dGkXujhWFjoOn5SFLo7JVO1CBmPMO8aEeKjHucCx7tPeNP5pA3EgJtrXHDRf9OOYm+YHJsoRx+QU84Md5q7xwy5jiPmjHxt80C6OEYPGVAjJ8w31KKscOQZ97sdYaQ8tYmbcOIaeHlMWtpQNbDJm6HAf8thn/PRNO2iRL32AG+xSn344X+jnGG3FvNQ29zUG9NEPddUuddgyBvhTXY15VH7QibFyfdA244CsxgIfuuaKAAIz9qHNsaRt+lKWOofwNS4P9RX3mSPnh/7ITe1DV3OjbMwV8TFe6Gi86p++tS+3D3345QZ/9Ak/zJ/jOKZ/6MV4KIeWOaDlpnPJGLvyQVzwR3s4pi7s45i55GJT34wHbS5P2OI8MQ8ew45yhy/lpExijjym/5gTbKOPccEWN/hgfuxjG+2gX/MdFSPyhx/aZozknONDv2jH6SMO5UN52Kcv2qMs+rHFccpxThgj+qGr7NUPxuPa1ZiQO7nDJ/dpl8dtLOiL8bXJcXxR7VIV3oDCDfuEyj62Ck8nhuPQ42JlH1roYQHookB/Tl4fHLpPO7o40Ee7uQWZixE60S764iIkgz6xw04uDs0TvmMO9I+xuCE/2KQM4tFNbes+ZKBHX215qC3skyf2oQuG9In4OL+RrfKjb9jSDfHRlvZjv69+lM898dBHjDU3R1GGumiVa5TL2UJsnDO1k5ON9iCvc6C+29aO+gBf+OeW46LzoOuLOspW9zmuMaEPealPtYmYdV0zHurpGomx01+uRQzQ1b8cc+jSJ1rux3WYmwfmSR203NpizclCR5noPsbgWxnRB/XoF4why9ihg2PaQLy6wQ91tR/7GkMud5XX+Oif8818IZ9jEuefdnOysNk2hxhj3siTvPQxlbPZ5p9zy3jY5lioXd2HjnLUfYxpbG1xQE5zw3EuBsZL3jqvMSbY4AbbsIdN5XJ2qIM25qJjut+WVy4H6CkT2tFYcuPMHfKaA/U1hrZ9ykbW7M/lq7Jqlzpsc7m2xcz80OrWZl/ZUF5l4Ruxxw3+8Rc3jUv3Kae2dR/jjAX7bXnQTq6ljo4hBswpNuWNY/pDq/vUH7cWKIeWviN3lcnZox7kcuMac24dqP1cDspYfVFvVnxyscE34o9bLs8oo3lrDpBjntjP2VL5mHNckxhnjDEHtRPji3YwrvK6jzGVz8WMGBALttx4MVD9y42r/rjnGpXFPuwhd2xoEXvcyBHsucUc0U97o/YxxjlUe7Sr+WEf+UQ55Um9XN4cW1S71IU3JocbJg/A+Mex3ALIwaYdTpDChzz6ddMHV1w4OuHUoT0uPMbJFj7iBrtcyBzTBakxYLxr7JBlHLSLNnJRpiqHGBC3xsz8IIdxPvipp4yinxhLLg/aYQsbkIMubKNlPOo/MlJ+sBV9oy/GR59o++pDnnOsbXwCgO0YK2NTPewzT+jEMa6XNlujcuEY/fIYbbSHPviGLLbIrG3tFMKZF4XcE6jahK/ITMfjvORiinlp/Lo+oavxcJ+5QlbngDnlWo0R44yBtnStcy6ZJ/2iX+eVctpinPIaB+yDTdxyspBRjrDPODGWWwO0izwneTxCX/2Qj+bGGEb5hx3IMVfEgxzRoh+xYR9bjjn8YV7jluOnjMhR44UO/TAeXV99/JNrjAssYrxkF33jWBlrrLoPOdiE7dymeWMccqrPffSTi9rJseQ4dDg/aBkD7aDFxhzpCy36chviVbnICzrwk+uHTc6d2qY/xqFjGncuV/UFn/SLVuPkPteR+sAYWbBf/apdjrNV/+xT3Rgzc4RPxgL7nBvaQBvnCX0xFugxN80BMaBfeWtc2Kd/+oQt9Of8xFhyedBOrqW8jmk8cV1pTtE3bCB2ymgLPrmN/iEb86Y95k599QsdZQkZHNOWsqO+tmqL/TqXjI9jaCMfyHBTe9xXDthnvG2xwT91aDeXZ84+89YcYIOyaCETmap8zFnzhS0dhy3Eyg25Ia/cFu1ARv1Cj2wwBrvMB62OYRzHo8Y1hnH68AU2umm8iBPxQQb9aBkPjhmH6isn9mu+7FN9zQn7XAfaMk7Y0n7GA7uIh2Ncn/DDPm05zngW3a5E4R0Xpy4ojAGubjhG/6iNkwSZnLwuFt2HvPqnD0wqJjO38CgT22gX47oIc7lBZlzskMFCRUy65fLEOOKIDNGPWMiR+bEfMeimtnUfMm1MNA+1hX3mjpa+EIM++FWO+soPfTnfMT7qou2rH+XVVtxnTuzPxcYxtMofxxp3F1ttseX8Rnvwp3OuvjXGtrWDOYN/blyPfAJFv9pUX9TR+HWf46qPvpiX2oyPNY2H+5DnH32Ma2MMkGcf42HO9MNj2mY/5HPzEOVUP3IeJYsxZaL7GBvlm2No+zwe1afmyTg1BvrgWK6lPNcWdPCH+WVcbUxy9nKyutbgj3ahr2M41ngwf9hyNouBzD+ulTiUY6F2dR+6jCPuR7vxcaDjMbdcDJTnXHZZi9BRecRKPe3nPjlCT/Oib7Tghly4teXVlgMfm9RHS/9oua/jOleRP+Q0hrZ9tZfbz+Wr86J2o34u13ExwwZZIOdR9nXeoNcmizgQc9x0zjQu3aeO2tZ9jHNu0OqmeWh/3Kec9msMyltlsJ/znVsLUS93zDhiHjl7lIUd7Ee+GnNuHUT/o+ZSfVFvFB9lovvU1XZcbJhr+MKW44C40c9N8x61TnK2VD7mrPnCl47DFuLgH+NlTNpGOxhTv+BBO2gxxi0Xs+abG6cu2ty46sMf8tJNx6mPFnFiwzjnWPW4T066pjVfyqmftn3KskUMkOXG+HjMFv3IDVuOP+XWsl2ZwlsXN/Y5AZxoLiAuZC6UNrjUwzgniouFC4s248LJTbguYsQ2zn/OL/zADuxjgw3Nu+gMTwLMl2M4pr7aYo65uNr86KLV/KJPsiQ/1UNcHGeMbNv6Mc45gC21G+cixt7Fd5RhPGjjWC5GlYF/rkW1k9vPrZtRawVjnEvygD9sMe9cnKqv8dAWuebsoU/nXHNWWzEOjsVccz7VJuZVOXK90l4uF9WHXGSg8cd1o/HAF2y1bbBD7lEmxkC7iCXGAxuwpdxpj7GqPse0BQfkgo2yyk1lEZvmBf8qS5/UaZtL9QV7jB/7kWvOBv0wXupzjsEJW1wzjEtb+KNf9EMXx8iLdtEPn7A3bsv5hC3qMnb6inYRD+SVax//XBOME8fwTVaMA+PwgXFsMW6Nk4xoU1voQZascEyb4Mh96DAGzo/awT7igS+VjRxUh/OElht9oNV9jDPWnP8YK3JiLLSNFrrKBseU0/ghG7lBDzFgYyzkE48ZO2OFLfphDJAZt0FHGdIP9dQu+9jSD2NArMhBY1bb1GPsaOmPseKY+tDlPn0xR9pCC52cH41d5y/6ZDzMQ/Vgn+OMkb5jv84fZdAydu3TeJBjLn7IRx+00eaL47m2zRZkdd5wjPjImnrkg3jVP44hP2obNZfj+CAO5YN9+EdcMdYYw7jYdDwXB/wwb45j/WAbtU7IjLJcc2RKW4xX1wP6dBw6iLPLFu1AR+PEOGOK9tCvnDGOY8prTFEXx+P0EYfahzz46oZjxAhf2Bg7+nIbOXMtUEfnLfrRnMBVY1IfujbQjxhyssol+lJ7a7m/EoU3AAEwJg9/ccFgQnQM47kHBvoph5aLCfbVRhzjYuNE5RZ01FE/2M/FA3saE2T0gcjjKBd9qQ19QHDRQR79kGMcyhPj2PigwTF1ioFQhOXi0QcafNEPZPWBoLHCh84BfbFFjPrAgs2oo4ygpznDtvqm3Rgf+yfVjzlpzGob+2QLHW7sY0t2jJ39On8xb8rSJlrEAR65DQxgl7FGe9DBOOxiU2bQYUxoc1t8jHBtjVonjIm21W4uF40JspGBxg92yjzGE32TC+zCDudEY8J+1IOsModP5sN9+NZ1Gu0zD+qh5Twwbo6hX2ON8elcRTm1C73cGlB70FcbkO9iQ2Wogz6wgz3mBl/ox5/OlcZAbsqYtlQucoKM6lAWfZoT+nFMWbSMCf2ImWOQ5VzF9dHVP2xwXcQ8aJv+1UeMGzLKMa5LHHPTOdDcNVfaijGon5gjZNUe/bGlfeVHG2ixaWy59UFb1CMbMBy3ZihLG2jZh1YZYYzxcgz2OQcYQ646dxyDboxHbdEnc9Z4sB/nTsejXR3DvvKjLONizFEO8WCMm9rQ+dS1gH7IwQe2GDNzY65o1RbkGRf01Sdkuf4wxjwKR3KeAh9Rj3lwfagd6jMPHqON8cBnLnbaZX60wX7VYSyUQdsWr8pgP9ojZ8qpHYwhfvrDGI5HbWTAeYEOfXBM9SMfzCVzpbwy0XHI0XYutiirfjnGfJAj/WJM84YP+oENMmRcqst8KM8c6JvjPI7jjIEt7VCebbSDfo2TMdIOWjDChniRo2445jyjP/JR2S76iE99qz72Oc5+MtQYOMY2xsh8GSv8gSe3nLzGhHFuagN2OYZ91VH74Klj2F/rbaGF91ona/8mYAImEAnkTgZyL5hRz8cmYAIbk0DupHZjkljOrHPP6csZqaNaNQK5cwMUc1rsdc0pFp0sxPlmQVc7yyTHQpsxxWP2b+TWhfdGnn3nbgIm0HgHmjjiCyL73ZqACZiAC+/lXgMohFa5eFluuhs7unhuME2xHAv2eGV9FUkjB16JRvwuvIdn0YX3MBP3mIAJbDACeKHAiyD/eLvXBsPgdE3ABDoQcOHdAZJFTGAdEmChzXOFWDz3SZmFttpaD28Y6ZsTLryHV4QL72Em7jEBEzABEzABEzABEzABEzABEzCBmRFw4T0zlDZkAiZgAiZgAiZgAiZgAiZgAiZgAsMEXHgPM3GPCZiACZiACZiACZiACZiACZiACcyMgAvvmaG0IRMwARMwARMwARMwARMwARMwARMYJuDCe5iJe0zABEzABEzABEzABEzABEzABExgZgRceM8MpQ2ZgAmYgAmYgAmYgAmYgAmYgAmYwDABF97DTNasR39aYNzPGeHnTPATBOt5Q37r4acV1vMcOTcTMAETMAETMAETMAETMIHxBFx4p1T82DsK2UVv+H07/aH5Cy+8MLUV3PztQBaikFPdRce+CH/g08ZjEf7twwRMwARMwARMwARMwARMwARmQcCF9xoW3nEC9Ufn41gsvEfJRt1VPcYdAOv9zYVVnRvHbQImYAImYAImYAImYAIm0J3Awgtv3D7MP73KjKub7EeLoosbjnlrNQsxXB1mH8Z5JRj9tENZ2sHV0zjGY7YaE/VY5FKGdtUX/UNHbxmHTs4m5BAPbGCjbbZqD+NaeMMe9QrlSl95cByx0iZltdUY0E8bKgN95ES/nCtejY75YpwbZHCsrGCHW9SFL8YOGfqmvFsTMAETMAETMAETMAETMAETWDUCCy28UQSyWAMoFrAozLiPfhZ/LD5RfOk4ZFjIUQZ9LPCwjw3H+MNGm8VBVfSyAIRt7nNcW4wjBm48po76ZYGMghIbjzVO2olF76g4RtmBvcgIx/hjHOBFFvSPloUv+yCDOKin42Soc8hxyjMWyqBFHGRFG/SnY5CFb91GMVE575uACZiACZiACZiACZiACZjAshJYWOHNAi0HQgtEjmvBlRtHIcnijjpRTn3m5KmnvtinbRxHcapFLPxABhtigi/d2nxH2ehHbXQpvLX4jT5R8Ma4aB9+qcsYyBYtc4UN5kndyAL9mpfuUwfzhHxiTjpflI15sN+tCZiACZiACZiACZiACZiACawKgYUW3rFoIyQWYjxGqwVXLKjjOPUgl/ujPK+6Up4ti00exzaOx2JTC0YUmrkY0B+3WJRGPyofi1Qdw35kpPwwniuaaQP5IBb4gB5azhWOyS1ng7q0FX3FHDGusWKf9iFLv7QH//DhzQRMwARMwARMwARMwARMwARWlcBCC28UWblNCzGOaxGaG4+FJfRycrSXk+eY+mKftnF8XOENX122WJRGP2pjnoU3C2q0iAkbYqFPxkE5HqONLNCneek+9XSesK9/8KnbqHlTOe+bgAmYgAmYgAmYgAmYgAmYwLISWFjhDQAosFjY4RjFHTYUb9zHMQo8yHLDPm+FZl+uIIOdtqIXftUmjuEHW84W/aCNBXEsNvWKN4vVGK/a434sSqMfyqGl3ViYUiYyijnlimbqooU+dBg3c1SeORvMnXq0RbYxR45DHn867xoP90cxoYxbEzABEzABEzABEzABEzABE1hmAgstvFk8osjLFYrsR6tblMVYLCwpj361o4UjikmOaT+KRPZrAUmbsfhjUcpx6ECfG49pE23ObixKox/aQ0t28yq8yY0+yYQFNPqxnyuUKct8VSfmCDvKQ+eE+owhymq/903ABEzABEzABEzABEzABExgVQgstPBeFSiOczEEcoW8vqnBNzAWE429mIAJmIAJmIAJmIAJmIAJmMB8CLjwng9XW+1AIHc1HFfe0Y9Ni/AO5ixiAiZgAiZgAiZgAiZgAiZgAktJwIX3Uk7LxgmKt7jzNnMU29zQ13ZrPWXcmoAJmIAJmIAJmIAJmIAJmMCyE3Dhvewz5PhMwARMwARMwARMwARMwARMwARWmoAL75WePgdvAiZgAiZgAiZgAiZgAiZgAiaw7ARceC/7DDk+EzABEzABEzABEzABEzABEzCBlSbgwnulp8/Bm4AJmIAJmIAJmIAJmIAJmIAJLDsBF97LPkOOzwRMwARMwARMwARMwARMwARMYKUJuPBe6elz8CZgAiZgAiZgAiZgAiZgAiZgAstOwIX3ss+Q4zMBEzABEzABEzABEzABEzABE1hpAi68V3r6HLwJmIAJmIAJmIAJmIAJmIAJmMCyE3Dhvewz5PhMwARMwARMwARMwARMwARMwARWmoAL75WePgdvAiZgAiZgAiZgAiZgAiZgAiaw7ARceC/7DDk+EzABEzABEzABEzABEzABEzCBlSbgwnulp8/Bm4AJmIAJmIAJmIAJmIAJmIAJLDsBF97LPkOOzwRMwARMwARMwARMwARMwARMYKUJuPBe6elz8CZgAiZgAiZgAiZgAiZgAiZgAstOwIX3ss+Q4zMBEzABEzABEzABEzABEzABE1hpAi68V3r6HLwJmIAJmIAJmIAJmIAJmIAJmMCyE3Dhvewz5PhMwARMwARMwARMwARMwARMwARWmoAL75WePgdvAiZgAiZgAiZgAiZgAiZgAiaw7ARceC/7DDk+EzABEzABEzABEzABEzABEzCBlSbgwnulp8/Bm4AJmIAJmIAJmIAJmIAJmIAJLDsBF97LPkOOzwRMwARMwARMwARMwARMwARMYKUJuPBe6elz8CZgAiZgAiZgAiZgAiZgAiZgAstOwIX3ss+Q4zMBEzABEzABEzABEzABEzABE1hpAi68V3r6HLwJmIAJmIAJmIAJmIAJmIAJmMCyE3Dhvewz5PhMwARMwARMwARMwARMwARMwARWmsDu3bvTpH9MfBN33JqACZiACZiACZiACZiACZiACZiACTQJoOgq98soAAAgAElEQVSeZFM9F96TEFxDnZ07d6YLL7xwLhE888wzadOmTQntIjf4PHHixCJdzsTXPOdi8+bNxVygXatt1LxgvjC+ShvX9zLGzNj42MNjHOtrPW+j1teq5o1527dv35qEr2sGMazFc8c8nxPXBOoGcrpWayaHOD4f5mTcZwImYAKLJqAFdB/fqrdaZ859sgyyOCnBiZ7+reKJ7bgTG5xsbd26tci+74tXlFdbAWd9OIsX61U9AR83FzWknjvjmGJeIIONczaPdT1qXlax8MbjQh/zyrHnFA2Jd3msDClJB+cRLTYtokRsrruj5nsejhftb1wOXNPTvAmIxyXmrm2b13MG/OmaGfcc0hZfn37yUp155qd+lmV/3HMInnP4erzImMfNf3y+QWzjdBYZfy6+Rfq3LxMwARPIEdACOjfe1qd6G6rw1pPuNjjL3t/nxKbvi1dfebCaxYv1sp2Ad10Dfeaiq03IjbOrJ3txzniMeZl2GzUvuZPuaf3NWz/moxzn7Xucfc4bWmxaRI3TndV45DMru212Fu2vLY5Z9yMvzmO0Pe6xHeX7HOuamcXz8jjfueeAeeY3Lp61GB/3HOLCe7JZic+Hk1mxlgmYgAnMloAW0H0sq97SFN58osVJC/5mvelJidqOJyg8mdATJ31xxYkFY4xxwlZuDL7Zj/24xRdn+IBPbmSDlic20KFNLbKYJ/OgDFrmpLro56Z+0EdbHFdbiCOy0Jg1Z+2HLfVPG4g3t3GcvnMy6GPslFN7GgvGyYE6PIYdnQvY4NzTLmxxQ2x6HJnrvFCHbcyLssoGPiEXN8aE/nE5RF2133deIE8OjJ/2GRPHtZ99ygrj7EfLPCNDziPzpA7lYadNhzGoDPtohy34MwfKoMU47MMf1wZ1NAbkpsfYp5xyhh/2o+XaY348pr3Yn8uF8cI29HSONSbIYZz+GRd9sB8tmZI/dCGv9rAPe9wwrjbYT/vMnTr0AznyYv7URUu5nG3Ex7gwjtyx0Sd16JP2NA/qU0djyPEqHLSsX4xBR+1TXucFcWlMbeyoqy1zQqt+1C/Xc5se/HHDPuS5wQ45oi9ni3OpsUAW8VCfY2obMpqrMqB/tJwL+qEc+2lb84+2qav2dG6RY8yTdtHq2ocfHYNNPcZ+zBMxq4z60n6dC9jVjTmoPO20sYixRvt8bKtN2IIvyKq+8oVfHHP+yEflYVM5QFaP6YM5wqbGQX3mBnmOcw1Q160JmIAJLJqAFtB9fKveoOrqY2EOsnxyZRtfLKZ1iSdtfRGhPT7Bo8XGFxa+WOg4+viiB1nY5DFfzGgHsrCFdlwuUQZ2oaO2aIMvctDBhhbMuGmeGjvHmZ8eQwdblFdbyJO5UhdtjB19kKNNHlM3xot+xM8X8WibeuiHTT1WWdggE+RB/2i5D3nyw37MF32wTx+cU9WHH9igLY7RFvPgMdq4aQwYox/qYpx2oy6OsRY0V8SkfjQH1Yddxk47PB43L7CpMSEG+OUWj9EPebLkMf21xai50TZanV8ek1ebjurDr8aPsagXZcAEMtgwpnMf5wy2mVtkiX70QUdjUKZxvag93Ucsbezol3EwRq4N9Zezg/zIFOPqFzbAQuPXcYzBPjfskx1zU13I0R/jpm5sIYc/brBDW8xRfdMf7HLT+OgPcmBFW9RDi20UL4ypT/qhXtuY+qOOxkZ9sqMMW/QzPubOY+TBuUeOagP8OAZbyjDmAj3VjeOMhf55jBY+4IvsyZoy8KtsNGbKoOVcYFw3tY1+HHPNwq7KIweMY6M9skKf5sVcOM7jNt3CaOY5hP1s1Qf7EFPbXFAGLWNuy28Uizj/aldtM1/0ca4YGxlQBrkob+hwvmmfOowZc8C1QB9cW/RHXfTTN3PX+Yz5Us+tCZiACSyKgBbQfXyq3uBspo+FGcvyyRpPrPrHJ/xZuMMTuNrGPjeM8cWB+3iRwYZ+ffKnDlq8SHAs9wJLffgal4vK8AWIMcE2X5DUJ2NRXcRDWb54qe/4Qqgyug/bagsx8AWTfplf7Ec8fOGFDOc32qSdKM/+2OZyhww4xRjQH/OhPfrLjes8atzU1Rja9imr/NiHNs4B+lRW7aoe91U/5sCYlT/1Yqu5qn/KkROOdR/H9ENZjQl9MS706Ty1rSfYwZhuqsd+jT2nQzm2kEeOuo2LWZnk5kTH2/bVX9zXvCIvtadysBHngnajHPqRI9dC1ItzGMdhD3Fgwz4YwB43yCPuaAfjmo/uUxct9DEvaEdtMS71p/u0kZuryAZ+kQtzgG6Mc5Rf6tOntjn/HI9jufhjHNTNtRpj25qJucOO+sU+5xX7fKwgDmy6hjQGtcH+mB/6yTiXVy426HSVRaz4ox/ExE3jy9lTXd2nPvJGfNTFftwoE/t5HO3m8tU4qYc29quu7lNHfeXGKYeWOaHlltPRuVf71Mnlr+swjquPuFbUfi4+jEPHmwmYgAmsFQEtoPvEoHqjz3j6WJ1SFi/O+ocn7Flu+mIQ7eLJHE/q2OgXsWCLT/awo3HiOCdXdFb/8GJDHT0xUBnYgRzG4RMtbSMm6sUXK9iAbY5Dhy9OuRcv2GIs2kI2yqst+EFc1GHs+kLKPsrEFuPMk7JoIcf4tZ/yaodMVA4x5PqZj8piHwygw3G03JAj/rAhJvjWTX3pXGBf4+Q+50Jt6HyyX/2qXY5ry/jRxxzoD20bS8jH+Weu4+YFdpVTZKMxtcUFG5DjBt+Mm31oGSPnFMwppy1jz+moPewrX47FmNEPn+BPrsw5NyewyfmlHm0g5tymOSuP6E/twQ5kwRx2laH6yI1pjspO92mDPnjMmHCMuOEfLfxgn3HoPnXR0h7tkCVlGAPtsD+2tMN+2sMxfGNcN8wJ4tQtytGGyrGPcTK+2NIudDnGPrTw35ZTXEfj2Kld7DMP+kWLPmy6ZnQtYB9juuVyRR/igzxa/FFOdbnPWHiMNuaHPsZIWxo79nOsKIuWG+KKujjmHGJf5TW+nD3oUVfnUn3AJzbqYww5ckPslGGftuoD/ZAdNxfUp0/OL2xRdxwLjOe4RtvKK6ej+cVcYAvjjI+2VU71Ma4+mAP1IEu2zF3jU7vUcWsCJmACiySgBXQfv6rXPGPpY2XGsnyi5YvejM03Tkqibb5Ao8WTOza8wOEYLwZ88scYX/ggoycZXV4U4guNxkFbaCGHjScSiIEb5XhMOb74IT7IYCNTxo+++EJYCFb/orzaUjnloC+klEHcjId9bHM22+TVD/RzuaM/FwP6Yz6MQf2RMcd0HpEDxnXTGNr2VT63n5sD5aJ2x+m35ZjTgw/kx01zVf8cj5x0TiObmFOfuOI80z9sgkXb/FJOW+poH/ZzPmLMkKMvtGDCLTcnyqxtn/poYQM+udEXjiMvtYdxzhVa2Mltao/jmqPOJ8e1zY1Tn3HDB2NgHHEtwKbmo/s5f8gVf21bjEv96T71c3MV2cAf8lDbMU4do+1cCzsaf84/9eJYLv4YB3XZDx1uGiNi4JxovrpPveiXumjhB+PY53xTT9toA2MxP/QxRsaPdtyWk83loXboh30xPoyrb8wb/rDpPvVzLeOCbWx8fORk0Rft5nKIcdIWfSFu/nEsZ4djaMeN07byyOlofjEX+NFx+udawjHXEMfUB/aZF1rIcsvFl/NPebcmYAImsAgCWkD38ad6zaqij5UVk9UXg1zoeAHRFwmcQOCJHv3c4hM/dTDOFxG+kOGYJ0HUb3uBxThfaBADbWA/+hx1YgM7MU+8oPEkAePQ15wYm8ag/mMOtAE/2HI5IWaOF0LyD/YQEzfIxRg5FnNX3pRBS3ZgzmP6R8t9jMX8YZM5Mhf4xRaP0YdY6Qd6tM0YlHVhJPMvMqAfcle7GfXGyQ79Ujcnzz7EylzRh1yYa4wJsjovOGau1MU4N3AkF/ZBnvbZl2vb8oU+41XuORvsUx32oc35yMmSZ8yHfJhjnDO1RVn6xzH0YgzQgR9s9Mt5VHsYhz5kwYEytM+WMjxGq3lgLmC3bVNZyjBm6sE35HCsax19OtfqK+ZG27q+sA9fuQ1jsM8NvumL88AxtPTHuUIf9GlfOaGPtqmHFpvmUHS0/CMjDkOP8bGPrfpm3yh2lEEb44MtZQguuRyhG/kqQ4zDFvrIgjrIA2O5LcYDmciCdrhWot+cXfTlbNNWWzywjT9uyBl/3HQNcN1wnnjMuadOrm1jnpNt48F5gk4bE85Jzi76EEcbC+bTpkt9zguOYUvnH304po/cukYeyph+yRE6cU7oA2PKQWPNzb/6R0zwSz+q630TMAETmBcBLaD7+FC9watSHwsrKIsnfzxR6x+eyLlhX5/I+QISXxiivr6o8EUIMvriojr6QkffbKFDPfTRnuqgT31CDvYpgzGNmXlBhpv2aazxxU5tIS7Ng7bQckzjwr7Kt43xxZ7xq13sqw3ErXZUFvoqqy/IjA/jyhf6qocxsIMfHeM8QJ9jGI9zobYYS1tecQ403mi3CEb+IU6eDMU5E7GhXcoyNsSg+eic5eaFemiZK51oTOxDi37Vo7/YD9kYn851HINNxBj7VUfjiPFiDPqMTeeJHFSfc8Ix+qcM+iHDTedXY9K8IYNjbMwDLbZoD33wqbYKQfnHOZOuwj76uUGfOUd7iJ9jjIPcNDfEzLhpFy11o92YG3UgR+70o7GqnMamvqlHWbbsZ0yMn7HQL+RhD+McY+4Ya+MFHdpGq1tu7nScenwsYIx9aEfNsXKAHOJgLuo3rgXmRj/qG/45rv2wB/lRG2U4J4gPfbrBBmNEf2SnPqnHeHQuMMZ+5oFW10zsxzE3XROIAbGqb9hRfezDX+yHHjcd0xw5rvFST/vgQ2OgHlvyZVzkjPFoBzLKgpzjfNA2/NIu+qCr9tGHY9qEfC5WtQN7iEs3+mB86kPHsE/7zE1tqX9y13H16X0TMAETmAcBLaD72Fe9watSHwuWNYENQIAnahsg1Q2RIk7scifHMXmc4MWT1VxBEfXmfYwTVp68z9vXMtnvOm/LEvOqxbss3GYdx6o/f+eec/C8tF6eA3K5+LEz60eB7ZmACcySgBbQfeyqngvvPuQsu6EIrPqJ24aarA7JoqDuctKqV3loNncSzLFFtLkrQIvwuww+VulkPHfVcBkYbsQYVv35W6/wcv5yz00cW7U25rKRn+NWbe4crwlsVAJaQPdhoHouvPuQs+yGIrDqJ24barI6JNtlPikTb2Fc68Ib/nGiuhG3VSq8cRWPt+ZuxLlappz5WF6mmPrGgsc81j//urxx2NfHWsmz0GZuq/Q4Xytm9msCJrC2BLSA7hOJ6rnw7kPOsiZgAiZgAiZgAiZgAiZgAiZgAhuKgBbQfRJXPRfefchZ1gRMwARMwARMwARMwARMwARMYEMR0AK6T+Kq58K7DznLmoAJmIAJmIAJmIAJmIAJmIAJbCgCWkD3SVz1XHj3IWdZEzABEzABEzABEzABEzABEzCBDUVAC+g+iaueC+8+5CxrAiZgAiZgAiZgAiZgAiZgAiawoQhoAd0ncdVz4d2HnGVNwARMwARMwARMwARMwARMwAQ2FAEtoPskrnouvPuQs6wJmIAJmIAJmIAJmIAJmIAJmMCGIqAFdJ/EVc+Fd0oJv7261r+Pyd8cxW9ZLjIW+OLvaCIGb6tLgL+LGn+Depky4jpfppgciwksEwE/RpZpNiaPZZ7nFYv+zet5v7bMk1XbDG7dujXhr++G31bft29fX7WJ5CeNcSJnVjIBExhLQAvoscIioHobovDGEyWLy9jiJGfUkz5fcPo80eLJEj77bDEGHONv1hvi0hebRb+AzzqfVbA3yXroklc8AeBaXaXCG+tv2jea4hrmm0ldGP7/7J0HuFxV1Ybjr4KA0gRUlN57kaooIlKlKCAiTUDpICiCCEjvvSlI7yIgTToISO8gvYckJNQkhAAhiWH/z3vgu667c2Zum7l3yrefZ7LP2Xvttdd695lz8805c6ZWNn1dY8Wcn2ckwuJ5K9owb3w/k093xkR/bMuH4oj99TgP1Yp7f/gRz/6YK65ff81Xy3k4Njl2GvkcVMt8q/nK/6ZH22p90a7SNow5LvurdPW3RecNxdPT/KJ97ks+87qvDMrOnfkcZfv5390ym1q19TbGWs1vPyZgAp0JRAHduaf6XhzXFsI74ig7WceTfrTtz+3+PJkrr67+mMrOdWMSyI+ZZljPeoiYsvd0Y65Y5ahYS/6TxbkolpyX9vWf7vw/ZvpPq/rlC0YSQ/kY2VAzPo8h9rfjtpj3V+79PV9/5dVu81T7f0W1vu5w6u9zXk//tvQ0v57aw6ivDKqdB6utQf53t5ptX/t6G2Nf5/V4EzCBcgJRQJdblLfGcQ0jvHVi52TKq16l7GStkz4nVM2v/6QSRxyj/xTJLv8PLvb5f17xL3u286I+1cwdT7jMQWz6TzV29MfCvsZTVyrKNc8D/7GoX21an5ivfGEje8UQr8rJh+pKPMiPPNQvHzFv/Me1kU/VcQ1zRvKLj9gX2WGjoqs3yinmHsdEdmXzx+NBHKPvOCdzRx+aO89Z7arx1x3fPWEp39SMUyFe5otxRjbY58eDxqpd+/jAl0rkGrnkcWOvfGOc+Fds8kkdbZhTBXv2o/94bMiOOo+VNuXK+BgvMcQ58/WLfhWD8om2OS/GMY/Wg1gVr8YzplqJY3K7PI+8v9o+cSnnyEJxqS+ud/QX1wDbaJezz9dY9tRxfeUf3+QdY4z+sWOcYlT82KhNtfKJ60Rf9BcZy17j5Zs5GcM+9vQTZ77m9JflpOMmxhh95zkrvmivOYlF8+r4Udx5O7bqiwyiD7Yp+Zp+1typyuPBp+aMhuSGPwpjtC+uMFRhG1ts1K/8ZRPXG5tY4ji2VfJ8Yv4xD8bwUrwaT53PKxsxVbxx3jiebWzifHn8eZ/WNPrJGWv+aKsc1Bf9xvho1zFaKT/Np/wYo6J52I++2Nd7g3H4VizyQ62YY3yxHT9xfvzgNx4zioU6nyPGyljts3b4IH7mi+0xPvypxDh6EmNuqxijb83h2gRMoD4EooDuyQxxXOe/Nj3xUmPbeJJim5NbPUp+8mIOnTR1AtOJVPPHMfGkq/685mSsP0qciLuTS+43/lHQiVp/JHTC1R8b5otzxPnz2OIfOPlR3rltzFt54FtF/fKjeLRf5pcc9McJP/jQPr7jPv300aaiOLQfa3LLY9B+vqbYEl/ODjvG8GJe5aB95ovbcf5K3GO72Oj4YHzMOcYpW+YrK/kxI/tKvnvCEt957trHPzErLq2bYqSPlwr2iilnF3OotBbEDRcVfMX9GAs2+TFCP75VyuKRPzFUbhpDHdeG/ThPXGPGKt+ycdGn+jU/42KsOS/sow3jNDbnl8+j/ThGbapjHmrrTo1PeKjAXPsxXvXnNfPGY0Z5ax3iccLYyJ59xmJTqci/YqKO8xGjOOIjxqxYou8YD/3sx/Hq1/GkefERbRUH8anE+fBJLGVFdrGfnOQrzxkfmk/v5Tw+5iM+SmRAe8wP33FexaeY2JdvzSWbvCZmxsUS/ag9xqM8FJPmEmfa8at92SuWuAb4x155Y6ttzU0tH2qLdppfechWa6ExqmMutGk841TyGNVOTW4xRvxpPcROuWo/jtd2ZK98YszqV3yaQzEoXo2V30r5iY/8KcZoH311N3bmla18al8xxeNBfTp+ZKMaWxXiiftwV97V3mNxvNaK2LRNP+PjfrUYiTXGy9i4HprPtQmYQP0IRAHdk1niuP+dXXrioca2Ogly0okvnUBrOR3+mS+WeNKnnf78ZKgxtMeTX/Sj7XhC1Em7q1zwq5M5fuJJVnzkn5qYZZ+PZS7yLJsz5lrNTjGQi7aZTyf6yCjmWxhn/2lTW1kd4+mun7I1LPMduVQaE22ij8hf7bLVeuiYUD/xM09eYl5lzJkLG0rkwb7mzH2W9fXUNz4qccnni3Z5jLmfaEufeOXb7Mf84jZ9lUrkiU0+H8cpvihxW/6qxYMN+em9pTHUGqf3VeSQxxTHlcUQ+2P8ua3mlD392CuGeJzmMdCHrV5xjNpUqw8falNNDD0tkQ3bvKqVsrWPPvL+nBOxVoszZ0MsjCFvXtpWjNF/vgbY4A++2o728qe+PPdoG7cLZ+E4w38+VjbUleLSmLKcI1P5iscQbbDWSzb5XPl6lNmJAzlWK7An1ljy+eiLsZdxi3nEbflVzGW+FSs1vvPjIZ9fPrHDX3dZa1zMhbay8WU5arzm1X7MqVrusleNrdizzZw6fvAJM0rkUzY2j7U7+UWbuB19KS/qvOQMquUdfcpPmb36Yp3nruMIm7J1i7nITx6r2pUf+13FGG2xj3HIn2sTMIH6EogCuiczxXGTq4SeeKqhLSem+NIJv4ZTFK7KToD5iTI/weVjiI02xpWV/GTMCVW5lf0BwUd+Eo1/FPJ4sI8xKx7NoZo/GHmJ4/I/KLktcStHrQc148iRGClsa85Y015Wog3bsqPWfBrHfm7PfhlH5RPtyYFCWxkP8inzRW7Rj7blT2tCu9qYJ7LQfDEvxag+xsS1ZlsMZFsWH+OIPc4t+0q+e8Iy5qfcFQd+tGbEQYkcsZctfYqLbfktBmU5RB/qV53HLkb05/PBBF8UtqMtbYqHOo+H/rL8Cmch3uiDvrjG7OfHj+KRH9UxVtrkV+uq+LQG1NioxGOHGMrmkU+Ni2PkR3Weh9q7U8cY2Y7HiNavLD580x6PGdpinPSLCX05N+bLx8eYy/LSGPHJ41esWoPojzb1kxs+qGknNrYpzEsesUR/eR7YqZ948rGV/Kg9n1txqJ99bGLJ2dDP3Lmd1kDxRR/azvsi23g8yF612Cvf3A92xC4fxCb+8hFZx2NH/cod3/lYbIiBPooYxDbGK85YMybOHedTvGpTHXOhrWx8GQONj3HRJs5sk3uMT9v5emJLG7FQxIQafzEm+adWiYzz9SjLT3HEWnyife5LHBgXc2Bf60VM1fKOeZbFrzbV2Mc42Vbu8FEcxC9+Gst+PjbGypi8n7HdiVFzi4nmdG0CJtA/BKKA7smMcVzDCG+d2HVC6klCPbGNJ0CNiyd92vKTWtkY7DgJ6g+HfFGXnYxp18k82mpbJ1Ttxz9qeTzYxJjzsfJRVsdxYq4/KLm9+pmfcRTi0h8I2imV8i06s39yZjGeMj+xP3M12S7rpD+IdEYu1dYwjpHTyF9tZbXWJmdILsxPiXmJabSPc7FNrHoxtlKJ+WHTle/uspQfrS++I78yP7E/bjNWjPJt9mMOcZs+FZgwp0rkSVs+H+sp9nFb46vFg01ZfhqrufFbKSZsND/jymKQP3wQf/6S7xirxsQ6HjuypY5F66ljLo6Jdmwrv7y9q33yZaxKJYa0M39eytY++mAbjio50/wYkJ3qsrw0JuejMarFVfuqNV5rzRy8yE+xls0bY4/b8hvnYw58lJVop/44X9xWf2Sqtvx4YE7aqGORP+qyNcS2LCbaxZj+aoU5YSL7aBtjL+MW84jb8qFjrCxGzUcdC/OIQ5w/2rAtNrG9mn3eVza+LEf5J6bIMuZUlrvG5bXyZjwxURjP3OxrDtlFPnGePNbu5Bdjifa5L9kpR8WQM4jxaIzqMp+V7PN58tx1HOG7bN1iLppfNXHoeKJNc7HdnRg1HzXxu5iACfQvgSigezJzHNf5L2tPvDSpbX6yJo38RBlPhvSXjSkbJyQ6OWpfde5X7dTxZM5+/KNQNi7GzHz6z1/0WbYdx+V/UCrZxzH8cSC2+MdDfoizqxLz1Djip5Rxy/9QVfMf10nMGE8hB14qbDM/uUR27DNW47GpVpRDbhf/iMa8yuzjWhNLdzgSU1wX9rvy3V2WuR+NU1zMC2vlnB9/9EWm2JMjRVyLney4r7QWkQ/j8I1PFfa1zrRF9uwTj44x9qvFo/5oT5uK2ORzxjWO24xjvsgj9yWuahdv5sp5yUZ1zob9+D7ATjFrvfIx8kWdxx77FIv8xL7IQ/OVMaw0N7bErZLPxbi45vkxlucsP6rL8opj4jGhMaqVT563YqKmELPWWrYaG49PWIlNfqzKj1iIA3Ve1Kf56Wec5irLOR5b2Cs++ceX/OVMNB/xy75STHm7Yqs0TvbxOIq5KO7IjX7tl+VBv+bT+DiP8qSN7Xh8yU45s5/7kA217DQfccX4oi3bkTP7ip85VOJxojbV+KZfJa6VYsFndwpjeYklMRAfc6govugz5sCYGE/sw4fGi4/8qs7nj75kIx+KAZvIq1reGit7avIjzrzIj9q1lmXz0kfssch3bNM2fTG3yLk7MSo2fESW+Il+NZ9rEzCB2hJAQPf2pUj+d2ZVS4vXnGzjCYt040mffZ3chEJjdGJkn1d+wpV9PBnrxKox+dwak/8RYRwvSh4PbXnM+TyVTsJxnPLRHxTFEmv90VHcGqPYZKsYlSe1xsiGOrfDD3NQIrc4RjFE37Ff2/qDhx35kyttKrTJh+akDzu1x7yiP/WTfx6P5oh+sBfXmJf4qY/5mVPz5nzwI//KQ3WMj3Fd+WZcHjv+y0q0Iy/YaT3Zj/0xV3yxH/vjsaj8NCd9Mb/IUEzkE7+8aMdOJc4FA/zFOcUljtfYPB7alZ9s8loxxnZiiDExf5wvxqNx+Ri1UzOW/rL4ol08dtQej4sYg/oZo3bVij2yVJ9il1/5ibXi1BjmwBdFbdTyFcdqO48rvkdyP/ka45sYKpUy1vmYuGb0EY+K1jzGLx7UKowTS7XlbMSF/jwP2mSv8VqTnIfs1J/HXJYzPqN9ZKB8NK/eN5Er+UcGslWtmNiXP+bgxbx5kb1sIvM4HqbxmBK3eMxE/7Tzimsa8yAOzUkd1yz6pC+Oy9nRrxL7NH+MSXbUMW9yydvwW2kstvRHPvmaxD5seeXHTzFpOB6Up9adHFTUFn0oR2y0HrLvTn7EpDnhr3yjr8hUOWuO2LK3gRAAACAASURBVKe4quUd+zRfzFF+qWkXN21rDljji0IM8diRjxib/KgPe7XJt/q6EyPz5+uNn7xNPl2bgAnUjsD777+fevtSFP/7q6EW1yZgAgNGgD/I+s8IQeg/MAMWUMnE+k9LSVfRlOdQyc7tzUWgq3VvrmyaP9qBODdwDPCf/IEuCJRqQoMYGyHOgebk+VuPQKO8B1uPrDMyga4J9FZ0M07FwlskXJvAABMou6rQ1X8wByLkrgSYhfdArEp950TkVRM69Z3d3ssIDITwbpT3dlfnRQvvsiPGba1AoFHeg63A0jmYQE8JWHj3lJjtTaDBCcRbzfgDy6vRioV3o62I42lHAv0tvHVuagTWFt6NsAqOob8JNNJ7sL9z93wm0AgELLwbYRUcgwmYgAmYgAmYgAmYgAmYgAmYQMsSsPBu2aV1YiZgAiZgAiZgAiZgAiZgAiZgAo1AwMK7EVbBMZiACZiACZiACZiACZiACZiACbQsAQvvll1aJ2YCJmACJmACJmACJmACJmACJtAIBCy8G2EVHIMJmIAJmIAJmIAJmIAJmIAJmEDLErDwbtmldWImYAImYAImYAImYAImYAImYAKNQMDCuxFWoU1i6OrnW9oEQ1ukyc+FNepPmTXiAvT3zzo1IgPH1P8E/FvVlZmfffbZifOYiwmYQP0J+G9g/RkP1Ay1+DvTSvrBwnugjsQBmDeKoYEQRa3yxunqN6i7u7S5H/3hoa5nWWSRRRJrQRk2bFghkKnLSm9i0hj5036989J8jVjzhwfuKnENaBMj9VerGYsoyEt8fzGf3uOqZa81pz0WtVc6FqJtI2+Xscz5N3L8/RlbLf5D1J/x1nIu3kfkTyk79rsrvDW27PwW+ep9qFpzMz/vXdpzoR/f03nueXyKQ+d2/JXFlPvpzX61uHrjz2Oai4CO11r+rSg7b9eSit53Ze8zzS2b+PeVbbWrjv1lMer/2vH9J2byoTr+v0C+ysarL68VXx4TfqvNkfuRbd5ei/14Hsz95eetvF/7PTnniHUtj0/FUYvawrsWFJvERy70eDPkf+jrmUpP3jj1jKOvvnOOvfVXKz89nZ8TMmtB0UmvlieoVlnnnnLtiX1cA8bpD393fPAHtux9G4+n/A8d+/oDrzVnn3YVtdfyWJDv/qx7wrI/42rEufLjpBFj7I+Yyo79Su+zsnjiey/2859Z/ec7bmPDvv6zrHMmbTo3Y6P26FPbeXzRn/xrbo2pVV0trlrNYT/tRaCe523Oc/F9Fd8reu+rP9/P32fVVkU5xLqafdl5gzhoJ8au3r+KNffDPi+VfF/t1OSnuajrUWrxd6aVzjkW3vU4yhrUZ/7mzA9kvYl58/HSiYh09OZUn1LUCUbtcQw2aqfGh/7zr/GxJr5oTzwqtONb/dX8MEZ21NE2zxlb+hU3MXKSUCxqVxzYRt/YU6pxiHEzlrzK/Ii/8iYOMdOc8URMn9pVKx7FW1Yr3zxmxRbH5DHlY2I8jMtjIofcB2zLmGhe2Xcnp3w+scuPdXwr77I4NU5zx/jwVVbyPybEwhwq8kVNn/woL9XMJa5xXvyXlehX/XlbHlvs17bmYp+idu3Lt+rIOuap2JVPjJsx7JO7+plXhXbFof44v2JSH/5iiX6ZJ/fFOErkz37uV2tDHz7Yx1+leQunJf8whrngw1i9P6IvxaTh2GuevE9+aMeHSj6mJ0zlgxqfvCLH6CvnxLyxxHExPraVUzxWGB9Z4ws7ccqPJbV3FYdiYq4Yv9ZR/fQpHvqIJ5+TeJhPscZcom/5pI5+1Z63xTyxkf84njbFF9vlM9ZxPGMif+zy+eLYuI1d/lI/ftUn/8yrNuoYbzweYjt2Wkt804cflZhLvtZizvyKQeO0htovq5lLPuivdkzQj73yw7ZSwafsqImbovjVLx9q15iYf5wDTuKDrXLOj9OYE+Nj3NE34zUndVwHxRj7NR9tsR//KoqF/TyvOEfeF+Mqi5mxlUrMTzFiq1iUQ8yvki/Gy0c89mRPn9atrF921erIocxOccMoFsaJW1e5ECNrRC22Ghv9Vporziub2FZtO86JXWTGfvQn3owpW6ecFfayYwyFPOP7gn7lXBiEf+LcNGMnf9QDXSy8B3oFsvmvuuqqTgfIrrvumln0fjd/o7DPAa4SD0idcOkreyPHdg7yuK83fJn/ePIuBn32D7a8VPRG0T6xxbF6A6o/1tjGN2T0rTdvtMcX7RTNq/1op238Rf/iU4kD8ahPPqgr+RE/nXw0ljnFgDb8yhZfcS3jPPl2zFexy09um/fHsbmt9nPGuQ9ijbETN20q9EX+lfhhQ59KnDeyol+82K42TrFWi6dsPtoYAx+xzOOJPnOOik9rqDi09ppTNb7iMch29I8f+WKM/FHHbcZoXGzXPKpzZsxHm+KOcbImio06rmfuh7npZ25KT46F3BZf+FFMip068lGexKLCeoiXYlQO8qcYNaasxgf5RB74wb9KjIW5NC/95KD9aKex1LQzh4ri05xdMdU46jxe5a5c49phH3NjLHOpiD/x8VIhd+1TxzHYRJ/5+0I+qsUhG2piEj/28RfZx37iUFw6JpQ3Y+mL84pNnC9uxzxoj/7Zz/sjC3wrTuwUV2yPc7Gt8fk6yC6fT+2xJkbx0nEkBvTpmBIf7ZfFlcdRjTW54l8lsiJulchc8alPMSleted1jIO+ro4J8cA2xhX9EkuMP+auuGI/Y8mLfFQqrY/yjHHIp/hrX7kzV7TXsUSbtplXPBknH/IZc1C8cSzbOi4Vo3JRLf/ar5ZzPh/+49rLBzX5Kc48bsZFrnFcpW38KRfi4BULfcqdbeLSS+3Rvmwbe8Vc1p+vGTYxrq7GExf2+biytcmZlcVTNq7MTm1xftrgEtnEfvjGfOiLttX6GEtsOrYYS1G85JYX9dGu3Mvs8nH9tW/h3V+kuzHP8ccfn9Zcc81OlrTVSnzzJuUAjy8O0LISD1Zt5ye3+MaSD504NCYe7IyPbzaNKbOlL74Z4zZ9zJ2fLGkvmyO+Ccv6iUm5leWkOFUrR+2XjYk2xI5NXqINfTkH8os5qh/bPI+yGPL5tB/zlU/qspL3MzbGVDYmjy33kefN+ui4yMfiP+egOXM/tOs40Zw6vqOP7oyLPBhbtn6aT7bkgJ2OpTguX5+4BviJx2jMT77UpjrnRE7RNubLGPp5UcSGWtvMr23qvJQxwyafh7aYa9yWT9ZIc+R+e3IsaK3lV3UZyxhH3NaYyDNuq5/1wm9XpYxHvtbVOMfY2CbHvOT+6I8c4zZ9kWnuq1q8ZRyifSX+1eaI+cku+iE35oilqziibcyVbXzBQ8dbXMfIqWxNKsUqX3FetiMb9skr2sY8NR+5UWKObGObtxcN4R8dH9jKT+juOBfGtnw7P5ZijNVsY7yyy8fCP+YBbwpjiZ25VbCLrNQuTuqL8Zatj8bFurvHRD4XPsryjL61He266yc/XuQrclNbWa46fsvm07h8TWgXw3yemAN2+Vhi0HszHxvnww8l90dbzDn3X8mnfMdaOdDGtuKKNpW2iYu5VWJMaiuLXX3Mp2NZbWV1nl+0Ua46runL56w2Pl9zHQv4ke84H9vV/FUbl/vRvmJgn21igCXzU9gnJ0rOOI6lP8YW17YY/Nk/OR+asdV80TYy0FyKJdoN1LaF90CRL5k3F90yQXgPHjxYu72u45sTJzo4deByYPIGiC8OWooOXvo4AVOoo622aZd9YfjZP2VvHLrKbGmPb0B8K076mIN88sIcebv8U5fFEOep5DfOk3OsxkHjxCb+gcj9xDgZV+lkhZ3Wjm0KvqJvzVtWx3zzOXP7sn7Gk0/OWWNzxrmPPG/lwnjGilWsy3LDT7TRto6TOA99sV22saY/j5WY8nVQntTMQcyMxY6aNgqcNGd+XMU1wBY7Yoklxh/bta2cFLPaqYkl5qaY6JM9NYXYiCdvLzo/+0d5xja2mYfxscT1z/PGTnGznecYOXR1LOBHOcT5ow+1xzjYJu5Y4pgYv2zy9VJ7XuM3983YuBbaVuwwUBt1XCtiVZ/s8Ue8scR5qzGNY9iO49THeBj0lj9+8pzFJK6D5iO/mI/GikNXcciPavzBirkYS82LNvpUIif1iTE23YlVvqjzY0jxy0brqJrYVNgmbxXGwixvVz+14sNGOcd+2iLX2KdtzcO+4hcDMVG81Iq5LK5oF7fxLV9skxdzKT+2Y+7KJ/pQTMoZP4xRPOxXK/jCB+MZQ80rxqXtOC/bMbY4B/FHW9nJD7VKWU6MxUdetA6xnVjjXNrOc4hj2MYuxkGbjnvFyXwUYonHLGPVRz9zqb8sxnx8VznnsZX5LAILx4/ypo5rD3vaFJ/G5XWeM/3Ena8DuWo9cx/KK2/P94kn8ov9OSv6cvt8P47XGqot7pdxLMtbY1WXjVNfpRpGjIMJzKjFkvh17OWMFY/6Y67ymc+J73xN2Kc9L3kumo95iHOgi4X3QK9AmL+/hTdT6w2rA1VvBB2o2leYasc+nojVr1p2cXzZGwf7Mlva45sxbtNXae6yOZQb49iu9uat5JexKmKm/e6MkS156ESR+8k5VDtZKSf88cpz0nxldTxZ5XPm9tX68UPuecnXIPeR561c8JOPzX3H/dxP7Iu+8jWvNi6PFT/5OsR5tPbUWlfWAz9xTWSnsXENaIsMZFMtTmwUF77ZjkV9sU3bZTkSM34Uu2xVV4qlbJ6Ya9yWL+YgX0ruN3Lo6liIfuSbOvpQe4wjbqs/zhW31Z+vl9rzuoxHtbHYw0ClLDb6aNfxVOYvcozbjC3jofmqxVvGQeOoK/FnfvyqxDnwGfOt5oc8yburODSPauVPzbFO/mzjJ8YlO8aVvSfK1qJSzppba6P51E5dbWyeo9Ysrnv0xXaMj7zwH0u1+WRHnNjpRRwqtMV95UZ/Hi9tXc2n8dTyQdzkwYuivFkPSr4u2pddYdSNf7TW1PgoOybkm7qrkq9L5FHmJ/Z35bsst7jW+fiy+WRTtiZaB43T2lPHko+NMeQxaj+y6yrn3L98xBi0jS3+VJSD9lXTrmNJbaqVb/RDX8xLtvGcpTbVXeUluzw/tSsO8lVR7ozJX/GcJfvcRvvkL/9xLeRf48vq7tjk48SJmvHMSQxs815TkZ328xiJnzGUSmtbxr2SbaVcNK/mUjz9XVt49zfxKvNxWznf8Y6FK921vNU8npTiQZgfqNjxZsAmL3qTxPG5Dfu8KXTSkC1tZYU3aXyjMn+01ZwaW3ayVB+2MU/85nHojac8dTKu5lf+K51E5FN2ZXU8UVTyI+bV+olTOZXNE3PO+2MM9OVso73WTTHFPuaInNWXnyBzH/m4/NgjHq2HfJbV2GBbrdBPvjHOauPyWPGdr0OcT/bkJEZiH9cnP666YsAcuU2cl21xI7/82OtOzIoXX2ICr9iuOYk/smafMYohzo8dfZQ8b9rol32eo/xp3uhLbaoZy0uFbWLnxbiYR4xD/YqR8fEYoZ39WNiXPTX+y0oZd+bO/Wlsbo9dzEl2MSb8xfnFTPkyHhsV9Ws/1syPL61Hnht9yjuOY5t5YqxsE0M+Pz6Yh6JYFGs+f5wj+qkWRxzDNvEyNjJXDDGX6J9x2IgD+/GY0Ry5jdpVa62xy0u1scQV42Ws2OTt8pvHRz68VKrNF220FmpTHcdr3cRP+7KlJt44f+xjW/HKhnl1vIt77pcxxBFjZAwvHVOaBzvFpzbVtDNvZIk9PuIYbHK/8hFr5aK26JtY85ixqxaf/FDnDGiTT3GK9mznPJQnuWgbO3IlDm1rLYqG7B/s4nwx5zxG5qA/L9VyZu44P7aKrcyPYtHccd1kj7+yODRGPmRPnfflrCM/7IlRc8i2LBbsyuZjTWLeMZa4nY+P80Y7tvO8iTkex/RrX8cAscciDrGN7UprSx9j6I+MNLcYYcfcmp99cVMMMVfsoj/2mYe4Y7tiK2NfKRfGxLnYH4hi4T0Q1KvMyVVvDoz4qmLeoy7efNEv2/Gg5QBXv7Z5Y+iNqr74htIBrj5q2ih6c6mP9vyNExOgT7a5XfTLGGKodPLK5yWXWBireejDjzhU8ysfMWeNi23yTVveHmOJffhR3NQUbKN93h95MWfkQV9cJ8VOTZ/i1jyKOdqxHefUtmzjfHEcvuP6aRw1hXExNnGQD9lrHuoYr+yo41rKPvbDj3bNrb5K4zR3tM/XQT5Uk2vMV77JS4W2yIt8FC92OQPG5ZzkK9b53OqrFnNZjpqPmCoVscSmUi70xbXK88Y3NmKT55hzUKyM0Sv6J3+1M5cKfmnXuuRxaJ6ysfjXOPljX/PiK++XXSXukV2Mi3GKgRo7sVUO6s+PSbVTx76umCpWauZTPvKntaG/N/zzMTmTyEJzM2c+Thy6E0fMSX6YR0UstU+dc4px0Z8fM7TBKPKJ/tgum1s21caWHXOaL3KQL+pK8dGusVpT1XE828yrPtXKL/ZxvBOH3gOMpY0xMT625Sfvwy9tik8+8vdSXAdtw1WF8fhRnLSLe2yTfezv6pjAVnkpjzgm+ox22CgPxRJjjjHIL3XkKd/ipH3Vao/jY76xPfrN10T+qPM+5UAf/qL/eLwpFuy0HefXGotF7IuxxXb5ifFpmzGyJUbipi33T3tZyfOUL61R9E9fjFHHoMYoN+bR/LJXDrJVTXuZfVmsamOsxtHGfpxbdtTkl/dpburIRbkqd8ZFW23LP/vKT22xzv2Ll/xjSxsvFXGTDT5irnG9NI4Y4vGJL/bLYtM6YKN8lVfOSTH1Z23h3Z+0PZcJ1IhAfiLDrU5C8aRTo+nsxgRM4DMCep8ZiAk0M4H8P7/kUvaf20bLUf+RjnHxn+koLmKft8sJlDErE3Dlo93aDgSa4XzQjOtg4d2Mq+aY255A2R9IfWpIHydMFxMwgdoS4H3l/+DXlqm9DQyBsg9oy8TYwERXedayD53526erZ5VHuicSKOPoDxUjIW9zPMQr0SZSGwIW3rXhaC8m0O8EdOuMaovtfl8CT2gCJmACTUsAoa2/H9T8R7vRC3H6b11tVon1juvP8eBiAiZQXwIW3vXla+8mYAImYAImYAImYAImYAImYAJtTsDCu80PAKdvAiZgAiZgAiZgAiZgAiZgAiZQXwIW3vXla+8mYAImYAImYAImYAImYAImYAJtTsDCu80PAKdvAiZgAiZgAiZgAiZgAiZgAiZQXwIW3vXla+8mYAImYAImYAImYAImYAImYAJtTsDCu80PAKdvAiZgAiZgAiZgAiZgAiZgAiZQXwIW3vXl2zTe+/P3G8t+P7KWoMp+47pW/vkZk/7+yZWy31utVT72YwImYAImYAImYAImYAImUH8CFt71Z9wUM7SL8JaIpab0VEhH+2HDhhW/gdnVb4r29YMGxdwUB5KDNAETMAETMAETMAETMAETmIyAhfdkSNqzoV2Ed766UUjnfWX7PbXHh4V3GUm3mYAJmIAJmIAJmIAJmED7ELDwbp+1TrpCO2jQoMmu1EbhffbZZxdikVu2sdUVXdo1lhp/Kroqq35dUaY/9jFPFKLYR1vFGH3jI8bHPrHhRyUKYt1qzhjFI3/Rf54P9ipxLP5U4jy0xfhjnmoXQ8WhmBWH2okllji/4oz93jYBEzABEzABEzABEzABE2geAhbezbNWfY4UkaeCgIz7CL1cYGufMbk9+xKqiEhtY4tQjPvMI18SpxKgUYRrbBS6ije3w3+cI/ZL7Eps0yefErzqi3loLmwZo8K+hHFuT2764IB4lKfGUsfY1B6Z0Bb9xHjpwy/9LiZgAiZgAiZgAiZgAiZgAs1JwMK7Odetz1HnAjSKRkSmhKomiuJTbVEsqo1a4prtXKjSFoVotKUvxsG+Cnb0UdiWOJWApo92Sh5rHJvnnceX9+Mv2sRt+iIDYiCuvMR8c3+yjTbRJ/3Eb+EtUq5NwARMwARMwARMwARMoPkIWHg335r1OmJEIwIuvqJwpZ9SSXjHcdqW2GWM2lTjC5+5iI8iExuJ7a4EJn6Jl7nwS81LYrkIvoLwZixFtsobPxL0sV85qJZNbk+/GDAeO9piznm++JDfWGNHoU3xsd8Vl2KQ/zEBEzABEzABEzABEzABE2hYAhbeDbs0tQ1M4k2CLhegEr/MipiNwpG2/CpyjE5CUm2ai/1cqNKWC1HNRy3xKV+xVgzUxM88bDNHHCc7jY3x5Hnn8eX98qE6t0ck4z8v8CQfSp5v7iMfm/uM8ee23jcBEzABEzABEzABEzABE2h8Ahbejb9GNYkwF2+IwnhltSvhjVjEvqzkQhKhKVsJWWwo8hOFsmIjhjIRqzkZi6jGToV58CX/tPdEeGtu+dP4GF/sY558/rKYYwz6YCH6Ie4Yc+xjLC8VbMVTba5NwARMwARMwARMwARMwASah4CFd/OsVZ8jlSCWWKVGGFO6Et7YSKxLCEYxiFBUu+ZRwAhM9UmQ5sKW+aOg1dhYS8THsZo32mkOtUVxLR/KGxvmJT7GqahNcWvOSsJbfmUffcU+XQWPbRoThbjaqGP8is+1CZiACZiACZiACZiACZhA8xCw8G6etWrpSBGqErctnaiTMwETMAETMAETMAETMAETaDsCFt5tt+SNmbCu7DZmdI7KBEzABEzABEzABEzABEzABHpPwMK79+w8skYEdCt6jdzZjQmYgAmYgAmYgAmYgAmYgAk0FAEL74ZaDgdjAiZgAiZgAiZgAiZgAiZgAibQagQsvFttRZ2PCZiACZiACZiACZiACZiACZhAQxGw8G6o5XAwJmACJmACJmACJmACJmACJmACrUbAwrvVVtT5mIAJmIAJmIAJmIAJmIAJmIAJNBQBC++GWg4HYwImYAImYAImYAImYAImYAIm0GoELLxbbUVrlM+kSZPSxP9OTBMn+mUGPgZ8DPgY8DHgY8DHgI+BVj8G+L+fiwmYQP0IWHjXj21Teh4/fnzioBg9enQaNXpUGjXKLzPwMeBjwMeAjwEfAz4GfAy0+jHA//34PyD/F3QxAROoPQEL79ozbUqPn3zySXGy5Y/KBx98UJx0//vf/ya/zMDHgI8BHwM+BnwM+BjwMdD6xwCCm/8D8n/BsWPHJv5v6GICJlA7AhbetWPZtJ4+mfRJGjNmTPHiD6uLCZiACZiACZiACZhAexLg/4Lvvfde8f9C337enseAs64PAQvv+nBtKq8cBO+Nec+fbDbVqjlYEzABEzABEzABE6gPAa52I775P6KLCZhAbQhYeNeGY9N6GT9hfHFL0X8n+Up30y6iAzcBEzABEzABEzCBGhPgyje3nU+YMKHGnu3OBNqTgIV3e657R9bvj32/+D5PR4M3TMAETMAETMAETMAETCCl4v+I778/1ixMwARqQMDCuwYQm9XFpE8mFU8v9yeZzbqCjtsETMAETMAETMAE6kfg448/Lm4594PW6sfYntuHgIV3+6z1ZJlyCxE/HcHvUrqYgAmYgAmYgAmYgAmYQCTA/xH5v6IfvhupeNsEekfAwrt33FpilIV3SyyjkzABEzABEzABEzCBuhDQ97x9kaYueO20zQhYeLfZgsd0LbwjDW+bgAmYgAmYgAmYgAlEAhbekYa3TaBvBCy8+8avqUdbeDf18jl4EzABEzABEzABE6grAQvvuuK18zYjYOHdZgse07XwjjS8bQImYAImYAImYAImEAlYeEca3jaBvhGw8O4bv6YebeHd1Mvn4E3ABEzABEzABEygrgQsvOuK187bjICFd5steEzXwjvS8LYJmIAJmIAJmIAJmEAkYOEdaXjbBPpGwMK7b/yaerSFd1Mvn4M3ARMwARMwARMwgboSsPCuK147bzMCFt5ttuAxXQvvSMPbJmACJmACJmACJmACkYCFd6ThbRPoGwEL777xa+rRFt5NvXwO3gRMwARMwARMwATqSsDCu6547bzNCFh4t9mCx3QtvCMNb5uACZiACZiACZiACUQCFt6RhrdNoG8ELLz7xq+pR1t4N/XyOXgTMAETMAETMAETqCsBC++64rXzNiNg4d1mCx7TtfCONLxtAiZgAiZgAiZgAiYQCVh4RxreNoG+EbDw7hu/ph5t4d3Uy+fgTcAETMAETMAE2ozAR+PGpY8+GtdvWVt49xtqT9QGBCy822CRK6Vo4V2JjNtNwARMwARMwARMoLEI/OfJp9OhRx2fDjnyuPT4f57ql+AsvPsFsydpEwIW3m2y0GVpWniXUXGbCZiACZiACZiACTQWAa50H3T4sWnrHXZLW+/wm3TwkcemcePqf+XbwruxjgNH09wELLybe/36FH0thPdHH32UjjzyyLT//vunMWPGdIrnxhtvTL/+9a/TBRdc0Kl90qRJ6aSTTkoHHnhgeuedd9IhhxySzj777E42vdl5991309NPP10MHTlyZPrDH/6QTj755DR+/PjeuOuXMaNGjUr77LNPOv3009Mnn3xSzHnuueemnXfeOe2yyy5pp512Kl677bZbOuyww9LDDz/cL3F5EhMwARMwARMwgcYhgMg++Ij/Ce9DLLwbZ3EciQl0k4CFdzdBtaJZLYT3xIkT0+abb56+8pWvpCeffLID08cff5w22WSTNGjQoLTC8sun90aP7uh7++2305xzzpnWWWed9Prrr6cFFlgg/fznP+/o783G2LFj0y9+8YtC6DN+yGtD0swzz5x++MMfpg8++KA3LvtlzJAhQ9Kss86a1l133cQHEojvjTfeOE0xxRRpySWXTMstt1z69re/nRZbbLE03XTTpW9+85vpsssu65fYPIkJmIAJmIAJmEDjEPjPU8+kQ486objd/Iknfat546yMIzGB7hGw8O4ep5a0qoXwBgxXq6eddtp08cUXd3B69dVXC+E499xzpwUXXDD9+847O/puv/329NWvfrW46j169Oi01FJLpW233bajvzcbXG1nHq6wU4aPGJ7mtTt65gAAIABJREFUnXfetNFGGzX0Fe9hw4YVcfOhAcKbwvb888+fnn322fThhx+m9957r7ib4Kqrrkrf+MY30jLLLJO4uu9iAiZgAiZgAibQXgQmTJiQePVX8a3m/UXa87QDAQvvdljlCjnWSng/88wzhSDce++9O2a64oorCuF7/PHHF1e0uU1a5ZhjjimE94MPPliIyqWXXjpts8026brrrku777572mXXXdIll1zSSTBzZf0f//hH2muvvQpbbsNmDgq3kuMfkf+d73wn4f+VV19Jyy+/fNpxxx07bLjlnVu3t99+++L2+JdeekkhTVZzJf6UU05JxMgHC9ttt11xazxjuL3+xBNPTNtut2064IADkvwgjLntntvHY7nhhhvSUUcdNVk7NmXCmzsF+BDhzTffjG6KbfL+2te+lh599NHJ+txgAiZgAiZgAibQ2gQQ3ePHW3i39io7u1YlYOHdqivbjbxqJbz53tH3v//9tMaaayQEMuV3v/tdccUb8bjaaqsVt1Lzx4Jbqbk1ffHFFytENyKVsbPNNlsh1L/3ve+lxRZfLH35y19Oxx57bOGLOPm+9nTTTZ9WWmmltOmmm6aFFlqouMp+1llnJfo322yz4jZsrnJvuOGGhaBFvN9yyy3FlWQE8SyzzJJWX3314hb36aefPi299FId3wnPcT3wwANFTMyzyCKLFDHONNNMxXiE8eKLL17EMs0006R11l2nEOMnnHBCcWv93/72tw53XNHng4XvfGfFIt+Ojs82qglvvv+eF9hxazofdriYgAmYgAmYgAm0DwE/1bx91tqZtiYBC+/WXNduZVUr4c1ke+65Z5pjjjnSiBEjCvG9wgorpK222qqI449//GMhYocOHVaIz4UXXjhtu+2nt4TzfW+uUs8444zp/PPPL26pHjp0aPrud7+bFl1k0eL72a+88kqac6450w477FAIXJzy3WhuUV9llVWKp3oyL9+JZk4Oaj2oDFvEPbdub7DBBonvnlO4ej7PPPOkCy/s/OC3ojOl4oryt771rUJg33///YnvkCPeP//5z6eVV145cSs9t4D/fo890ldn+mrx0DNy4ao7HwJo/ltvvTUh8k877TS57lTnwptxjJ9rrrnSlVdeme6+++505513FvFytXuqqaYqvg+vPDo5844JmIAJmIAJmEBLEvBTzVtyWZ1UmxGw8G6zBY/p1lJ488AvboHmCjNXY2f9xqzptNM/FZuIXK4W0/fUU0+lr3/968VTvInljTfeKAQ0D1ojHhVuW0d8Iqh5OBpP80bYvvX2W+mFF15I//znP9Oyyy5bXHXm+90cyFxZLvuuOON/9KMfFeL/4IMPTvfcc09699130gcfjE3jxn2kKTvVjzzySHGFnKe1q0hEc5u5ymV//3uRN7fJU3bYYfs0++yzJz4soHDrPHkMHvxasZ//Uya8f/WrXxUfRPBBBi/88SEAV+x/9rOfpeeeey53430TMAETMAETMIEWJuCnmrfw4jq1tiFg4d02Sz15orUU3i+++GKafY7Ziwemcfs3T99+/PHHi0n5vjRXgk888YTiqja3letnv3SlGrEZy5/+9KdiDMKUcu+996YtttgiLbjQgmmhBRcqnvLNg8a4jZ2DmKvaXAHnu+Jl5aGHHiqecM5D4Kaddrq05JJLVPzeNeMR+nxAcNxxx3W444MD5ow/fXbppZcWbddee21hd/311xdPeIcBfyS5uq8HvnU4Chu58KaLPBHcfMec2+W5E+Caa65Jjz32WL/8ZmcIz5smYAImYAImYAINQsBPNW+QhXAYJtBLAhbevQTXCsNqKbx5+jZXrTfbbNPiVukf/OAHHb/rzTxcqeW19dZbp1VXXbVDQEp454J5v/32K4Q333PmQWJzzzV38V1rHmaGGEW4r7/++sVt6lF45wKedeJp4TyAbfR7o9PNN9+cuOrN98r5yS6uaMcr7VrXMuHN2Fx4831u2hDGFD4A4Knjm226WfGzX1ylliiX71iXCW9+Wo3vlvvJ5ZGUt03ABEzABEzABPxUcx8DJtC8BCy8m3ft+hx5LYU3wRx++OHpW9/6ZiFEuWIdy8knnVxcBedqN+JZpSvhzfeoeUo5Ipmng6vwPXDEKd8Fl/DmO95lV5e57Xu99dZL55xzjoYXt7gvvthihQBnfF6qCW+uZqvkwpv2gw46KM09z9zp+yuvnHhYXNlD0jS+THjz8DZ+25w7BVxMwARMwARMwARMQAT8VHORcG0CzUfAwrv51qxmEddaeN90001phhlmLJ42fvXVV3WKkweUzTzzzGnqqacuvp+tzuHDhxc/ncXTumPhKeZcSR45cmTx++BTTjllcRs5vwF+2WV/L76zTRu3l/Pdb37iiyee81RzfsLsrbfe6nDHlWO+/83V59NPPz0Ry9FHH51mmGGG9Pvf/77j97M7BqRU/IzYdNNNV9yOrnaEPw9Kw4fKhRdeWLTxIDSVJ554Is0333yJ+A499FA1l9Z8gDDnnHMWD37T73j/9Kc/LW41p8/FBEzABEzABEzABCDgp5r7ODCB5iZg4d3c69en6GstvBG7PGWcp34jqGNBQK+55prFreFRUDKGW8/5+bFYeIL4csstV4hqnii+xx57FAKVp5MvvMjChf0+++xT3NbNd58pZ551ZnF7Og8zu+OOO6K74nZ1fkqM707zvWuuKP/2d78thH0nw892EM/8ZFgU2TxdnDZudVfht7uXWGKJ4hZ2tVFv+otfFEKf75ZXK1zx5wMDfm9cT0Lnd8ZpyxlW8+M+EzABEzABEzCB1iXgp5q37to6s/YhYOHdPms9Waa1Ft5MwNXlSt9N5vvP9ElgYk8M3IrNLeWxILa5kk0/hTHPv/B88fNagwcPLtroQ7jy1HKV1157LT3//POJ75znhaviPPDtrrvuKn6OLO+P+9zKxYcC0Tc/4UUbflR4gBpt+c97rbHGGmnNtdYqvlsu27KaHMiT3/tWYTvmrnbXJmACJmACJmAC7UnATzVvz3V31q1FwMK7tdazR9kg+hB5EydO7NE4G5cT4MMDnnzOg+F4evoFF5T/Rnj5aLeagAmYgAmYgAmYQGUCnz7V/Ph06FHHpyeefKqyYQ17+L8iF078f8UaQrWrtiVg4d22S//p1WYL79odAK8NeS0tutiixYPg+D3xeLW8drPYkwmYgAmYgAmYQLsS4Mo3r/4qFt79RdrztAMBC+92WOUKOfqKdwUwvWweP2F88dNh/HyYRXcvIXqYCZiACZiACZhAwxCw8G6YpXAgLUDAwrsFFrG3KVh495acx5mACZiACZiACZhA6xOw8G79NXaG/UfAwrv/WDfcTBbeDbckDsgETMAETMAETMAEGoaAhXfDLIUDaQECFt4tsIi9TcHCu7fkPM4ETMAETMAETMAEWp+AhXfrr7Ez7D8CFt79x7rhZrLwbrglcUAmYAImYAImYAIm0DAELLwbZikcSAsQsPBugUXsbQoW3r0l53EmYAImYAImYAIm0PoELLxbf42dYf8RsPDuP9YNN5OFd8MtiQMyARMwARMwARMwgYYhYOHdMEvhQFqAgIV3Cyxib1Ow8O4tOY8zARMwARMwARMwgdYnYOHd+mvsDPuPgIV3/7FuuJksvBtuSRyQCZiACZiACZiACTQMAQvvhlkKB9ICBCy8W2ARe5uChXdvyXmcCZiACZiACZiACbQ+AQvv1l9jZ9h/BCy8+491w81k4d1wS+KATMAETMAETMAETKBhCFh4N8xSOJAWIGDh3QKL2NsULLx7S87jTMAETMAETMAETKD1CVh4t/4aO8P+I2Dh3X+sG24mC++GWxIHZAImYAImYAImYAINQ8DCu2GWwoG0AAEL7xZYxN6mYOHdW3IeZwImYAImYAImYAKtT8DCu/XX2Bn2HwEL7/5j3XAzWXg33JI4IBMwARMwARMwARNoGAIW3g2zFA6kBQhYeLfAIvY2BQvv3pLzOBMwARMwARMwARNofQIW3q2/xs6w/whYePcf64abycK74ZbEAZmACZiACZiACZhAwxCw8G6YpXAgLUDAwrsFFrG3KVh495acx5mACZiACZiACZhA6xOw8G79NXaG/UfAwrv/WDfcTBbeDbckDsgETMAETMAETMAEGoaAhXfDLIUDaQECFt4tsIi9TUHCm9rFBEzABEzABEzABEzABCKBSZMmpVGjRqWJEyfGZm+bgAn0goCFdy+gtcoQTqYjR45MY8aMSWPHjvXLDHwM+BjwMeBjwMeAjwEfAz4GOo4BhALC2xdpWuV//85jIAlYeA8k/QGe28LbHzb4AxcfAz4GfAz4GPAx4GPAx0ClY8DCe4D/s+7pW4qAhXdLLWfPkvGt5j3jZWsTMAETMAETMAETaCcCvtW8nVbbudabgIV3vQk3sH8Jb39vp4EXyaGZgAmYgAmYgAmYwAAR4P+K/o73AMH3tC1HwMK75Za0+wlZeHeflS1NwARMwARMwARMoN0IWHi324o733oSsPCuJ90G923h3eAL5PBMwARMwARMwARMYAAJWHgPIHxP3XIELLxbbkm7n5CFd/dZ2dIETMAETMAETMAE2o2AhXe7rbjzrScBC+960m1w3xbeDb5ADs8ETMAETMAETMAEBpCAhfcAwvfULUfAwrvllrT7CVl4d5+VLU3ABEzABEzABEyg3QhYeLfbijvfehKw8K4n3Qb3beHd4Avk8EzABEzABEzABExgAAlYeA8gfE/dcgQsvFtuSbufkIV391nZ0gRMwARMwARMwATajYCFd7utuPOtJwEL73rSbXDfFt4NvkAOzwRMwARMwARMwAQGkICF9wDC99QtR8DCu+WWtPsJWXh3n5UtTcAETMAETMAETKDdCFh4t9uKO996ErDwrifdBvdt4d3gC+TwTMAETMAETMAETGAACVh4DyB8T91yBCy8W25Ju5+QhXf3WdnSBEzABEzABEzABNqNgIV3u624860nAQvvetJtcN8W3g2+QA7PBEzABEzABEzABAaQgIX3AML31C1HwMK75Za0+wlZeHeflS1NwARMwARMwARMoN0IWHi324o733oSsPCuJ90G923h3eAL5PBMwARMwARMwARMYAAJWHgPIHxP3XIELLxbbkm7n5CFd/dZ2dIETMAETMAETMAE2o2AhXe7rbjzrScBC+960m1w3xbeDb5ADs8ETMAETMAETMAEBpCAhfcAwvfULUfAwrvllrT7CVl4d5+VLU3ABEzABEzABEyg3QhYeLfbijvfehKw8K4n3Qb3beHd4Avk8EzABEzABEzABExgAAlYeA8gfE/dcgQsvFtuSbufkIV391nZ0gRMwARMwARMwATajYCFd7utuPOtJwEL73rSbXDfFt4NvkAOzwRMwARMwARMwAQGkICF9wDC99QtR8DCu+WWtPsJWXh3n5UtTcAETMAETMAETKDdCFh4t9uKO996ErDwrifdBvdda+E9ceLEdNu/bk9HHnl02nvvfdJhhx+Zrrv++vTRuHGlJJ5++ul0/PEnpr3+8Md08MGHpttvvyNN+mTSZLYvvvBiOv/8C9MFF16cLrzof69zzj0vXX7FP9LYsWMnG1Ot4fXXh6c999o73XrrvzqZvf32O+miSy5J+D3v/As7vc6/gP0L0rnnnZ9eeeWVTuPizn333Z/++Md90l133R2bu709adKkdM4556ZDDzsivfvuu6Xj7rzzznTYYUcUORxzzHHpP08+WWrXnca77743/WGvP6aXX365O+a2MQETMAETMAETaCMCFt5ttNhOte4ELLzrjrhxJ6il8B41anTaZZfd0vTTz5ym/NJX0jdmnT19aepp09Rfnj5ttfWv0xtvvNEJxOWXX5Hmmnv+9IUvTpVmnmXW9MUppk4zzDhLOviQw9L48eM72R511DFpiimnSVNNPW364hTTFNvsDxo0KH3zW3Okl6sI4U6OUkpjxryfttxy62LsEUce3an77rvvSV+ZbsY0aNAX0he+OM1nr6mLOYltpplnTVNO9ZV03nnndxqnneHDh6fvrrRy4ZsPHXpTrrjiyvSlqb6SZp7lm+n5F17o5AJRfuRRx6QZv/q1NMWXvlzE8/kvfCnNOff86bLLLu9k252dF198KS23/HfTNF+eLt1xxx3dGWIbEzABEzABEzCBNiJg4d1Gi+1U607AwrvuiBt3gloK78OPOCp97v+mSEsutWy66OJL0pNPPZ0uu+yKtOJ3vl8I2T322LNDUD/91NNp3vkXStNOP1Ni3MMPP5zOOPOsNPsc86app5kuXX3tPzugITZ32GHn9OWvzJC23vrXxZXegw4+JB108KFp3/32T8ced3xC9HenvPTyy2mLLbdK000/U/rKtF9NJ558SqdhQ4YMLa7S77//gYV/5uCDAK4qr/3j9dNUU0+fFlhw0fToo491GscOLHf9ze5p6mmmT9NON1NxJX8yoy4auJK+9LdXSFNNPV1adLGl00svdb4KzYcV03x5+jT3PAuk8y+4KD344EPpgAMOLtrmX2DhhJDubuGK/Co/XK34YGS++RdMfOjgYgImYAImYAImYAKRgIV3pOFtE+gbAQvvvvFr6tG1Et7cor3AAosUIu7mW27txOS+++8vrn7PN//C6bXBrxV9+x9w0Kdi/Pd7dbK98MKLiqvaP99ksw6R/u67I9N3v7ty+uY355hMiHYaXGWHPC+48KK00MKLpy9MMXWac6750nQzzJJOPKmz8K7k4vXXX0/Lr7BScaW50pXlSy65NE0/wyxFrtNNP3OPhfe4cePSFltsVYjur339W2mRRZfslO8HH3yQfrzO+mmKKb+cLrro4k6h8qHGoM9NmY4+5rhO7WU78Dz4kEPTLF/7ZvEhx7dmmyvNO6+Fdxkrt5mACZiACZhAuxOw8G73I8D515KAhXctaTaZr1oJ71defTWttdY6ad31f5rGftD5+9ajR49OSy29bPr6N2ZLzz3/fJowYUL60WprphlmmDn9+993dSI2qrBdLs0x53zpmWeeLfq46jv7nPOmFVZcKX007qNO9t3dee211wpBzG3q++y7X/rtb3+fpphimnTCiSd36YJ4t/wlt6b/X9oj+6BAg1988cU033wLF+J82+12LG61P+74E9Xdrfq0089IU089XXEb/PIrfDfNM++CnYT3c889n2abfZ5CkOe37XO1mtv1f7jq6mns2A+qzscHB+Qy2+xzp2OOOb4Q89/81py+4l2VmjtNwARMwARMoD0JWHi357o76/oQsPCuD9em8For4c1D1UaOHJneeeed9Mknn3TK/YEHHkxf//psaaGFF0tvv/12evPNN9O88y2U5ltgkTRkyJBOthMn/jdt9LNfFLeCX3PNtUXfzbfckr468zfSBhtunM488+y0086/Sdttv1M6+tjj0vPPP99pfKWdV18dnLbbfsd01dXXFCbHHX9CGjTo890S3gjVL001bVp66eUSAj4vH374YdroZ5sUYvu22/6V/nrGmcXVfB4a193y6GOPFx9MrPS9HxS3i6/8g1XT7HPM00l433DDjcWt+T/56UaJOWN54403i6v53FWQM412bONnxx13SY899njRtdFGPy+ufvtW85yU903ABEzABEzABCy8fQyYQO0IWHjXjmXTeaqV8K6UOAfXz3++aRo06Itp+x12KsyKK9hzzJOWXHq5yR64hsGOO+1aPFyMp5hTTjr51DTtdF8trtBOO92MaZZZZi0E6KD/myItseS304033VzYVfuHPHmpHHb4EYU47uqK9/tj30+rrrpG8QC4v/71DA3vVBMfD2PbbfffFe3HHHt8Ieq7K7zHjBmT1lhz7eK74bfffmf68KOP0rLLfSfNOed8nYT3RRddUjzYDdGcf7jBXQVLL7N8mmvu+dJTTz/dKb58hyv4KuPHf5zWW++niVvbLbxFxbUJmIAJmIAJmIAIWHiLhGsT6DsBC+++M2xaD/UU3mM/+KC4Ov25/5syLb7E0umZZ54pOD35n6cStzbzNO0333xrMnbcBs6TznnYGmWPPfYqhO1iiy+VTj31L+nJJ59K/7r9juIqM74RnNV+3muyCVJKhx9+ZLeE998u/XuaaprpiyeVc7U+L/c/8EBxNZ5bw9/6rP/wI/D9+W5/x/vAAw9OgwZ9Lu2//0GF+3feeTctu9yKkwnvs846J33hi1On3+z2qcCPsbz33ntpxe98r/hw4pFHHo1dVbf5Xvn6629g4V2VkjtNwARMwARMoH0JWHi379o789oTsPCuPdOm8Vgv4T1y5Kj0q223S5/7/JTFd5VvufW2DiZPPfV0+uZslYX37rv/rvi5sLPPPrcYc//996cTTjgpIXJj4XvOfFecJ6mfcsqfY1eX290R3uM+/jhttPEmRQ5lV8bffuft9MMfrZ5m+fps6Z577uuY89Pb2D+XTj2165huvOmmNMNXv5bW/8mGady4jwsf778/NiHkueI9/PXhHX4lvHVlvaMjpYTw5uFv3J7++ONPxK6q2xbeVfG40wRMwARMwATanoCFd9sfAgZQQwIW3jWE2Wyu6iG8Bw9+Lf1kg42KB3gtsdQy6Y47/90JywsvvJhmn3OetPgS307Dh4/o1Mct1L/edvvip8P+dsmlnfrKdo46+pji6vLv9tizrLtiW3eE93/+82RxBXmOueZNz372oLfokJ8Z+/wXpkobbPCzdPPNt6Trrr8+3XjjTWnb7XZIU089bdphh53S9TfckOBRVrja//2Vf5i+Mu2M6ZBDD0+33npbuuHGm9Ilf7s0LbbYUmmOOedNfznt9HT77XcUt8n//bLLiye+w4d1i2XUqFFpiSWXKX5mLP8JsmiXb1t450S8bwImYAImYAImEAlYeEca3jaBvhGw8O4bv6YeXWvh/fTTzxS/Dc2t0/xG9ONP/GcyPsOGvZ4WXmSJNNfc86eXX+78O9Xjx49Pa629bvGE7jvvvLMY++rgwemFF18snoaeOyu+X/25L6Tdd98j76q63x3hffrpZ6TPf/5LafMtt0off/zp1Wg55WFy6623QfHd9ZlmnjXNMOMsxW938110vi9NbjwQ7v8+P2U6+ZRTNaxTzcPNvjrT14vvs/NEcn5bnN//puaJ4wjvL04xdZp77vmLh9I99PAjacaZvpbWWPPHiTdtLK+8Orh4YB0fZrz11uS370fbuG3hHWl42wRMwARMwARMICdg4Z0T8b4J9J6AhXfv2TX9yFoK7xdffKn4LjTfQ+b3qHnCeVlB7P1s418UV2+v/uwp47Lj6ePzzLNA8YRuxn/00UeFgEd83nXX3TLrqHfaedfiivexx3b9+9Udg7rxHe9PJn2Sdthh5+I29hNPmvwnxyZNmpQuvvhvae+990l/2v+gtO+++6d99zsgHXjQIWntH69XCPF11vlJ2nffP6V77rk3Tt2xzZPIDzv8yLTPvn9K+/3pgLTvfvsnft98zz3/kBZYcJE055zzpu222zEdffSxxVPMR4x4o2ifY855JvvA4oorriwezsaD7PhQoLvFwru7pGxnAiZgAiZgAu1JwMK7PdfdWdeHgIV3fbg2hddaCW+uCG+x5daJh52ts95PE79rze3PfA+b14gRI9Ibb77ZcdWaq8l8N/vH66zf8YA1RPYee+xZtO+w484FPwTuZpv/Mg0aNKjwz9O7VS6//B/FlfHZ55g7PfLopw8UQ3Q+8MADxW3bb1a58tvVFW+eNP69761SCOgr/nGlpuxWfexx/FTZ/6WTT+58pZv8+N1ybh3Hf6Xy3ntjigfP8R3v117738+tkRtPhh/0uS8WD5zTVXgEOWIf9meedU6H23fefjfdcstt6b777k/cSVBW/ie8Z/NTzcsAuc0ETMAETMAE2pyAhXebHwBOv6YELLxrirO5nNVKeF977XXFT359+SszpAUWWjStsOJKacmllim+d8x3j/kN728vu0J69LHHCkDvvvtuWne9nxRXq/nNar7j/PNNNi2+Mz3/Aoukxx//9DemMX744UfSggstlgZ9boq05lrrpMOPOCrtvMtuiVu8+X1tfrZLP6/FQ934ibEpv/TldOnfL6u4GJ8+SXxQOvqY8ivl3N7+rdnmKm4bf6LkdvmKjlNKfPebDwq4Uh3Lyy+9XHy3fboZZk733nt/7Oq0zdPTF11syeJDhfz72nzAAAtuQd9kk80KbvDj1n6eTs6HHSpXXnlV+uIUU6WFF108vT78dTV3qhHea6y+dvGd+juz7+J3MvSOCZiACZiACZhAWxKw8G7LZXfSdSJg4V0nsM3gtlbC+y+n/TXNN98Caamll0v87Nd88y+SENB6zTnXfGnhRZdIDz30cAeWIUOHpm222a74abEZZpglzTTzN9KqP1ozlQnAu+6+p3jy99dnnT1NP8MsafoZZymEPfOSg8qoUaPTqj9aI80117zpmmv+qebJam4fn2vueTp+siw34GFq315mhfSDVVareMt8Pkb7J518SpprrnkSV/Vj4SFryy2/YlpgwUXTww9X/skvfk6M3/VedtnlE7fe5+Xee+9La6754/S1r30rTTf9zOkbs86RfrnVNp1+85sxN9xwY5pzzrnTD1ZZtfT30rHhqvmWv9w6LbLoEunBBx/Kp/K+CZiACZiACZhAmxOw8G7zA8Dp15SAhXdNcTaXs1oJ71GjR6fBgwenoUOHfvYaloYO/d9ryJChadiwYWl89pCyCRMmJJ5yfvfd96RHHn2s+FmsSgQ/+PDD9OyzzxW3a3P79PARnZ+IzjhuTedJ6dyi/eEHH1Zylbhl/eVXXql4yzeCdOiQoYUvfPakjH7vvfTyy68kbhmPhVvFebAcLMaP7/ywtmg3adJ/i3nhN2FC+fe1uVWd3zP/9113JR5oN378hOii2P7www/Ta6+9loYPH97pw4loyJ0CPF19yJAh6eOPx8Uub5uACZiACZiACZhA8X/iZ6uvAAAgAElEQVQI7qjryTNkjM0ETKCcgIV3OZe2aK2V8G4LWE7SBEzABEzABEzABNqMgK94t9mCO926ErDwrivexnZu4d3Y6+PoTMAETMAETMAETGAgCVh4DyR9z91qBCy8W21Fe5CPhXcPYNnUBEzABEzABEzABNqMgIV3my24060rAQvvuuJtbOcW3o29Po7OBEzABEzABEzABAaSgIX3QNL33K1GwMK71Va0B/lYePcAlk1NwARMwARMwARMoM0IWHi32YI73boSsPCuK97Gdm7h3djr4+hMwARMwARMwARMYCAJWHgPJH3P3WoELLxbbUV7kI+Fdw9g2dQETMAETMAETMAE2oyAhXebLbjTrSsBC++64m1s5xbejb0+js4ETMAETMAETMAEBpKAhfdA0vfcrUbAwrvVVrQH+Vh49wCWTU3ABEzABEzABEygzQhYeLfZgjvduhKw8K4r3sZ2buHd2Ovj6EzABEzABEzABExgIAlYeA8kfc/dagQsvFttRXuQj4V3D2DZ1ARMwARMwARMwATajICFd5stuNOtKwEL77ribWznFt6NvT6OzgRMwARMwARMwAQGkoCF90DS99ytRsDCu9VWtAf5WHj3AJZNTcAETMAETMAETKDNCFh4t9mCO926ErDwrivexnZu4d3Y6+PoTMAETMAETMAETGAgCVh4DyR9z91qBCy8W21Fe5BPLYT3J598kiZOnNjlrJMmTeqWXZeOBsCAHLsq5KfSHXvZltWMj/6wURvteV+Zj1q0dSeP7tjUIhb7MAETMAETMAET6H8CFt79z9wzti4BC+/WXdsuM6uF8P7ggw/SWWedlY499tj06quvls7573//Ox188MHprrvuKu1v5MaHHnoonXDCCem1116rGOZtt92W/vznPydY8IY68cQT0y233FLRvqsOxuLjrbfeKkwfe+yxIobjjz8+HXPMMcWL7TPPPDMx90cffdSVyx73P/fcc+m4445Ljz/+eMWxDz/8cGHz0ksvVbRxhwmYgAmYgAmYQPMSsPBu3rVz5I1HwMK78dak3yKqhfDm6uvFF1+cVl111XT44Yen8ePHd4r/5ZdfTptvvnnabLPN0osvvtiprxl2Lr300vTjH/84IcArlVNOOSVtsskmaeTIkendd99NG2+8cfrLX/5SybzLdoT+T3/60/TCCy8Utv/4xz+KGLbccsu04447ph122CFtv/326Re/+EVaf/31C1GO6K9l+de//pXWXHPNdPXVV1d0e9lll6W111473X333RVt3GECJmACJmACJtC8BCy8m3ftHHnjEbDwbrw16beIaiG8Cfbjjz9OhxxySFpnnXXSdddd1xE/IvzQQw9N6623Xrrzzjs72ptpA9GLkH7yyScrhn3GGWekbbbZJr399tvFbeCvvPJKeueddyrad9WBaOeDCj60oFx77bWFwCYWiXsEPlea999//7TuuusmhHJ3SndvU7///vvThhtumK6//vqKbv/5z3+mjTbaKGHrYgImYAImYAIm0HoELLxbb02d0cARsPAeOPYDPnOthDeJcDV7iy22SFtvvXXHbdmINq6Ichu2vguMKL3ooouKW9O5VfqBBx7o+M4yAh6Red9993Vig7C75pprCoH/4YcfFuL+3nvvTX//+9+LW50feeSRTvbsMA9jnnjiiXT55Zeno446Kp177rlFu4yffvrpxFVb3dJNO4IW+2eeeaYwu/LKK9Omm25axHXJJZcU811xxRWFyJYfCW/ENh82cKs4vlV4k/GBBLeH80Kwjh07Vt2T1WXCmw8vbrrppslsuX0f4U1slcobb7xRXLlmHY444oiCg66ma8yQIUPSBRdcUNzGftVVVxVcuIofhTdj+FrB0UcfnW644YZ03nnnFVf6H3zwwcSxdOuttya+VsAYblPHhsK60nfKqacUV+fJf8yYMZq6+O4/eZx66qnFccEdFNzqrjJhwoTiawqx//nnn1e3axMwARMwARMwgToRsPCuE1i7bUsCFt5tueyfJl1L4Y1HhK6ENldrf/WrX6Wdd9654+ov3wneaqut0s9//vO01157pV//+tdpgw02KG5VZzwHIyKXq+cS6rRzCzsi8L333ktvvvlm+uUvf5l+9rOfFbY/+clPSkXnjTfemOjjwwBuy95vv/2KK9fMKVHHBwDEG7/HjODm1nL6lBPx4ofbvH//+98Xt4ETP7FQ+ACBK96jR48uBDlXihGJFGLWVf/ddtst7bHHHsXVawRwFJ+F8Wf/VBLeN998czQrthG5xMuHEGWF76bvuuuuBa+999478eIqNRwkXvlu/k477VS0k9+2225bfD2AtZDY5wMM1o512HPPPYu15SsErAUffPA98913373wwTjWlQ87+KCEW+e5Jf43v/lNB78DDjig4EXMHDfcVUD/H//4xyJW5nn00UeLlCr1czy5mIAJmIAJmIAJ1I+AhXf92Npz+xGw8G6/Ne/IuNbCmyubiExuk0Zg8h1kfTeaA+23v/1tIZYRVFzF5EosAgyh+tRTTxVXRrfbbrviqmcU3gg3hCJCldu5sUH03X777YWIpi0v3HqN+GPOwYMHF1dk73/g/kIYInopXLlGVMfbyBHliD6uhFMQfdxCT5zES9y0cZWZK74UrgJLeHPFHIF69tlnF31cwUfcY8P3sMeNG5dOO+20tMYaa6Q77rijsMn/KRPefOf79NNPTzxoDcGpK/58uAHnmEP097e//a0QvfFWf67IkxNX9rn1nAe58SEFzMiPq99/+MMfCn5cqaZwSzviGJGNDZwQ67CijbwQzawlHwIg6rmTAOHO1XquYuvp91obYmMcH0jwoQYfXFA4PuCJHwl6+keNGtXRz50V+nCkaPQ/JmACJmACJmACNSdg4V1zpHbYxgQsvNt48WstvEHJLedcMUVsceuyCsKQK63c7h0LV5sRyAhd4uHqNE9Irya8EbY8Jb3a95URjIhJRHIshx12WHG1FkHHbeRdCW9uu0b0xgeISSz+7ne/K2JAgCMEEY4S3hLlxIk4jt/5ZhvxO2zYsBhax3aZ8EbgciWZmpi54o/I5UFr+KpUho8YXtz2zq3tXH3niv75559frAW5cQKAOVfC44PxuLoOP56azjge7MZt8rEgnImBDwJgwoctfCgigcwakj9Xxfm6AGKdF1fP+SCFuwb4MOLII48s/Pz1r38tPlBgPjiyRnpOAPNwSz8fOKi/1g+Ui7l52wRMwARMwARMIBX/N+Pvuj48NxMTMIHeE7Dw7j27ph9ZD+ENFL7fyxXpoUOHdjBCyHG7cfzOMJ3cro1oRWwitLiymQtvrsjqijdXURFyXEGuVhCjCNQomLFH+HPbOFevEZ658OZKbbzizVVxruDHn8yCG4ISkcnVX4RsLrxp44MBrrjzIrfuljLhzYcT/JQYV9D5MAGOiNn4/fQy/+MnjC++a82HBHxgQZx8MIJw57vWPKyNq8vcVRA/7ODKOhz4AIPcudqtuwA0D1ez4cddDQhv5uB2c91Cj9jntnSOBeZkHr0Q8nBBPHNHwr777FsIfcQ+a40I14cVfG1h333/148vRDji3MUETMAETMAETKB+BPg/j4V3/fjac3sRsPBur/XulG29hDdCGXE8fPjwjvnuueee4sp2/vNU3NaMsEVIc6s6V3AR7rHwMK8ovBFtXd1mjGBEXPKwr1j46S9i4+q0hDe3uavwUDTGcRs2hSeJcyt3fBgZ3BCCfH+dT4ArXfFGyHL7Nd+x5rvOKoh1rvrqO+JqV10mvLm1vdqVbY2NNfNz1wFjuVUc4cyD0LhqjKhmLeDAFXm+R09eKohpOMCRK/PY6yq+bHh4Gja64o3wRmhzUqGQM98Z5wMKbnXngwKOA2rtc0WbeRHr+OGWdG5z50MaroRzTFDGvD95P18ZUH9h5H9MwARMwARMwARqSoC/0RbeNUVqZ21MwMK7jRefkynCq5a3DyH2uHqKOI63UiOwufJ54IEHFleJhR3xx8PBeOo3cSDS9tlnnw4RyFVPvkuMIEeccYUX3/E2dvmKNbdIc/U0XhnnDwd+dIs4oppb4qM4pw2hiiinEF/cp42HkfFhAWKVcs455xRXcuOt5rqlHhGNOI3iHvHLFWyuppeVMuFNnPGn2srG5W1cTebDAXKOt2VzpVs5IXwRulwJjx+U8MEG4heOrAt3InA1O/rhQwy+PqDveMMVoS3hre+Pc1WcW8xVuDrOhykw4qo135+/6OJPH2aHDWJagp1jiLsLLrzoQg0vrq4j8LmCzxV7FxMwARMwARMwgfoQsPCuD1d7bU8CFt7tue5F1vUS3ogqbk2Ot5oj3rg9eK211ipuJefBaDw8iyupiLoRI0YUtzrzcDYEH7cac1v1QQcdVIhEvofMd3u5SoxvxG61wgO8EHyIfUQ688mXbnfnqq4ewMZciE0EKA9Di1e811xzzULkccWYq87cIo2Y5nZsCkKZ718j7PmggJx4gBqF71RzxRwBfNONNyVuueeDBIR7FKOF8Wf/nHTSScV3nvm+PIXvoq+22mrFhwDRrqttBKweigZrfqaNW+C54s+HHawHBVYw5yo+QpufJiM+xLl+EozxPJCNq8yw5AMNGCC8+SABMU2OXN3Xreb45gMH8uf2cAQ/H3IgpFdfffV06aWXFrfg80EL88Ofq+F8IAFDnoqO0OeJ9HpAm/rxydPvfcW7q6PA/SZgAiZgAibQewIW3r1n55EmkBOw8M6JtNF+vYQ3onmXXXYpxHTEiXBG7CH8EMSIVURX/M1rvmPNg74QXogrhPjJJ59cPIiLgxVhi+/8+8ZxHrYRkPjnai5Cl22ukCL2uNWbQs2tzYhtRDriEEGPsNZD2RCeiEk+TOD7yfjhQwD8q1x44YXFT2GRH+Ibe/yq8BvVxLz5FpunzTfbvLBF9FcqXAnmwwh+CozCd6n5Xjq3ffe0IHx56Bk8yR9xTGxwh62EK2IXDuTHXQc8hI48lCe3jcOGOLDBD+P5CTBum8fPn/70p+KOhvw3yrm9nCeXM5YX8/BhiL73zm+uMxaxz7HBHQ3cZs6HMRTuMOADBOZVPx8AxCv0PeViexMwARMwARMwga4JWHh3zcgWJtBdAhbe3SXVgnb1EN5gQoDyE1+VbmFHMPE0c743LfEV8SLcEOC8uJLK7dD449ZlYmY7F3dxPNuIVK7G8nveXCXn6nQlofb6668nnrqu71xz+7L8c8WVfUQ6t8tjlz/UizeR4iNGtmmLhdvQn3322eIKMHyqFa4Y40P8EL3EFr8nXm183sd8fLiBCNet2bRx2z48VeCDiIYHQpo88zlhwNoxlrUhTmz5igH2+IdBXsiJ9WYsD7bLC8cBD3HjtnXm0IcjsqOfOwAq9cvOtQmYgAmYgAmYQO0IWHjXjqU9mYCFdxsfA/US3o2AlFu6uT0Z4e1iAiZgAiZgAiZgAibQcwIW3j1n5hEmUImAhXclMm3Q3srCm1uk+e1nbtN2MQETMAETMAETMAET6DkBC++eM/MIE6hEwMK7Epk2aG9l4c1tzzz0i1uhXUzABEzABEzABEzABHpOwMK758w8wgQqEbDwrkSmDdpbWXi3wfI5RRMwARMwARMwAROoKwEL77ritfM2I2Dh3WYLHtO18I40vG0CJmACJmACJmACJhAJWHhHGt42gb4RsPDuG7+mHm3h3dTL5+BNwARMwARMwARMoK4ELLzritfO24yAhXebLXhM18I70vC2CZiACZiACZiACZhAJGDhHWl42wT6RsDCu2/8mnq0hXdTL5+DNwETMAETMAETMIG6ErDwriteO28zAhbebbbgMV0L70jD2yZgAiZgAiZgAiZgApGAhXek4W0T6BsBC+++8Wvq0RbeTb18Dt4ETMAETMAETMAE6krAwruueO28zQhYeLfZgsd0LbwjDW+bgAmYgAmYgAmYgAlEAhbekYa3TaBvBCy8+8avqUdbeDf18jl4EzABEzABEzABE6grAQvvuuK18zYjYOHdZgse07XwjjS8bQImYAImYAImYAImEAlYeEca3jaBvhGw8O4bv6YebeHd1Mvn4E3ABEzABEzABEygrgQsvOuK187bjICFd5steEzXwjvS8LYJmIAJmIAJmIAJmEAkYOEdaXjbBPpGwMK7b/yaerSFd1Mvn4M3ARMwARMwARMwgboSsPCuK147bzMCFt5ttuAxXQvvSMPbJmACJmACJmACJmACkYCFd6ThbRPoGwEL777xa+rRFt5NvXwO3gRMwARMwARMwATqSsDCu6547bzNCFh4t9mCx3QtvCMNb5uACZiACZiACZiACUQCFt6RhrdNoG8ELLz7xq+pR1t4N/XyOXgTMAETMAETMAETqCsBC++64rXzNiNg4d1mCx7TtfCONLxtAiZgAiZgAiZgAiYQCVh4RxreNoG+EbDw7hu/ph6tk+n48ePTpEmTEvt+mYGPAR8DPgZ8DPgY8DHgY8DHAP83nDBhQho1alSaOHFiU/+f18GbQCMQsPBuhFUYoBg4oY4cObJ4jR49ujixcnL1ywx8DPgY8DHgY8DHgI8BHwPtfQzo/4b8X5EPYlxMwAT6RsDCu2/8mno0J1FOqlzx5pNMv8zAx4CPAR8DPgZ8DPgY8DHgY0DHAFe8+b8i+y4mYAJ9I2Dh3Td+TT1awtufYjb1Mjp4EzABEzABEzABE6gLAe6O5M4HC++64LXTNiNg4d1mCx7TlfD2yTRS8bYJmIAJmIAJmIAJmAAE+L+ihbePBROoDQEL79pwbEovFt5NuWwO2gRMwARMwARMwAT6hYCFd79g9iRtQsDCu00WuixNC+8yKm4zARMwARMwARMwAROAgIW3jwMTqB0BC+/asWw6TxbeTbdkDtgETMAETMAETMAE+o2AhXe/ofZEbUDAwrsNFrlSihbelci43QRMwARMwARMwARMwMLbx4AJ1I6AhXftWDadJwvvplsyB2wCJmACJmACJmAC/UbAwrvfUHuiNiBg4d0Gi1wpRQvvSmTcbgImYAImYAImYAImYOHtY8AEakfAwrt2LJvOk4V30y2ZAzYBEzABEzABEzCBfiNg4d1vqD1RGxCw8G6DRa6UooV3JTJuNwETMAETMAETMAETsPD2MWACtSNg4V07lk3nycK76ZbMAZuACZiACZiACZhAvxGw8O431J6oDQhYeLfBIldK0cK7Ehm3m4AJmIAJmIAJmIAJWHj7GDCB2hGw8K4dy6bzZOHddEvmgE3ABEzABEzABEyg3whYePcbak/UBgQsvNtgkSulaOFdiYzbTcAETMAETMAETMAELLx9DJhA7QhYeNeOZdN5svBuuiVzwCZgAiZgAiZgAibQbwQsvPsNtSdqAwIW3m2wyJVStPCuRMbtJmACJmACJmACJmACFt4+BkygdgQsvGvHsuk8WXg33ZI5YBMwARMwARMwARPoNwIW3v2G2hO1AQEL7zZY5EopWnhXIuN2EzABEzABEzABEzABC28fAyZQOwIW3rVj2XSeLLybbskcsAmYgAmYgAmYgAn0GwEL735D7YnagICFdxsscqUU+1t4j/v443TlNden62+6tVJIbjcBEzABEzABEzABE2gQAhbeDbIQDqMlCFh4t8Qy9i6J/hberw8fkXbbc7/0y+12TTfdenvvgvYoEzABEzABEzABEzCBfiFg4d0vmD1JmxCw8G6ThS5Ls7+F96RJk9LDjz6Rdvnd3mnrHX6TbrylMcT3xx9/nO5/4IE0bNiwMkxu6wGB8ePHp4cefjQNGTKkB6N6ZspxNHHixNJBw0eMSPc98ED68MOPiv5nn3s+/fvue9Kdd92d7vj3XcX2M88+m8aN+7h0fG8a33rr7fTAgw+lDz74sHT4K6++mh559LGKMZcOcqMJmIAJmIAJNAABC+8GWASH0DIELLxbZil7nkh/C29F+Mhjj6edfrtX2mbH3dJNt96h5gGrhw4blr73w9XSGWedPWAxtMrEb771VvrR2uumU08/oy4pDX5tcNr/oEPSiy+9VOr/vAsuSt9ZedX00suvpE9SSjvvvkf69gorpR+sttanrx+tmVZYaZX0y19tl557/oVSHz1tvPLqa9Mqq62VEPll5ZgTTkrr/GTDNHLkyLJut5mACZiACZhAwxKw8G7YpXFgTUjAwrsJF61WIQ+U8Cb+hx99PO382z80xJXv14YMTcus+P106ml/rRXatvXzxhtvpu+u8qN06un1YXnVNdemb6/4vTS4whX1M88+Ly21/Hc6hPnm22yb1ttw43TPvfelhx95ND348CPprHPPS0sss3z61Q47p3HjxvV5ra6+5p9phe+tkp56+plSX8ccf2JadY0fp3feebe0340mYAImYAIm0KgELLwbdWUcVzMSsPBuxlWrUcwDKbxJ4fH/PJl222vftO3Ovx3Q73wPGTosrfj9H6bT/npmRbIjR41OF1x0STro0MPTyX/+S4ew04BnnnsunfqX09MBhxyWjjr2+PTgww8XXRMmTEjX3XBjuuW2f6Wzzj2/mOORRx9N1153XXriP0+mM845Nx1y+JHpyquv6bg9Wj5V3//AQ+nGm25Od919Tzri6GPTX/56RhoxYkQaOnRYOvHkU9NhRx6d7rnvfpkX9WOPP5GOPeGkdPDhR6ZLL7s8vT92bNE+avTo9I+rrk633HZbOv6kU4qcJk6YkMa8P+az/I5IJ//5tPTCi+VXlDUJIpa5Dzj4sMLPk08/XXRxxXu1tddNhx55dLr8H1emAw89PP398is65fbRuI8SApq8jzrmuHTvA/+L/fkXXkgXXHxxGjlylKZKt/3rjnTzrf9Krw8fnnbfY69C5B54yGHp+ZIr1mefd0FabqWV00svv1yM32KbbdO2O+zS4UsbhxxxVFruu98vfKot1pPl99Sn+WEzYSJrelORG2t60ql/ST9cfe309DPPFi7eGzMmnX/RxemAgw8tWHNMrLP+hmnM+++nIUOGpsuvuDLddMtt6Yhjjks333ZbMYbb0fng5+DDjkjnXXhRGjnqf/mPeOON9Nczzy7mY66nn/10HgaOGPFZ3yGHp5NP/ctk4v/Bhx5KRx17QsH6mn9el/gqgMqTTz1dHCMc0+eef0HiQxMXEzABEzABE4gELLwjDW+bQN8IWHj3jV9Tj66H8Ob7t4g8REbVg2vs2IQo/dedd6Udd98rbbfrHgP2ne+uhPfbb7+Ttvr19mn5lX6Qdt7tt2nt9X6afrDamunRxx8v1p/vDi+/0srFldXf/2GftNra6xXiEPHGk9w33mzLtMiSyxZCb70NNi5Eziqrr5VWWX3ttOkWW6UNN9k0zb/okoXg/eQTbpDuXI4+/sS04OJLpx+ttW7abMtt0oorr5I22WzLtMXWv06bbrl1whdXXB997NN4rrv+xrTMit9L62+4cdp+59+kJZZdIe246+7pww8/TEOGDk3f++HqafFlVkhLLfedtM12O6RXBw8u7Jb7f/be/FverCjz5Yf7T1zvWrfbe2272xKZQeYZSgYRxWKWGRkFirkLUFAbh8ahERChGERmEARkKBQHLsgkQmuL4AA2SIMUVBUgMgjvXZ+36vOtp6L2m5nnnDxz7LXy7CEinoh49n7fzDiZJ88Nbzo9/KceM93uTpfm9+HL8rtiNNNcOP7Ata473fWePzGd+4QnTze6+a2nW559h+nv//4fposuvni6013uOl39ujeYfuxu95we+JCHT1e91nWnxz/5vHm/+Xv6Jzz5vOkHrnW96YEPedh0l7vfa9Z9+StfPbt5+atePV3t2j94pohl8SEPf+R07/s9YC4q73bv+8653e1e953eU37ZgO6w8H7oFQtvzujjnvjk6QY3vdX0uc//c01vevXrXj/HN+f3ePO7/cQvBWi//pznzTnN/N/n/vNH2dkDin32++GPPnf6gWuT38OnO//43aarX+cG0zn3uPf09X/9+lyw/+cfuOb8cferXef606/8+m/MhTR7e/Yd7jQ94lGPmW5w05tPP/GAB0/8kuQrX/nKdL8HPWTe+3Mf/8T5I+3Xuf6NJ36xQhF9vwc9dLrVD91heszjnzR/lP46N7jJmV/68MscPmb/4/e49/Tghz1yuvp1rz8X9uTALwludfYdpnPuca/pkY953HT161x/+tFz7j59/p+vzMeVCOqFZqAZaAaagVPDQBfep2arO9EDYGBlbbSmdjK8qzjo/ngxsB+FN+8MP+OZ/2169BOfMj3xqc9Y+XjST//c9JRnPHN6zBOfOj2M4vsRj53e8rYLJgqjg2zrCu/feM7zpmv+4A3nYoe4vvLVr85F54Me+vD5C7N45/gn7v+geR0570RT1D77ub85ff0b35jueZ8HTDe62a2nD/75n8+/lPjABz80XfMHbzQ9+nFPmIthCmKKtLPv+CPTJZdccqXUf+2/P2f63u+/xvwuMXv22y9/xfR/f89/mosovmSMd6eJ74Uvesl0ySVfnt9xvs/9HzQXboC9+fffOv2nq15jet3vvnH635/73Fwo3++BD5k++alPzR+15h30a/3gDc/8ImHO7173mWPilyPZmFNEP/bxTzyzTx/88w9PV73W9aZXvPLVc/y3vcOdpjve+S4TfztPe8lvv2w66xrXnj/q/cd/8qdzLC992e9M/JLhq//yL3Phx99l8wuON73l96cb3vzWV/j768c87onTfe7/4BmLYvJGt7j19Nd/M/576iy8+RUGHycnnuf+5gum33rhi6bffMH50yMe89jpe77vB6affeYvTPCZjfwe96T/MlHkeg75YrSrXvN6E78U+NznPj//DflTfubps5wbKL/cuN4Nbza/+/wnf/ru6ayrX3t6zeteP8P+wz98cv5FDL8E+dev/ev0tne8c/qPV73G9PO/8Mtzvryz/eCHPWL60R+/+5m9/59//bHpOje46cTfq/N3499/9QjDJpoAACAASURBVOtMz/utF854vCv9qHMfN737/3vP9PG//dvp+652rem5l/09PZ82eOS5j5v+8I/+eC6g+WXAE//LU8+kxzvefAz/Lz7ykTmX/3y1a03v/8Cln8zgExMPf9S5az/pcAasB81AM9AMNAOngoEuvE/FNneSB8RAF94HRPRRdLNfhffTKbyf8JTpCU95xsrHk572s9NTnv5fo/A+d3rzW49W4c07tD/58EdON73Vbadf+bVnT7/67OdMz37u86e73vM+8zvgX7jwwunLX/7K9Im//bvp9W980/Ts5zxvevJTfnp+R/n557/40ne87/ET8zvlngGKHd5dfuOb3uzS/DFj3kW/8MIr/x0wHxXmo8xf+tJFsz6FFe9w/8m73z3Pv/a1r003u80PTS/+7ZfN7wrzLmdiU5zf+Zy7TU952tOn//Xpz8yF9wvOf/FsS3H50Ec8arrpLW87PevXnz1R5JPf3S7Lr74D+p1vf2eOkY95v+o1r5t+/dnPmd/15l31l7/qNdNFF1003fy2t5t+/TnPPZPbRRddPH953Qtf9NLpOc97/vwOff6C4c/e9/6Jd3H5KP3bL7hgji+/+Owxj7+88P69N//+dJNb3ubMR8nPOLlscIXC+zvfmXPjHWc+XUAheovb3m5+l/25z3/B/KmMam9+H/vYx6dXvfq1l+d37R+cPzZOgXr9m9z8TMGK/Rve+Kbpxje/zfTpz3xm+q3zXzz74Z1/G38ecPYdfmT62tf+dX7H+9o3uMn03j97/yymWOaL3+51nwfMZ+DXnv2c6Vf/+29M173hzaaHPvJR04VfvHC6+73vO13zejea4IFPBnzyk5+abf/5C1+Y30nnly7IfucVr5x/mYKQb3Fn/VHnPn7+JAUfUedvzfmFw2++4IUTHzPnl0Hwwp8LvOktbz1zvoy7+2agGWgGmoFmoAvvPgPNwPYY6MJ7e1weO6T9KLwp5ChEL77ky/O7r7wDO3qg881vfWt615+8+7J3u8+d3vqOS//e9aCJXPWON7HzkeKb3ers+WPYD3vko+ePbT/xvKfOBdJX/+Wr07v++E+mH/rhO083vfXZ0z1+4r7T057+c/NHiZ//whfNhTcf9eWbuG0Umje6+a2mt1/wTpem5zzvt+aCbfTN17/03351ftf2C1/4wqz/jgv+YC70/uz9H5jnF1988fzRd/4G/UMf/vD8sXf+ptzGPt/ngQ+eHv3Yx0+f+tQ/zsXWS1728lnMDYB36296y7OnRzzq3Mn8nnRZfnzcORv7+5rX/e50y7NvP8fLt4Of97Snz7+EeMWrXj0X3sh49932L1/72qxPsUtRyUfZeZff9td//bH5b+x5Z/7t73jn/FH4/Bvzc5/wpHjH+02XyT+h+RX6LLwREN+97/vA+Z1qcvnSl740fW3FF6p9h/xe+/o5Xn6ZMef308+Yrnejm8+fOHj7O/5guuFNb3GFj8L/wbv+aP649yc/9Y/z33vzDjufGrD9xvN+80zh/ebff9t045vf+oz9p/7xH+dfBvzIj991evTjHj895BGPmvfhvJ9++vSil/72DPHZz31u/nvws+945/lj+Hws/Q/fdel/A+Dfp/3CLz9rPn98RJ+/r//ghz40vfMP3jV/JP9e933A9MhHP27G5e/jz3vqz0zv/MNL/40f3zHw2Cc+ebrprc6+9KPz933A9PFPjHk1l+6bgWagGWgGThcDXXifrv3ubPeXgS6895ffI42+H4X3ThL+yP/4y/nL1R748MdMb3vHH84fPd6J/bZ0Ly28bz696CWXFjoVl4L0dnf6sTMf3UbOR6Zf+ZrXThd+8YvTHX7kLvNHz//pnz4758A7kXxZG4Um/y/6x+9O4f1zZ2AtvN/2jgvOrP3Gc3kn+HbDfzk1Krx5t/I9f/a+2d7Cmy/64m+4eUeVj1TbKDb5ePbPPfMX53dlb3br200v/Z1XzGIKaQqz293pR6+QH//7mi8Iq9/6/ZnPfnbO7RGPfuzE/6+m/eVf/tV0revdaH7HlXd6+Qbvn/35X9D9/LfRvAvPR51/55WvngtCPuZu48vGrnrN6078Tfnb3n7B/GkA3pGl8YmDu9/7fvPfOTN//Rt+b37He+n/hNfCm7+VfsBPPkxXa3sKWfZuzu+yv3f+H3/1P6drXu+G0ytf/dr5I/DXuf5Npjf83uWfVuCTBtjwRWf8fTh/Z82XpdmedN7T5u8F4KPmZwrvy74gjY/X82mKp/zMM1Sf/3yBL6T7oz/+09nfi1/6solPDfALA75X4Ca3vO1cSFM480Vs/B04+8ScTy488tGPnf+sgb/z5+PxNj5lwCcd4Jb/O86X7tEuvviSie8F+N6zrj7/4kD97puBZqAZaAaagS68+ww0A9tjoAvv7XF57JAOs/Dm34nxd933+8mfOrQvVXPDeNfxeje++fw3za949Wuml738FdNLX/by6UUvfdlcyF7wznfNX47GN3T/zcc/Mf8dMn/DTYHD3+hStPIvqz7+8U/Mf5PL3+x+17//nvmLs772L1+b7vRjd50ovmx8Kdh1bnDj6S1ve7tL80e8+Tvn0UfN+XtgPo78z5cVgm99+zsmir93v+e9sz3FLh9/5uPdfKycL4Djm735NnX+RpiPIV/jutef+Db1T3/mn6br3uhm04te8rIzvn//bW+f/wZ7/qZw87veDecv5MpvwcYA++vf+BZzMUvxzJd88VHo7/p3/+/8N8nEcusfuuP8zizfav6Xf/VX073ue/+5uKTI5AvI+Jj9/R78kPlj8RT4t7zt7aZ73uf+c/EI3vdf87rzl4XxZXG/9KxLPx5t8UysfDHbs37tv09823dtfMqAL47z/3zzZWxg1zyqnXM+Ls7H+B/4kw+bP7Z9aX73m/7Pf/c987v4X//G1+fYeVf7fR/44PTu97xnusXZd5gLc/jglzg3ucVtJv7+n7/VpoDmb77vcOe7zB81f+Ob3jIX5v5i4dvf/s70X3/xl6fvv8Z1ppe/8lXz323zDvn/8x/Pmv904MMf+cj0H77vatMjHn3u/OcMH/jQn88fxX/mLz1r/jK97z3ravM75PypA3zxCxZ+ycMnMfhCQN7N5k8T/vpjH5se9dgnzH9f/xcf/ej8kfX/67v/w/wN/cT9xt970/T917zO9IpXvUYqum8GmoFmoBloBubvQuEX+Ly+6NYMNAN7Y6AL773xd6ytD6vw/tCHPzL/D+/7P+RRh150s4H8myoKNIqUS/8W+Hbzx8YpwF73u2+Y95h3HfkI9W1vf6f5/1TzkWCKUNpb3vrW+Rui+ZgvXyrGl4/xhVt8sRX/WuohD/+p+V+MzcrTNBdIfLs5H1G3nf+Sl04/etd7XOFdZ2W8G37Xe91nfnedNd5tx54ijMbH+u98zt3n/0/NnHwe9lOPnj9+fpvb/fBcCPOlZTS+8IxvHefj4rZ/+/a/TVfI72a3mmOmCK2NM/Oy33nF/M7qbW7/w/MvHM572s/MH7HnS+b4OPf9H/zQ+Qvl+JZs/qaaopO/ObbxEXs+QQBfN7vVbacHPPih87/ZQk6BTFF9w5vdan5nFxlf+sUXnuH7nz77v+ePxvNlbi9/5ZWLRD7uzpfU+Y4639hNwVm/JM5Yao8PPrLPu9C3vf0Pz98Mz8e+Kd6f+Uu/PKvzqQLmN77lbaY73vnHJ/5lGd9O/4nL/gXbH/7RH03wzt/l3+Vu95z4uPcDH3rp/wznTwDYO36BY+OMPPVnfnb+c4bb3OFO858h8OmEr3z1K/MnKPi/4/xdO3zx4Bvq+XdytPNf/NJZxsfP+YUHfxdOfDR+yfGAn3zo/E3ofIM5Z5t37Wm8+82+8U49fN3yh24//fwv/tKZfzs3K/WPZqAZaAaagVPPAM+LXXif+mPQBGyJgS68t0TkcYThZsqXYR3UbzH5WPMH/vwvpkec+6RL3+l+56V/a3rY3MHDhV/80vyOMu/K8lHxz/P4/Oev8LfI/I01/xeZv0munPFt03yE3HdaKSD5YjI55kKzfeOb35z4Uravf/3y/6n81a9+dbrwwi+e+SZtden5e2E+0g5/ND5+zTvjvovLu6bY8g3htm//279NH//4x+eYfKcc2ZzrhRdO/N11bZfm98FhflWXd3bJ1wKXv9kmRvD5Ejhyo3Dnm9z5mHRt/O083xb+kY9+dM6nysHl3WaKT4pmzqn/ao1C9WMf//i8Vu2I4wtfuHCOAxnvwI/8V7s6H+Z34YVnYmC/+HdxFLfsQ72O+Bj++973/vnj58j5ZATxs3fsfT0/+P/UP/6v6b3ve//8d/g1Hj4Cz58W8KVz1fYKsvIt9N/61jenj/3N38wfLa9flIePv/u7v5//B7zFevXb82agGWgGmoHTzcClz+v9jvfpPgWd/bYY6MJ7W0weQxyLwvpCfr9S+cw/fXZ61OPPm+7zoEcciXe69yvPxm0GmoFmoBloBpqBZuAkMNCF90nYxc7hqDDQhfdR2YlDiOOgC2++aOz1b3zz/L+6DyHddtkMNAPNQDPQDDQDzUAzsAMGuvDeAVmt2gysYaAL7zUEnWTxQRfeJ5nLzq0ZaAaagWagGWgGmoGTxkAX3idtRzufw2SgC+/DZP+QfXfhfcgb0O6bgWagGWgGmoFmoBk4wgx04X2EN6dDO3YMdOF97LZsewF34b09LhupGWgGmoFmoBloBpqBk8ZAF94nbUc7n8NkoAvvw2T/kH134X3IG9Dum4FmoBloBpqBZqAZOMIMdOF9hDenQzt2DHThfey2bHsBd+G9PS4bqRloBpqBZqAZaAaagZPGQBfeJ21HO5/DZKAL78Nk/5B9d+F9yBvQ7puBZqAZaAaagWagGTjCDHThfYQ3p0M7dgx04X3stmx7AXfhvT0uG6kZaAaagWagGWgGmoGTxkAX3idtRzufw2SgC+/DZP+QfXfhfcgb0O6bgWagGWgGmoFmoBk4wgx04X2EN6dDO3YMdOF97LZsewF34b09LhupGWgGmoFmoBloBpqBk8ZAF94nbUc7n8NkoAvvw2T/kH134X3IG9Dum4FmoBloBpqBZqAZOMIMdOF9hDenQzt2DHThfey2bHsBd+G9PS4bqRloBpqBZqAZaAaagZPGQBfeJ21HO5/DZKAL78Nk/5B9d+F9yBvQ7puBZqAZaAaagWagGTjCDHThfYQ3p0M7dgx04X3stmx7AXfhvT0uG6kZaAaagWagGWgGmoGTxkAX3idtRzufw2SgC+/DZP+QfXfhfcgb0O6bgWagGWgGmoFmoBk4wgz4WpG+WzPQDOyNgS6898bfsbb+zne+M1188cXTN775jWOdRwffDDQDzUAz0Aw0A81AM7B9Br7xjW/MrxW//Z3vbB+8EZuBU8ZAF96nbMNruhyAr371q3W5581AM9AMNAPNQDPQDDQDp5wBXiPyWrFbM9AM7J2BLrz3zuGxRuDd7i996YtTf4ToWG9jB98MNAPNQDPQDDQDzcBWGeC14Ze+9KWJd727NQPNwN4Z6MJ77xxuFeENb3jDdJWrXOXM45GPfORW8UdgX/7yJdPFl1wy8dHzbs1AM9AMNAPNQDPQDDQDp5uB+c8RL7l4+vJX+t3u030SOvttMtCF9zbZ3CPWr/zKr0xnn332FVBY2+/i25vrJZdcMn3r3751Bf89aQaagWagGWgGmoFmoBk4PQzwTjffAcTrwn5T5vTse2e6/wx04b3/HG/soRbdGlJ4f/KTn3S6L/23v/3t+beafKSIv+f55je/OX/8nJtvP5qDPgN9BvoM9BnoM9BnoM/AyT4DvPbjNeAXv/jF+e+6u+jel5fcDXqKGejC+wht/mEW3tLA3/FwKC66+KLpoov60Rz0Gegz0Gegz0CfgT4DfQZOxRm4+KL5TZj+m25fFXffDGyXgS68t8vnntD4WDl/452Nd7r3+6Pm6c8x74D3b7ZP9m+2e397f/sM9BnoM9BnoM9AnwHPAK/9ujUDzcD+MdCF9/5xuytk3vXOL1dj3K0ZaAaagWagGWgGmoFmoBloBpqBZuD4MtCF9/Hdu468GWgGmoFmoBloBpqBZqAZOHAG3vve9079aA5O0xnYxkXWhfc2WGyMZqAZaAaagWagGWgGmoFm4JQwcJoKrs61f8HAGdhG68J7Gyw2RjPQDDQDzUAz0Aw0A81AM3BKGOhitIvR03YGtnFpd+G9DRYboxloBpqBZqAZaAaagWagGTglDJy2oqvz7V80bOPS7sJ7Gyw2RjPQDDQDzUAz0Aw0A81AM3BKGOhCtAvR03YGtnFpd+G9DRYboxloBpqBZqAZaAaagWagGTglDBzXouvuz3jtdM2H/faVvhjuu+75gulhz3rDldaPa54d9/Z/MbKNS7sL722wuEUM/5XYOeecs0XUhlpi4Pzzz5+a6yV2en2nDHz0ox+d/x3gkt1eztsFF1wwnXXWWUvQvd4M7AsD3B85t8ex7eV6O475nraY+554uDu+rrCjuKXIXad30PJRgf20579l+j/u+NxhrM991QWzjP6gYz1of/ziAX429buKt00xDlvv1k94xcRjkzi2ccV14b0DFnkBYmFsvwPz+UUzTxRLbdsvEj796U/P8dJnq8XBeeedN/GwKaevbelFGAVBzY01eaI3DvLMdcYjX9V3zrf1hLtbzslNzpZ4Nt5VfKqz7X43nO4lBrgY+TT33O88J/XsEcM6m9F1yD7SjCP9uU97yW9TW2Nf0t/teQNvW2d+Kba67rnO/ao6x2k+Op9L8Zs7Nt63qq5nbEle9Xc757zzOKy2dM8/rHh24ncv11v6AYf93mbbD8xtxLeT87bufreNeFZhHPQ9cVUsR1W2dA3kc2/e77yv5fOm8nqvW1eorCu8RwXwaG2dn53ILaKrDb8gWCq+tOnC+8rvIG+r8BaHvu7NNuacq6X97cL7qN69pml+8cNNzMaNaScviEbFqVj0eSPM9d2Ol26W9cky/Wqz9GJ76UVYzY2bd71xo0OrTwT42umLmm094dZYdsO1nNUnpd1gbcsGPtnng2rud+45vutZc25sefbQZz9GsbMmv0tnEPuKd1D568f8nNd+L+dtW2e+xnRa5qNztZS71zRnrZ5pbNzHnWAu+Trq66uut6Meu/t01OM8rvGtu9/td159T1zP8NI1kM+V3u98jgWVexu2tJGc9XUF0VEsvJcKbAqzpaKvC+8rF9zuvQWz8+PYd+E9X+a7++HNgRsGj223+gKk3vTri7C84RmTPbbZwFZGr5w+170RYsuNkzkFLToWM+LKR95MkdUny7wBg5M+xLKvHLiehTd46C215AWdpTi1r/ljn2sW9OjLBXLiyJYcK6uxjOwSw7E8yGXGU/mu+dU9rfr4ID5iy3zq/qZPOdBXyqod+DXu1ME2YxTb3GuPLnyImfLRmtyhR57uhbFnLInlOO1ds08815b6zJGc0+86DuoZ1If5Jjbx2up5U9/9wi6b6/Seh5TnGD/q5565P3CjHCwastRlLWNEX16wN4ZcZ01c+syBmJinPM+7+srliphcyxwrlrGhU7HMy3MlHn3aJb5jbfTnuj3Y7l1iLe0Bdsm/sbGOD+xS7v5oh4yGL2yTc2WzwmU8ZK6MawMDvzb9O0dmjMhy38HLPZQrfdbYq23ypT+5dC5m6hoHOurrM3MRgx7f2NnE1S5l6JCzMntskg/0kLGmjlzpxz5jdk3uK2bNKXPX1j7PCjGkbp0nB+Zv7DV/8MH2TIFLvGCYqzIxXKe3get6clPxwKoxYVfjQm+EVznUvz2+tTNuZIzlRTlYNtaIVRl9tpq7smrD3AZG2iUv+lNXTuhpS3ms8ieWeTq3hwM5qf7QWSdHhyLru7/7u6f73ve+wyLcwpuilo9x8/BdY+f2fMTZsT1rFHa+C+46uBZ4FsXK/BttCmzW1LMfFdj6UIceH2KKZezIldEjT9s6zvzzXdf0kTlV/ylbyrf6JKa0Q06s+cuF9G9cftTcnLFRVn0wHxXeiYt98gYWa/nAp3mpCwbrqadsFAe4GecIb2mftM24PUfVl9fPXvoT9VHzvEkyzhvbXkjStj6JMvfGhU69edYbHvHkzV1c+7zRseZN2puvN0cx0K8+xaJXX3tl3qyd67fmozz7yoGyzI0xuS+1ygvzpb0ytooFB9WG2HyiM3fn4CC3MUYnY1kXt7b0yYO+Ks/qV/mqPdOm7m3lCAzWbMST+a3yQTzJ3Qg75et4SS7Q9XwSWz1rrKV+7m+Nw9xqn/ZVlnhVlnPjcs+cqwN/SxyQH35sxONcHOfo5F6RI/o0zwU2OTemxEVeY5qNLvuBP3FZYm4MxJsxGCN+agzY5h5iZ3zg5Rxd8mHNJrY2xITcnGqcyJJn5jzS3jzEFsu5visWuMRnS1zXlnp5oU8+0M97T2LW3JgbO3FkLBnbqv3BX+KYs7jGuQlfmWtisk48PGwp32QPycFWOck5HKQfbehTT46TM+U1Z+f0tWHvdaFexkoscklfdeXVeMQnlsyDccaqXs3X/UOemMSWeNVOPHriTF1wiMf85UmbEQfmqU72uffGK0dyKC/Kq33ir8LDTsy0IQf3ifh52JLr5FC5PXjGqQ/nxJQ+Rhwit4FlfOYs39gSH/PcF9ZyDl7OMw+w5Rif2OqP3rhrHmDIk7HWPrFSlvsirjk5F9u5cnEoStYV3ll4UeBQ3FjMWFA7p69rFnZpB6ZFFOuOE8fCMdfEyjXGFl6uY0sczi3ILPyQORbTuTb2YGXsruMziztycr5KtpSvuPYjv/ggXnTqXoBLDha72KPHWsYmvr35Owcn8wUHe+RiqwuP1Y88goGd8xqvGPbIeTg3bu3B05c69tglN8aprXr022gnpvD2ZsjNLR/1RrEX0rgBJjZjb4jg1nm94a27SeaNEDz8gZEtdXKcOo6XbpZypR445pX5KM9+FBPyzC3HaeuYnPRnX/NUl9jAq40nhNF66mUcdW/Uc4/QXYpB3eyThyWe1a9yYlnnq+6tGGCOcq97upSvMWW/zpZYiWfUjIueJp/qVmxiJzb1M89qiwxdH9qMrkP9VZv0pQ59+nV91XlZxUHGXfMFO+VLY2PwXFVekY/2XTvyxLct4xjZkav6+IQPWtoxT9x1nOnbHJjnWHx82xJ/pE/sYNDW+a9Ydc+q3BhGffJf+SMe1miJmWNklcv0k7lUfPRyf1J3hJnx5Bmu8aV/cNwHxvgAx2ss/bMOl7a0HcWe8eYYe3kVK3t09cMYbHzT0mdeQ9rXGF1P3Rwrz/grRnKZetjWvQabmGszX+KnJR8VM23Rx8eoVd/oZKxVnnkbj/s8ws8YR3HAE7HTRvLqP3VyrO9RTMRA3KOW8a3isNomR4mhXspX5TCyFSP7mmvFzDNDHshtGYtr9iljTDyrWu5/6mUe7gEx+MgzojzXwMqCZDSuxQ5FWha0jC02ta9rtbBDjwLK4o7esRhLfS3O1Muii7UaQy3itLOv9q7TZ+GZ63VcuUp5yjbNNzkSK+PMsXJ69iP3iLUl3pDl/izxpK8aU+JW28xZPzUu1n0kFmvr8LSjr7as1TOgfl5Dux2fmMIbArxh2HNT2marT8zeWOn175h5veHlDXMUV94IkecTnPqJWfXVsV+6WRq3euKADXerWuVA3cwtx8qzzxxcxy/ro0Z87qny0ROu+apL7wsExvVJAyxzTl19rOqTB/2O8MEYyY2R3EbNPVGWGOSE/2wpZx38PIupyzjzNhZ1qu1ov9StMs+Wvp3rgz55yjzBGl2zNbfk3jjsE8+1UY9exuQ4z4s5YF/zJAZt6N0P802fuV+JwzgxHLNuzhVnxA862tYeGf6rXV6jKa/8gScPVQY2OMqNNfXqXlV+Eh/7ql9jq/kxR4dWsZLrkXw2Wvgh/55VsVfFP4qNNRtcpQ480TLH1DWv5LP6Rz85YyyuuuYgtj2xIIMnfNGPzl7iYysuY+wyJ8fGkLGjX3k1FrHwRfO80hujmMSon+xZr401MRmLoV7mgkxd40ROq3uEX2XI04/Y9slf2lVMMDIfxqPGOvFlW/KBTsZmXtU+sXLPkh910tdIXnNwjv1IfxRTxoDdTq4d4xRX//RwTqv4rJGXcnRzf8XSFk5HbdUeVszcF7CUV470jdyHcWInN8Q/atWPOsmBPuhpYCVelYthMbLUj4onijD1R8VNXcvCTjuKQ7CdMwZ3VWGGrgWgdvSjQhMc/KpXizhjAs8Ha2A5T18W36yBJW7qMkZvE1nNd+S3FrngZkw1Fv2O+ACL4rTmja5r2MuTWPbuqXHmujlrKz+rzg6xJHfg1eJ5HZ4xjGxZwz/xVl+e/b30J6rw9ubgzWkvxIxsuRHVG26ucQPMm3W94SHPG2b1kTdCZImtburkWHntvZnnOjEQiy1x8JkydexT1zX69IMOOEut8oLeaK3aJ27NAV1iSH6T74wvcfXrk13uX+rVce6N584nraq7Sl5j1rbynBij3I1f+6V8kWOP3LbOVo7Uzx6OwaoP4qdV7LRlnHmqS58tc2c9uU89xolXZTlfp1f5Sw6wzfOdMnNIXylfGqc+45oza6N9167G6/qSXV4b6GjPevLvOjojzioOerk/OUZW+Un8ass8cx75R8dWsZJrdKpcu1Ff+XfPawyJmeOKCQ/Y2hInc1SevKZu5Q/95JgxcfgAe6lpR0++YDPGJmNVT5yMYRS7evQZO/PKa+oqMw7t8UEMrNPqviZGHadujtXL+IlV3ujRt6Uea8iNh/kIu9qiz77aEpMxmDZ0c+46ffXNWp4XxkuxyTH9Uss9G8WR52EkH8Wnr5H+KKaMAX/MbSlLDpXbEwdyW3KUGCN5zSHjHtmCsW4PK2Y9M+Kyzti2Kg916Mkvz6yyJY5yH+seOCdvmnP6bFm8jMariif0LcjStq5lYafeqKhEhj8KJfWyHxWU2lj8qV9jyCLOMXGpnwWta6MeP2Aj0093gAAAIABJREFUo0+/ydUqWeKuyxd56mecOU6dEU+1qE393B+5oU8dfVl4M+eR8VXb5AOs9JPYjuEy934dnnb0o/zqGVA/z/9uxyeq8N4tCZva5Y0KG29G3pzyCUIZa7Zq77q9N17n3si92Ympv6qvXfb45IacjRt53qArDvp5409bYzIGZOimD+NMH+ipw3ryoqzqp1/GaYd/8siWT2zKiZeGv/TJmDgTk3FiMjfm9CMeclv6ds1ePuhrA98YU1b3pGLgL/2TT+7ZEi4+8Jd5YZd511zwk9wZpxzXvNAXTx1tal/zNBbsbDV3Ysnc1aOveCnLsXHV2NVZxUH1AZfyIy46NrDc4+TSvDJXbejBFUfd3LfURc8Ycp1x3W+xjYk59mBX/OQBHePRR+41a+Yvr3WvlGuf+KxV/YxdW7HFsK9YyTU65JY5i0dfm3zrS118uIZN+ly1BzUv7OQyczSOjDV5Nw716BO7xpd6dYxfbHPPjSt5SnwwagzYpH76ydhZr7ymLmN8pT9wwcCHTYzRvqljn2dAu4yV3NGhMV7CxKbylLrpR9/ZE3/6QpaYOUZWc04sZBkLtskP/KFDM2fWcs76UsNW+7rX2OT+iJ942Oqv+hjhLWEYQ/oDj1yVVd7SH3rukX7Rp2Gf8sohsuSYGNIncnPGlv2vsejDmNIfa/XMGCN+jRu9tFPHPMSmrzwpk1/POevmaw7qOBfPnEdydChG1v2NdxaXtXiqxRV4dU2bLKoo2ijiLIbss4DCL3rKKi7rtThTFxwLZNYYg4V+tbGYJE7tl/osarOwE1OuVskSO/PNdcbyBjZzdMnBOOGDh3aM0TUfYzE27dS314/ziguOXBKDuOrb68d4wUnd6kc7e+N2jr17xlriqauvyo1ysbL3utpL34X3DtjjxsZNMB95A/TmpBwZNjZvdnkjVUbPTc4bnevcLMWrdiN97bKvcecNeOTXPDK3xMs8iCmfoFIv42bsTb3mhKzmLQ7YieM6vTI5zriQsZ45qA+eHNBrDyZj9GjElLJ58bIfrIuhrnGmHmP5pPeJU92lvOveJkZiLuEkx/KecRF/2jK2Mc4n/sqRejVG140V7s1XWe1HGLmPGaO2GXuVg+ea/dIejvzIFbarOBCbHp/6wIbzk/wjt1Uu5Sfx9CuPysQWq/aVF2MiT8+0NsxZtxkH8WXDt/GM9grdyrkcIiOGxNSPPhJ/pF9j38ue5Z4Qo7GYnzHRy33NRU7VHcXvftGrL56y5LLmCHbuT+oas/7pk+MRP6P8sDMm8G1gEWO2xGe9xiCOudETBy1jZ64u/ai5R8asfsaInTGkT20SFzz3YGQ3OpuJaR51j9BJf9VPxsCY+LHJvCum3KOnfsVxnrroZ5Mz1nngRw6UZRxpyzj3TJ5TB6zkzVjyHuOaMeh/hDeKKWNQLlbKKocZJzJtiI0YWMscWVcn95M1clSWuWG/JMu86x6ClT5GZwY/1ddSHpUXOU4OHFddYmHNpjzX3CvWlMsHPXFSkOyl8LbAyYKwrllwUYShx4NCyWLINXoLPGTqM65FnbboUJA5zx4ssY3BQk1s5Niji07aO7YAFEsMMV3PonSVTH36zFd/2VtQokvMNc7METm28E/M1TZxc2ysuZa4NcaMn7F7WfeIGIwJ7JGf9Mk4ufYcyXfiVZncZ9z4q/jMt9G68N4Gi41xIhmoT5QnMslOqhloBk4EA744zhfPqwqTE5H0FpOo93sLjy26aKgjwkAW76OQ6lkY6fTa+i9XGxUuO13bpOBah2kxWfUoxpDV9Z5f/qVl2+Qii19xKb6Xilx1jlK/jeu+C+9tsNgYJ44BfhvNk3O3ZqAZaAaOAwOjQnH0rtpxyOWgY+xfWhw044frrwvv7fB/EAXRNgrvUYHtO6wHkUP7uLSQ5x3l/EWHe+C70seBp21cOV14b4PFxmgGmoFmoBloBg6ZgfwIrB8HPeSQjo37/Egv3PHodjIZ6MJ7O/u6qlCqHynu+eXfgN5cHF8utnHldOG9DRYboxloBpqBZqAZaAaagWagGTglDKwqvFu2Px/Xbl4Pl9dtXNpdeG/IYh/2wz3szf/O+N/wWLdaM9AMNAPNQDPQDDQDzUAz0AwcAANdeG9Ichd+Oyv8mq/D5WvDY91qzUAz0Aw0A81AM9AMNAPNQDNwAAx04b0hyV1IHm4h2fzvjP8Nj3WrNQPNQDPQDDQDzUAz0Aw0A83AATDQhfeGJHfht7PCr/k6XL42PNat1gw0A81AM9AMNAPNQDPQDDQDB8BAF94bktyF5OEWkseR/9H/LDyoPDY81q3WDDQDzUAz0Aw0A81AM9AMNAMHwEAX3huSfFAF07b83PoJr5h4bAuvcXb2i4f8/4T830L+f+FBcrjhsd612uj/3u4abEPDdf8CZkOYVmsG9oUB/v0U/0u72/YZGP2Pcr3sx31hPzCNt/vjxQD/Zu6ss8468KD38hx7zjnnzP8Or/8l3u627bD2fHfRrrfa6Vni31JyhrbVwNvrNbTTHLYV+37gdOG9IasUTfzvvbs/47UbFVDo8Y7nQRZb6asL750VysndpuNV72hTbLv/2yq8weEMUtSvi3HDY72xGjdhbp62/b4Jjl5oH+UXw8Zr4TV64uKJhxy22fTr/x2236aPTbD2I7dN/K7SOehCeFN/9VpalUOVcX7qCyLPgGdPG3VHL3q8fnmBmU1d/6d1yhiTY94HWFvSrbZ7mZvjCGM/7gv7gTmKvdc2Z4B7TJ5Xzx1neT8bfiwaPIf1WtuG/3pf8BrdaX7GuI2YTitG7vmIA/aq3odHekdlbdVZGslGr182zWVk63PRphjo1et9FOdO8I6SbhfeG+7GukKnyrvw3v/Ct3J+0PNVhTcyCmVi2lbhvZP8NjzWG6tt60XBpg5HLx6O04vh0ZPPprnvRG/E007sT7LupoXwtjjY1F+9lnbif7TfnDV8c31k84XL6AWLRUt98Zix1Xz0bRGir4O4LvWtz+z3w/9+YGbMPd45A57nnVvuzWJdEbY39Mut89pjdXTdXq69PDqoeJcjOP6Sk8bhqrM0ku3l9cvItj6XbHJC6vU+inMTnKOo04X3hrtC0cPHhS2mKKx5V5kCi3cheShj3TV63/kUQ1muVzyweKCTeOhlAUZM4qGnjHHOXbfPuEdxLPlEl7jS79Oe/5Yzfv2ItTGlzDX6zEPMlPuubnJu7OiJu5RHjcO9EcMeLGT6xp8y+pSl38yf9cxH3+LIl3N6/dFXn5mTeuTLg7k4cqNOylYda29g9cW3L265SeaNkhuga/TcWCsG6/VFvAWBttjYWNN/fSHvunb0NF8M40cZMduMSRk4Nm/iysRUXvvM2bzET1xwmCujJ870oz09nNCwYZ66ypCLlziVJ/Tcsxm0/EAffJv+mIOrrT7Uoyc+19VVXrlkPXNjnnll3Ovy1gc98WGb5yjzqX6IkzbiTiz825IP1pBlrMiTA3Bp4ssRerTkyZi1mRUu+y1+Yuae53rGoa19+mHNPNLGGPWPLHOHR/dIXPrEBjfjY6yNuNhU7MRTH9yMj1iM27zTl7gpYzxq5gKe+pmrXIxk4LlOr52YyLWv8dVY0gYZ+pmzOHKX3OB7qWlnnMaIvtwrE4N11+BlqdV7gLGJLQa9zXiIQ3n6YH3d3uZeJUf4gDdxlTm3x4exGxeYGRO6mU/lGzn6o6Yf+txHcxcXTOXoEhOt+kofNUZkuV/6TF/YyIVY+E3eWU/uwCEO733KWKOJjx6PxMIf88yDNTkX21hqn3pVF0xjyDjktO6j6/rYTWzJb/oGE39yoEy+5Qw5Y1vmUPmt+WKDvj7oN23pP+028Zl5iVO5rPuED3TQH+1/xp35yE3NEwxk8qp9xsa4tsRmzH4Ql2Pl1dY8ldd8q5/DmnfhvSHzFDsWOowptCh0LOgs0CyKkFNAOadnnsUwcwu2ioe+mOpYeFmUYm8BarHnfFXhjcy48ZN5GEf1KS4+0XeuvnkmFjGhjwzujBtb9JyL6Zz4tMuxnFiorsoDe3MwtlFPHOIZp3Y1TufiLPnA3vjRhev0gU99IEdXfdarrntV/aMHVsYDJ8xXNW9gedNiLZ/YuYHlHF1vrmCPMLwpIudGydzmE5lzZInvur1PCM7pvakjo9UYq7+c+8QrHvnUJ4MlWebujR1d7MWQD3oaeskva4kjP3JqvtoTrzJ1Z+DyQ7uyPE+V0Y/4T36IzXi1Mxbn+qhcsp65EbexIxvlolxsfemDXlnlmHUaGGDbmJsDa+SnLvPcL+bYpn3Kkw90wZYvYmWcvtLfqv1CL7liTgNPTphX/5dqXfoTmZxoa0zySAwZH/o5J29t5Ig++aj8Yq8O+DQxLo3sij+xz5zAdi5HzsGFA+MfxSv/V/Ry5fuC2GKlnTIxMibWzD/PAvbmq92oR0d75PDF3DhSTt6pyzz3J/HXxZ9y/eb5AFeeE9e9y/3XjtgcY8PYeLXLeJMjOdbnur0FW1/aGicYrNHw75i5uOoSD3HIN5jGWHHBMj7t7bExHtbArLmnD+RyiD646js3DmPWnriMAx3H2MmzutVP5QMbGpjpX5+Zk9jJJzbqyJfxOBdX+8z7Mvdn9iVlxC4WPvSDjVjmCQ/oOxfX3ljEc74UG3jGoi/nxOHegM8YHTH1gX7GlDkoM6fqAwxjwwfz9GletScGMY3N+U594i/jT1/GS28jRvSJgSYfyslHfWNxvi4/sJIPMWuPjv6RGWdytyrGTf1Uvwcx78J7Q5YpZih0LIJqcYU8i8kqp6hMOfpZkFX9KmfOgxgowJxnn/FRgFmEpc5onAXkKI6U51gs8iKmzEfZUq8N8ooJFrkgs9i0KK+6iZ8yxjxSPhpnHMjJX95GHCbH6S+xU4f15CXH2pgj8+ozfaQeuiM/5rzqWHsD80Y50vVmqoybHTdU2wiDJwV1qj523CTBrWMxs6/+kYHvEw9zY0g7x8rMsd7EuSnnDXzJjvV6A8cOPPKxVX+jJ5/kpGKCA+aIn4qtT3p5IhYf7gFyxsYqNuu5F4nDuPLMWvKXY2S0zO2ypTNd4q3L+4xR5JZr+AGDVuOoPI1yxIYGF8QFXp4R1ivObBCcrZKDid9VrXI14sR9HeGkPmPwaImbY2SJx1gecm9yjE3m6Zj1PNs5RraqJX7moA0xERtttHdLvCZuYuGjNvOgT06qnpj4HOFUfefog00jH/jRHkzmylxnnnHNCgs/qh4+1uEgd78TdmnvRryk3xyLl7mN/G26t/Xcik9fc61xVlvk5l1zdX8Tn/Eot8ynykc4Nc60GekbQ40/7dBJ25q7GPQZL/ORbuWj2lWMGgv6xItebRmnsvRX5RW78iCG/V5iAyP3p95nlnxoB5e0zGHEb3KT/rCt+c6AG/xIDrfpcxRP+jK0vLe5Zp88jmzVo2f/VmGpuwlv7AP+aKNzk3GJexT6Lrw33IVa6IwK1CziqtzCG518WGBWffyNirQstkaY2IwKONbykTEwxj/yURwUg8qzEBSPmCgK8W3hp8zeojH9soa8YqqrrTmbr0U48sTLPMRlTY7Fyx65cbCe+ZN3xWcuxzVu7GvsrOU+jjjKvPCf8aa/ii0v5pN+Vh3r0Y0WfW5g3KjyIU69qY0w8skI/cRx7BMXc8f6yH70xJL46NYYvKHrix4dWr2J1ydvfYuZGIyxtxmbN3zWtdPf6MknORz5zxgZi29e+s/eWHKtjokf39lYS/6NHx14rvkzJw5axilm5qZOYoBJW5e3ePSj3NIPcaQPx+4B88wRTNaQwy2x0PPI/HOc8Zi3cvps+kdvVcsc0COOuj9LPtBPGbx6TujFMc+MQz7QG+0HcVe+zDljzH3BH7Klhr280I/8aqsv5jX+9Km+PZjiupZxEV/GIDaY+Bw18LSpnIz0XdMvNmDQuyf4Eqvyoq96psBdih9ZcsbcsyGe/SjPPAfGT0+MI32wkOkjY809IN5qn3EaU+3xLX8Zj+PEME4wbNh6LVS5HKoLVuq6bm7O6TMf5eaeeWsDds2NOTboj/xiW+OvvuDefEd+9Z/xspZ26oz2PvUqRo1lFK/YoxwTr8ZesSsP4tonFmvVnrXEUJ57AgbNfZkn8aP6QJTnL3NI3oRI/6vOg/pLPTgZN3PaJj7RsckBfW0jGedDX+oTh5j6z9iUjWzFsIdfbbVTZp98szaKM/ehcrUOXz+H0XfhvSHrFDdZ6GSBZuGTRVyVZ3GlfvZVH1kWUupmDFmUIU9ZfedUe/Xw51oWkKM4Up5j7c17FC865p4FrjbIK2YtMI2pFq3ku5SHsYkPH7nmOONgTV+MV3GIvMa9ZJO85Bh9Hpkv/onJR8adetjlfjNP7FXHenQD80aonTdW59zU8gXDCKPeBFNfHPu8ibuWffWPLPGZZwzqs1ZlzOtNfPTEOrKbwcoPsIiFHJb8jZ58ksOR/4yRsU8cq7gy7xLimamcgYFPW8VMHG3UrX3GqSxzYwyGLfHW5a0NfcbkevoZxaEefc2RNe3p2Tt8MCYuY85zNcJbJwePx1JDltfGiJNR7olnzHCALk0betZrIz/PpWfBXLStNui7fxmz3NKDMWrEKKfIxWE8yjn3U3xxl+KruOqLpZ0xmi+9Mm2yN1biXJVj2jCWX3o51j73xPiqfZ0b4yh+dCtO5lex6txY67o+cz1xc6yOfDHf6d6KQV+vjZTVXGuc1Tbl7iN7wQPdURvllvlUeeYtXo3TdfqRvvIaf/WFntj05DdqGS/y5EH90d6nXY6xGcVS4xV7lGP6Y4yOrWIv4aq/09jYb2xscsgc2YjH6gPdtMscR/xmDmlnDJv0+ADHlhzu1GflWEz6kSx9qStX6idvytAd2YpRe3jGdtQqb/qlt+U+JOfKj2rfhfeGO1MLnSzQkPHIIi6LIOUUallIuU4/whthZLGV/izKsAEvi0Zl9MgSw6IY/8YBrjjaooecHJA7xw48ZGJpyxx917VBnrHXAlafYCZuxs16zvVhHtrSJxf44qE842At98E4jFsb+8R1reKxTr5yxBydjJN4PBeM5U9Me+Nxnvmzln441ty4uAnWNrqB1Scabmh5Q8wbHHgjjNRZdUPFPm/UNb5N8KtOfSIib3x4k6438ZpvxsANnFxGLZ9U0PGJsfIxws8nhpHcGMUa+a9rNe+Up6zuB9zgz5Y5ayd36tgbp3P6zC3HyPAln6vyTjzGxpHric1eZA6px3gUJ/7BSDvjQ2ZDh4ctfbk/lR9wiJnGGJtRy+tEedXHt5ypk73xYJeNvHiMbOUem4xdPjJfMd0DMM0NGfj6Urf24CUH+DUuY0kb8NwDbDMebGuu2oKJzPjAUNf41SUeZObPOGMkBhqYxkrvOjLiUiauvWcDHX2onzbun3ZL/br4kzMx9Od8qRdb3uiNEVzH2DMGl2aO5qdc/XV7m1gzYPxwf1xinmci98r41SW+JTk+U6bNqM/czdX9d27u4Jq3WPhR3zV7z6b2zI2rYlVfYKAD9hI+OpX/yhM6Yssta2AaS8VQ37jRr3yzRtMfvY3rTF/0Xp/IwclrcglXrJ3GBraxGJux4IuHjTE5Vh/I4Ue73CsxxaDPHFadB3STm8RIH6zj31jX+fSciIdtcuy6fXLEGjHrq+rUswAnaT/iTozaj/JQJzlkrfplLTkyDu2Pct+F94a7Q2GThU4WaBZCtehizsOiSgzXUzbCy0JKHxkDcrFYz6Iti0ILNnpwnGuLroWgcYClPAtB1tFRRp+FacVWljZgEK/xiGmOYjinN55cU89YMg/X6PGlHTg8nCM3DtbMX3lyLKY5pX/0eKSvxMh17MWiz/NRZciJCSz9iQtm7k3651gv3dBHNzD0udFhw4MbGr3NG6SYI4y8CWLHzVs8e/GYg7mqGQ9PGrSKX2MwZrAdo0PLJ03m654cfKIybvDkQExwkINVY1FmLMzziWTkP2MccZd+waMZk3HaGw9+bPgnDxp66UOO1cVOLHv9Z5zqZ2761g6f+l2Xt3j05pZr6Yd1cPVDn3lkfsZubMYDBpjY1gaW2IkrhpjaoeuZNvbkXz1l6CsXU38Zn3bZq1/15MM40oYx+OSbTZ6MJWWMyT3zZw1dsLBdasaYORkv9hWTecagHb2cjXyBSRzYa5P5ywkyx+5djVE79HjYwJY3xqvyRs7DJr9iu24sxpw26tCnnmPjxyY50451cc1bWfbuo7opc43e3JHLmTGwRlw8aJvsrdecPhLfHKvfjBUueaBjAyP3pcr1ZW+82tubn3rguDfKzD3z1p4+cwBHe2Seh7puvKyTa/WFrTqZZ/plXPnXpuq5bp6JWTFGsVS+Ez/3ynxSnvuvrpyuwh3lty428eUbfNZsea3IAfLcM3SZa5f7Lo/i0dccls6DsYMxau4NPRjg0jbxmXmpL8fVV8aHDB70pS4xGCdyY0MPX8rQVwZubekrMate7hvYcpU5gJU+Mi5jqLhHYd6F94a7YLFz0vtaeNZ8a5Fc5ad5noX/bnmoxbSFuMX+prijJ44Nj3qrHTIDPklmGKMnwpTvdLzqCW+nWK3fDJwWBkbX5mnJ/TjnWQshcjmO90CLjyxyjvO+nPbYt/28ftr5PC75d+G94U5tWvAcd70uvK/4JXQ72U/end5pgVzxwch34Ou73FV/aV5/A7nhMW+1I8DA6Jcm9Te7ew3zOL7o3GvObd8M7JUBCjjf9dorVtsfHAP5biVeLWDz3bODi2b3nkbPDbtHa8vDZoDn4eN2Bg+bs5PgvwvvDXeRgqgfzcFxOQMbHutWO6IM1I9j1Y997TXsLrz3ymDbNwPNwHFhwEKb+56P4/iuMc8D+dHa48J/x9kMNAOXM9CF9+VcrBwtvbPY67t/h7i52z/uVh7mFjYDzUAz0Aw0A81AM9AMNAPNwIEy0IX3gdLdzpqBZqAZaAaagWagGWgGmoFmoBloBk4bA114n7Yd73ybgWagGWgGmoFmoBloBpqBZqAZaAYOlIEuvA+U7nbWDDQDzUAz0Aw0A81AM9AMNAPNQDNw2hjowvu07Xjn2ww0A81AM9AMNAPNQDPQDDQDzUAzcKAMdOF9oHS3s2agGWgGmoFmoBloBpqBZqAZaAaagdPGQBfep23HB/ke5v+G7H9rNNiQXS7x71Hgc5Pmv1fp/yG5CVuX6hxHzvj3M+eff/5ikkf5+iN2//XPYgIHJNj2/1EfhX3U9oL/fbzuXy4dBC8jrnayxvnvf8G0E8Za96QzsO554aTnf9Tz457lc9+6e/BRz6XjuzIDXXhfmZNTt7Ktwns3OEftxeZuNt+C97BvkMZhDnC7VHTtpIgEgyfqo9I4Z+S2l18abJI/hQe+bJvYqLuurwWLT7L22yoU1r3Awt9hn9sRV/Usj3QOcq3u1374Pkp7wbnf5JpPXrZxXcrrunsOfrk+N2let5vopg747EneA5B7Nndyraqb11rFUccYjNt1etZWNXhBjz6beyNWfV5gr5Vt4ke80R7Im3gZB35dp6/cpq5jc0o7xzUPbfarX3c/Rb7JdbNf8Y1wR9fSujxGOKdljfOb59LrNK/dbXOBz7xmOd/76W/b8TfezhjowntnfJ1IbW4yoyfQnSa7G5y+weyU5WV9nyCWNS6X+KJu3Qs5LEZP3JcjHc/RJvnXJ+BNbDZlgyfZVU+0XBfbeFG57gXWUb3+dnMv2ZT73ejV/doNxjqbo7QX686NuewXL9u+55BPvpg2/lHvfZT94JF2yrx2kaGzdK0qFytfTCtL/IwHm3xervPUZawPeuNjHZ/kbwMTHWNBxtznAnHUr7366GV86InN2PulOuSZcelHv9XPaI7vJa5H+tteO2z/u8lndC0dxzx2k/tubDivS9fkbvB2auN1s5PrYqc+Wv9wGejCewf8e0H6hKGpTzasc0PLxhON+j4BKXedPp9M0gaZT5DYMfcJm3HFFLvebLVRLhbYyMDBBkwexqMs7So2srStccGJuPR5Q2FufmIod66t68ZuTsiXeEA3+Uy9tM84sEEv5aOcweVBXNhnfNgbN7a2jAX5qImbsnyirLyoB4+JaQ7Kcx/EyJiNl96Ya7x5vjPHXNefffIIdvqs+MjRpxmjcYlX88T3Kh+ZN2Ptxa0x4SdljMF3n9NXzbvGnLkaP33dY3x4HSAHp2Jrn/5r7CnDnod7qV9zM1b9EhNr7muua0OfTV3WsafJkzbENGoZK7rGaVzai1sx0je6NvfXOX3ygF/m4Kbf1BcDOX7QzThq7MlV6o18mxe9dujVeeUheSR+5slBYmX84I5sjWN0RmssxJe+3KvkRZ/JY9oQsw17bFkzDmNk3TX6tEt71z1v+scGv9nwpz7r+Kg66puTcRiXduDLtb6XsPCp77QDC1zWEt8YxM2Y5VKd7MFALiaxLzUw9TvyY97mmDjqy3Xm7Vr61hd2tZnPyE/VdS6fzu3hmJx8jDhFl3Ux1K3xgmUzJ+bGq13qqQ+WeNhik7EpUz/71MOHbROcamv++DNeenKnyUHmlHtk3tqKpy1zZWmH3HhTR7+z8/KaDBybtuYjX9jrTyzwzUOZ+uKlHblmy/iMQRx7dDzz9MSlf7Hwqd9VvKk/6s2j2teYlYthbKzbxGKufuajXu2Tq8yRnMlPOZzQ3COx6zmo+D2/nIEuvC/nYu3Im1Qqchi96FhnzoGk0Ttmjr3zvFhn5ct+sJ4XmzcHDzWHPOWJmThecK6J6wWacn0Ym7L0qR14+PTiE5+etYyNNfjgYcMHOdgYg20Mro/mib1bHsSvOTpXjq+MU7mcoGfsrDFWVs+EcZO7Y+yZJzf6rrknPrJ63pwbozj4Ql9f6Ru/GTMy4xfH+SjOmiNz9GoDK3MkVuc1T2IQYyd5gpe5VB+Zt/Elp67VHjv5Q6aN8bOGX3VqPsxHvrEjRvdNHLiyjThHtopP4xPHeJJT4rXhn7n6dY4etplDxpXP/n90AAAgAElEQVRjMenhR5+5nmNj84wZO+u0VdwhJ6bkj7Fxkk/miX7GpO9VMea+iqc/58bu3LjTt3nRqzeywzb3gtgSR1t681nS16e6zvVbr5cZMH7oK5Zm/syfdblmzfVqhx9l2OQemF/ud+aLHP2llnLzMybjS9/1PCFL/ZEfdIjJGNEZcYdOxj7C0s49QcdzmPhpqw294yVd7cTM3JXRy5XxOgffVvfG9ey1Sw7d//Qth5k3OOqmfeIvjYmT+LIZr2tiV5/IKz/mIa8VXyyxq9x1e/I1f22d62spLvXAwo/zdTjr8kcOXjbmnAFiouFLnRqnc3WrbeIyNl7xWMOX+0af+57xaWvu2LI3qa+/dXuZOWHDXFz9mBNYxocvzwN2mX+1Q05urKvHuNrNCyt+wJX+xTG2aqY/1uVGW9aUi7NJPPCSOYPhHOyc65c1m3E47341A114r+bnCtJVF6SKqw5gXviMRzcTLxrx6NNvlXNReDNJG+286MTwAk27Uczoa5txs5YXXPqsOF749QaSOTAGv2LmjUgf1c74kGc+6tMbb+qynjmpL0fMc5xy+ctcM88ca2dfMVfpkis+aPjMJzHxqsxclae/HCNf5Rt5cl39j2yTD/2P+tSruKM9ESN1a571rCAnXxr+yIWYs41ySDnjTTgjZmKj1ThYSx5npct+1FxTz9jc/7Sr41V8opsx5Vic9FtjQmcVB+SNfW344bGqjWJJ/5lXxan7j1zO6Efy9LcKG6yRPGPLsbElT3ACBi3P7SZ2xE5LvHlhB3uZPje1VY+e2HNfk9vUY5w5Je8jm+R1FCM+saON5Ok75et8YZexJc6qMbnlXqLLOco4WWPOY1XTzv1FV561p8dnNmNAxplY18RchQOWPIMHLms2fYK11OS8xlTjrHk7Ry99Lvmp69iz99nWXSupm2fQdfKVr4pfz02Vi2GfWNUWHexX8SpOnu91OOvyTyzxax74cC/X6VdbMe1H8SZmjdezRD+y9UznmcXXur3kfIFnS+zcJ+X2q+JDBzn50DKGzFGsdVyN9JIP5dkTu/4ZEwN+aOS46T4mZh1n3JvmVfmumD2/nIEuvC/nYu1o6YL0ScTegw8gY9fpuVBsjJW5xrzeYPIiQJ43k9FFIZYXKHhg0Bsbcy5YWt48tM1cN71hVRxvIGLaJ7b5G5c6xKcse3PfCQ/Gj405J/eJrzxjNKbkOvfEPOkda5M9mOnLMTa1ER8PWo2lcsOcZp7zpNiBIXfIjVPf2hoTvfqZd9qmLmN8jFrlWj24xs7GOr5sm+aZe4GtuYijn8yp5q9u9sTjeWB9ZJP7VOOVH3lM7LRjXV379Jt2jJf4hDtk2ZIbxhU3OakxgQMHxpS95wafrruGnVy41xmT8hpLnjNkS7bwOZKZS91//Xm2VmGji5z4syU3lX/zN5/UJc5cVzd75caPX+zquUnc3Ffj1Cb3JP2Y/8hWDHriSX4996njOGNK3rVJ/4zFzb0WK/MfydWjT7m+8vzVM2JsqZN4o7H77P6g47lOHHMcYbimXd1T5fRwA5b+xMUX+TpPmzrGFj1iX2rmpY7ciG9vHCMcYkLP/VRH/2LYj/KWE3LbtI3OLjFUfHIzv8Qmvhoz/tWt+HIjRpW7bp9+qy06q+yRyRc9c9o6nHX557VinDWO9JFnLeNxn6qtmPaJ5Rq8mw/xJq5jztTIFow8V+i4tmovxa09tuyT+cxg8QNM/Nk86/S05DO5WMebeKM+caq/ql+5RE7M2BGDZ3mn8VSesKfRu3fGwrzqM3dv1Ot+zEAX3mNehqvrLshqxOH0IkCWN+XUZd2DPTq86bfKRxeF2Fyg2noReYGCY1PPOb12rjmnX7q4Ks7SDSRzcEz+coBPxsZsDNlr59oqHtTxpk5cS3uhrvk6p8988M+8rqdO2jIeYVYd5xkrvmx5VljLvLVRN/3lGHnG6Tj3NflNH9VWX0s9tvi25RlhjB8fuf87ybOelcpD+pZLc6Zfaqs40ybPUY1DnVGfdsiT75G+a6v4rPuETcaUY/HSb40JncqBdrWvcSnHJ7i1jWJJ/3lOqu1of3M/Hadd+luFjc1InrHlOH04Nr4axzq73IsR75lDjvWr/egcqEM/sk2516Vr5kFfW+Zk3uisskE+itH4l+TpO+1HvuoeZmyJs2pMbsQEls018GzowOmqhjzzG+mSEzr07gFj2yYY2hHnUpOLpZjNcbTfYsp53tuVZW/MueZ4k1jVtQcvOWF93bWiLT0+a8zkK1/0iS9XYoz8K6NPrGqLfMkeO2Q2YnC+Dmdd/oklfo0jfYz0taOvtiljnFjKEnMUr3ojW2X0nhnHq/Zy1fWW+5T4jGt8nnWvh5zjw/XMsWKumyeniT+yUw5XnhHygRvmrNN2Eg85o2/LeEY4Kdem+80Z6MJ7c66udEFiygHk0I9aPZxcpCPdPNjI82aSNxp81JtJ2o5iQJ84vBjB58GabfRkVG8+xpWxaW8/umniJ30Rb2JkPoyR02re+rBPO9bW8YCONyx6Y2U8ajV/dcgFWeaUuOghhy+b+dbclS/12FUs908b5MZiTimDR5r7lzI4JPYav9x7ZkbnA5+Zo7i1r/sif8bkfle7neQJZuJUHsSu6/UMqWdfcStP6GWc8qb9qj7t0FsXi1ir+DQ/9w1dcOXGuVjkl35rTOhh4/nVbtSPzgh6I0zW5QpOaXJr7Et4s/LgGsMP+djICwyavuRhHbaxVHt80OTZ2OfF8mN07a6zy72oe1Vt3TtjyH0yfrksoc08yUWVMddXyup9yDOR+1vtiFHOEosx/nO/WMv81+1R2ptv4hFf5ljxiMscamzO0clzxDo4rJmXc3qa+1K5H62D4f5hSzxyIK5+Us6Y3NDNHFkf2aGTeuaVa9jS3EP9ym3lamn9Mpi5Mxb9gClPKMiJa8irn8TTRjxlzOHCZg7JrbIak3m4X2BlDO6J9sQoN65ln3LjSDk51/iRpx1z/KJLW4ezLn9yzpzArHGkj8rJHET8qLYhmodiJU/sj/tcOU57bXMtxylft5f4l8PEYKytZ4S5+1Lzkw91sUcn94g19Yhx1FblnT7FSX8VD/20IX7yzetAnKV4EpNcwKBpJx/0+Momf7nW480Z6MJ7c67mC83DmWYcWg68D284HuBcV1ZtEo9Drg19NuZ5IY0uitQXyzUvmMyDMfFkywuRdW94Xoypm2PzygvVNWKvfjIffRgbvpDnQ19px9oSDxVDbGwYJzZjb3Y1f/1qkzjus7boJm7qenNUXvnQD72x535XbPDkWv7EqDkw16+6xqwv5OChm3618/ziI/GQp8wYqh462NnEtU8M18ReypN14reZG3PwEidzSpm22bvX2GM32mcwMubkUb+J6bja6UP5qj55Byf5TP/6SG7gyrjID1s5Ub/6Zl0bev0lFuuepZFuxWSesWJjHMiMbWTnWvrxbCjLvUNGDvKwCXa1xxYMW8qNw/zRMbfMifVVdpWDynvik5M+Rv7x67q9sWhrLqO+xoKOOPTkQSNGedFn4uVZxU5dYq97Vn3qT5vETXuvy+SjYqe+cXuOE1eZvrOXv/SDnLkNv6yp6zxxGLuXlR/twKt+0k6ZvkfnCn3lcJgxuI6fGmPK5FaunCcWY/mu+XhOKj/ap5wY9aN+7fGT8Smv+cmvcnv84SP1K17mIK/ae8aJP2NXDi4PmrrK6JfiRyYn9GDI6SY4mQ/2NX+xja3GUX04146etXU5INcWXrXX7wwweF5237VVj77mZhyb7CV5GgO9nIKb8emfdffcnD3zyak69QwYf/o0XvJI/5lj7sfIX+pm7GJrU3leFU9iVj1wvC7oR3Enf+abmD1eZqAL72VuWhIMeGF7oYeoh83ArhjIJxsBfLJz3n0z0AxcmYHRtXNlrd2v7Df+7iO7sqXPTfRL7Tjls5RDr++dAYu1vSM1whIDFnFL8m2tH7e97Nc229r544/Thffx38MDyeC43eQOhJR2sicG+C1z/sZ4kxfQe3LYxs3ACWFgvwtJrkt8HIe27r6xTn4ccuwYt8NAv47ZDo+rULrwvjI7vDtc342+slavnBYGuvA+LTu9xzx5EdY3jj2S2OZXYMAXxH5MqX8jfAV6etIMLDKw34U3jo/L9eh9hH7U+kXviJXTudaF9/7vexfe+89xezjeDHThfbz3r6NvBpqBZqAZaAaagWagGWgGmoFmoBk44gx04X3EN6jDawaagWagGWgGmoFmoBloBpqBZqAZON4MdOF9vPevo28GmoFmoBloBpqBZqAZaAaagWagGTjiDHThfcQ3qMNrBpqBZqAZaAaagWagGWgGmoFmoBk43gx04X2896+jbwaagWagGWgGmoFmoBloBpqBZqAZOOIMdOF9xDeow2sGjjIDfGPwtv7tEN+av1/fnH9cvqH5KO91xpZ8bnPfEjf99fhkMFD/heC2szqob1TedtyN1ww0A81AM3A6GOjC+4Tuc/13M/7Llfy/yfuZ+kH7IxcKAF7YHYUG/zstSIl/ZCOX9OwfxUk+eLFpI/9R8bLpC95V/25l9KJ2XeGN302L6U0LuFUxykPtR5xUnaM+l//c74OKmX2GQ1vyuWrfVsnEyj5xc30nY68XsHjU8yePysnNZp7K6FOuXvZec/i1ja5TsNCtjWse2Sb7Si7ogp+NNR+je0jqMla3rm9zDm81lk3vQ7uNw73VnjzX7Z+6q3rPVO5x1ceXezjaf2XVrufNQDPQDDQDp4eBLrxP6F7zgmcbLzhOKD1HMq36otEg8wVsLTp9gecLQl7Y+tCeftMXvBU/MUbxZWypu5vxpkXaqhiX/OaL4iWdXt+cgeRz1b6tko28Je5Ivska9z6LHAsmzgxt3Xwn59lrz+vCa3ApxtE9GQzWN8kbP17b5oMv1uDZVueu05Ofvuj3s4243PQ+tNu43Ivd2i/ZeW5W7bG8gsH+kKvNs7LKXt3um4FmoBloBk4uA11473BveXL1kS9+eOHjej4BA8/cJ17G+YTsiylfECHPF1HYV+wM2Rca2PHgiR185/RgGwf6NDBZT11lyDNesWpc6GQu2OWLLewSM31VrDmoy34kF2DYwAIjY+NFqy19s1Z5AwtbWmLUOJGz5mMp1mqXL86wSbulnOZg4of5xdKZnFkbcZ42jonNXLFzPXFH4xG+fuXDnnU5T67TbxYbrDNPXextyZlcplx/+qcnL5sFjPJ8kcuaZ9G9UO58yY64laU//dpnXqmX9hkHdu6L+MSSZxodeZET49Y+bUexIB+16ss4U9d4kWVOrqNrfGnHuO4HejT2wZgTB1nO3RfzNT5t3c8ZdMUP4gCLVnNmjbjkfCRfAT2LRvtSbczZXJSTi/br8oF/dDwzYIgrHr085Vodj+yqjnHJN7g290aZ6/Zwqoxefo09ZdrQG5fy9Jl6jNOH+Nqrqz/naYMPm7nKXcYspjHR130Eh3V0aeDgO1uNJWU9bgaagWagGTgdDHThvYN95onTF3CY+cTKk7lj1n3y9smZJ+SUJ45P6mDQfAHgEzj+0jZfGFZdbMTJF5szcHlh4AuQkZ+Ki64vbMQaxcoasfpiKV+IYK+vip+Y2JoD69g5xx7MjIW5e5LcuAdijzgnDpq4I13WMid16DM25umfmI17VU6JVzGY19jAyvOATsbnmFjgxua686V+hK9ujYV1/WBHo0+/cIROypyL5z4kZ2CIORvHj1GM+MlzYVyagYe/Gt9onvxil3PGxi82vbnkWq6bY9UDL/lSrj4Yxs4aY2X1/Bkn8TnGnnlyY4z6cg7/2LFOS3nl3JjQy30Ty77KiL3GlnNx674Yi7k718+qHnzwaDUe1pIvxsTgI2Nb8lH3ZaRX9wod1vBHM++RLWsZd+ZT9wVduZGrEaY6I5lrxGTL/dgkX+xG547YEzd5EZfYaM5HeeSeoQs/2NW8kqtqk/HpK68T4vTcKB/FMgdb9nC0LxmLNt03A81AM9AMnC4GuvDecL/rE3qajV405ZNslfOEzwsF2giXJ3+f8BMH/XwBkC8cMh7G+aJOWcaRL+QSl3GNafQiQsx84VTt0p/69jUv12ufOVZ8dFO+NEYv882x/oxnnQ/16eGFHG1iMB/5UC/jdM0+95c1dMGy1b1AvhQD8SCnZWxijfqKnzqbckM8vkDNczjCJi5waXKGPbpLreJUzrQDR2zG4NNny/hcr3ZiIK/7oY3cpC4yc1KPPvcix+qw5r5lrplnjrWzr5jrdI1ZO31nrhkHfpKjUY7GskqGjrypv7RPIxzj1XbUkwN6thFOzU1demw5I6vaKn6xM0f0bNVn8qmOvfbOM++Kg866eNCpmGIv9YnpGN+rGtxX7jJ2bMFQZ6Q/uj6xqzjGUfNKvRyjbx70ORaLs0JMVVd57XMP676Ag7xbM9AMNAPNwOlmoAvvDfefJ3SeuEeNJ1SeuLPlC4Z8QkYnX2DUFwrI0xaf2NcH/sDhxcGoJYbyjKO+AM0XHo6JjYYueKOWLzAqZvoTM/NYeuGGr9TT94irpRdurINhg0dfRBFn4jvGRh+u2RuDePbIsdHO9crFUk7qZ4+usRI32DbzMi76bOijQzMmuM/11K9jbNEdNfFSlmfZdTlhnrmMsDOu3JfMWVz7iuPZUm6f2PJVc6v7op7+MxdwR/nqT36wcQ8yJ7FTnjGKkz6SP/Okd6xN9mCmL8fY1EZ8+EOGL3o5Ym4elXMw5aie9fQxkuHPmOy1cW4Mrq/jUb3s3Y/Meyme6k8c8iamVQ18dNJP6uMTLrOhL3+s13nqEpv7wHrO674gH+WdeKlT13Nu7sTmwxzNmXX2c9TyHCvP2FnL+EfnYgkfnORPfHN3nv4Ym0f25GI+5od9npWRXB/2YBrTiDv1um8GmoFmoBk4vQx04b3h3tcn9DTLJ1zX8wm/yvMFyQg3X2wnjtj2ieOafWK4lnHkiwrk+cLCMfo+xBj14hKrLzzQc90xL0ZsS3nVF6mZ44irlOe4vvDJF741d2OiH/lIeR2LhW/GNteZM07/Gaf62ftilFjgKZuyXMtx5RW/+K/raZPjVfgjbka55L7nORxhZ1xyhh4Y+SJ4VYye16qfcTgmntyLjC99ONbO+ShfZfbyRDzmpKz2mb+yzCd5yPUca2c/wlRWe/eEntxo2IuvvnrOk5dVOVaZeyuOXDkXt+5TxVF/qReXPtto/1Zh17wTy7Fc0demLOMwNnKtD2LJpn3VYw5HYqXNJjGP7BJDuTkZh3N1XUe/thHX9WxmrCP9ium84rhu3M5TL8fK7c0j88tzMZJra8+eyEPmpbz7ZqAZaAaagWagC+8dnAGeWH1xihlP5DSeoB0z50kXXVs+IbOWLzDqCwXkWQygm9hi0mvrkz29L9zyRYM2GUeV5wsL4ieGTZv51zjTX46NGz+11bjANBbt0LGBK07yik7ulfr04uSLrJTjc8k29RILG3BtmUeOkWdO6teevEZxkCvrSw2ZfKDjviZPq/JfhS9W8pacG1PudZ7lEXbGmzwxXsrT+PVHjx/PCXPiSvuMibH7S0zMl1raiZt+RnbJk7EmZ2mT+ec6PpClr8RFFzk82cy35q58qSdH/Hh+3Yf0XfcueVF/hF/PR8XBNvlPXMbu0zoe07d7OuJcHHOVU+dyKN4oBnXVEWPkj/ySR21qn3mLRx6jRowpyxjRRy5vS1zIwwiftSoHDz+jHDP2xMN35bPGnjrmXflNTMfwmtjMsatxpz9ySBux6PWd+YHJw7aU50ieeSnvvhloBpqBZqAZ6MJ7B2fAJ2eegOuTMC+uXKfPVnV5AeCLsfpCATtkvnBizpN/YueLB19YKdevuKyjQ8s46osKc/OFR80nferDXl8Zc/WXcYIFvnGJY28u9MRZucKPOvnCKHnVv3pi6SPjUcfcR7Y1N3HoyafyU/nVh3GYU+LkGHt0MybkxF19pR2yyqt8sU9igD1q6/A9F8ZQOQcTbH2hL3cj7Iy3coZsiSdk+Em5a6wzzpYxeV7lSX7Q8aFt2rE2ytd1benFRsY4ZYzdV+JMXf1qkzJs0hbdxE1dz4/yyod+6N1T10a+WUsMcN3jum/i0Bsz+p4D/bFmnNokbt0n40LHhzxqT0+cyrNXp+IwtxmPdsaM3HjMu+JoY0zmnvj6qT224q6zq2dGff2Tg80YjWl01rEbteTCMThi6i85qjjqGFONHaw8V3KsHb28VOx6jpBrr271Zx7i61sO5Ql7dI3buXbiZ5+x1rxSr8fNQDPQDDQDp5eBLrxP794vZs4LqSxoUGS+6gXWItgWBfVF1SroUbz5wmiV7UmXjbg56Tl3fs1AM9AMNAPNQDPQDDQDzcBhMtCF92Gyf0R919/0E2Z95+AwQt9J4V3jHb2jcRg5HLZPOPRdnsOOpf03A81AM9AMNAPNQDPQDDQDp4WBLrxPy07vME+KMz9WR3/Y73YT/k4KbwvtzAH7bs1AM9AMNAPNQDPQDDQDzUAz0AwcNANdeB804+2vGWgGmoFmoBloBpqBZqAZaAaagWbgVDHQhfep2u5OthloBpqBZqAZaAaagWagGWgGmoFm4KAZ6ML7oBlvf81AM9AMNAPNQDPQDDQDzUAz0Aw0A6eKgS68T9V2d7LNQDPQDDQDzUAz0Aw0A81AM9AMNAMHzUAX3gfNePtrBpqBZqAZaAaagWagGWgGmoFmoBk4VQx04X2qtruTbQaagWagGWgGmoFmoBloBpqBZqAZOGgGuvA+aMbbXzPQDDQDzUAz0Aw0A81AM9AMNAPNwKlioAvvU7XdnWwz0Aw0A81AM9AMNAPNQDPQDDQDzcBBM9CF90Ez3v6agWagGWgGmoFmoBloBpqBZqAZaAZOFQNdeJ+q7e5km4FmoBloBpqBZqAZaAaagWagGWgGDpqBLrwPmvH21ww0A81AM9AMNAPNQDPQDDQDzUAzcKoY6ML7VG13J9sMNAPNQDPQDDQDzUAz0Aw0A81AM3DQDHThfdCMt79moBloBpqBZqAZaAaagWagGWgGmoFTxUAX3qdquzvZZqAZaAaagWagGWgGmoFmoBloBpqBg2agC++DZrz9NQPNQDPQDDQDzUAz0Aw0A81AM9AMnCoGuvA+VdvdyTYDzUAz0Aw0A81AM9AMNAPNQDPQDBw0A114HzTj7a8ZaAaagWagGWgGmoFmoBloBpqBZuBUMdCF96na7k62GWgGmoFmoBloBpqBZqAZaAaagWbgoBnowvugGW9/zUAz0Aw0A81AM9AMNAPNQDPQDDQDp4qBLrxP1XZ3ss1AM9AMNAPNQDPQDDQDzUAz0Aw0AwfNQBfeB814+2sGmoFmoBloBpqBZqAZaAaagWagGThVDHThfaq2u5NtBpqBZqAZaAaagWagGWgGmoFmoBk4aAa68D5oxttfM9AMNAPNQDPQDDQDzUAz0Aw0A83AqWKgC+9Ttd2dbDPQDDQDzUAz0Aw0A81AM9AMNAPNwEEz0IX3QTPe/pqBZqAZaAaagWagGWgGmoFmoBloBk4VAyei8P70pz89XeUqV5nouzUDzUAzcNoZWHdPvOCCC6azzjprVzR99KMfne+3uzLeo9E555wznX/++XtEOTnm55133sRjqbHH7PVuGrY8r+72nOzG5zZs1nGyFx+Hefb3Enfb7o0BrgH2/rg38tj0dTL32poz19a6++9xvW9sY2+P4/MT+8l93kfd873ysu61yF7xj6P9gRbePmntdYO5sPPFxHHfWPjIw05urG16gzzqB4/9WvXicDfxu+d5DnaDsxObeu60zf0jHvSyIR89WbHGjbq20QtH1sDxYd71mlryhQ9186xV39ueL3G2bT/i+SQiP66bu/zRp86I801sEo+x59w4Uj7aa+Pbdu/1sXQPGZ3TTWOQl0310RvxuxN7dXfzwsZ46Tdt+Mn9Yh93Yr+pn53qua+e3XW87vb628v5WMppt7Es4S2tr+Kk8ufZWMKq61WfczG6t6fd0n0+dXY6rudzp/bo73WPcz/lJe93ntHdxHaUbMgj7wXE5jmCg9rQ3wkPPlfUc+R6YqVO9eNzT42HOXEipxd36bnBs0Wvrvc++lHO+iSmVXL1Nu09V/pfZ2fM6/T2S37Y/neTV+6XZ2rpbHjul84k/isH2ixh7ibmTW08v5vqH5TegRXekp8XEBu0m8ZB4YDYxD6MjTWGvfQc4uRlL1htu38M1HOnp9y/+sSDzdITIjeF0TVQXziikzdH/DLnvPvEZCxeC0flPC1xZrzb7uW78lp5ci5PlXNv2MqNk732PlNt1KFf2tvU2c+x58BYq696Tqt81VzuVulU2Sququ6qOfsKtwfd8ho/aN+r/K3jdbfX336c393Gsir/kWwdJ2mz07O8U3187QeXmcNux3u5B+Az97Py4pz+uLd6z+F8mTt9tpp3nacuY+4rno96X3O92jAXN+/vYOXr4mqHTH9VVufik2tt5Ix81FbFPNLf9lrdq23jr8M7bP/r4ttEvvRc55moZwz9PCeVg3WvRTaJ6aTpHFjh7abljSLJdHPYRB5s3qgpt+cQaOuNZWTPDUEb+qU48Jl6YHpz1U/a1if5jAGcvEGhKzaY4rmmvlxl/uinnjIx0u8Sd5voJg7+fDKoMYmV+dULzhjreuYhvrqjXt/a6ZO5Y3DgF1/qkUu25DD9po17nXaOkVVMZBkHcjHA5bHUiGEkzzPlfixhyE3Kl+J0z+hp2sqXXCYWsRAnmEt6KUPHpr79iDtjGumYhzL6VY34sRHTPLEx17SHe89Bcq79iI+0T5tcZ7y0t1WPuXtsnul3HQfV1pzNIeVg2VjPufrGIC/qo5uypb2QZ3WZw7NzenijjXT1V+ORk9wz7cllVROLnqadMYmdGO6tturSj/RdT73Eqz7lAJ3qw3xy78A1fn1ha5zJsfbIPT/Ggv5SjEs6noUaj+vGwdxzUjlKn3E6NXwAACAASURBVIyNcRUvxkOf+64/1mziKCPP5CTjkb+aD+u2tM3rJP2gm/yO9rHynTHrC97cR3lKbrHJWPGjPhjmI55xeF7cE/Swo4GvL/rMcSl38e0z98oLOuBkHtqRCzK5UafGpD7Y+Eq5eaiTuThWtiqfETfa2YOX58d18kjeWM99Uc9cnY/6EVfky/qojfjO/ag2yIiNXh49H1UXnz7UzfxHOYLButzTY0szVmXo2dBhjj/kcJqtnmV0sSEP8Ywt19K/GOobF34qHlg1plFcYqUf8Mgj8TOXvIaxS/4rRylLX8mPnCEn92xpYzzVh7ylnTGmf+VLuYmLzWgPWCcesRmDlY0YM+b0n7bgo5v24iYeNsSFLLlhv/WT62IoG3GT+HsdH1jhTaBuSpLKem6MCaELSaOGDKJs2udmuFnoSKr6dTNcpwcj/YLjBukn40dX/TyAYDmv4/THGB+50WmHvHKBvxrTUu7py/iXdOXJ/NSX64xTDr2oR3noG3/qJV/K1/V1v9XPeLxwjdVc1K37Kn/Ek3ysim+TOJIXfRhD7esNRHnGUONTx76eFefuoXr07qeypXzSBv+V58yLMTo2xlXunqiTPdi2umfgpLzuoXb2+DaWPHPI5UVd+tRJW/Ylc0ibHKdNrjNe2tuqZ1zuiXP1VnGAbj27zt1r5+CBJT+eU/3Ac+5T7jk2FSf3RQx9JI6yyhXxJceV84wHXf3To2t+cLCuqUtPw+8oxsSp8SYfqecYeXJCnMbsnmas6JIHzZzEsl/ymevEmXPyYj7KtXLM3Bj1aV9lFVdO5bHGIU72lfd1vKRtjQesen7MpcZS806+jCF9YS8W68x50Kp+5rS0jzX29MUYOTHRpw/PC7i5p+hkTMiNTzzjpxfHPXPO3iWH4mrrPLFZs2XulRd0wDEnbeg9SyljLf1g61xs5zWPka7nH5ulfPCfsozRsb6dZz/iD7zMC/0aQ2I4HtmBw777qHuFjWuMeaxr6MvNOl3wPCupu4q3KpO/xMmzbo5wOWrutTHDJfbiYS8H2BMza9nQT/y0r3jY1ZiwxcaWHJqf8Y38Y4de7k+eCXM0J3rkNHxlPuaa9ugx1ybHM8hlP7BNHlJmjslNyhmvk4ldOTC/zB8s9fWtP+bmqd+cy7n65Is8+XO/Eqvaae+6e+hc+X70B1p4kwAkQQoPE+Vg5aagl4TVxOsBcmPF048Hth4E5Ph3o8Qf4WQcI3ke8hyLaaxuZvU5ikVdZDkWM+PIsXLiMHfX6NfpjnjKnBKXMdy4b8SZF0f6TVzslvTSJsfoY1db7uHoDHnGRnmLlRisjfhW1710bp8YcMKcx2gPtKEfxcw6uZpvjtPWsfHqk949Uce+8rDEq/r01b8YyPSd+srpaUucpY3jdbZ53rTJntyJiZbXLfMaq/tknJln3RdkyW/a5DpjZWBUmbFlzOnX9eQsx+a1tL+Zc+VSW/BWjWdh2XfyyNgrl9rQg09OtY3yTJ3EzDxShzG5ux8ZU9XLeeViKca0qfFWDlKXcZVnPhUL/Txj5DTaUzDRqy19jbDzzCyNway8pJ+Mj3Xiq7Gk7xwnTo4zFtZHNtWv9sbKnLHnwDPAnHMzwk1b5Mlf7tNsXOSspU6OkWVOxMCjtqWc1BvJwZHvHGuT3HkvU5YxuWafstF1ltxgU/MVhz6xqp4xwX1tI79VJzmp2OjCCTi0jIN55pBjZImFD+SrmnmMdEZ5jPYqcxnhsDayq7rkiV42zgE5rMsjbfY6HuUtZs01z+lIp+qrY++16zmqeMrVrzyOYk2MHIsxigl+jUE9e2ScK1r1r07tM66RP/TzrFb79Fl1yYmzUhtryEaNeJZk6MvzEgd5DVYORrb4Im9a1Wct88vxbHDZNS/n+haP3lySZ/nUTix01XdNTOfb7g+88DYByIFQNiWJUi5JzrOvpCxtrGSysfiqj7oB4qSv3Djl9LbcNMbVB3MwaOaUa6wzz1jU04Z8a9NmXUxpt04XnoxVO/aGdRoyx8ZED+5oD8XABrkteXJtXY8fctY/+nLAOOMUS7l5u549OqNH6jgmhsoPMv0wRo6ee5j7Ko79KGZk9UwxX2r/f3vndhzHrUVR5aN8mIg/FYty8LeyUAwMRLc2r5e8fQo9PTNsjtjkQhUNNM57oUeF46Et4rQ8jJoTMjhkZqy4IsvcueS5fSR27OdoHlvMsAmvyZ/8pi1sse15ysgz+xlw6ljEibzrzLms6sIndm3TuWS9dbZTLz46J9bkvcdg2pP3zDVx+7yaV9bE7Tm+M7JHzfjJ3tZIDpH3O7hiFUYdD5/Jp207Tvax6ZxaZ65XLFY5tt3MNzHDb2tMOTGjH1+ptUfzzz51cX7oUitnkf2ONfPEV/xnxF+v8dfziuN8f5Mffl4cj3d8lQd6zJ1L9q7hgm3m2OcMkkfyywyX1EMdMxfOAnnz48+FjtNseh2dqT9rWp3jZNmxsl7Jm018RqfHrJGaZn7U3nVwjpmTf4/W63XrsO7aids28EafeRU3MtjhI88Z+MYeXZhEj/cAXWLja874ig9k2CDLvJXrlmzrrKilffd6Zddy4iXXDM6Vs6Runqftkc+JQR7T73yX+z1Gt5lOfXSYqZOzme/9lE+O5MoZM/O+TH+Ju8opdmGcAWt8tWzGp47MidU2fPYSj3xaP3HQ6f2s20+v0etY7GWOv+jP9zGcVjlgC2cYsM8cn8gmA2w5w9gkFvGi3zWwxl/7Jl5swy0+Y58ZVnlOPRn9ruU5PvGPTnyx1zNyYh45/7HGO0UAdPWiT2BddAA3lGsONjH2xsrPzCM5R4/RL1Cvka9mDh8/cEAXeZ57jbzz7DXyrTz2dOcHJv7aF/bJKbrIwyjP2V+NlV9s8bOyW+3l7DnL5rZ6h5CTd+Y50Jn7q+dVHdN3vy/JKf5XceO/dTtex4lOfGyN1fux2ov9zLV9Ntfe7/OfPlZxZoz5WW3f2MNnz3aLV3yGWTjNH94vYnX8Xned6GbuMfNrm9bLevU+Tp08X/IR+eTXDBIjckbLZq7RafnWGl89h2mzgE/rrNb9Ts06E7/f6/bZuU2/fDb4bE356nnFAr3Okb3MM9/JoHWznvKuZ/qK/tb7kfqiP0f8h0tGx1r57ndmaz39z+eZH9xbr2P3unV63blkf2Uz47Y9+pnDN+can1nzOV/5neff/PqciNVy9pin/qwJvT7HSzVFfyVv3r3GPyzmc3xFxuj3Jnud7+pzdql2fDK3r8kFndW8ipuc+wybycp3M8k6efPD5ySxr60n8VLPHPEVH6uxVUfzj13nuvJzrU7Hm+cfH81sK84R+53H9Ddz2Mtz6k9/87M7/U35ZH0p18Sa/rK3yon3iHh5JxnI8jzjoxOf/X51Xqt4sVu99/jrmOyt5tSXnOZILol7y9iymXlOBjDLzGjuUx8d5lWt8MtMHcmPWNiixzMzOUe/c0H+1vPDGu/AAVCKCpAATeHAyh5j65AjnweFfWZGwyQWsktz4sY2A7/ZY3ReHB76PHce2PWMX/Tis2vHDzadU/YSjw/T9IWcnPCReU8XTuSFfvJhJG7zj01i5Sy3Ruu3Tt4H6iB2y1fr9tUfyPaFXcsnwzxnNEvstubE4J1FJ/lQQ/ZSB77zHP/9jF1m+G59LtCNfcfIfp5jP9+VyLZqIl7mOeKv80AeX/lhTB/JreUz9pbf+Ju5T77xHZ6MyZZ9cur3NDLeqchnLGyZZ5157vcnesTJnDFt8JU5tcwzazlr8sIn+8yXGMwYiRf9DHLtHCLjjCfL1NqsiZ85PtpPdPOzN2JDvJnrjA/v+CR38skz8dtn1uzHruvr3PCXeY7217J5tvMcWjfr8IB9nuM3PjI4434/t3jPuC8ORsMUW3zBjecw67PpvHMGnSO+V/PqvOIXhjAl7lbe7Xuyjm3XEt08c+5tm3X0k3/XkHVi855Fb+ZCruTeMacM+36vOg9yZi/xV/l2DpF3ztgyJ/eumxjkO7nFrv3nGZvEyZrRtaJDvjyjmzl+t2pvvay79pWvqc/zisesJ77JY+W7maRGWBGD+dp6VjnFxyo2vlc22et8sCe/5E1d+Mnc9bA/35n45T3nnUE3c/RTb0bmad+6vb5FN3aJvaphJaP+zIzUEU4rfXSY5+czuVJjdPbk0el4+GWe/rK/qi8+UsOMx3lT3+ocVz6jx/lMRnmmxj7z+MEm8q0zoLZVXGQzz9SMb3TmPGuNHB6xZ0ym6GRmtA5+kc0Z9qv91AF7fDaX+F7V1TnBv/PrWPEX30eOhzXeSToAApGfLpTikfVBzoI5KA6kIaLLIfAcf/hmRtYzvtCZB9d5pp747UPp3PARnzN+9Bgtiy4xkGfGV+Z+scg3M2PWzv41up1LYiWXHsjZx2czaP2sk2/sMuY7gG7klz4g1N+1d36xb1n8tpxn/DT/2LGfefohx8zUj/7Une9LbFLXFh/44S9znyWxZ47kz7vS9iuO8UOszKyxm3UQd75L2GVm4CPz9JM8kfPOYJc5/pGzxnfqoM7orthmf3X2xIjvyOHE/pxnnZF37p0jtuSLLDP1z/cksq1zWcW5lkF8Ej/5EINzat/kRm3o5hl9fGWOLaP3t1hOHx2vZWGTETl+YUk8YiCPPTbY5zny2LLunF82q7b46Dxi2zminzk+8ZvnPk9yaf34ap1mG70+h+h2nnnmB7tZf+cS3cgzsp+4scMHssiz37Gij15m4r04q3/E52TT9XUO5NE5lqvfy2ZAjr0Xn53rb8NaRKfzop4+k+x1Lpw5OjN33sNmwV50OybnQkrNF93M7Su6yDovfMC6YzaH7Eenx6wxssSccZtvZPHVvrPX9cVP5zFlnUNs8TW5tN5cx2bmGR0YZU59ySNj5buZdI344P2K/VY9c5/34yVo/SM+219yIw5z13Ppc5KY+WFg3zNnPeOwj+3Mv/3GtnPCZjXfohv76OdnNZJj5xGdeT68M5Gt9Nvv/OzO2FPOuxKexEGnGSOb/rZyii3vQHLGV2oNZ2R5nudEPdHDLnH7fCYjbGbuxIk8sfCXGe4dJ/sZ0w+6xEnOnQ/7c26+xIYluq0TGbEzMyb3ZopfdPPcdbNP/TzDsPPJmrpmjKlHXGbyjf3WmRL71vmhjfetyb0H/T6495DPR80hL3d/ED5qndYlAQkcT+BP/zm9dTk4vlI9fjQCudTNi/BHq/Gt6lld6o/+syBnc/TF+614PMKvd7VHUDbGeyDAv0Q4Ohcb7x2iR/8hvhPuU4rD2IvHpzx6i5bAIQRyGVz9W/FDnF/hxMb7CkiqLAnYeC+xXLW5uhgfzdP7yb9HseL9r9SVBD4WgfQl+fwfPWy8d4jaeO8AUiwBCUjgkxOw8f7kL8Aryj+6UXxFKqc0DT9+PTRz/iXc0cPP9/+J5leEw9shAQncT8DG+352WkpAAhKQgAQkIAEJSEACEpCABHYJ2HjvIlJBAhKQgAQkIAEJSEACEpCABCRwPwEb7/vZaSkBCUhAAhKQgAQkIAEJSEACEtglYOO9i0gFCUhAAhKQgAQkIAEJSEACEpDA/QRsvO9np6UEJCABCUhAAhKQgAQkIAEJSGCXgI33LiIVJCABCUhAAhKQgAQkIAEJSEAC9xM4XePtX71x/2F/ZMv8NRf5OeN4y7+y7oxcnp+fX/56mMy3jtfY3hqr9ffiHnHGezE6n3vW/B2t/NU8/rUx91DURgISkIAEJCABCawJPLTxzoXulsvc6qJp470+yEftcjnveGnu3uLvzuwYvV41Ma9pMJ+enm56LzuXI9areo7wGx+v4fKaHPI+pK57xupzf62f19heG2Oltxf3iDPei7HK65a9fA4SI4NY957hLXHVlYAEJCABCUhAAp+BwEMb71uBcvnjMhh7G+9bKR6rv2q8j42w723VxLymwbTx3md+q4aN93+Jrd7Z/2rsP63+PNy3ul/jT38u7s9cSwlIQAISkIAEJPD+CDy08e7LOJdIfq1xfrNCg4c8c2xovNNoIZu2iYMsl0dG9PKMLd++Zx/9zIm9Ndp3/DCyjr+W4yey1o3N1qU2PjqX6MKCWCv7jos9/8KC557xlbxW+5G3z+hNTrHL4EzwOc/20hnEB+cQe2olJxjie/JJjhkwTqyV7ZbfrnHmQszM7bfPsve7zuQZvZbP9xT/2U8eXVvHmPGpGfueu87owQWdlqfejnNNzs2r68V/ZvgzU/el2G3P+9Pv24zVrBKHdx1bnlNfdK85h+hEl0G+PKf2zilxGcRteZ9T9vs5dvDJPGXthzjE6NqQkUfmmXf2Zm0du2vGD7GSh0MCEpCABCQgAQlI4PUE/ljjPS+Cq1K4/HHRjA4Xbi6EXFCxj99uJjoOun3R5JJKDJ7x13N8RZ5BbjwnZi6zPCcGl+npE1tiEmNrf9pHv+tK7Dyv8so+PPBD3M4xtnnGT69fHP/zD3z0XutSA+cTvXAgh3kG+COn6LZtx2EdOWzZu8Q/vlt/1t0s8ddz881+9OMz+51rzp/nxOjn7Od5NZDFJmMynPHznJ/V6JiwRZfnzIzoE3cv536XYn+J2zzHvdjkk5n645/RdcELWZ45X2wzZ6T2lS1yfGSe9ZAzOokRX4zmQdzOOfqw7xxj39zzHDtsiUuOsc3ZECNznqmZfJix5xn/nHNyIq/WyZoYM7+p57MEJCABCUhAAhKQwG0E/mjjzUVzK2UugZkZuTxOu1wSo7PS7wtvr/G3uoTmQhvdvdF60w+54KN1VzVED5sZe+8iHR5cquOnY/U6srCKv6mXZ+Jnjr/ozrHKpevpNbbNvdfIk2PntNUUoL/ysccf28yzhsmvdbNuZlPWz+1nxYH3tG2y3qtnxp/542/Pz2QUu86z1/gk5343kK3iIZvv3V5s7DKvYsU++WU0Z+xgNG1XcWdu+Jh+J+dpl/pjkzHjZq/5bK2J3bFWOXeMyJPL1mhf6HRtl+xTxyXf+HOWgAQkIAEJSEACEriNwB9rvJNmLoO5MG9d9FaX2a3mIJdN9OOzf/Dfl18w5RLauqyjO8fKP3rzsoxu5ozOO/lgdykGjcY1F+nZAMQmI/vJLQM/5JQ8qLdn5InPPnv4eHH4zz+6tqyJh07brM5g8iAvasIP88rHNfyphRl/iQNr9nqOPvX3ftb4YsZPM8EmOpwLe5lX9TRHfM+5feBnMmsuWZMfth37Us6pf8bPc85qNeaZ7sVuH8Rq5l1HalzlErbTtu2IEfvUPcd8D/q9je6sqdnNuNGPPXxaN+t5Tm2/YhV/6KT2ad+1zLwjm7UlBgzbNjHIufddS0ACEpCABCQgAQm8jsAfbbxJPZfCXATn4KKZmXFNc9D62GXuyy/7q4s5sjnnohofjL6ITz8zd55Xl2L89dz6rFveF+m+RCfHbq6ixwX7Uv7te67jj8v4Kv8+k17jp7n3GnlzZC9z9rsWZCsfl/hHP7UzZg3NEp2eYxubOWZ+7WfFYcvPXj1bdjOfPT+TUew7z17jm9i8g5mvGfNM92K3z1Wstm/ObZf1tG07dGdu7Ee337f5nky75j3jxmfLt9bE7lirnKPXMZJL9FYDvZZtMYuPyBwSkIAEJCABCUhAAm9L4F003lsXzZTOxR8Ml5qD6OQSuXUh7csv/rjw5rK6NzoX7OIzY9bA5bf95rJ86cI843e8rImVOc80CfGZfFYjep1D68Q+tnujua3q6jNBTq7xnRjk2r6IG3nrs7/VLMAevcyX+M+Y0Q0XxrRlnzl5dHOSdersvKmbOpsJfhJzdU7Jr88TX+gmv46PvzljB0v8xj4DbvjNXuKiv5dzcsDXjD2fowuLa2K3PXVkZvQZUReynqdt7Jr7Jdvk25+HrGPL6PPOXnyhT9w+p8hg0Lqx7fPOc7MlR+rPc/wQIzPryFajzxV/5NL62euceUeI3bquJSABCUhAAhKQgATuJ/DHGu9cDPnh8roqg4tzdDPmRTF7kXUzEX/4zkyzkAvoKhYX07ZZXTxbL35yYc1eRjcGeeZi3H6S+8z1xfiff7T/6PVFuWVc0pFzWe78yavtkDer5hs5fBID/cxdBzJ055nMfMgzZSYf7Kg9z9mHGXETZ2vEJnro7PEn59hQM747X7ghYyZe7Kmn7fCLbDKJn+g0e3wnZvIjr46BTucfOXUjZ46vyNFJHvHLaHl0ut5rcm4OsW/fxMjccai592bstuU96HcucTpWco2P/omPaYtd500+HZN165Fvy5pX1tHPIC42yavPqHVbn/y7tsi7vhkDLsRa1YOMPOI/PjO6xsh7xFf2iNEy1xKQgAQkIAEJSEAC9xN4aON9f5ofw5LL8NHV5KLcl+++PM9L9GwAjs5FfxJ4TwRovN9TTuYiAQlIQAISkIAEJPD5CNh4P/DM36IJ4Ju2/oaK5poGvEtcfavZctcS+EgE3uIz95H4WIsEJCABCUhAAhKQwGMI2Hg/hvNLlHz7nKb46ME36fHPDzH6V1Yj49dWkTtL4CMTsPH+yKdrbRKQgAQkIAEJSOA8BGy8z3NWZioBCUhAAhKQgAQkIAEJSEACJyRg433CQzNlCUhAAhKQgAQkIAEJSEACEjgPARvv85yVmUpAAhKQgAQkIAEJSEACEpDACQnYeJ/w0ExZAhKQgAQkIAEJSEACEpCABM5DwMb7PGdlphKQgAQkIAEJSEACEpCABCRwQgI23ic8NFOWgAQkIAEJSEACEpCABCQggfMQsPE+z1mZqQQkIAEJSEACEpCABCQgAQmckICN9wkPzZQlIAEJSEACEpCABCQgAQlI4DwEbLzPc1ZmKgEJSEACEpCABCQgAQlIQAInJGDjfcJDM2UJSEACEpCABCQgAQlIQAISOA8BG+/znJWZSkACEpCABCQgAQlIQAISkMAJCdh4n/DQTFkCEpCABCQgAQlIQAISkIAEzkPAxvs8Z2WmEpCABCQgAQlIQAISkIAEJHBCAjbeJzw0U5aABCQgAQlIQAISkIAEJCCB8xCw8T7PWZmpBCQgAQlIQAISkIAEJCABCZyQgI33CQ/NlCUgAQlIQAISkIAEJCABCUjgPARsvM9zVmYqAQlIQAISkIAEJCABCUhAAickYON9wkMzZQlIQAISkIAEJCABCUhAAhI4DwEb7/OclZlKQAISkIAEJCABCUhAAhKQwAkJ2Hif8NBMWQISkIAEJCABCUhAAhKQgATOQ8DG+zxnZaYSkIAEJCABCUhAAhKQgAQkcEICNt4nPDRTloAEJCABCUhAAhKQgAQkIIHzELDxPs9ZmakEJCABCUhAAhKQgAQkIAEJnJCAjfcJD82UJSABCUhAAhKQgAQkIAEJSOA8BGy8z3NWZioBCUhAAhKQgAQkIAEJSEACJyTwbhrv5+fnX1++fPmV2SEBCUhAAhKQgAQkIAEJSEACEvgoBB7eeP/8+fOlwU6TnZ+np6cXljbeH+WVsg4JSEACEpCABCQgAQlIQAISaAIPbbx//Pjx0myn+WZ8//79V35svCHiLAEJSEACEpCABCQgAQlIQAIficBDG+98w53mezVovGnO+9tw9NOg80155v61dOyRR5fx7du3l+b+69evvxv/qb+VFz6cJSABCUhAAhKQgAQkIAEJSEAC9xB4WOPNr5h3s9wJ0wjzq+eRpYmmIaYhxybPaaQZrYst36yn8Y6c58gTp5tz/DhLQAISkIAEJCABCUhAAhKQgASOJPDwxnsreRrvbsz5pjo2q0aZZno24dGPbX7m+mXjH3/d5LPvLAEJSEACEpCABCQgAQlIQAISOJLAu2+8aZ7TJKfRnj/5Fptvw6cM227CGx4++5vzlruWgAQkIAEJSEACEpCABCQgAQm8lsDDGu8kmsY4TfJqbH3jTfO8+sYbP6tvvJFl3mq80Ylv4rDnLAEJSEACEpCABCQgAQlIQAISOILAQxtv/udo/evkaZqzv9d48632VtGXmvq9xrvlycVvwLcouy8BCUhAAhKQgAQkIAEJSEACtxJ4aOOd5Gig+bXwfNucsdd4R4fGHdvMDOxbllgZ3Vij33rdaEeXnNB1loAEJCABCUhAAhKQgAQkIAEJ3Evg4Y33vYk+yi4Nef/fzx8V1zgSkIAEJCABCUhAAhKQgAQk8DEJ2HjXueYb9Xzj7ZCABCQgAQlIQAISkIAEJCABCRxFwMb7KJL6kYAEJCABCUhAAhKQgAQkIAEJLAjYeC+guCUBCUhAAhKQgAQkIAEJSEACEjiKgI33UST1IwEJSEACEpCABCQgAQlIQAISWBCw8V5AcUsCEpCABCQgAQlIQAISkIAEJHAUARvvo0jqRwISkIAEJCABCUhAAhKQgAQksCBg472A4pYEJCABCUhAAhKQgAQkIAEJSOAoAjbeR5HUjwQkIAEJSEACEpCABCQgAQlIYEHg77///nXvD+6+sHjN/Pz8/OvLly+/Mq/Gjx8/fn39+nUlck8CEpCABCQgAQlIQAISkIAEJPBuCaTpvme0nY33PQS1kYAEJCABCUhAAhKQgAQkIIFPQaAb6FsKbjsb71vIqSsBCUhAAhKQgAQkIAEJSEACn4pAN9C3FN52NzXe+XXx/Eo5PwTlV83zK+XI+lfL56+aR/b09IS5swQkIAEJSEACEpCABCQgAQlI4F0S6Ab6lgTb7urGO83yt2/ffsfJmuaaxrub6dbvxjs67ee3QxcSkIAEJCABCUhAAhKQgAQkIIF3RqAb6FtSa7urGu+fP3++fJPdQWi2M/canW62Wdt0Q8dZAhKQgAQkIAEJSEACEpCABM5AoBvo5PvXX39t/nQ9bXd148232+0ov1aepnzVeGcfmzTe/Ar69+/f24VrCUhAAhKQgAQkIAEJSEACEpDAuyXQDTRJrppvZMxtd3Xjnca5RzfbvUaHb7nzzBq9PDskIAEJSEACEpCABCQgAQlIQALvnUA30J1rN9+9z7rt/ttNo7GY+7/Zjjj/p6ZnaAAAAMpJREFUnTb/TTcNNc+RR59vt2m8s591mvjYOCQgAQlIQAISkIAEJCABCUhAAu+ZQDfQM88031uj7a5uvOOMXxfP3E02jTdN9ZR34x0/adqj45CABCQgAQlIQAISkIAEJCABCbxnAt1A35Jn29n93kJOXQlIQAISkIAEJCABCUhAAhL4VAS6gb6l8Laz8b6FnLoSkIAEJCABCUhAAhKQgAQk8KkIdAN9S+FtZ+N9Czl1JSABCUhAAhKQgAQkIAEJSOBTEegG+pbC2+5/xVoj96UT+2cAAAAASUVORK5CYII=;" vertex="1" parent="uq-IiAho0hEKO2kXrdbQ-1">
          <mxGeometry x="4" y="527" width="660" height="438" as="geometry" />
        </mxCell>
      </root>
    </mxGraphModel>
  </diagram>
</mxfile>
